<svg width="181" height="181" fill="none" xmlns="http://www.w3.org/2000/svg"><path d="M51.042 141.064s-4.453 3.388-.185 7.87a.395.395 0 00.279.12l38.893-.229s3.32-3.725.565-8.014l-39.552.253z" fill="#EBEBEB"/><path d="M81.45 144.601c0 .043-4.844.08-10.817.08s-10.816-.037-10.816-.08c0-.044 4.84-.076 10.816-.076 5.977 0 10.817.032 10.817.076zm-6.053 1.408c0 .044-2.273.08-5.068.08-2.794 0-5.086-.036-5.086-.08 0-.043 2.277-.08 5.086-.08 2.81 0 5.068.037 5.068.08zm10.035 2.693c-.025 0 .087-.445.206-1.165.318-1.879.3-3.8-.054-5.673-.134-.724-.253-1.155-.228-1.162.05.095.088.196.112.301.065.195.145.481.225.839a13.84 13.84 0 01.054 5.713 8.679 8.679 0 01-.206.847 1.31 1.31 0 01-.109.3zm2.896-7.942c.068.088.126.182.174.282.063.118.12.239.17.362.061.138.137.294.199.475.156.419.277.85.362 1.288.107.538.168 1.085.181 1.633a9.233 9.233 0 01-.141 1.64 8.346 8.346 0 01-.362 1.296c-.058.184-.13.34-.189.481a2.832 2.832 0 01-.17.362 1.317 1.317 0 01-.166.286c-.03 0 .188-.434.42-1.151.136-.421.24-.852.311-1.289.087-.532.13-1.071.13-1.611a9.942 9.942 0 00-.155-1.61 9.063 9.063 0 00-.333-1.282c-.236-.742-.46-1.147-.431-1.162zm-31.132 7.993a1.297 1.297 0 01-.181-.257 3.123 3.123 0 01-.181-.326 6.317 6.317 0 01-.568-1.676 7.823 7.823 0 01-.152-1.564 8 8 0 01.191-1.564 7.38 7.38 0 01.413-1.216c.066-.151.14-.298.22-.442a2.64 2.64 0 01.193-.318c.051-.093.115-.18.188-.257.025.018-.224.394-.496 1.061a7.57 7.57 0 00-.362 1.205 8.606 8.606 0 00-.174 1.531 8.192 8.192 0 00.134 1.539c.08.413.194.818.34 1.212.218.674.46 1.058.435 1.072zm-4.203.948a1.503 1.503 0 01-.199-.293 3.159 3.159 0 01-.203-.362 4.77 4.77 0 01-.235-.503 8.13 8.13 0 01-.445-1.372 9.522 9.522 0 01-.221-1.752 9.933 9.933 0 01.141-1.763c.088-.475.216-.941.384-1.394.065-.195.148-.362.213-.51.055-.125.118-.246.189-.362.05-.108.112-.21.184-.304.03 0-.22.456-.481 1.223a9.188 9.188 0 00.137 6.205c.297.742.565 1.173.536 1.187z" fill="#E0E0E0"/><path d="M88.618 160.67v7.443H74.21v-7.443h14.408z" fill="#EBEBEB"/><path d="M42.108 164.46v.199a4.26 4.26 0 004.282 3.982h42.897v-.528h-10.18a3.72 3.72 0 110-7.443h10.18v-.789l-42.9.145a4.28 4.28 0 00-3.996 2.751 4.287 4.287 0 00-.283 1.683z" fill="#E0E0E0"/><path d="M88.618 164.493c0 .043-2.962.079-6.614.079-3.653 0-6.614-.036-6.614-.079 0-.044 2.961-.08 6.614-.08 3.652 0 6.614.036 6.614.08zm-.211 1.665c0 .043-2.801.08-6.255.08-3.453 0-6.259-.037-6.259-.08 0-.043 2.802-.08 6.26-.08 3.456 0 6.254.047 6.254.08zm.21 1.546c0 .043-2.534.076-5.625.076-3.092 0-5.626-.033-5.626-.076 0-.044 2.516-.08 5.626-.08 3.11 0 5.625.036 5.625.08zm.001-4.717c0 .043-2.896.076-6.477.076-3.58 0-6.48-.033-6.48-.076 0-.044 2.897-.08 6.48-.08 3.584 0 6.477.036 6.477.08zm-.21-1.51c0 .044-2.581.08-5.763.08s-5.767-.036-5.767-.08c0-.043 2.581-.076 5.767-.076 3.185 0 5.763.051 5.763.076z" fill="#E0E0E0"/><path d="M47.302 160.149c-.33.34-.634.703-.912 1.086a5.517 5.517 0 00.076 6.378c.291.383.61.744.956 1.079a1.537 1.537 0 01-.312-.228 5.14 5.14 0 01-.724-.768 5.428 5.428 0 01.623-7.297c.088-.094.187-.178.293-.25z" fill="#F5F5F5"/><path d="M45.85 160.004a9.62 9.62 0 00-.908 1.086 5.498 5.498 0 00.076 6.378c.286.376.598.73.934 1.061a1.575 1.575 0 01-.308-.228 4.642 4.642 0 01-.724-.767 5.432 5.432 0 01-.076-6.516c.203-.285.437-.547.695-.782a1.55 1.55 0 01.312-.232zm29.145.145c-.33.339-.635.702-.912 1.086a5.517 5.517 0 00.076 6.378c.286.376.6.731.938 1.061a1.427 1.427 0 01-.311-.228 5.18 5.18 0 01-.725-.768 5.427 5.427 0 01-.076-6.516 4.76 4.76 0 01.7-.782 1.61 1.61 0 01.31-.231z" fill="#F5F5F5"/><path d="M73.544 160.004a9.064 9.064 0 00-.909 1.086 5.509 5.509 0 00.072 6.378c.287.376.6.731.938 1.061a1.575 1.575 0 01-.308-.228 4.642 4.642 0 01-.724-.767 5.432 5.432 0 01.62-7.298c.092-.091.197-.169.31-.232zm-21.362 5.502l-.04-3.026a2.17 2.17 0 00-.105-.778.728.728 0 00-.575-.485c-.362-.167-.97.148-1.235.586a2.86 2.86 0 00-.296 1.481c-.007.799.032 1.598.115 2.392.02.378.115.748.283 1.086a1.012 1.012 0 00.923.554 1.018 1.018 0 00.807-.698c.11-.36.153-.737.123-1.112zm16.659-.868c0 .043-3.102.079-6.925.079-3.822 0-6.925-.036-6.925-.079 0-.044 3.099-.08 6.925-.08 3.827 0 6.925.036 6.925.08zm-19.529-4.786l-.08-7.052h3.84l.131 7.052h-3.891z" fill="#F5F5F5"/><path d="M52.852 154.053c-.592.079-1.189.105-1.785.079-.596.026-1.193 0-1.785-.079a10.336 10.336 0 011.785-.076 10.337 10.337 0 011.785.076zm0 1.089c-.592.079-1.189.106-1.785.08a10.14 10.14 0 01-1.785-.08 10.14 10.14 0 011.785-.079c.596-.026 1.193 0 1.785.079zm0 1.09c-.592.077-1.189.102-1.785.076-.596.026-1.193.001-1.785-.076a10.14 10.14 0 011.785-.08c.596-.026 1.193.001 1.785.08zm0 1.09c-.592.076-1.189.102-1.785.076-.596.026-1.193 0-1.785-.076a10.14 10.14 0 011.785-.08c.596-.026 1.193.001 1.785.08zm0 1.086c-.592.079-1.189.105-1.785.079-.596.026-1.193 0-1.785-.079a10.336 10.336 0 011.785-.076 10.337 10.337 0 011.785.076z" fill="#E0E0E0"/><path d="M49.03 152.612h42.556c.525 2.335.449 4.905 0 7.624H49.21v-.518h2.59a1.225 1.225 0 001.223-1.224v-4.217a1.223 1.223 0 00-1.223-1.223h-2.77v-.442z" fill="#EBEBEB"/><path d="M59.09 156.427h.723c.027 0 .053.007.076.022a.143.143 0 01.076.134.163.163 0 010 .043c0 .062-.029.12-.047.181a2.048 2.048 0 01-.445.804.85.85 0 01-.605.315h-.087a.7.7 0 01-.485-.362 1.6 1.6 0 01-.21-.854c.002-.207.03-.413.084-.612.076-.303.22-.584.423-.822a.853.853 0 01.637-.34.64.64 0 01.272.061.887.887 0 01.412.518.17.17 0 010 .073.154.154 0 01-.021.076.15.15 0 01-.055.056.154.154 0 01-.076.02h-.047a.148.148 0 01-.098-.098.745.745 0 00-.083-.17.412.412 0 00-.34-.203.396.396 0 00-.235.087 1.245 1.245 0 00-.388.557 2.093 2.093 0 00-.17.8c-.006.217.036.432.123.63a.419.419 0 00.362.279.525.525 0 00.34-.206c.165-.194.288-.42.363-.663h-.51c-.11-.018-.167-.076-.167-.174a.117.117 0 010-.05.156.156 0 01.177-.102zm2.417-1.386l.019.054c.028.102.195.98.499 2.636a.076.076 0 010 .039.155.155 0 01-.022.077.136.136 0 01-.051.058.133.133 0 01-.075.021h-.022a.134.134 0 01-.12-.105l-.17-.876h-.872l-.413.887v.029a.176.176 0 01-.056.054.175.175 0 01-.074.022.137.137 0 01-.083-.025.16.16 0 01-.053-.054.159.159 0 01-.02-.073.1.1 0 010-.047 302.708 302.708 0 011.216-2.654.168.168 0 01.053-.072.164.164 0 01.237.04l.007-.011zm-.191.59l-.475.996h.67l-.196-.996zm2.562 2.295h-1.281a.138.138 0 01-.083-.025.228.228 0 01-.073-.16c0-.05.12-.925.362-2.624a.281.281 0 010-.058.145.145 0 01.138-.094c.025 0 .05.007.072.018a.138.138 0 01.061.057.14.14 0 01.019.081c0 .115-.03.357-.087.724a301.925 301.925 0 00-.232 1.777h1.086a.213.213 0 01.08 0 .144.144 0 01.098.145.217.217 0 010 .047.192.192 0 01-.16.112zm1.756-2.885l.018.054c.03.102.2.981.5 2.636a.076.076 0 010 .039.152.152 0 010 .077.143.143 0 01-.127.079H66a.136.136 0 01-.072-.029.138.138 0 01-.044-.065l-.166-.876h-.877l-.434.876a.074.074 0 010 .029.176.176 0 01-.056.054.175.175 0 01-.074.022.155.155 0 01-.134-.08.147.147 0 01-.018-.072.098.098 0 010-.047c.025-.062.072-.159.13-.29.61-1.337.973-2.125 1.086-2.364a.167.167 0 01.052-.072.165.165 0 01.238.04l.003-.011zm-.192.59l-.474.996h.67l-.196-.996zm2.252.927c.101.275.177.488.232.641.133.362.199.557.199.579a.114.114 0 01-.026.076.147.147 0 01-.053.054.145.145 0 01-.073.018c-.058 0-.098-.036-.127-.105l-.025-.065c-.07-.159-.185-.46-.34-.901l-.725.992a.185.185 0 01-.057.055.172.172 0 01-.077.024.15.15 0 01-.08-.022.133.133 0 01-.054-.053.134.134 0 01-.018-.073v-.033a.37.37 0 01.076-.127c.243-.311.514-.687.808-1.122a4.994 4.994 0 01-.087-.242c-.275-.724-.41-1.108-.41-1.133a.151.151 0 01.019-.08.133.133 0 01.123-.076c.03 0 .059.008.084.023a.17.17 0 01.06.064l.428 1.155.854-1.166a.176.176 0 01.06-.053.174.174 0 01.078-.019.112.112 0 01.069.018.135.135 0 01.075.134.28.28 0 010 .072l-1.013 1.365zm3.156-1.582c.026.001.05.007.073.018a.147.147 0 01.08.13c-.21 1.658-.323 2.556-.362 2.69-.035.251-.128.49-.272.699a.992.992 0 01-1.263.311.907.907 0 01-.453-.398.169.169 0 01-.018-.076c0-.027.008-.053.022-.076a.144.144 0 01.198-.057.15.15 0 01.051.046.818.818 0 00.656.362.668.668 0 00.51-.257 1.45 1.45 0 00.283-.807.77.77 0 01-.648.351h-.087a.697.697 0 01-.489-.362 1.606 1.606 0 01-.214-.858c0-.155.008-.314.022-.478.027-.261.085-.63.174-1.108a.193.193 0 010-.043.143.143 0 01.138-.105c.025 0 .05.007.072.021a.135.135 0 01.076.124c-.013.195-.035.39-.069.582a7.815 7.815 0 00-.101.895c-.01.237.03.473.115.695.087.21.214.315.38.315h.051a.697.697 0 00.384-.308 1.93 1.93 0 00.315-.706l.195-1.448a.44.44 0 010-.065.14.14 0 01.127-.095.146.146 0 01.054.008z" fill="#FAFAFA"/><path d="M89.99 160.337c-.044 0-.08-1.752-.08-3.913 0-2.161.036-3.913.08-3.913.043 0 .08 1.752.08 3.913 0 2.161-.037 3.913-.08 3.913z" fill="#F5F5F5"/><path d="M55.161 160.337c-.043 0-.08-1.752-.08-3.913 0-2.161.037-3.913.08-3.913.044 0 .08 1.752.08 3.913 0 2.161-.036 3.913-.08 3.913z" fill="#E0E0E0"/><path d="M90.735 160.337c-.043 0-.076-1.752-.076-3.913 0-2.161.033-3.913.076-3.913.044 0 .08 1.752.08 3.913 0 2.161-.036 3.913-.08 3.913z" fill="#F5F5F5"/><path d="M54.463 160.337c-.044 0-.076-1.752-.076-3.913 0-2.161.032-3.913.076-3.913.043 0 .08 1.752.08 3.913 0 2.161-.037 3.913-.08 3.913zm25.206-6.534l4.5 3.62.04.032h-.051l-.598.156-3.797.999-3.443-1.448-.995-.416-.257-.112-.065-.029h-.022.022l.068.025.257.105.981.405 3.45 1.448 3.794-1.002.601-.156v.044l-4.489-3.62" fill="#E0E0E0"/><path d="M83.756 156.851l.243.232.329-.073-.141.304.166.294-.333-.044-.224.25-.062-.33-.307-.133.293-.163.036-.337zm-4.316 1.43l.167.141.21-.058-.08.199.12.185-.217-.015-.134.171-.054-.21-.207-.076.185-.116.01-.221zm-4.767-1.955l.268.018.163-.21.069.257.25.094-.225.142-.01.267-.207-.17-.257.073.098-.25-.149-.221zm11.099-2.469l.268.018.163-.21.069.257.25.095-.225.141-.01.268-.207-.171-.257.073.098-.246-.149-.225zm-6.32-.173l.17.01.105-.134.043.163.16.062-.145.09-.004.171-.134-.109-.163.047.062-.159-.094-.141z" fill="#E0E0E0"/><path d="M86.156 154.045s-1.448-.032-3.258-.108-3.258-.152-3.258-.17c0-.018 1.448.032 3.258.108s3.258.152 3.258.17zm1.625-1.498H44.616c-.564-1.285-.724-2.502 0-3.595h43.165a4.173 4.173 0 010 3.595z" fill="#E0E0E0"/><path d="M76.94 149.98H53.553v1.307H76.94v-1.307z" fill="#EBEBEB"/><path d="M46.27 152.565a1.305 1.305 0 01-.34-.435 3.156 3.156 0 01-.227-2.599c.05-.179.14-.346.26-.488-.04.177-.092.351-.156.521a3.678 3.678 0 00.221 2.516c.094.155.175.317.243.485zm.935 0a1.305 1.305 0 01-.34-.435 3.156 3.156 0 01-.229-2.599 1.31 1.31 0 01.261-.488c-.04.177-.092.351-.156.521a3.68 3.68 0 00.221 2.516c.094.155.175.317.243.485z" fill="#E0E0E0"/><path d="M86.033 152.482a7.25 7.25 0 00.304-1.756 7.314 7.314 0 00-.283-1.763 3.647 3.647 0 01-.021 3.519zm-.8-.011c-.05 0 .134-.768.126-1.72-.007-.952-.18-1.708-.133-1.719.217.546.317 1.132.293 1.719a4.268 4.268 0 01-.286 1.72z" fill="#F5F5F5"/><path d="M170.459 12.978h-66.97v66.97h66.97v-66.97z" fill="#fff"/><path d="M170.527 79.752h-67.038v.196h67.038v-.196zm0-11.215h-67.038v.196h67.038v-.196zm0-11.211h-67.038v.196h67.038v-.196zm0-11.215h-67.038v.196h67.038v-.196zm0-11.211h-67.038v.196h67.038V34.9zm0-11.21h-67.038v.195h67.038v-.196z" fill="#EBEBEB"/><path d="M170.527 12.978h-.192V79.85h.192V12.978zm-11.218 0h-.192V79.85h.192V12.978zm-11.218 0h-.192V79.85h.192V12.978zm-11.223 0h-.191V79.85h.191V12.978zm-11.218 0h-.192V79.85h.192V12.978zm-11.218 0h-.192V79.85h.192V12.978z" fill="#EBEBEB"/><path d="M170.527 79.8h-67.038v.097h67.038v-.098zm0-2.803h-67.038v.098h67.038v-.098zm0-2.805h-67.038v.098h67.038v-.098zm0-2.802h-67.038v.098h67.038v-.098z" fill="#EBEBEB"/><path d="M170.527 68.588h-67.038v.098h67.038v-.098z" fill="#E0E0E0"/><path d="M170.527 65.783h-67.038v.097h67.038v-.097zm0-2.803h-67.038v.099h67.038v-.098zm0-2.801h-67.038v.098h67.038v-.098z" fill="#EBEBEB"/><path d="M170.527 57.373h-67.038v.098h67.038v-.098z" fill="#E0E0E0"/><path d="M170.527 54.572h-67.038v.097h67.038v-.097zm0-2.802h-67.038v.097h67.038v-.097zm0-2.806h-67.038v.098h67.038v-.098z" fill="#EBEBEB"/><path d="M170.527 46.162h-67.038v.098h67.038v-.098z" fill="#E0E0E0"/><path d="M170.527 43.36h-67.038v.098h67.038v-.098zm0-2.805h-67.038v.098h67.038v-.098zm0-2.802h-67.038v.098h67.038v-.098z" fill="#EBEBEB"/><path d="M170.527 34.947h-67.038v.098h67.038v-.098z" fill="#E0E0E0"/><path d="M170.527 32.146h-67.038v.097h67.038v-.097zm0-2.802h-67.038v.097h67.038v-.097zm0-2.806h-67.038v.098h67.038v-.098z" fill="#EBEBEB"/><path d="M170.527 23.736h-67.038v.098h67.038v-.098z" fill="#E0E0E0"/><path d="M170.527 20.934h-67.038v.098h67.038v-.098zm0-2.805h-67.038v.098h67.038v-.098zm0-2.802h-67.038v.098h67.038v-.098z" fill="#EBEBEB"/><path d="M170.48 12.978h-.097V79.85h.097V12.978zm-2.805 0h-.098V79.85h.098V12.978zm-2.802 0h-.098V79.85h.098V12.978zm-2.806 0h-.098V79.85h.098V12.978z" fill="#EBEBEB"/><path d="M159.262 12.978h-.098V79.85h.098V12.978z" fill="#E0E0E0"/><path d="M156.456 12.978h-.097V79.85h.097V12.978zm-2.805 0h-.098V79.85h.098V12.978zm-2.802 0h-.098V79.85h.098V12.978z" fill="#EBEBEB"/><path d="M148.043 12.978h-.097V79.85h.097V12.978z" fill="#E0E0E0"/><path d="M145.238 12.978h-.098V79.85h.098V12.978zm-2.806 0h-.097V79.85h.097V12.978zm-2.805 0h-.098V79.85h.098V12.978z" fill="#EBEBEB"/><path d="M136.825 12.978h-.098V79.85h.098V12.978z" fill="#E0E0E0"/><path d="M134.02 12.978h-.098V79.85h.098V12.978zm-2.806 0h-.098V79.85h.098V12.978zm-2.805 0h-.098V79.85h.098V12.978z" fill="#EBEBEB"/><path d="M125.603 12.978h-.098V79.85h.098V12.978z" fill="#E0E0E0"/><path d="M122.801 12.978h-.098V79.85h.098V12.978zm-2.805 0h-.098V79.85h.098V12.978zm-2.806 0h-.097V79.85h.097V12.978z" fill="#EBEBEB"/><path d="M114.385 12.978h-.098V79.85h.098V12.978z" fill="#E0E0E0"/><path d="M111.583 12.978h-.098V79.85h.098V12.978zm-2.806 0h-.098V79.85h.098V12.978zm-2.805 0h-.098V79.85h.098V12.978z" fill="#EBEBEB"/><path d="M170.455 79.948v-4.833c0-3.146 0-7.754-.022-13.615 0-11.718-.022-28.45-.04-48.508l.08.08h-66.97l.094-.094v66.97l-.08-.084 48.509.04 13.614.022h4.815-4.797l-13.596.022-48.573.04h-.084V12.844h67.155v.083c-.04 20.145-.058 36.895-.058 48.613 0 5.854 0 10.458-.018 13.597v4.492c0 .192-.029.319-.029.319z" fill="#E0E0E0"/><path d="M49.623 13.22H12.898v36.725h36.725V13.22z" fill="#fff"/><path d="M49.663 49.84H12.898v.109h36.765v-.109zm0-6.15H12.898v.108h36.765v-.108zm0-6.147H12.898v.109h36.765v-.109zm0-6.15H12.898v.108h36.765v-.108zm0-6.151H12.898v.109h36.765v-.109zm0-6.146H12.898v.108h36.765v-.108z" fill="#EBEBEB"/><path d="M49.663 13.22h-.105v36.674h.105V13.22zm-6.154 0h-.105v36.674h.105V13.22zm-6.154 0h-.105v36.674h.105V13.22zm-6.151 0H31.1v36.674h.105V13.22zm-6.154 0h-.105v36.674h.105V13.22zm-6.15 0h-.105v36.674h.105V13.22z" fill="#EBEBEB"/><path d="M49.663 49.865H12.898v.055h36.765v-.055zm0-1.535H12.898v.055h36.765v-.054zm0-1.538H12.898v.054h36.765v-.054zm0-1.538H12.898v.054h36.765v-.054z" fill="#EBEBEB"/><path d="M49.663 43.719H12.898v.054h36.765v-.054z" fill="#E0E0E0"/><path d="M49.663 42.18H12.898v.054h36.765v-.054zm0-1.538H12.898v.054h36.765v-.054zm0-1.535H12.898v.054h36.765v-.054z" fill="#EBEBEB"/><path d="M49.663 37.568H12.898v.055h36.765v-.055z" fill="#E0E0E0"/><path d="M49.663 36.03H12.898v.054h36.765v-.054zm0-1.535H12.898v.054h36.765v-.054zm0-1.539H12.898v.055h36.765v-.055z" fill="#EBEBEB"/><path d="M49.663 31.418H12.898v.054h36.765v-.054z" fill="#E0E0E0"/><path d="M49.663 29.883H12.898v.054h36.765v-.054zm0-1.538H12.898v.054h36.765v-.054zm0-1.539H12.898v.054h36.765v-.054z" fill="#EBEBEB"/><path d="M49.663 25.271H12.898v.055h36.765v-.055z" fill="#E0E0E0"/><path d="M49.663 23.733H12.898v.054h36.765v-.054zm0-1.539H12.898v.055h36.765v-.055zm0-1.534H12.898v.054h36.765v-.055z" fill="#EBEBEB"/><path d="M49.663 19.12H12.898v.055h36.765v-.054z" fill="#E0E0E0"/><path d="M49.663 17.582H12.898v.055h36.765v-.055zm0-1.535H12.898v.055h36.765v-.055zm0-1.538H12.898v.054h36.765v-.054z" fill="#EBEBEB"/><path d="M49.637 13.22h-.054v36.674h.054V13.22zm-1.538 0h-.055v36.674h.055V13.22zm-1.539 0h-.054v36.674h.054V13.22zm-1.538 0h-.054v36.674h.054V13.22z" fill="#EBEBEB"/><path d="M43.483 13.22h-.054v36.674h.054V13.22z" fill="#E0E0E0"/><path d="M41.945 13.22h-.054v36.674h.054V13.22zm-1.535 0h-.054v36.674h.054V13.22zm-1.539 0h-.054v36.674h.054V13.22z" fill="#EBEBEB"/><path d="M37.333 13.22h-.054v36.674h.054V13.22z" fill="#E0E0E0"/><path d="M35.794 13.22h-.054v36.674h.054V13.22zm-1.538 0h-.054v36.674h.054V13.22zm-1.539 0h-.054v36.674h.054V13.22z" fill="#EBEBEB"/><path d="M31.179 13.22h-.054v36.674h.054V13.22z" fill="#E0E0E0"/><path d="M29.64 13.22h-.054v36.674h.054V13.22zm-1.538 0h-.054v36.674h.054V13.22zm-1.538 0h-.055v36.674h.055V13.22z" fill="#EBEBEB"/><path d="M25.025 13.22h-.054v36.674h.054V13.22z" fill="#E0E0E0"/><path d="M23.49 13.22h-.054v36.674h.054V13.22zm-1.538 0h-.055v36.674h.055V13.22zm-1.539 0h-.054v36.674h.054V13.22z" fill="#EBEBEB"/><path d="M18.875 13.22h-.055v36.674h.055V13.22z" fill="#E0E0E0"/><path d="M17.336 13.22h-.054v36.674h.054V13.22zm-1.539 0h-.054v36.674h.054V13.22zm-1.538 0h-.054v36.674h.054V13.22z" fill="#EBEBEB"/><path d="M49.623 49.956v-2.661c0-1.726 0-4.253-.022-7.468 0-6.425-.026-15.598-.04-26.6l.08.084H12.919l.095-.094v36.728l-.08-.083 26.596.043h10.129-2.625l-7.45.022-26.65.04h-.12V13.133h36.903v.08l-.044 26.65c0 3.208 0 5.727-.021 7.454v2.458a.483.483 0 01-.03.181zm-29.456 68.842l2.501-13.699-.673-.514-5.944 7.838a1.082 1.082 0 01.069 1.372 1.095 1.095 0 01-1.532.21 1.094 1.094 0 01-.21-1.532 1.084 1.084 0 011.34-.3l5.947-7.837-.637-.482-12.85 6.194c3.637 3.077 1.234 7.008 1.234 7.008l3.66 2.824c2.801-3.678 7.095-1.082 7.095-1.082zm-12.533-2.086l6.064 4.677-1.76 2.39-6.092-4.887 1.788-2.18z" fill="#E0E0E0"/><path d="M167.686 168.974c0 .055-34.723.094-77.544.094s-77.552-.039-77.552-.094c0-.054 34.716-.094 77.552-.094 42.835 0 77.544.044 77.544.094z" fill="#263238"/><path d="M78.996 115.033h-50.47v30.498h50.47v-30.498z" fill="#fff"/><path d="M78.995 109.921h-50.47v5.947h50.47v-5.947z" fill="#EBEBEB"/><path d="M44.247 128.047h-8.18v-8.182h8.18v8.182zm-7.819-.362h7.457v-7.458h-7.457v7.458zm7.819 13.672h-8.18v-8.184h8.18v8.184zm-7.819-.362h7.457v-7.46h-7.457v7.46z" fill="#263238"/><path d="M70.547 126.725H51.723a2.367 2.367 0 110-4.731h18.824c.31-.001.618.06.905.179a2.367 2.367 0 01-.906 4.552z" fill="#E0E0E0"/><path d="M51.607 127.949a3.993 3.993 0 100-7.986 3.993 3.993 0 000 7.986z" fill="#0075FF"/><path d="M70.547 139.439H51.723a2.368 2.368 0 01-2.368-2.364 2.368 2.368 0 012.368-2.368h18.824a2.368 2.368 0 011.672 4.04 2.368 2.368 0 01-1.672.692z" fill="#E0E0E0"/><path d="M61.417 140.666a3.993 3.993 0 100-7.986 3.993 3.993 0 000 7.986z" fill="#0075FF"/><path d="M40.012 141.155c-.054 0-.094-1.738-.094-3.881s.04-3.877.094-3.877.094 1.734.094 3.877-.043 3.881-.094 3.881z" fill="#263238"/><path d="M44.066 137.365c0 .05-1.755.094-3.924.094-2.168 0-3.92-.044-3.92-.094 0-.051 1.756-.095 3.92-.095 2.165 0 3.924.04 3.924.095z" fill="#263238"/><path d="M78.996 145.524v-9.713c0-6.193-.026-15.084-.04-25.893l.076.076-50.466.018.094-.094v35.606l-.087-.083 36.388.039 10.335.044h3.711-3.675l-10.35.022-36.445.043h-.087v-35.765h.097l50.467.018h.076v.076c-.018 10.827-.033 19.736-.04 25.944 0 3.092 0 5.51-.022 7.157v1.871c0 .424-.032.634-.032.634z" fill="#263238"/><path d="M32.142 112.944a.865.865 0 01-.532.796.865.865 0 01-.939-.187.86.86 0 01.13-1.325.86.86 0 011.341.716zm1.741.872a.86.86 0 10.001-1.722.86.86 0 000 1.722zm2.603 0a.86.86 0 10.001-1.722.86.86 0 000 1.722zM96.51 34.397H28.166v67.477H96.51V34.397z" fill="#fff"/><path d="M96.51 101.646H28.166v.297H96.51v-.297zm0-67.546H28.166v.297H96.51V34.1zm0 50.543H28.166v.297H96.51v-.297zm0-17.003H28.166v.296H96.51v-.296zm0-17H28.166v.297H96.51v-.297z" fill="#EBEBEB"/><path d="M96.513 34.397h-.293v67.546h.293V34.397zm-17.014 0h-.293v67.546h.293V34.397zm-17.014 0h-.293v67.546h.293V34.397zm-17.01 0h-.294v67.546h.294V34.397zm-17.015 0h-.293v67.546h.294V34.397z" fill="#EBEBEB"/><path d="M96.51 97.469H28.166v.148H96.51v-.148zm0-4.25H28.166v.148H96.51v-.148zm0-4.25H28.166v.148H96.51v-.148z" fill="#EBEBEB"/><path d="M96.51 84.719H28.166v.148H96.51v-.148z" fill="#E0E0E0"/><path d="M96.51 80.469H28.166v.148H96.51v-.148zm0-4.253H28.166v.148H96.51v-.148zm0-4.25H28.166v.148H96.51v-.148z" fill="#EBEBEB"/><path d="M96.51 67.716H28.166v.148H96.51v-.148z" fill="#E0E0E0"/><path d="M96.51 63.466H28.166v.148H96.51v-.148zm0-4.254H28.166v.149H96.51v-.149zm0-4.25H28.166v.149H96.51v-.148z" fill="#EBEBEB"/><path d="M96.51 50.713H28.166v.148H96.51v-.148z" fill="#E0E0E0"/><path d="M96.51 46.463H28.166v.148H96.51v-.148zm0-4.25H28.166v.148H96.51v-.148zm0-4.253H28.166v.148H96.51v-.149z" fill="#EBEBEB"/><path d="M96.437 34.397h-.145v67.546h.145V34.397zm-4.254 0h-.144v67.546h.144V34.397zm-4.253 0h-.145v67.546h.145V34.397zm-4.253 0h-.145v67.546h.145V34.397z" fill="#EBEBEB"/><path d="M79.423 34.397h-.145v67.546h.145V34.397z" fill="#E0E0E0"/><path d="M75.17 34.397h-.145v67.546h.144V34.397zm-4.254 0h-.145v67.546h.145V34.397zm-4.254 0h-.144v67.546h.144V34.397z" fill="#EBEBEB"/><path d="M62.409 34.397h-.145v67.546h.145V34.397z" fill="#E0E0E0"/><path d="M58.159 34.397h-.145v67.546h.145V34.397zm-4.253 0h-.145v67.546h.145V34.397zm-4.254 0h-.145v67.546h.145V34.397z" fill="#EBEBEB"/><path d="M45.398 34.397h-.144v67.546h.145V34.397z" fill="#E0E0E0"/><path d="M41.145 34.397H41v67.546h.145V34.397zm-4.253 0h-.145v67.546h.145V34.397zm-4.254 0h-.145v67.546h.145V34.397z" fill="#EBEBEB"/><path d="M28.385 34.397h-.145v67.546h.145V34.397z" fill="#E0E0E0"/><path d="M30.144 32.71H26.77v3.374h3.374V32.71zm0 67.477H26.77v3.374h3.374v-3.374zM98.015 32.71h-3.374v3.374h3.374V32.71zm0 67.546h-3.374v3.374h3.374v-3.374z" fill="#263238"/><path d="M96.676 101.943l-.08-67.843.08.084H28.174l.095-.094v67.842l-.084-.083 68.509.083h-4.909l-13.912.022-49.688.043h-.083v-68.02h68.686v.08l-.043 49.232c0 5.93 0 10.588-.022 13.756v4.547c0 .202-.047.351-.047.351z" fill="#263238"/><path d="M96.944 101.092c.253.141 3.352 7.888 3.533 8.782.45 2.467.59 4.981.416 7.483a806.434 806.434 0 01-.775 7.435l-11.406.275.449-7.37s-1.984-2.219-1.894-3.801c.113-1.966 1.84-1.926 1.84-1.926s-.837-2.512 1.675-2.751c0 0 1.242-2.574 3.164-2.096 1.922.478 2.64 1.198 2.64 1.198l-1.894-5.122a1.767 1.767 0 01.659-2.1 1.452 1.452 0 011.593-.007z" fill="#FFBE9D"/><path d="M94.424 114.265c-.029.018-.235-.282-.659-.68a5.622 5.622 0 00-.796-.627 6.492 6.492 0 00-1.086-.557 6.033 6.033 0 00-2.208-.391c-.58 0-.938.083-.945.051a.795.795 0 01.246-.08c.227-.058.458-.093.692-.105a5.547 5.547 0 012.284.362 6.19 6.19 0 011.133.59 4.9 4.9 0 01.793.677c.157.161.299.337.423.525.087.148.134.228.123.235zm1.437-2.505c-.029 0-.213-.268-.59-.659a5.957 5.957 0 00-1.705-1.234 6.036 6.036 0 00-2.03-.558c-.544-.047-.884 0-.888-.043a2.48 2.48 0 01.895-.087 5.33 5.33 0 013.826 1.832c.206.22.372.473.492.749zm2.079-1.64a6.89 6.89 0 01-.703-.872 6.986 6.986 0 01-.724-.858 3.234 3.234 0 011.415 1.73h.011zm-8.834 8.413c.143-1.19.411-2.362.8-3.497a17.003 17.003 0 01-.8 3.497z" fill="#EB996E"/><path d="M103.641 134.874l-1.901 2.534-1.466-16.348-11.544 3.32s-1.086 25.785-.688 30.024c.427 4.626.521 4.858 1.694 6.968 1.503 2.701 6.733 4.583 9.72 3.794 3.044-.807 6.19-4.862 8.579-7.291 4.344-4.42 11.168-12.97 11.168-12.97l-15.562-10.031z" fill="#FFBE9D"/><path d="M103.344 135.269c.051.036-.431.724-1.195 1.81a98.247 98.247 0 00-2.896 4.383 91.14 91.14 0 00-2.635 4.54c-.644 1.18-1.046 1.911-1.086 1.886-.04-.026.253-.804.836-2.024a51.717 51.717 0 015.546-8.959c.825-1.054 1.39-1.669 1.43-1.636z" fill="#EB996E"/><path d="M151.627 65.32c-1.129-1.145-39.642-31.408-39.642-31.408l-7.059 9.412 34.926 31.132s12.912-7.996 11.775-9.137z" fill="#FFBE9D"/><path d="M111.985 33.912l-4.967-8.89-6.36-5.315a1.628 1.628 0 00-.438 2.172c.573.887 1.278 1.68 2.092 2.353 0 0-2.961.174-2.961 1.307 0 0-3.486.96-3.052 3.226 0 0-1.48 2.874-.872 3.66a1.56 1.56 0 002.44 0c.698-.786 1.918-1.134 3.312-1.047 1.394.087 3.139 2.44 2.965 4.62-.174 2.178-1.397 3.134-3.052 2.787-1.654-.348-3.113-2.585-4.344-2.411-1.23.173-1.032 1.4-.362 2.096.67.695 3.982 4.496 4.706 4.847.724.351 3.226-.087 3.834 0 .608.087 7.059-9.405 7.059-9.405z" fill="#FFBE9D"/><path d="M103.811 29.09a2.656 2.656 0 00-.746-.905 2.957 2.957 0 00-1.155-.506 6.332 6.332 0 00-1.564-.116 8.89 8.89 0 00-2.805.568c-.688.264-1.086.496-1.104.467.078-.076.167-.14.264-.188a6.68 6.68 0 01.79-.402 8.063 8.063 0 012.848-.634 6.072 6.072 0 011.611.134c.437.099.847.294 1.198.572.235.19.428.427.565.695a.702.702 0 01.098.315zm.445-2.711a10.677 10.677 0 00-2.295-.79 10.428 10.428 0 00-2.425-.043c.22-.103.459-.165.702-.18a5.711 5.711 0 011.756.04c.58.1 1.14.29 1.661.564.224.098.428.236.601.409zm1.81-.138a6.151 6.151 0 00-1.687-1.39 6.047 6.047 0 00-2.114-.54c.213-.066.438-.084.659-.053a4.03 4.03 0 012.78 1.419c.161.159.284.352.362.564z" fill="#EB996E"/><path d="M122.255 130.95a29.047 29.047 0 00-5.941 13.658c-1.448 10.031 5.792 13.528 5.792 13.528l-.177 10.838h43.44c-.065.073.239-18.411-.149-32.819-.387-14.407-6.725-29.231-6.725-29.231s-5.767-3.334-10.097-2.968c-4.329.365-23.168 2.943-23.168 2.943l-2.975 24.051z" fill="#0075FF"/><path d="M125.23 106.899s-7.24 1.046-13.951 11.584c-6.94 10.892-9.557 15.07-9.557 15.07l19.186 13.242s10.896-16.428 12.257-19.95c1.362-3.522 2.904-20.279-7.935-19.946z" fill="#0075FF"/><path opacity=".2" d="M116.126 148.659l5.56 1.47s10.806-14.325 11.222-22.405l-11.855 18.394-1.868-1.213-3.059 3.754z" fill="#000"/><path d="M160.866 92.133s4.503 14.063 3.884 22.806c-.391 5.564-.663 9.462-.663 9.462l-13.911-20.71 10.69-11.558z" fill="#0075FF"/><path d="M101.722 133.553s.036 0 .098.054l.279.17 1.086.681 4.011 2.581 13.911 9.003-.123.029 6.285-9.745c1.295-2.013 2.562-3.982 3.786-5.868l1.81-2.788c.547-.903.986-1.868 1.307-2.874.313-.956.562-1.932.746-2.921.18-.932.3-1.874.362-2.82.178-1.696.026-3.41-.449-5.047a10.654 10.654 0 00-2.082-3.62 9.94 9.94 0 00-2.436-2.02 9.886 9.886 0 00-1.839-.811l-.507-.134-.17-.054s.062 0 .177.033l.511.119c.649.19 1.274.453 1.864.782a9.942 9.942 0 012.48 2.017 10.719 10.719 0 012.128 3.648c.49 1.653.652 3.386.478 5.101a24.527 24.527 0 01-1.111 5.792 13.436 13.436 0 01-1.318 2.914l-1.81 2.795-3.772 5.857-6.295 9.738-.047.076-.076-.051-13.876-9.05-3.982-2.621-1.064-.717-.271-.184a.997.997 0 01-.091-.065zm61.819-13.441a.498.498 0 01.025.108l.051.319.177 1.22c.156 1.064.362 2.602.565 4.51.203 1.908.431 4.181.633 6.712.203 2.53.362 5.314.478 8.239.232 5.853.221 11.16.152 14.994a203.643 203.643 0 01-.119 4.543c-.022.528-.036.941-.051 1.234l-.018.323a.39.39 0 010 .108.39.39 0 010-.108v-1.557c0-1.086.036-2.635.058-4.543a309.78 309.78 0 00-.206-14.987 259.945 259.945 0 00-.464-8.232 199.491 199.491 0 00-.593-6.711c-.203-1.908-.362-3.45-.504-4.514-.061-.522-.108-.934-.141-1.228 0-.13-.025-.235-.032-.318a.473.473 0 01-.011-.112zm-1.278-1.85s-.033-.051-.08-.152c-.047-.102-.112-.272-.188-.449-.076-.178-.177-.438-.304-.724s-.261-.59-.442-.923c-.181-.333-.362-.706-.586-1.086-.225-.38-.478-.786-.746-1.206a21.71 21.71 0 00-4.344-4.8c-.394-.308-.764-.608-1.133-.858s-.706-.489-1.024-.691c-.319-.203-.619-.362-.876-.525a5.653 5.653 0 00-.677-.362l-.431-.232a.676.676 0 01-.145-.09s.058 0 .159.058l.449.199c.196.087.431.199.695.344.265.144.572.3.894.506.323.207.681.413 1.047.674.365.26.749.546 1.151.854.851.687 1.65 1.438 2.389 2.244a22.515 22.515 0 012.005 2.592c.265.428.525.829.724 1.228.2.398.41.763.572 1.107.163.344.297.659.417.938.119.279.21.525.278.724l.156.467a.902.902 0 01.04.163z" fill="#263238"/><path d="M127.399 135.75s-.029-.098-.116-.261a1.69 1.69 0 00-.547-.59 3.212 3.212 0 00-1.194-.452c-.496-.102-1.086-.083-1.72-.152a4.379 4.379 0 01-.999-.217 2.104 2.104 0 01-.919-.638 2.263 2.263 0 01-.464-1.104 4.218 4.218 0 01.029-1.259c.138-.851.496-1.68.612-2.581a3.014 3.014 0 00-.105-1.351 2.941 2.941 0 00-.757-1.165 4.704 4.704 0 00-2.487-1.199 16.957 16.957 0 00-2.635-.184 12.823 12.823 0 01-2.411-.214 5.071 5.071 0 01-1.955-.8 3.288 3.288 0 01-1.086-1.343 2.82 2.82 0 01-.257-1.289c.013-.279.081-.553.199-.807a1.671 1.671 0 01.152-.246 2.421 2.421 0 00-.278 1.053c-.004.431.092.857.278 1.246.243.514.618.955 1.086 1.278.579.38 1.23.637 1.912.756.786.137 1.584.201 2.382.192.891-.012 1.782.047 2.664.177a4.905 4.905 0 012.588 1.242c.362.346.636.773.8 1.245.15.468.188.964.109 1.448-.123.938-.489 1.767-.623 2.589-.134.821-.079 1.665.388 2.237.467.572 1.194.742 1.81.818.615.076 1.216.072 1.723.185.436.078.851.246 1.22.492.23.161.415.379.536.633a.87.87 0 01.065.261zm36.84-2.487s0 .036-.018.109c-.018.072-.036.173-.069.311a6.28 6.28 0 01-.434 1.155 6.829 6.829 0 01-1.119 1.603 6.538 6.538 0 01-2.11 1.495c-.971.425-2.032.6-3.088.511a6.653 6.653 0 01-3.37-1.231c-1.043-.757-1.835-1.857-2.921-2.675a4.983 4.983 0 00-.876-.518 3.06 3.06 0 00-.486-.166l-.246-.073-.257-.036a4.64 4.64 0 00-2.088.217c-1.376.446-2.582 1.227-3.787 1.886a12.127 12.127 0 01-3.718 1.412c-2.497.514-4.945-.076-6.429-1.321a6.204 6.204 0 01-2.306-3.812 4.89 4.89 0 01-.061-.724c0-.206 0-.384.025-.525.025-.141.036-.235.051-.315a.44.44 0 01.021-.108 5.755 5.755 0 00.037 1.647 6.194 6.194 0 002.313 3.728c1.466 1.206 3.859 1.77 6.317 1.256a12.015 12.015 0 003.66-1.404c1.201-.655 2.41-1.448 3.822-1.904a4.81 4.81 0 012.172-.221l.268.04.264.072c.173.047.343.106.507.177.321.148.626.329.909.54 1.115.847 1.904 1.947 2.918 2.682a6.469 6.469 0 003.279 1.217 6.337 6.337 0 003.023-.475 6.653 6.653 0 003.678-4.145l.087-.307a.313.313 0 01.032-.098zm-.615-26.473a5.308 5.308 0 00-.326-1.405 4.336 4.336 0 00-.843-1.299 4.193 4.193 0 00-1.557-1.068c-1.27-.576-2.555.047-3.475-.282a1.5 1.5 0 01-.865-.656.853.853 0 01-.098-.282.37.37 0 010-.105c.046.125.102.246.167.362.203.283.501.485.84.568a4.16 4.16 0 001.549 0c.148-.018.304-.029.463-.036.16-.007.326 0 .493 0 .343.037.679.121.999.25a4.237 4.237 0 011.614 1.122c.364.4.649.866.84 1.372.129.339.205.695.224 1.057.012.135.003.27-.025.402zm1.368 52.852a.584.584 0 01-.061.109c-.051.076-.112.181-.196.307-.251.397-.54.769-.861 1.112a9.785 9.785 0 01-4.391 2.653 10.244 10.244 0 01-3.552.384 8.839 8.839 0 01-3.891-1.224c-1.253-.724-2.396-1.741-3.685-2.621a9.522 9.522 0 00-2.107-1.118 5.044 5.044 0 00-2.378-.29 6.675 6.675 0 00-2.295.757c-.695.381-1.365.807-2.006 1.274-1.274.905-2.509 1.81-3.877 2.346a11.094 11.094 0 01-4.022.764 12.21 12.21 0 01-3.537-.507 12.554 12.554 0 01-2.696-1.198 22.216 22.216 0 01-1-.681 7.151 7.151 0 01-.774-.662l-.572-.576a4.512 4.512 0 01-.362-.46l-.225-.289c-.05-.065-.076-.098-.072-.102a.68.68 0 01.087.091l.239.275c.105.119.228.279.387.445.159.167.362.362.579.565.218.203.496.405.782.641.286.235.634.438.999.662.846.488 1.745.878 2.679 1.162 1.137.327 2.315.488 3.497.478a11.027 11.027 0 003.964-.767c1.336-.518 2.556-1.43 3.83-2.339a19.28 19.28 0 012.027-1.289 6.944 6.944 0 012.36-.778 5.253 5.253 0 012.462.3 9.814 9.814 0 012.121 1.141c1.296.894 2.437 1.897 3.671 2.628a8.678 8.678 0 003.83 1.209 10.16 10.16 0 003.5-.362 9.87 9.87 0 004.373-2.577c.324-.337.62-.701.884-1.086.09-.124.159-.221.21-.297a.746.746 0 01.079-.08z" fill="#fff"/><path d="M160.424 85.696c-.905-4.608-2.809-8.952-4.257-13.437-1.691-5.21-3.001-10.983-7.204-14.48-2.773-2.32-6.415-3.276-9.955-3.982-3.211-.652-6.534-1.159-9.741-.492-1.601.333-3.132.952-4.706 1.335-1.843.446-3.787.583-5.51 1.376-3.562 1.64-5.383 5.709-5.915 9.593-.532 3.884-.094 7.852-.652 11.736a53.457 53.457 0 01-1.216 5.51c-1.644 3.543-3.443 7.087-3.186 10.885.189 2.748 1.448 5.292 2.056 7.964.609 2.671.362 5.911-1.81 7.602a3.952 3.952 0 005.872-.562c.441-.6.703-1.313.757-2.055.28.386.654.696 1.086.901 1.086.496 2.349.395 3.544.279 3.45-.33 7.033-.724 10.034-2.4l16.898-1.448c4.344 1.766 9.619-.681 12.127-4.663 2.509-3.982 2.687-9.046 1.778-13.662z" fill="#263238"/><path d="M126.161 56.881c-1.637.33-3.36.087-4.967.54-2.324.655-4.051 2.7-4.941 4.948-.891 2.248-1.068 4.706-1.235 7.113l-.456 6.48a19.96 19.96 0 01-.579 4.127c-.424 1.495-1.586 5.466-1.662 7.41-.246 6.317 2.013 11.45 4.829 14.643 1.492 1.687 8.431 1.73 10.64 2.172.973-.851 3.402-.844 4.376-1.694.167-.145-7.059-5.67-6.976-5.872.098-.35.063-.724-.097-1.05a51.68 51.68 0 012.172-38.47" fill="#263238"/><path d="M145.716 106.341l2.534-39.708a3.326 3.326 0 00-2.968-3.38l-17.644-4.5c-5.651-.608-9.412 6.342-9.774 12.01-.413 6.303-.666 14.01.072 18.713 1.481 9.455 8.724 10.675 8.724 10.675l.627 6.69s4.539-.627 7.931-.992c7.497-.807 10.498.492 10.498.492z" fill="#FFBE9D"/><path d="M120.387 78.612a1.212 1.212 0 001.165 1.227 1.167 1.167 0 001.135-.643c.068-.138.108-.289.118-.443a1.212 1.212 0 00-1.166-1.224 1.156 1.156 0 00-1.252 1.083zm-.337-3.562c.152.16 1.086-.518 2.375-.514 1.289.003 2.259.662 2.404.503.068-.072-.084-.362-.5-.663a3.362 3.362 0 00-1.922-.597 3.172 3.172 0 00-1.89.608c-.402.308-.539.59-.467.663zm11.606 3.562a1.219 1.219 0 001.165 1.227 1.166 1.166 0 001.135-.643c.068-.138.108-.289.118-.443a1.212 1.212 0 00-1.166-1.224 1.162 1.162 0 00-1.134.64 1.156 1.156 0 00-.118.443zm1.22-3.562c.148.16 1.086-.518 2.374-.514 1.289.003 2.259.662 2.401.503.068-.072-.08-.362-.5-.663a3.35 3.35 0 00-1.922-.597 3.19 3.19 0 00-1.89.608c-.402.305-.539.59-.463.663zm-4.757 9.658c0-.076-.804-.217-2.118-.387-.333-.037-.648-.102-.706-.33a1.716 1.716 0 01.225-.988l.992-2.534c1.375-3.62 2.374-6.578 2.226-6.632-.148-.054-1.379 2.827-2.755 6.436-.329.891-.648 1.742-.948 2.535-.127.361-.362.807-.178 1.306a.844.844 0 00.547.489c.186.059.378.094.572.105 1.318.072 2.136.08 2.143 0z" fill="#263238"/><path d="M126.642 100.151s6.9.423 13.209-3.349c0 0-3.471 7.193-12.93 6.288l-.279-2.939zm5.875-12.681a2.488 2.488 0 00-1.708-.923 2.718 2.718 0 00-2.436 1.006l-.066.047a.508.508 0 000 .562c.114.174.26.325.431.445a5.673 5.673 0 001.922 1.154c.724.207 1.568.077 1.977-.495a1.564 1.564 0 00-.12-1.796z" fill="#EB996E"/><path d="M131.956 85.627c-.213 0-.217 1.401-1.448 2.404-1.231 1.003-2.722.844-2.733 1.043-.018.087.337.275.974.293a3.514 3.514 0 002.28-.79 3.077 3.077 0 001.112-2.016c.069-.593-.087-.944-.185-.934zm.12-15.24c.13.362 1.448.189 2.961.362 1.513.174 2.769.609 2.972.294.09-.153-.123-.49-.623-.833a4.957 4.957 0 00-2.201-.775 4.892 4.892 0 00-2.317.268c-.564.239-.847.525-.792.684zm-12.044.511c.228.297 1.129 0 2.208 0 1.079 0 1.995.202 2.208-.109.091-.148-.05-.445-.452-.724a3.2 3.2 0 00-3.555.102c-.384.282-.51.586-.409.73z" fill="#263238"/><path d="M124.984 58.12a2.25 2.25 0 01.967-1.322c2.845-2.22 6.697-2.896 10.266-2.346 3.569.55 6.878 2.215 9.846 4.272 2.581 1.792 5.018 3.982 6.328 6.834.923 2.017 1.235 4.25 1.535 6.451.746 5.448 2.208 10.907 2.172 16.406-.022 2.143.362 5.745 0 8.387-.391 2.82-3.128 6.259-5.904 6.878l-6.259.627s3.388-11.69 3.128-15.903c-.232-3.692-.2-7.74-.616-11.414a1.499 1.499 0 00-1.086-1.488l-3.909-1.998a38.524 38.524 0 01-3.682-2.056c-1.321-.872-2.491-1.517-3.692-2.534-1.691-1.448-3.258-2.603-4.934-4.05a19.557 19.557 0 01-3.085-3.686c-.767-1.162-1.198-2.62-.84-3.982" fill="#263238"/><path d="M145.984 79.579c.101-2.013 2.291-3.353 4.036-2.346.956.554 1.691 1.665 1.6 3.8-.232 5.695-5.901 4.287-5.904 4.12-.004-.083.17-3.218.268-5.575z" fill="#FFBE9D"/><path d="M147.544 83.068c.025-.018.098.076.261.16.232.11.498.125.742.043.608-.196 1.155-1.13 1.223-2.154a3.283 3.283 0 00-.217-1.448 1.123 1.123 0 00-.724-.79.5.5 0 00-.594.247c-.083.156-.054.271-.083.279-.029.007-.119-.098-.061-.333a.604.604 0 01.239-.362.762.762 0 01.553-.123 1.404 1.404 0 011 .926c.221.503.316 1.052.278 1.6-.083 1.148-.724 2.198-1.549 2.4a1.086 1.086 0 01-.901-.188c-.163-.12-.189-.246-.167-.257z" fill="#EB996E"/><path d="M155.432 70.615c-.065.084-1.314-1.263-3.946-2.421a30.62 30.62 0 00-4.775-1.593c-1.839-.493-3.895-.93-6.012-1.59a30.87 30.87 0 01-9.999-5.256 26.716 26.716 0 01-2.556-2.291 5.36 5.36 0 01-.825-.949c.339.247.658.52.952.819a42.289 42.289 0 002.632 2.172 32.95 32.95 0 009.937 5.068c2.089.648 4.141 1.086 5.984 1.621 1.648.422 3.255.994 4.8 1.709a13.709 13.709 0 012.896 1.832c.241.198.47.412.684.64.166.142.239.214.228.24z" fill="#455A64"/><path d="M147.164 86.366c-.025-.112-.047-.22-.076-.333l.076.333zm0 0c.641 3.222-1.187 6.802-4.207 8.123-1.741.764-3.819.873-5.234 2.14-1.416 1.267-1.741 3.258-2.4 5.024-.659 1.767-2.922 4.818-4.779 4.543 6.23.891 12.909 1.76 20.026-.521l4.923-2.965-8.329-16.344z" fill="#263238"/><path d="M151.617 104.021c.081-.201.18-.394.296-.576l.898-1.614a41.292 41.292 0 002.755-6.187 25.1 25.1 0 001.43-9.85c-.235-3.729-1.578-7.892-4.598-11.034-3.019-3.142-6.874-4.977-10.277-6.563-3.403-1.585-6.61-2.943-9.05-4.489a21.333 21.333 0 01-5.227-4.376 12.506 12.506 0 01-1.086-1.499 3.253 3.253 0 01-.319-.561c.044-.029.493.724 1.553 1.94a22.268 22.268 0 005.264 4.21c2.443 1.496 5.578 2.846 9.05 4.384 3.471 1.539 7.33 3.41 10.436 6.64 3.106 3.228 4.478 7.525 4.706 11.326a25.035 25.035 0 01-1.549 9.98 37.498 37.498 0 01-2.896 6.155 30.203 30.203 0 01-.977 1.574 2.951 2.951 0 01-.409.54z" fill="#455A64"/></svg>