<svg width="188" height="188" fill="none" xmlns="http://www.w3.org/2000/svg"><path d="M24.775 148.941a8.175 8.175 0 015.06-.617c.918.155 1.88.429 2.501 1.129.62.699.752 1.902.026 2.496a2.39 2.39 0 01-1.575.399c-1.339 0-2.824-.252-3.892.552-.609.463-1.015 1.226-1.744 1.452a1.722 1.722 0 01-1.88-.846 2.951 2.951 0 01-.218-2.173 3.321 3.321 0 011.722-2.392zm-3.527-6.813c.944 1.346 2.771.899 3.62.079.85-.82 1.208-2.008 1.531-3.143.752-2.591 1.504-5.309.944-7.949a4.374 4.374 0 00-1.023-2.147 2.297 2.297 0 00-2.177-.752c-.921.244-1.504 1.128-1.91 2.008a18.96 18.96 0 00-1.88 8.129c0 1.308.15 2.685.887 3.76m-2.575 1.948c1.022-1.211 1.214-2.982.752-4.512a8.649 8.649 0 00-2.666-3.866 14.439 14.439 0 00-4.772-2.82 5.172 5.172 0 00-2.147-.376 2.257 2.257 0 00-1.804 1.091c-.5.959-.02 2.12.503 3.072a36.523 36.523 0 003.125 4.794c.94 1.214 2.02 2.41 3.452 2.955 1.432.545 2.94.485 3.692-.508" fill="#EBEBEB"/><path d="M21.184 162.409c.053-.199.082-.403.086-.609.045-.443.098-1.004.162-1.665.084-.822.21-1.639.376-2.448.219-.984.515-1.948.887-2.884.367-.936.863-1.815 1.474-2.613a5.522 5.522 0 011.88-1.549 5.206 5.206 0 011.568-.489c.206-.006.41-.035.61-.087a2.924 2.924 0 00-.621 0 4.74 4.74 0 00-1.662.418 5.488 5.488 0 00-1.966 1.56 10.444 10.444 0 00-1.527 2.666 17.58 17.58 0 00-.884 2.933 20.94 20.94 0 00-.323 2.474 35.6 35.6 0 00-.083 1.677c-.012.206-.004.412.023.616z" fill="#E0E0E0"/><path d="M21.3 161.127a1.177 1.177 0 000-.282v-.812c0-.703 0-1.722.034-2.978.064-2.511.279-5.219.7-9.024.376-3.587.925-7.76 1.504-10.475.12-.617.244-1.173.357-1.658.113-.485.203-.91.29-1.249.086-.338.138-.582.191-.789.027-.091.044-.184.049-.278a1.145 1.145 0 00-.098.263c-.064.207-.139.462-.237.778-.097.316-.21.752-.334 1.241-.124.489-.26 1.038-.376 1.654a91.296 91.296 0 00-1.572 9.712c-.417 3.821-.61 7.302-.624 9.821 0 1.26 0 2.283.045 2.986 0 .327.034.598.049.808a1.4 1.4 0 00.022.282z" fill="#E0E0E0"/><path d="M21.316 154.416a5.195 5.195 0 000-.846 22.814 22.814 0 00-.26-2.294 30.793 30.793 0 00-.752-3.343 27.897 27.897 0 00-1.399-3.955 21.057 21.057 0 00-4.106-6.392 9.67 9.67 0 00-.966-.895c-.146-.128-.278-.252-.41-.35l-.376-.259a5.43 5.43 0 00-.71-.455 25.268 25.268 0 012.327 2.083 22.291 22.291 0 014 6.369 30.718 30.718 0 011.407 3.918 33.41 33.41 0 01.793 3.309c.177.951.279 1.73.339 2.256.017.287.054.572.113.854zm-6.486 11.84l.673 9.216h11.836l.673-9.216H14.83zm14.596-3.632h-15.74v3.632h15.74v-3.632z" fill="#E0E0E0"/><path d="M13.687 175.118v1.008h15.48v-1.008h-15.48z" fill="#EBEBEB"/><path d="M15.15 177.897l-.723-1.771h14.175l-.846 1.771H15.15z" fill="#E0E0E0"/><path d="M27.794 169.268l-.056.086c-.05.06-.106.139-.177.233l-.688.884-.034.037-.03-.041-1.692-2.342h.098l-1.67 2.361-.052.075-.057-.071c-.616-.73-1.286-1.527-1.978-2.354h.113l-.109.135-1.767 2.219-.06.075-.057-.079c-.597-.85-1.161-1.643-1.669-2.361h.098l-2.053 2.338-.038.042-.026-.045c-.275-.455-.489-.82-.647-1.083l-.165-.286a.639.639 0 01-.05-.102s.027.027.069.091l.184.274.676 1.064h-.063l2.019-2.369.052-.06.046.064 1.684 2.35h-.113l1.764-2.222.109-.135.056-.072.06.068 1.97 2.357h-.109c.61-.849 1.174-1.643 1.685-2.35l.049-.071.049.071 1.658 2.369h-.06l.718-.842.192-.222c.045-.064.067-.09.071-.086zm.383-3.076c0 .041-2.966.075-6.625.075-3.658 0-6.625-.034-6.625-.075 0-.041 2.967-.075 6.625-.075 3.659 0 6.625.037 6.625.075zm.598 10.032c0 .041-3.222.075-7.2.075s-7.2-.034-7.2-.075c0-.042 3.222-.072 7.2-.072s7.2.03 7.2.072zm129.81-155.401H10.896v88.39h147.689v-88.39zm5.874 124.358h-33.254v32.174h33.254v-32.174z" fill="#F5F5F5"/><path d="M133.785 174.599l9.197-16.555 7.523 10.581 4.573-5.618 6.801 11.592h-28.094zm19.928-19.773a2.397 2.397 0 01-4.745.467 2.393 2.393 0 011.019-2.459 2.397 2.397 0 013.726 1.992z" fill="#E0E0E0"/><path opacity=".3" d="M161.879 174.69v-1.956c0-1.274-.018-3.12-.033-5.463-.019-4.7-.042-11.393-.072-19.428l.135.139-28.094.023c-.038.03.297-.301.158-.154v26.835l-.136-.139 20.304.071 5.731.034 1.504.019h.394c.045-.003.091-.003.136 0a.815.815 0 01-.121 0h-1.88l-5.7.037-20.402.072h-.139v-26.926l.162-.165 28.095.023h.139v.135c-.03 8.073-.053 14.792-.072 19.514 0 2.328-.026 4.163-.033 5.433 0 .61 0 1.087-.019 1.422v.376a.386.386 0 01-.057.098z" fill="#E0E0E0"/><path d="M166.162 29.915H16.833v84.889h149.329v-84.89z" fill="#E0E0E0"/><path d="M183.533 177.506c0 .056-39.247.098-87.65.098-48.402 0-87.656-.042-87.656-.098 0-.057 39.24-.098 87.657-.098 48.417 0 87.649.064 87.649.098z" fill="#263238"/><path d="M163.372 146.204a4.392 4.392 0 012.305 2.549 7.765 7.765 0 01.342 3.486c-.229 2.256-1.504 4.568-2.85 6.392-1.929-1.64-2.403-4.539-2.549-6.016-.234-2.347.77-6.731 2.752-6.392m2.068 16.119a3.756 3.756 0 011.166-3.572 4.955 4.955 0 013.654-1.188c.606.037 1.264.206 1.617.703a1.592 1.592 0 01.045 1.62 3.212 3.212 0 01-1.188 1.2c-1.639 1.056-3.418 1.774-5.294 1.237zm-3.2 1.316a8.758 8.758 0 00-5.042-6.215c-.65-.279-1.504-.44-1.993.052-.489.493-.353 1.342-.067 1.993a7.49 7.49 0 007.065 4.358" fill="#0075FF"/><path d="M162.827 169.452c.009-.16.033-.318.071-.474.053-.301.139-.752.26-1.274a16.441 16.441 0 011.395-4.057 8.124 8.124 0 012.865-3.17 5.382 5.382 0 011.184-.545c.112-.038.226-.07.342-.094a.476.476 0 01.124-.023 8.409 8.409 0 00-1.594.752 8.344 8.344 0 00-2.786 3.151 17.911 17.911 0 00-1.429 4.012l-.304 1.259a4.345 4.345 0 01-.128.463z" fill="#263238"/><path d="M162.902 149.61a.782.782 0 01.026.204c0 .146.023.342.038.582.034.508.071 1.241.109 2.147.079 1.813.154 4.321.177 7.092.022 2.771 0 5.264-.068 7.091-.026.91-.053 1.643-.075 2.151 0 .24-.023.436-.03.583a1.538 1.538 0 01-.023.203 1.375 1.375 0 010-.203v-.587c0-.523.019-1.252.03-2.147.023-1.816.045-4.32.023-7.091a348.22 348.22 0 00-.132-7.088l-.06-2.147v-.586a1.002 1.002 0 01-.015-.204z" fill="#263238"/><path d="M157.623 159.548c.144.049.284.11.417.184.164.072.323.156.474.252.206.115.406.24.598.376l.335.241c.116.086.229.188.346.286.244.195.473.432.725.676.517.555.975 1.161 1.369 1.809.379.655.687 1.348.921 2.068.101.315.184.635.248.959.027.15.064.297.083.44.019.143.034.278.053.41.037.263.037.5.048.71.012.179.012.359 0 .538a3.16 3.16 0 01-.037.455c-.038 0 .022-.654-.109-1.688-.019-.132-.042-.267-.06-.406-.019-.14-.061-.282-.094-.433-.057-.301-.158-.613-.256-.944a10.197 10.197 0 00-2.256-3.824c-.244-.244-.466-.485-.703-.68-.117-.098-.226-.199-.339-.286l-.323-.248c-.857-.605-1.459-.865-1.44-.895z" fill="#263238"/><path d="M166.73 177.506h-6.907l-1.41-10.122h9.633l-1.316 10.122z" fill="#263238"/><path d="M167.425 172.05c0 .053-1.88.098-4.166.098-2.286 0-4.166-.045-4.166-.098 0-.052 1.88-.098 4.166-.098 2.286 0 4.166.046 4.166.098zm0 .602c0 .052-1.88.097-4.166.097-2.286 0-4.166-.045-4.166-.097 0-.053 1.88-.098 4.166-.098 2.286 0 4.166.03 4.166.098z" fill="#FAFAFA"/><path d="M146.11 177.472l-52.67.022a.791.791 0 01-.569-.233.8.8 0 01-.236-.567V144.88a.8.8 0 01.805-.801l52.67-.026a.806.806 0 01.801.805v31.809a.805.805 0 01-.801.805z" fill="#263238"/><path d="M120.331 157.424l4.456 2.395-4.275 2.816-4.279 2.82-.177-5.215-.18-5.215 4.455 2.399zm22.658 16.72c0 .057-10.396.106-23.218.109-12.821.004-23.218-.033-23.218-.086 0-.053 10.393-.102 23.218-.109 12.826-.008 23.218.03 23.218.086z" fill="#fff"/><path d="M97.384 174.167a.588.588 0 01-1.001.415.588.588 0 111.001-.415z" fill="#fff"/><path d="M137.879 177.389l-55.933.027a.805.805 0 01-.805-.805V142.79a.804.804 0 01.497-.741.792.792 0 01.307-.06l55.934-.026a.805.805 0 01.805.8v33.84a.802.802 0 01-.805.786z" fill="#455A64"/><path d="M110.503 156.123l4.726 2.538-4.535 2.989-4.534 2.989-.188-5.527-.192-5.531 4.723 2.542zm24.022 17.728c0 .057-11.02.105-24.613.109-13.592.004-24.616-.03-24.616-.086 0-.057 11.02-.102 24.616-.109 13.597-.008 24.613.034 24.613.086z" fill="#fff"/><path d="M86.153 173.874a.62.62 0 11-1.24-.001.62.62 0 011.24.001z" fill="#fff"/><path d="M116.421 157.172H85.014a.804.804 0 00-.805.804v18.718c0 .444.36.804.805.804h31.407c.444 0 .805-.36.805-.804v-18.718a.805.805 0 00-.805-.804z" fill="#0075FF"/><path d="M101.061 165.29l2.711 1.455-2.602 1.714-2.602 1.719-.109-3.174-.109-3.173 2.711 1.459zm13.785 10.174c0 .053-6.325.098-14.123.102-7.798.003-14.126-.038-14.126-.091 0-.052 6.324-.101 14.126-.105 7.802-.004 14.123.038 14.123.094z" fill="#fff"/><path d="M87.09 175.475a.358.358 0 11-.716 0 .358.358 0 01.715 0zm83.321-136.232H22.556v94.188h147.855V39.243z" fill="#fff"/><path d="M170.512 133.07l-.079-94.188.079.09L22.672 39l.106-.117v94.188l-.098-.109 147.851.109-147.85.109h-.121V38.767h.12l147.84.026h.082v.09c-.056 57.803-.086 93.47-.09 94.188z" fill="#263238"/><path d="M170.599 44.53c0 .056-33.141.105-74.008.105-40.868 0-74.031-.049-74.031-.105 0-.057 33.133-.11 74.015-.11 40.883 0 74.024.05 74.024.11zM27.448 41.04a.955.955 0 11-1.91 0 .955.955 0 011.91 0zm2.929 0a.954.954 0 11-1.91 0 .954.954 0 011.91 0zm2.913 0a.955.955 0 11-1.91 0 .955.955 0 011.91 0z" fill="#263238"/><path d="M62.965 95.278h-30.49v29.501h30.49v-29.5z" fill="#0075FF"/><path opacity=".3" d="M34.84 122.256l8.434-15.183 6.9 9.705 4.192-5.155 6.238 10.633H34.84zm18.274-18.134a2.199 2.199 0 01-2.622 2.158 2.2 2.2 0 01-1.728-1.725 2.196 2.196 0 114.35-.433z" fill="#000"/><path opacity=".3" d="M60.603 122.335a.423.423 0 010-.12v-1.669c0-1.17 0-2.862-.033-5.013 0-4.308-.038-10.445-.064-17.81l.128.123-25.764.023.143-.143v24.609l-.124-.124 18.627.064 5.264.034h1.899a.356.356 0 01-.113 0h-1.718l-5.227.034-18.706.064h-.128V97.726l.147-.147 25.764.02h.124v.123c-.027 7.4-.05 13.563-.064 17.89 0 2.14-.027 3.821-.034 4.982v1.636a.944.944 0 01-.12.105z" fill="#000"/><path d="M87.834 100.892h-20.64v1.038h20.64v-1.038z" fill="#0075FF"/><path d="M95.007 105.344c0 .06-6.2.109-13.844.109-7.644 0-13.844-.049-13.844-.109s6.196-.105 13.844-.105 13.844.041 13.844.105zm.001 2.895c0 .06-6.2.109-13.845.109-7.644 0-13.859-.06-13.859-.109s6.196-.105 13.844-.105 13.86.049 13.86.105zm-.001 2.895c0 .06-6.2.106-13.844.106-7.644 0-13.844-.046-13.844-.106s6.196-.105 13.844-.105 13.844.045 13.844.105zm0 2.895c0 .057-6.2.106-13.844.106-7.644 0-13.844-.049-13.844-.106 0-.056 6.196-.105 13.844-.105s13.844.045 13.844.105zm.001 2.907c0 .056-6.2.105-13.845.105-7.644 0-13.859-.06-13.859-.105s6.196-.109 13.844-.109 13.86.038 13.86.109zm-13.468 2.632c0 .056-3.185.105-7.11.105-3.926 0-7.126-.034-7.126-.105s3.185-.109 7.11-.109c3.926 0 7.125.064 7.125.109z" fill="#263238"/><path d="M154.502 99.144h-20.638v1.037h20.638v-1.037z" fill="#0075FF"/><path d="M161.68 103.599c0 .06-6.2.106-13.844.106-7.645 0-13.845-.046-13.845-.106s6.197-.105 13.845-.105c7.647 0 13.844.045 13.844.105zm0 2.896c0 .06-6.2.105-13.844.105-7.645 0-13.845-.045-13.845-.105 0-.061 6.197-.106 13.845-.106 7.647 0 13.844.045 13.844.106zm0 2.895c0 .056-6.2.105-13.844.105-7.645 0-13.845-.049-13.845-.105 0-.057 6.197-.109 13.845-.109 7.647 0 13.844.049 13.844.109zm0 2.895c0 .056-6.2.105-13.844.105-7.645 0-13.845-.049-13.845-.105 0-.056 6.197-.109 13.845-.109 7.647 0 13.844.049 13.844.109zm0 2.891c0 .06-6.2.109-13.844.109-7.645 0-13.845-.049-13.845-.109s6.197-.105 13.845-.105c7.647 0 13.844.049 13.844.105zm-13.472 2.662c0 .057-3.185.106-7.11.106-3.926 0-7.11-.049-7.11-.106 0-.056 3.184-.109 7.11-.109 3.925 0 7.11.049 7.11.109zm-18.608 7.938a2.6 2.6 0 011.022-.106c-.214.215-.06.061-.109.106v-.384c0-.123.008-.232.023-.327.019-.184.045-.297.075-.297s.056.113.075.297c0 .095.008.204.023.327v.376l-.105.109c-.339.036-.68.001-1.004-.101zm-4.392 0a5.712 5.712 0 012.188 0 5.557 5.557 0 01-2.188 0zm-4.362 0a5.717 5.717 0 012.189 0 5.562 5.562 0 01-2.189 0zm-4.376 0a5.712 5.712 0 012.188 0 5.557 5.557 0 01-2.188 0zm-4.377 0a5.712 5.712 0 012.188 0 5.557 5.557 0 01-2.188 0zm-4.377 0a5.717 5.717 0 012.189 0 5.562 5.562 0 01-2.189 0zm-4.376 0a5.712 5.712 0 012.188 0 5.557 5.557 0 01-2.188 0zm-3.211-1.019c.107.328.144.675.109 1.019l-.109-.105h.398l.328.022c.184.023.297.049.297.075 0 .027-.113.057-.297.079l-.328.023h-.398c-.045-.049.109.105-.105-.109-.031-.339.004-.68.105-1.004zm0-4.226a5.186 5.186 0 010 2.113 5.342 5.342 0 010-2.113zm0-4.223a5.186 5.186 0 010 2.113 5.342 5.342 0 010-2.113zm0-4.222a5.167 5.167 0 010 2.109 2.787 2.787 0 01-.106-1.057 2.757 2.757 0 01.106-1.052zm0-4.227a5.191 5.191 0 010 2.114 5.347 5.347 0 010-2.114zm0-4.222a5.167 5.167 0 010 2.109 2.762 2.762 0 01-.106-1.053 2.784 2.784 0 01.106-1.056zm0-4.227a5.188 5.188 0 010 2.114 5.344 5.344 0 010-2.113zm1.015-3.131c-.33.104-.678.14-1.023.105l.109-.105v.387c0 .12 0 .233-.022.323-.019.184-.045.301-.076.301-.03 0-.056-.117-.075-.3 0-.091 0-.204-.022-.324-.023-.12 0-.132 0-.192v-.195l.105-.106c.338-.032.68.004 1.004.106zm4.384 0c-.723.14-1.465.14-2.188 0a5.736 5.736 0 012.188 0zm4.377 0a5.74 5.74 0 01-2.189 0 5.74 5.74 0 012.189 0zm4.376 0c-.722.14-1.465.14-2.188 0a5.736 5.736 0 012.188 0zm4.377 0c-.723.14-1.466.14-2.188 0a5.736 5.736 0 012.188 0zm4.377 0a5.74 5.74 0 01-2.189 0 5.74 5.74 0 012.189 0zm4.376 0c-.722.14-1.465.14-2.188 0a5.736 5.736 0 012.188 0zm3.211 1.022a2.496 2.496 0 01-.109-1.022l.109.105h-.398c-.124 0-.233 0-.327-.023-.185-.019-.297-.045-.297-.075s.112-.056.297-.075c.095 0 .204-.008.327-.023h.398l.106.106c.03.34-.006.681-.106 1.007zm0 4.219a5.187 5.187 0 010-2.113 5.33 5.33 0 010 2.113zm0 4.226a5.167 5.167 0 010-2.109c.103.342.138.701.106 1.056.033.355-.003.712-.106 1.053zm0 4.227a5.191 5.191 0 010-2.114 5.335 5.335 0 010 2.114zm0 4.222a5.167 5.167 0 010-2.109c.103.34.139.698.106 1.052.032.356-.003.715-.106 1.057zm0 4.245a5.186 5.186 0 010-2.113 5.33 5.33 0 010 2.113zm0 4.204a5.186 5.186 0 010-2.113 5.33 5.33 0 010 2.113z" fill="#263238"/><path d="M121.264 68.191v-.846c0-.552 0-1.35-.019-2.368 0-2.05-.027-4.99-.042-8.58l.076.075-19.154.022c-.022.019.184-.184.094-.098v11.788l-.094-.09 13.769.045 3.96.026h1.331a.491.491 0 01.097 0h-1.391l-3.937.026-13.829.046h-.09V56.4c-.087.087.12-.12.101-.098l19.154.02h.079v.078c-.019 3.613-.034 6.565-.042 8.63 0 1.01 0 1.8-.018 2.35v.612c0 .147-.045.2-.045.2z" fill="#0075FF"/><path d="M111.804 61.314l1.571.846-1.507.993-1.512.993-.06-1.839-.064-1.839 1.572.846zm8.076 5.696c0 .057-3.67.099-8.193.099s-8.197-.042-8.197-.098c0-.057 3.67-.083 8.182-.083 4.512 0 8.208.03 8.208.083z" fill="#0075FF"/><path d="M103.569 67.218a.207.207 0 100-.415.207.207 0 000 .415zm42.638-9.442h-20.638v1.038h20.638v-1.038z" fill="#0075FF"/><path d="M153.382 62.232c0 .056-6.197.105-13.841.105-7.644 0-13.844-.049-13.844-.105 0-.057 6.196-.11 13.844-.11s13.841.05 13.841.11zm0 2.891c0 .06-6.197.11-13.841.11-7.644 0-13.844-.05-13.844-.11s6.196-.105 13.844-.105 13.841.049 13.841.105z" fill="#263238"/><path d="M121.264 85.514v-.843c0-.552 0-1.35-.019-2.368 0-2.05-.027-4.99-.042-8.58l.076.075-19.154.022c-.022 0 .184-.188.094-.098v11.792l-.094-.09 13.769.045 3.96.026h1.342-1.305l-3.937.026-13.829.042h-.09V73.684c-.087.087.12-.12.101-.097l19.154.019h.079v.079c-.019 3.613-.034 6.565-.042 8.625 0 1.012 0 1.805-.018 2.354v.61c-.01.08-.025.16-.045.24z" fill="#0075FF"/><path d="M111.804 78.637l1.571.846-1.507.996-1.512.993-.06-1.839-.064-1.842 1.572.846zm8.076 5.7c0 .052-3.67.098-8.193.098s-8.197-.046-8.197-.098c0-.053 3.67-.113 8.182-.113 4.512 0 8.208.06 8.208.113z" fill="#0075FF"/><path d="M103.569 84.544a.207.207 0 100-.415.207.207 0 000 .415zm42.638-9.442h-20.638v1.038h20.638v-1.038z" fill="#0075FF"/><path d="M153.382 79.554c0 .06-6.197.11-13.841.11-7.644 0-13.844-.05-13.844-.11s6.196-.105 13.844-.105 13.841.049 13.841.105zm0 2.896c0 .06-6.197.108-13.841.108-7.644 0-13.844-.049-13.844-.109s6.196-.105 13.844-.105 13.841.049 13.841.105z" fill="#263238"/><path d="M92.033 89.668c.304-.095.624-.128.94-.097l-.097.097v-.357c0-.113 0-.214.018-.3 0-.17.042-.275.072-.275.03 0 .049.105.068.274 0 .087 0 .188.022.301v.376l-.098.098a2.297 2.297 0 01-.925-.117zm-3.752 0a4.55 4.55 0 011.88 0c-.62.131-1.26.131-1.88 0zm-3.749 0a4.532 4.532 0 011.88 0c-.62.132-1.26.132-1.88 0zm-3.752 0a4.55 4.55 0 011.88 0c-.62.131-1.26.131-1.88 0zm-3.749 0c.302-.095.62-.128.936-.097.317-.031.637.002.94.097-.303.098-.623.131-.94.098a2.25 2.25 0 01-.936-.098zm-3.752 0a4.55 4.55 0 011.88 0c-.62.131-1.26.131-1.88 0zm-3.749 0a4.55 4.55 0 011.88 0c-.62.131-1.26.131-1.88 0zm-3.753 0c.304-.095.624-.128.94-.097.316-.031.634.002.937.097-.302.098-.621.132-.937.098-.316.033-.636 0-.94-.098zm-3.737 0a4.55 4.55 0 011.88 0c-.62.131-1.26.131-1.88 0zm-3.76 0a4.532 4.532 0 011.88 0c-.62.132-1.26.132-1.88 0zm-3.76 0a4.55 4.55 0 011.88 0c-.62.131-1.26.131-1.88 0zm-3.741 0a4.532 4.532 0 011.88 0c-.62.132-1.26.132-1.88 0zm-3.753 0a4.55 4.55 0 011.88 0c-.62.131-1.26.131-1.88 0zm-3.748 0c.302-.095.62-.128.936-.097.315-.031.634.002.936.097-.302.098-.62.132-.936.098-.316.034-.635 0-.936-.098zm-3.753 0c.304-.095.623-.128.94-.097.316-.03.634.002.936.097-.302.098-.62.13-.936.098-.317.033-.637 0-.94-.098zm-3.749 0c.303-.095.621-.128.937-.097.316-.031.636.002.94.097-.304.098-.624.131-.94.098-.316.034-.635 0-.937-.098zm-2.816-.932c.095.304.129.623.098.94l-.098-.098h.376c.113 0 .214 0 .3.023.17 0 .275.041.275.067 0 .027-.105.053-.274.072l-.3.019h-.366l-.097-.098a2.372 2.372 0 01.086-.925zm0-3.7c.13.609.13 1.238 0 1.846a4.405 4.405 0 010-1.846zm0-3.688c.13.608.13 1.237 0 1.846a4.405 4.405 0 010-1.846zm0-3.693c.13.609.13 1.238 0 1.846a4.405 4.405 0 010-1.846zm0-3.692c.13.609.13 1.238 0 1.846a4.405 4.405 0 010-1.846zm0-3.693c.13.61.13 1.238 0 1.847a4.405 4.405 0 010-1.846zm0-3.688c.13.607.13 1.235 0 1.843a4.387 4.387 0 010-1.843zm0-3.692c.13.608.13 1.237 0 1.846a4.405 4.405 0 010-1.846zm0-3.693c.13.609.13 1.238 0 1.847a4.405 4.405 0 010-1.846zm0-3.692c.13.609.13 1.238 0 1.846a4.405 4.405 0 010-1.846zm.94-2.786a2.27 2.27 0 01-.94.102c.196-.2.053-.057.098-.098v.361c0 .064 0 .214-.023.297 0 .169-.041.274-.067.274-.027 0-.053-.105-.068-.274 0-.083 0-.184-.023-.297v-.376c.045-.045-.098.094.098-.102.313-.024.627.015.925.113zm3.753 0a2.27 2.27 0 01-.94.102 2.233 2.233 0 01-.937-.102c.303-.096.621-.129.937-.098.316-.03.636.003.94.098zm3.748 0c-.301.1-.62.134-.936.102a2.258 2.258 0 01-.94-.102c.304-.095.623-.129.94-.098.316-.03.634.003.936.098zm3.749 0c-.301.1-.62.135-.936.102a2.233 2.233 0 01-.936-.102c.302-.096.62-.129.936-.098.315-.03.634.002.936.098zm3.753 0a4.382 4.382 0 01-1.88 0 4.55 4.55 0 011.88 0zm3.737 0a4.37 4.37 0 01-1.88 0 4.532 4.532 0 011.88 0zm3.76 0c-.62.136-1.26.136-1.88 0a4.55 4.55 0 011.88 0zm3.76 0a4.37 4.37 0 01-1.88 0 4.532 4.532 0 011.88 0zm3.76 0c-.62.136-1.26.136-1.88 0a4.55 4.55 0 011.88 0zm3.734 0c-.302.1-.62.135-.937.102a2.256 2.256 0 01-.94-.102c.304-.095.624-.129.94-.098.316-.03.634.002.937.098zm3.752 0c-.62.136-1.26.136-1.88 0a4.55 4.55 0 011.88 0zm3.749 0c-.62.136-1.26.136-1.88 0a4.55 4.55 0 011.88 0zm3.752 0c-.302.1-.623.134-.94.102a2.233 2.233 0 01-.936-.102c.302-.096.62-.129.936-.098.317-.03.637.003.94.098zm3.749 0c-.62.136-1.26.136-1.88 0a4.55 4.55 0 011.88 0zm3.749 0a4.37 4.37 0 01-1.88 0 4.532 4.532 0 011.88 0zm3.752 0c-.62.136-1.26.136-1.88 0a4.55 4.55 0 011.88 0zm2.816.94a2.282 2.282 0 01-.097-.94c.195.195.052.056.097.102h-.665c-.17-.02-.275-.042-.275-.072 0-.03.106-.049.275-.068l.297-.022h.376c.041.045-.098-.098.098.098a2.34 2.34 0 01-.106.902zm.001 3.692a4.405 4.405 0 010-1.846c.13.609.13 1.238 0 1.846zm0 3.693a4.405 4.405 0 010-1.846c.13.608.13 1.237 0 1.846zm0 3.692a4.405 4.405 0 010-1.846c.13.608.13 1.237 0 1.846zm0 3.696a4.387 4.387 0 010-1.842c.13.607.13 1.235 0 1.842zm0 3.685a4.405 4.405 0 010-1.846c.13.608.13 1.237 0 1.846zm0 3.693a4.405 4.405 0 010-1.847c.13.609.13 1.238 0 1.846zm0 3.691a4.405 4.405 0 010-1.846c.13.609.13 1.238 0 1.846zm0 3.693a2.222 2.222 0 01-.098-.925 2.2 2.2 0 01.097-.921c.097.297.13.61.098.92.031.313-.002.627-.097.926zm0 3.688a4.405 4.405 0 010-1.846c.13.609.13 1.238 0 1.846z" fill="#E0E0E0"/><path d="M88.642 89.379l-58.322 3.2a.805.805 0 01-.846-.752l-1.932-35.292a.8.8 0 01.752-.846l58.318-3.2a.804.804 0 01.846.753l1.936 35.287a.8.8 0 01-.752.85z" fill="#0075FF"/><path d="M58.893 68.785l5.06 2.377-4.549 3.369-4.553 3.369-.511-5.746-.512-5.745 5.065 2.376zM84.912 85.89c0 .052-11.472.725-25.628 1.504-14.157.778-25.636 1.36-25.64 1.308-.003-.052 11.472-.73 25.632-1.504 14.16-.774 25.632-1.365 25.636-1.308z" fill="#fff"/><path d="M34.54 88.653a.647.647 0 11-1.292.066.647.647 0 011.291-.066z" fill="#fff"/><path opacity=".3" d="M83.502 52.711c-.933 1.79-1.88 3.832-1.248 5.746.297.876.898 1.613 1.353 2.417 1.399 2.47 1.35 5.467 1.267 8.303-.026.804-.094 1.706-.7 2.233-.5.428-1.21.477-1.88.5l-7.933.305v13.968l14.717-3.256-.688-20.887-.376-3.523-1.485-6.016-3.027.21z" fill="#000"/><path d="M70.887 165.658l.504 11.784 6.362-.143-.478-11.806-6.388.165z" fill="#0075FF"/><path d="M74.515 176.927c.053 0-.048-2.583-.221-5.764s-.376-5.757-.414-5.753c-.038.004.045 2.583.222 5.764s.346 5.757.413 5.753z" fill="#263238"/><path d="M71.353 176.63l6.366-.162.034.831-6.362.143-.038-.812z" fill="#E0E0E0"/><path d="M77.599 173.528s-.049-.102-.173-.252a4.56 4.56 0 00-1.654-1.222 3.305 3.305 0 00-1.505-.271 3.356 3.356 0 00-2.428 1.192 2.858 2.858 0 00-.433.711.819.819 0 00-.09.293c.183-.322.392-.629.624-.917a3.382 3.382 0 012.339-1.087 3.876 3.876 0 012.463.831c.556.406.834.744.857.722z" fill="#263238"/><path opacity=".3" d="M77.41 168.854l.053 1.297-6.377.113-.045-.978 6.37-.432z" fill="#000"/><path d="M55.498 165.966l.32 7.37s-7.39 2.801-7.465 4.17l14.319-.105-.027-11.51-7.148.075z" fill="#0075FF"/><path d="M60.16 172.712a.59.59 0 01.41.669.564.564 0 01-.658.414.615.615 0 01-.433-.711.582.582 0 01.733-.353m2.46 4.67v-1.155l-13.856.527s-.64.282-.564.733l14.42-.105z" fill="#E0E0E0"/><path d="M55.685 173.385c0 .071.376.101.704.323.327.222.533.519.601.493.068-.027-.045-.436-.47-.7-.425-.263-.85-.165-.835-.116zm-1.507.635c0 .072.29.188.53.485.24.297.316.609.376.606.06-.004.113-.403-.196-.752-.308-.35-.71-.403-.71-.339zm-.846 1.82c.064 0 .161-.338-.023-.726-.184-.387-.515-.533-.545-.473-.03.06.177.263.323.579.147.316.177.613.245.62zm2.47-4.155c.03.064.35-.037.752 0 .402.038.71.147.752.087.041-.06-.263-.309-.733-.331-.47-.023-.808.188-.77.244zm-.271-1.586c.236.067.486.067.722 0 .26-.047.513-.127.752-.237.143-.065.281-.139.414-.222a.932.932 0 00.214-.173.3.3 0 00.03-.376.374.374 0 00-.308-.162 1.037 1.037 0 00-.27.042 2.607 2.607 0 00-1.113.597c-.332.312-.444.579-.418.591.026.011.192-.2.53-.455a2.68 2.68 0 01.643-.376 2.63 2.63 0 01.425-.128c.15-.041.282-.045.32.022.037.068 0 .038 0 .083a.61.61 0 01-.159.124c-.12.082-.246.156-.376.222a4.225 4.225 0 01-.695.275c-.24.04-.478.098-.71.173z" fill="#263238"/><path d="M55.625 170.2a1.19 1.19 0 00.184-.699 2.291 2.291 0 00-.105-.79c-.046-.153-.11-.3-.188-.44a.593.593 0 00-.462-.376.34.34 0 00-.301.203 1.19 1.19 0 00-.072.267 1.653 1.653 0 00.316 1.237c.282.376.58.455.583.429.004-.026-.222-.169-.44-.526a1.612 1.612 0 01-.244-.681 1.565 1.565 0 010-.417c.022-.155.079-.279.135-.264a.525.525 0 01.256.237c.072.119.133.245.18.376.084.231.133.473.147.718.034.452-.026.715.011.726z" fill="#263238"/><path opacity=".3" d="M62.675 170.313l-.015 1.636h-6.903v-.899l6.918-.737z" fill="#000"/><path d="M84.111 53.858c-.162 0-.579 1.632-.786 2.452-.074.3-.031.617.12.887l1.659 2.937c.31.542.759.992 1.3 1.304l.832.47.109 1.745 4.666.075-1.421-5.448-.595-3.32a1.127 1.127 0 00-.834-.62l-.44-.065-.166-.42a.751.751 0 00-.571-.463l-.275-.034-.376-.944a.823.823 0 00-.752-.511l-2.256.03s-.496.67.643.985c.316.09.643.13.97.12l.527 2.035s.376 2.135-.628 2.135c-.88 0-.963-1.15-.963-1.15s.388-2.328-.763-2.2z" fill="#FFBE9D"/><path d="M88.736 55.896a3.235 3.235 0 00-.087-.425 1.624 1.624 0 00-.635-.808 4.51 4.51 0 01-.35-1.012 1.248 1.248 0 01-.049-.44s.03.166.102.425c.093.335.212.662.357.978l.23.188a1.453 1.453 0 01.398.654c.03.104.045.212.045.32.004.04 0 .081-.011.12zm.718-.395a.553.553 0 00-.5-.493h-.026v-.022l-.027-.071a5.47 5.47 0 01-.267-.846c.14.26.254.534.342.816l.027.075-.034-.026a.58.58 0 01.474.338c.045.135.022.237.011.23zm-3.564-2.455c-.02 0-.106-.102-.083-.26.022-.157.098-.255.117-.244.018.011-.023.117-.038.252-.015.136.023.24.004.252z" fill="#EB996E"/><path d="M61.987 74.2l8.46-.106-.944-7.207s.58-.124.617-3.257c.038-3.132.184-8.463.184-8.463a10.905 10.905 0 00-10.949 1.376l-.462.376 3.094 17.28z" fill="#FFBE9D"/><path d="M59.874 60.758c-.053-.023-2.154-.64-2.087 1.504.068 2.143 2.207 1.632 2.207 1.572 0-.06-.12-3.076-.12-3.076zm10.062-.448c.052-.022 1.962-.537 1.88 1.606-.083 2.143-2.207 1.632-2.207 1.568 0-.064.327-3.174.327-3.174z" fill="#FFBE9D"/><path d="M72.346 54.118a1.162 1.162 0 00-.428-1.034.82.82 0 00-1.065.079A.96.96 0 0070.03 52c-.511-.03-.948.353-1.44.489a2.294 2.294 0 01-1.463-.17c-.466-.184-.898-.443-1.368-.612a4.004 4.004 0 00-5.13 2.353 1.779 1.779 0 00-1.88.715 2.933 2.933 0 00-.447 2.056c.075.481.201.953.377 1.407v.12c.03 1.722.928 7.17 1.665 7.181 1.282.02.275-5.816.275-5.816 1.571-.61.985-2.967 1.38-3.324.394-.357 1.214-1.188 4.512.496a6.392 6.392 0 003.906.421h.132c.298-.08.583-.207.842-.376.308-.176.552-.446.696-.77a.91.91 0 00-.18-.982c.247-.306.4-.679.44-1.071z" fill="#263238"/><path d="M59.178 60.536c.32 1.797.256 2.741.553 3.94.47 1.88 1.414 3.354 3.121 4.302 1.707.947 4.023.929 5.493-.376 1.02-.895 1.741-1.906 1.88-3.256.14-1.35.305-3.734.316-5.091 0-2.448.18-4.787.18-4.787l-6.993-1.267-3.978 2.365-.572 4.17zm7.212 9.306a2.283 2.283 0 01-1.226.105 2.257 2.257 0 01-1.173-.376c.023-.052.538.11 1.196.18.658.072 1.196.03 1.203.091z" fill="#263238"/><path d="M68.206 53.685a1.01 1.01 0 01-.33.06 1.944 1.944 0 01-.895-.21 6.331 6.331 0 01-1.128-.752 3.105 3.105 0 00-1.478-.68 2.658 2.658 0 00-1.59.277 2.595 2.595 0 00-.97.91c-.219.355-.36.75-.418 1.162 0-.112.012-.224.034-.334a2.7 2.7 0 01.335-.858c.24-.395.579-.72.985-.943a2.688 2.688 0 011.635-.29 3.05 3.05 0 011.504.7c.351.286.729.538 1.128.752.268.141.566.22.869.229.203.007.32-.034.32-.023zm-6.715.88a2.824 2.824 0 00-.5-.188 1.7 1.7 0 00-1.237.196 1.67 1.67 0 00-.722 1.019 2.937 2.937 0 00-.056.534.456.456 0 01-.023-.143 1.333 1.333 0 01.026-.403 1.611 1.611 0 012.023-1.255c.132.034.258.085.376.154.042.022.08.051.113.086zm-.203 7.645a7.862 7.862 0 01-.993-2.257 7.87 7.87 0 01.993 2.256zm1.831 1.229a2.557 2.557 0 01-.993-.986 2.59 2.59 0 01-.507-1.304c.056 0 .26.568.673 1.195.413.628.876 1.053.827 1.095zm1.805.398a1.929 1.929 0 01-.835-.515c-.414-.376-.666-.726-.624-.752.041-.026.353.263.752.61.398.345.737.608.707.657zm3.192-2.907c.048.368-.017.74-.188 1.069a1.842 1.842 0 01-.62.89c.127-.33.274-.653.44-.966.105-.337.227-.668.368-.992zm1.068-1.691c.083.44.04.895-.124 1.312a2.342 2.342 0 01-.628 1.15c-.045-.033.255-.53.466-1.206.21-.677.244-1.256.286-1.256z" fill="#455A64"/><path d="M70.03 54.896a1.177 1.177 0 01-.279.214 2.162 2.162 0 01-.92.286 3.244 3.244 0 01-1.414-.218 11.23 11.23 0 01-1.565-.782 6.768 6.768 0 00-1.59-.684 2.633 2.633 0 00-1.395 0 1.94 1.94 0 00-.816.466c-.158.162-.218.274-.226.267.053-.105.121-.202.203-.286.226-.236.51-.409.824-.5.464-.14.957-.149 1.425-.026a6.504 6.504 0 011.613.688c.498.298 1.017.56 1.553.782.438.178.911.256 1.384.23a2.161 2.161 0 001.203-.437zm.62 1.026a.499.499 0 01-.112.076c-.108.061-.22.117-.335.165a3.974 3.974 0 01-2.41.218 3.165 3.165 0 01-.376-.098c-.083-.03-.128-.049-.124-.056.003-.008.188.045.492.101.398.07.804.089 1.207.053.401-.04.796-.13 1.173-.27.309-.11.482-.2.485-.189z" fill="#455A64"/><path d="M66.755 120.704l2.057 19.837 1.477 29.877h7.885l.214-63.585-22.575 1.609-4.677 33.363 4.053 29.2h8.652l-2.027-27.768 4.941-22.533z" fill="#263238"/><path d="M66.755 120.696a11.597 11.597 0 01-1.534 1.504c-.513.505-1.07.963-1.666 1.369a12.01 12.01 0 011.534-1.504c.512-.507 1.07-.965 1.666-1.369zm-.023-.376c-.033-.849-.02-1.699.042-2.546 0-.849.049-1.698.146-2.541.101.846.117 1.7.05 2.549.002.852-.078 1.701-.238 2.538zm2.606-7.419a.683.683 0 01.128 0l.376-.022 1.504-.072 5.347-.225h.09v5.817l-.064.022-3.474 1.395h-.068l-3.072-1.068h-.049v-.049c-.225-1.733-.41-3.177-.545-4.211-.06-.481-.105-.868-.143-1.158-.037-.289-.041-.398-.037-.395.01.037.02.075.026.113 0 .087.03.188.052.312.046.293.11.685.185 1.173.154 1.019.376 2.437.624 4.136l-.053-.067 3.08 1.045h-.064l3.474-1.403-.06.091v-5.655l.09.086-5.287.132-1.504.026h-.556v-.023zm-11.381.098a.454.454 0 01.116 0h.35l1.353-.045 4.888-.113h.09v.091l-.176 5.564v.053l-.041.026-.564.376-2.858 1.88-.049.034-.053-.034-3.24-2.015-.042-.026v-.045c.06-1.73.113-3.17.147-4.204.022-.481.041-.869.052-1.154.002-.132.01-.264.027-.395a.382.382 0 010 .113v1.488c0 1.019-.038 2.444-.06 4.136l-.042-.071 3.234 1.936h-.102l2.858-1.88.564-.376-.045.079c.075-2.022.142-3.921.203-5.568l.086.09-4.824.026h-1.737l-.135.034zm17.995 8.987a5.525 5.525 0 01-1.068-.034 50.844 50.844 0 01-5.11-.662 5.314 5.314 0 01-1.041-.241c.355.004.71.038 1.06.102l2.553.338 2.553.324a6.36 6.36 0 011.053.173zm-.184 22.112s-.03.117-.185.252a1.26 1.26 0 01-.808.275 1.92 1.92 0 01-1.177-.452 8.093 8.093 0 01-1.072-1.086 14.702 14.702 0 01-1.597-2.256 4.972 4.972 0 01-.5-1.023c.223.305.429.623.616.951.492.767 1.036 1.5 1.628 2.192.316.385.663.744 1.038 1.072.297.264.672.424 1.068.455.265.016.528-.052.752-.195.161-.102.225-.192.237-.185zm-15.571.7s0 .101-.105.252c-.14.212-.326.39-.545.518a2.079 2.079 0 01-1.083.282 2.533 2.533 0 01-1.3-.413 4.616 4.616 0 01-1.569-1.88 4.08 4.08 0 01-.376-.929c.192.275.363.564.512.865.368.704.9 1.31 1.549 1.767.36.237.776.375 1.207.399.349.012.696-.064 1.007-.222.277-.162.516-.38.703-.639zm.504-2.993a1.96 1.96 0 01-.646.376 5.156 5.156 0 01-1.767.376 5.072 5.072 0 01-1.798-.245 1.856 1.856 0 01-.673-.323c.795.253 1.625.38 2.46.376a8.257 8.257 0 002.424-.56zM86.36 71.786H74.864s-1.564-.899-2.316-.752a3.008 3.008 0 00-1.414.959l1.523 12.663 3.722-2.752 13.86-1.44a4.415 4.415 0 004.335-4.933L92.01 61.908l-5.264.177-.21 3.455-.178 6.246zm-31.645 3.192a7.058 7.058 0 00-2.775 3.226c-.669 1.61-5.264 9.648-7.662 13.852a3.978 3.978 0 00.575 4.726c1.466 1.53 3.925 1.952 6.065 1.256.959-.312 4.798-3.429 4.798-3.429l-1-19.63z" fill="#455A64"/><path d="M56.716 103.701L54.08 81.024l.636-6.046 6.711-2.857 8.69-.572 8.275.914-1.936 23.259 2.117 13.119-23.177 1.045 1.32-6.185z" fill="#455A64"/><path d="M56.704 103.603c-.052 0-.684-5.042-1.41-11.28-.725-6.238-1.267-11.28-1.214-11.302.053-.023.684 5.045 1.41 11.28.726 6.233 1.286 11.295 1.214 11.302zM78.208 77.55c.01.068.01.138 0 .207 0 .154-.03.346-.053.582-.056.53-.128 1.256-.218 2.136l-.707 7.058a292.605 292.605 0 00-.613 7.061l-.154 2.143c0 .237-.034.429-.045.583a.86.86 0 01-.03.203.719.719 0 010-.203v-.587c0-.507.045-1.24.09-2.147.102-1.812.294-4.316.557-7.072.263-2.756.545-5.264.752-7.054.113-.898.207-1.628.282-2.132l.086-.579a.752.752 0 01.053-.2zm-3.974 22.579c-.114.159-.24.308-.376.447a5.365 5.365 0 01-.47.493c-.196.18-.407.398-.67.601a9.151 9.151 0 01-.872.662c-.343.242-.698.465-1.064.669a13.257 13.257 0 01-5.482 1.636c-.444 0-.861.049-1.256.026a9.466 9.466 0 01-1.09-.075 8.934 8.934 0 01-.892-.139 5.227 5.227 0 01-.665-.154 3.443 3.443 0 01-.553-.173c0-.045.805.203 2.12.327.36.036.722.054 1.084.053.376 0 .8-.023 1.237-.045a13.776 13.776 0 005.403-1.613c.376-.222.752-.418 1.06-.643.309-.226.613-.433.876-.636 1.05-.827 1.576-1.466 1.61-1.436z" fill="#263238"/><path opacity=".3" d="M61.98 104.362c-1.128-.323-1.192-1.387-.752-1.842.44-.455 1.128-.515 1.77-.425a8.83 8.83 0 001.88.252c1.03-.068 1.88-.786 2.61-1.53.73-.745 1.395-1.58 2.335-2.008.94-.429 2.256-.275 2.745.632a1.951 1.951 0 01-.113 1.88 4.335 4.335 0 01-1.395 1.368 11.405 11.405 0 01-9.07 1.673" fill="#000"/><path opacity=".2" d="M55.031 89.349c-.203.286-2.162 2.963-2.162 2.963-.053.27-1.951 2.718-1.951 2.718s1.688-.936 2.985-1.605a11.212 11.212 0 001.553-1.11s-.293-1.842-.421-2.53c-.29-1.542-.485-5.02-.485-5.02" fill="#000"/><path d="M75.685 72.248a3.013 3.013 0 011.504 1.2 3.03 3.03 0 01.665 1.808 5.482 5.482 0 00-2.173-3.008h.004zM55.031 89.349c-.16.323-.35.63-.568.917-.376.55-.895 1.301-1.485 2.125-1.184 1.64-2.196 2.951-2.256 2.876l.605-.876 1.505-2.113a93.306 93.306 0 011.53-2.09c.197-.3.421-.58.67-.84z" fill="#263238"/></svg>