<svg width="251" height="168" fill="none" xmlns="http://www.w3.org/2000/svg"><path d="M47.657 38.28H22.594v26.123h25.063V38.28z" fill="#E0E0E0"/><path d="M45.96 38.28H20.897v26.123H45.96V38.28z" fill="#FAFAFA"/><path d="M45.967 64.41H20.89V38.273h25.077V64.41zm-25.063 0H45.95V38.306H20.903V64.41z" fill="#E0E0E0"/><path d="M42.59 41.79H24.267v19.103H42.59V41.79z" fill="#FAFAFA"/><path d="M24.267 61.02a3.048 3.048 0 01-.455.525c-.291.308-.703.726-1.165 1.182-.461.455-.893.86-1.194 1.144a2.867 2.867 0 01-.533.442 3.06 3.06 0 01.452-.526 63.668 63.668 0 012.366-2.33c.157-.167.335-.314.53-.437zm18.323-.047c.193.128.37.28.525.452.308.29.727.703 1.182 1.164.455.462.856.884 1.144 1.199.169.157.317.334.442.528a2.802 2.802 0 01-.522-.452c-.311-.29-.73-.702-1.185-1.164-.455-.462-.86-.887-1.148-1.202a2.855 2.855 0 01-.438-.525zm-.05-19.14c.131-.19.282-.366.451-.525.291-.308.703-.726 1.165-1.178.462-.452.883-.86 1.198-1.148a2.97 2.97 0 01.529-.442 2.935 2.935 0 01-.449.526 58.858 58.858 0 01-2.369 2.329 2.682 2.682 0 01-.525.438zm-18.323.054a2.699 2.699 0 01-.529-.452 65.373 65.373 0 01-2.326-2.36 3.051 3.051 0 01-.442-.531c.193.129.37.28.526.451.308.291.726.703 1.181 1.168.455.466.864.887 1.148 1.199.167.157.315.333.442.525z" fill="#E0E0E0"/><path d="M42.54 60.91a.432.432 0 010-.094v-5.191c0-3.347-.024-8.112-.037-13.818l.07.07H24.3l.08-.08v19.102l-.066-.07 13.23.037 3.717.017h1.235-1.206l-3.702.016-13.273.037h-.117V41.727h18.426v.07c0 5.726-.026 10.508-.036 13.865v5.137a.8.8 0 01-.047.11z" fill="#E0E0E0"/><path d="M36.485 48.282h-6.114v6.115h6.114v-6.115z" fill="#EBEBEB"/><path d="M81.91 131.38v8.461h26.024v-8.461H81.91z" fill="#F5F5F5"/><path d="M80.815 129.014v2.366h28.029v-2.366H80.815z" fill="#E0E0E0"/><path d="M94.828 139.84h13.106v-8.46h.91v-2.366H94.283v2.145l.545 8.681zm-4.002-7.098h-5.278v1.275h5.278v-1.275z" fill="#E0E0E0"/><path d="M91.645 135.61h-6.777v2.691h6.777v-2.691z" fill="#fff"/><path d="M70.404 143.452v12.908h39.702v-12.908H70.404z" fill="#F5F5F5"/><path d="M68.737 139.84v3.611h42.757v-3.611H68.737z" fill="#E0E0E0"/><path d="M90.116 156.36h19.99v-12.908h1.389v-3.612H89.283v3.277l.833 13.243zm-6.108-10.827h-8.052v1.945h8.052v-1.945z" fill="#E0E0E0"/><path d="M85.26 149.904H74.922v4.103H85.26v-4.103z" fill="#fff"/><path d="M220.669 112.89h-57.894v26.699h57.894V112.89z" fill="#F5F5F5"/><path d="M219.294 138.335h-55.193v-24.04h55.193v24.04zm-54.832-.362h54.474v-23.316h-54.474v23.316zm70.354-25.083h-14.143v26.699h14.143V112.89z" fill="#E0E0E0"/><path d="M164.281 121.735h54.832c.02 0 .038-.008.052-.022a.07.07 0 00.022-.052.074.074 0 00-.022-.052.076.076 0 00-.052-.021h-54.832a.078.078 0 00-.052.021.078.078 0 00-.021.052c0 .02.008.039.021.052a.074.074 0 00.052.022z" fill="#E0E0E0"/><path d="M191.878 121.661a59.683 59.683 0 000-7.252.074.074 0 00-.022-.052.07.07 0 00-.052-.021.073.073 0 00-.052.021.073.073 0 00-.021.052 60.296 60.296 0 00.02 7.252c.003.013.01.024.02.032.01.007.022.012.035.012a.062.062 0 00.035-.012.057.057 0 00.02-.032h.017zm14.759-3.624a.75.75 0 11-1.499 0 .75.75 0 011.499 0zm-28.778 0a.749.749 0 01-.894.728.747.747 0 01.148-1.478.738.738 0 01.69.463.764.764 0 01.056.287zm14.575 8.276a.747.747 0 11-1.495 0 .747.747 0 011.495 0zm-22.734 13.28l-2.982 16.76h1.676l5.496-16.76h-4.19zm46.877 0l2.493 16.79h-1.677l-5.007-16.79h4.191zm11.191 0l2.824 16.79h-1.676l-5.338-16.79h4.19zm-35.375-5.726a.743.743 0 01-.891.732.749.749 0 01-.544-1.018.744.744 0 01.689-.461.755.755 0 01.529.218.735.735 0 01.217.529zm-28.112-3.866h54.832a.067.067 0 00.042-.026.076.076 0 00.016-.046.076.076 0 00-.016-.046.077.077 0 00-.042-.026h-54.832a.075.075 0 00-.041.026.07.07 0 000 .092c.01.014.025.023.041.026zm60.428-26.174l-.019-3.564-17.506.092.019 3.564 17.506-.092z" fill="#E0E0E0"/><path d="M226.812 112.81l-.029-5.536-19.511.103.029 5.535 19.511-.102z" fill="#F5F5F5"/><path d="M223.062 112.783a20.85 20.85 0 01-.093-2.771c-.031-.924.001-1.849.093-2.768.097.919.13 1.844.097 2.768.033.924 0 1.85-.097 2.771zm.83 0a21.02 21.02 0 01-.094-2.771c-.03-.924.002-1.849.094-2.768.097.919.129 1.844.097 2.768.032.924 0 1.85-.097 2.771zm-13.644 0a20.196 20.196 0 01-.094-2.771 20.142 20.142 0 01.094-2.768 20.3 20.3 0 01.094 2.768c.032.924 0 1.85-.094 2.771zm.82 0a20.196 20.196 0 01-.094-2.771 20.142 20.142 0 01.094-2.768c.092.919.124 1.844.094 2.768.03.924-.002 1.85-.094 2.771zm1.78-2.678c0-.053 1.968-.097 4.398-.097 2.429 0 4.394.044 4.394.097 0 .054-1.968.097-4.394.097-2.427 0-4.398-.05-4.398-.097z" fill="#E0E0E0"/><path d="M234.139 107.245l-.019-3.564-24.076.126.019 3.564 24.076-.126z" fill="#EBEBEB"/><path d="M230.703 106.806a1.156 1.156 0 01-.838-1.967 1.157 1.157 0 011.782.171 1.162 1.162 0 01-.137 1.456 1.141 1.141 0 01-.807.34zm-3.129-.794v-.712H211.46v.712h16.114z" fill="#E0E0E0"/><path d="M230.703 40.408a2.838 2.838 0 110-5.676 2.838 2.838 0 010 5.676z" fill="#EBEBEB"/><path d="M229.19 38.52a1.762 1.762 0 002.5-.638c.155-.284.229-.605.214-.928.122-.093.228-.206.311-.335-.114.048-.235.08-.358.097a.64.64 0 00.275-.334 1.255 1.255 0 01-.395.15.624.624 0 00-1.016.17.625.625 0 00-.042.396 1.75 1.75 0 01-1.278-.646.619.619 0 00.191.827.624.624 0 01-.282-.077.624.624 0 00.499.615.606.606 0 01-.281 0 .628.628 0 00.579.432 1.253 1.253 0 01-.917.271z" fill="#fff"/><path d="M221.717 36.365a4.041 4.041 0 01-2.859-6.902 4.046 4.046 0 014.405-.876 4.03 4.03 0 012.187 2.188c.203.49.307 1.016.306 1.547a4.025 4.025 0 01-1.182 2.859 4.03 4.03 0 01-2.857 1.184z" fill="#E0E0E0"/><path d="M221.101 34.765h.984v-2.463h.669l.074-.827h-.743v-.468c0-.194.037-.271.224-.271h.536v-.857h-.67c-.732 0-1.06.335-1.06.94v.67h-.512v.836h.512l-.014 2.44z" fill="#fff"/><path d="M230.703 27.8a5.157 5.157 0 110-10.313 5.157 5.157 0 010 10.314z" fill="#F5F5F5"/><path d="M229.053 23.122a.119.119 0 00.109 0 .122.122 0 00.065-.088l.073-.283a.17.17 0 00-.05-.194 1.004 1.004 0 01-.234-.693 1.673 1.673 0 011.734-1.674c.943 0 1.462.576 1.462 1.34 0 1.003-.448 1.87-1.114 1.87a.546.546 0 01-.556-.67c.14-.406.244-.823.311-1.248a.478.478 0 00-.117-.372.468.468 0 00-.358-.157c-.375 0-.669.392-.669.914-.002.191.036.38.113.556l-.451 1.917a3.959 3.959 0 000 1.339.038.038 0 00.012.024.047.047 0 00.05.012.046.046 0 00.021-.016 3.64 3.64 0 00.636-1.151c.044-.154.248-.967.248-.967a.999.999 0 00.86.438c1.131 0 1.898-1.03 1.898-2.41 0-1.044-.884-2.008-2.226-2.008-1.673 0-2.517 1.198-2.517 2.196-.023.585.225 1.124.7 1.325z" fill="#fff"/><path d="M232.818 156.36c0 .046-48.052.087-107.311.087-59.26 0-107.324-.041-107.324-.087 0-.047 48.041-.071 107.317-.071 59.276 0 107.318.024 107.318.071z" fill="#455A64"/><path d="M192.055 22.643H41.615a2.908 2.908 0 00-2.907 2.908v104.42a2.908 2.908 0 002.908 2.908h150.439a2.908 2.908 0 002.908-2.908V25.551a2.908 2.908 0 00-2.908-2.908z" fill="#FAFAFA"/><path d="M49.926 22.754h-8.052a3.23 3.23 0 00-3.23 3.23v103.75a3.23 3.23 0 003.23 3.229h8.052a3.23 3.23 0 003.23-3.229V25.984a3.23 3.23 0 00-3.23-3.23z" fill="#0075FF"/><path d="M175.426 33.038l.073-.043a.61.61 0 00.181-.168 1.47 1.47 0 00.248-.863c.012-.22.052-.438.117-.65a.888.888 0 01.512-.582.913.913 0 01.857.11c.23.217.374.51.405.824.02.136.032.274.036.412-.009.12.006.24.044.354.09.215.234.403.418.546l.164.137h-.211c-.856 0-1.596-.037-2.088-.053l-.756-.024.84-.02c.512 0 1.195-.053 2.008-.053l-.044.133a1.466 1.466 0 01-.475-.609 1.03 1.03 0 01-.057-.408 2.972 2.972 0 00-.037-.388 1.166 1.166 0 00-.334-.726.736.736 0 00-.678-.108.726.726 0 00-.467.503c-.067.2-.112.406-.134.615-.01.181-.043.36-.1.533a1.027 1.027 0 01-.211.358.552.552 0 01-.211.154.107.107 0 01-.063 0l-.037.016z" fill="#263238"/><path fill-rule="evenodd" clip-rule="evenodd" d="M177.039 31.144a.614.614 0 00.732.6.607.607 0 00.481-.48.612.612 0 10-1.213-.12z" fill="#0075FF"/><path fill-rule="evenodd" clip-rule="evenodd" d="M176.467 33.426h.839a.413.413 0 01-.458.429.335.335 0 01-.381-.428z" fill="#263238"/><path d="M186.593 29.09h-3.453a1.51 1.51 0 00-1.51 1.509v3.453c0 .834.676 1.51 1.51 1.51h3.453a1.51 1.51 0 001.51-1.51V30.6a1.51 1.51 0 00-1.51-1.51z" fill="#0075FF"/><path d="M47.995 46.311a.12.12 0 01-.08-.03l-2.066-1.884-2.078 1.884a.12.12 0 01-.164 0 .117.117 0 010-.164l2.159-1.954a.117.117 0 01.157 0l2.159 1.954a.117.117 0 010 .164.11.11 0 01-.087.03z" fill="#FAFAFA"/><path d="M47.402 47.958h-3.135a.114.114 0 01-.114-.114v-2.182a.117.117 0 01.114-.117.117.117 0 01.117.117v2.065h2.901v-2.065a.118.118 0 01.117-.117.117.117 0 01.114.117v2.195a.114.114 0 01-.114.1zm.476 14.876H43.79a.117.117 0 01-.117-.117v-2.604a.587.587 0 01.59-.586h1.06a.67.67 0 01.61.405l.183.435h1.289a.585.585 0 01.586.586v1.764a.112.112 0 01-.033.082.116.116 0 01-.081.035zm-3.97-.231h3.853v-1.65a.355.355 0 00-.355-.355h-1.369a.113.113 0 01-.104-.07l-.214-.509a.43.43 0 00-.395-.261h-1.06a.354.354 0 00-.33.218.35.35 0 00-.025.137v2.49zm9.98 7.694H41.636c-.588 0-1.064.476-1.064 1.064v9.916c0 .588.476 1.064 1.064 1.064h12.252c.588 0 1.064-.476 1.064-1.064v-9.916c0-.588-.476-1.064-1.064-1.064z" fill="#FAFAFA"/><path d="M44.678 78.4a.301.301 0 01-.18-.061.308.308 0 01-.124-.298l.17-1.084a.081.081 0 00-.02-.067l-.776-.78a.297.297 0 01-.077-.311.304.304 0 01.244-.211l1.088-.174a.087.087 0 00.057-.04l.498-.98a.333.333 0 01.553 0l.498.98a.081.081 0 00.057.04l1.085.174a.304.304 0 01.253.375.311.311 0 01-.083.147l-.776.78a.077.077 0 00-.02.067l.17 1.084a.308.308 0 01-.123.298.302.302 0 01-.335.027l-.98-.5a.086.086 0 00-.071 0l-.98.5a.293.293 0 01-.128.033zm1.172-.757c.048 0 .096.012.14.033l.98.499a.07.07 0 00.107-.033.073.073 0 00.004-.04l-.17-1.085a.315.315 0 01.087-.268l.776-.78a.077.077 0 00.02-.077.085.085 0 00-.063-.053l-1.085-.17a.315.315 0 01-.227-.168l-.5-.977a.076.076 0 00-.068-.043.077.077 0 00-.068.043l-.502.977a.304.304 0 01-.224.167l-1.088.17a.078.078 0 00-.06.054.077.077 0 00.02.077l.776.78a.312.312 0 01.087.264l-.17 1.088a.067.067 0 00.03.074.07.07 0 00.08 0l.98-.499a.335.335 0 01.138-.033z" fill="#0075FF"/><path d="M48.112 93.037h-4.589a.117.117 0 01-.113-.117v-2.895a.117.117 0 01.114-.117h4.588a.117.117 0 01.117.117v2.892a.118.118 0 01-.117.12zm-4.471-.23h4.35v-2.661h-4.35v2.66z" fill="#FAFAFA"/><path d="M45.876 92.207a.11.11 0 01-.077-.03L43.456 90.1a.12.12 0 010-.164.117.117 0 01.164 0l2.273 2.008 2.162-2.008a.118.118 0 01.153.017.118.118 0 01.004.154l-2.239 2.081a.11.11 0 01-.097.02z" fill="#FAFAFA"/><path d="M43.59 92.893a.103.103 0 01-.08-.033.114.114 0 010-.164l1.396-1.396a.115.115 0 01.081-.034.114.114 0 01.115.116.12.12 0 01-.032.082l-1.396 1.396a.116.116 0 01-.084.033zm4.552.097a.114.114 0 01-.08-.033l-1.493-1.493a.12.12 0 010-.164.114.114 0 01.164 0l1.492 1.493a.12.12 0 010 .164.118.118 0 01-.083.034z" fill="#FAFAFA"/><path d="M95.176 36.348c2.386-1.877 4.491-4.166 7.232-5.465 4.685-2.236 10.251-1.101 15.268.281 5.016 1.382 10.317 2.985 15.327 1.563 4.639-1.315 8.334-5.395 9.371-10.083h-86.15c1.148 9.52 8.327 17.375 17.868 19.025l.599.097a27.165 27.165 0 0020.485-5.418zm58.456-4.873c2.426 2.203 5.964 2.801 9.217 2.427 2.189-.255 4.414-.954 5.997-2.487a7.702 7.702 0 002.048-6.89 8.361 8.361 0 00-.619-1.881H152.34c-1.984 2.593-1.128 6.636 1.292 8.831z" fill="#0075FF"/><path opacity=".8" d="M95.176 36.348c2.386-1.877 4.491-4.166 7.232-5.465 4.685-2.236 10.251-1.101 15.268.281 5.016 1.382 10.317 2.985 15.327 1.563 4.639-1.315 8.334-5.395 9.371-10.083h-86.15c1.148 9.52 8.327 17.375 17.868 19.025l.599.097a27.165 27.165 0 0020.485-5.418zm58.456-4.873c2.426 2.203 5.964 2.801 9.217 2.427 2.189-.255 4.414-.954 5.997-2.487a7.702 7.702 0 002.048-6.89 8.361 8.361 0 00-.619-1.881H152.34c-1.984 2.593-1.128 6.636 1.292 8.831z" fill="#fff"/><path d="M171.379 31.793s.047-.026.141 0a.55.55 0 01.335.184.595.595 0 01.12.57.617.617 0 01-.926.33.61.61 0 01-.27-.591.595.595 0 01.119-.279.528.528 0 01.334-.204.309.309 0 01.141 0s-.218.024-.378.265a.48.48 0 00-.041.455.47.47 0 00.884-.027.499.499 0 00-.07-.455.777.777 0 00-.389-.248z" fill="#263238"/><path d="M171.53 31.084a1.585 1.585 0 01-.13-.278h.026l-.502.084.037-.037-.02.308v.027h-.027a1.224 1.224 0 00-.271.164l-.023.02h-.03l-.285-.124h.071l-.302.408v-.08l.201.234.027.03-.017.037c-.039.098-.065.2-.077.305v.04h-.04l-.288.107.047-.077c.02.16.047.334.07.505l-.067-.067.305.027h.047l.017.044c.042.094.094.184.157.267l.03.037-.02.044-.127.28-.024-.096.405.307h-.1c.077-.06.157-.127.237-.197l.037-.03.044.02c.096.039.198.065.301.077l.064.054v.036l.026.074.054.144-.084-.054.502-.067-.067.07c0-.1 0-.203.027-.304v-.047l.044-.02c.096-.04.187-.09.271-.154l.036-.03.044.02.278.13-.094.02.311-.4v.093l-.194-.238-.03-.033.017-.04c.042-.096.07-.198.083-.301v-.044h.037l.288-.104-.04.07a31.426 31.426 0 01-.064-.502l.054.05-.305-.03h-.033v-.03a1.236 1.236 0 00-.157-.277v-.054c.05-.1.093-.19.133-.278v.057l-.394-.314h.043l-.241.19c-.201-.087-.315-.097-.311-.107a.18.18 0 01.084 0c.084.01.167.03.247.06h-.027l.228-.203.02-.02.027.02.411.297.031.02-.017.037c-.04.087-.08.18-.124.281v-.053c.074.089.135.188.181.294l-.05-.033.307.023h.047v.05l.074.502v.05l-.05.02-.288.111.043-.057a1.251 1.251 0 01-.087.335v-.077l.198.234.04.047-.037.047-.304.405-.037.05-.057-.027-.281-.123h.08a1.374 1.374 0 01-.304.177l.05-.067c0 .1 0 .204-.027.308v.063h-.06l-.506.07h-.063l-.024-.06-.053-.14-.027-.074v-.036l.067.053a1.392 1.392 0 01-.335-.09h.084l-.238.197-.05.04-.05-.037-.402-.307-.05-.04.027-.057.127-.278v.08a1.334 1.334 0 01-.177-.305l.063.047-.304-.03h-.06v-.057c-.024-.174-.047-.334-.067-.505v-.057l.053-.02.288-.104-.044.057c.015-.115.046-.228.091-.334v.066l-.194-.237-.034-.037.034-.04.311-.402.03-.037.04.02.278.131h-.057c.092-.07.194-.126.301-.167l-.026.037c0-.108.02-.211.03-.305v-.034h.03l.505-.053h.02c.03.1.049.204.057.308z" fill="#263238"/><path d="M192.276 132.879h.087c.057 0 .141 0 .254-.023a2.68 2.68 0 002.326-2.567v-16.633c0-13.37-.016-32.714-.026-56.615V25.739a3.42 3.42 0 00-.144-1.252 2.599 2.599 0 00-.67-1.05 2.648 2.648 0 00-1.087-.626 4.35 4.35 0 00-1.275-.1h-2.654l-44.846.006H41.421a2.586 2.586 0 00-1.549.506 2.607 2.607 0 00-.95 1.318 5.846 5.846 0 00-.12 1.673v103.617c-.009.24 0 .48.026.719a2.617 2.617 0 002.383 2.232c.468.02.96 0 1.439 0h72.261l77.372.057-77.372.057H41.198a2.751 2.751 0 01-2.514-2.369 5.028 5.028 0 01-.03-.74V25.31c0-.293.043-.584.127-.864a2.784 2.784 0 012.654-1.937h150.316c.44-.03.882.007 1.312.11a2.75 2.75 0 011.844 1.76c.13.418.18.856.147 1.292v31.295c0 23.903-.02 43.247-.027 56.617v16.636a2.706 2.706 0 01-1.389 2.259 2.625 2.625 0 01-.967.314 2.65 2.65 0 01-.395.087z" fill="#263238"/><path d="M45.903 34.99a2.647 2.647 0 01-1.872-4.516 2.647 2.647 0 013.742 0 2.647 2.647 0 010 3.741 2.644 2.644 0 01-1.87.774z" fill="#fff"/><path d="M79.192 102.569a5.94 5.94 0 01-4.196-1.739 5.943 5.943 0 010-8.396 5.934 5.934 0 0110.133 4.198 5.938 5.938 0 01-5.937 5.937z" fill="#263238"/><path d="M77.308 97.184a.14.14 0 00.175-.042.14.14 0 00.026-.059c.02-.073.064-.25.084-.334a.198.198 0 00-.057-.224 1.168 1.168 0 01-.268-.794 1.92 1.92 0 012.008-1.94c1.088 0 1.673.669 1.673 1.552 0 1.168-.515 2.152-1.285 2.152a.63.63 0 01-.639-.78c.16-.467.28-.947.358-1.435a.544.544 0 00-.545-.61c-.432 0-.78.449-.78 1.048-.003.22.04.44.127.643l-.542 2.212a4.516 4.516 0 000 1.539.053.053 0 00.072.043.06.06 0 00.025-.019c.32-.4.568-.853.73-1.34.05-.18.284-1.114.284-1.114a1.153 1.153 0 001.004.506c1.302 0 2.185-1.188 2.185-2.775 0-1.201-1.004-2.319-2.563-2.319-1.924 0-2.895 1.38-2.895 2.527-.02.713.244 1.332.823 1.563z" fill="#fff"/><path d="M75.257 105.691v5.02h-.519v-4.561h-1.185v-.459h1.704zm4.608 3.547c0 .854-.596 1.523-1.824 1.523a2.583 2.583 0 01-1.8-.649l.25-.408c.418.389.973.598 1.543.582.854 0 1.306-.415 1.306-1.027 0-.613-.402-1.048-1.674-1.048H76.6l.257-2.52h2.752v.459h-2.3l-.17 1.603h.645c1.507.01 2.082.595 2.082 1.485zm.653-1.034c0-1.603.84-2.556 2.008-2.556 1.168 0 2.008.953 2.008 2.556 0 1.604-.85 2.557-2.008 2.557s-2.008-.957-2.008-2.557zm3.483 0c0-1.338-.602-2.081-1.479-2.081-.877 0-1.479.739-1.479 2.081s.602 2.082 1.48 2.082c.876 0 1.478-.74 1.478-2.082zm-6.358 5.874v1.717h-.178v-1.573h-.408v-.158l.586.014zm1.587 1.221c0 .295-.205.522-.627.522a.892.892 0 01-.622-.22l.087-.141a.735.735 0 00.532.201c.295 0 .449-.144.449-.355s-.138-.361-.58-.361h-.368l.09-.867h.948v.157h-.793l-.057.552h.22c.523.004.72.204.72.512zm.176-.763c0-.284.157-.472.392-.472.234 0 .388.188.388.472 0 .285-.16.469-.388.469s-.392-.188-.392-.469zm.67 0c0-.227-.104-.358-.265-.358-.16 0-.268.134-.268.358 0 .225.104.358.268.358.164 0 .251-.133.251-.358h.014zm.783-.458h.13l-1.181 1.717h-.157l1.208-1.717zm-.378 1.272c0-.282.16-.469.388-.469.227 0 .391.187.391.469 0 .281-.157.471-.391.471s-.402-.187-.402-.471h.014zm.669 0c0-.221-.104-.359-.268-.359-.164 0-.264.134-.264.359 0 .224.104.361.264.361.16 0 .241-.137.241-.361h.027z" fill="#263238"/><path d="M108.01 102.498a5.904 5.904 0 01-5.903-5.903 5.904 5.904 0 0110.076-4.172 5.902 5.902 0 01-4.173 10.075z" fill="#0075FF"/><path d="M108.01 92.833a3.767 3.767 0 00-3.476 2.327 3.767 3.767 0 002.749 5.131 3.759 3.759 0 003.863-1.604 3.772 3.772 0 00-.471-4.754 3.765 3.765 0 00-2.665-1.1zm0 .67a3.09 3.09 0 011.895.649 3.81 3.81 0 01-1.563 1.154 14.12 14.12 0 00-1.095-1.706c.249-.068.506-.105.763-.11v.013zm-1.402.334c.41.53.78 1.09 1.108 1.673-.888.236-1.803.348-2.721.335a3.121 3.121 0 011.613-2.018v.01zm-1.707 2.768v-.08a10.43 10.43 0 003.119-.412c.074.147.144.298.211.448a4.838 4.838 0 00-2.613 2.032 3.096 3.096 0 01-.717-1.998v.01zm3.109 3.109a3.083 3.083 0 01-1.907-.67 4.225 4.225 0 012.383-1.89c.288.758.502 1.543.639 2.342a3.099 3.099 0 01-1.115.208v.01zm1.724-.525a12.855 12.855 0 00-.602-2.162 6.223 6.223 0 011.944.063 3.103 3.103 0 01-1.342 2.088v.01zm-.853-2.805a10.555 10.555 0 00-.238-.525 4.455 4.455 0 001.737-1.279 3.07 3.07 0 01.729 1.827 6.748 6.748 0 00-2.228-.023z" fill="#fff"/><path d="M104.523 109.828c0 .84-.609 1.486-1.824 1.486a2.62 2.62 0 01-1.807-.646l.251-.412c.422.391.981.6 1.556.582.834 0 1.292-.388 1.292-1.004 0-.615-.422-1.004-1.355-1.004h-.358v-.378l1.392-1.747h-2.57v-.458h3.229v.368l-1.419 1.787c1.074.053 1.613.619 1.613 1.426zm.727-1.061c0-1.6.84-2.557 2.008-2.557 1.168 0 2.008.957 2.008 2.557 0 1.599-.847 2.557-2.008 2.557-1.162 0-2.008-.968-2.008-2.557zm3.483 0c0-1.339-.605-2.082-1.479-2.082-.873 0-1.479.74-1.479 2.082 0 1.342.602 2.081 1.479 2.081.877 0 1.479-.743 1.479-2.081zm1.269 0c0-1.6.84-2.557 2.008-2.557 1.168 0 2.008.957 2.008 2.557 0 1.599-.85 2.557-2.008 2.557s-2.008-.968-2.008-2.557zm3.484 0c0-1.339-.603-2.082-1.48-2.082-.876 0-1.479.74-1.479 2.082 0 1.342.603 2.081 1.479 2.081.877 0 1.48-.743 1.48-2.081zm-7.029 5.863v1.73h-.177v-1.569h-.408v-.161h.585zm1.587 1.222c0 .294-.204.525-.626.525a.875.875 0 01-.619-.224l.083-.141a.757.757 0 00.533.201c.294 0 .451-.144.451-.355s-.14-.358-.579-.358h-.368l.087-.87h.947v.161h-.789l-.061.549h.225c.518 0 .716.207.716.512zm.177-.763c0-.282.161-.469.392-.469s.391.184.391.469c0 .284-.16.468-.391.468s-.392-.187-.392-.468zm.67 0c0-.225-.108-.359-.268-.359-.161 0-.268.134-.268.359 0 .224.104.358.268.358.164 0 .257-.134.257-.358h.011zm.779-.459h.148l-1.182 1.73h-.147l1.181-1.73zm-.378 1.275c0-.284.161-.472.392-.472s.388.188.388.472c0 .285-.157.469-.388.469s-.402-.188-.402-.469h.01zm.669 0c0-.224-.103-.358-.267-.358-.164 0-.268.131-.268.358 0 .228.107.358.268.358.16 0 .247-.134.247-.358h.02zM133.9 102.99a6.13 6.13 0 01-4.348-1.799 6.15 6.15 0 014.348-10.496 6.148 6.148 0 010 12.295z" fill="#263238"/><path d="M133.9 94.078c.9 0 1.004 0 1.362.02.214.003.426.043.626.117a1.095 1.095 0 01.639.64c.075.2.114.412.117.625.017.355.02.462.02 1.362 0 .9 0 1.005-.02 1.363a1.859 1.859 0 01-.117.625 1.1 1.1 0 01-.639.64c-.2.074-.412.114-.626.117-.355.016-.462.02-1.362.02-.9 0-1.004 0-1.362-.02a1.882 1.882 0 01-.626-.117 1.095 1.095 0 01-.639-.64 1.884 1.884 0 01-.117-.625c0-.355-.02-.462-.02-1.362 0-.9 0-1.005.02-1.363a1.88 1.88 0 01.117-.625 1.1 1.1 0 01.639-.64c.201-.074.412-.114.626-.117.355-.016.462-.02 1.362-.02zm0-.606c-.917 0-1.031 0-1.389.02-.28.006-.557.06-.82.158a1.72 1.72 0 00-.984.984c-.098.262-.151.54-.157.82 0 .358-.02.472-.02 1.389 0 .916 0 1.03.02 1.388.006.28.059.558.157.82a1.723 1.723 0 00.984.984c.263.098.54.152.82.158.358.016.472.02 1.389.02s1.031 0 1.389-.02c.28-.006.557-.06.82-.158a1.73 1.73 0 00.984-.984 2.47 2.47 0 00.157-.82c.017-.358.02-.471.02-1.388 0-.918 0-1.031-.02-1.39a2.497 2.497 0 00-.157-.82 1.735 1.735 0 00-.984-.983 2.489 2.489 0 00-.82-.157c-.358-.017-.472-.02-1.389-.02z" fill="#fff"/><path d="M133.9 95.112a1.729 1.729 0 00-1.223 2.954 1.728 1.728 0 002.953-1.224 1.73 1.73 0 00-.505-1.224 1.731 1.731 0 00-1.225-.506zm0 2.855a1.126 1.126 0 01-1.103-1.344 1.131 1.131 0 01.884-.883 1.121 1.121 0 011.154.478 1.121 1.121 0 01-.141 1.419c-.21.21-.496.33-.794.33zm2.206-2.922a.412.412 0 01-.248.377.405.405 0 11.248-.377z" fill="#fff"/><path d="M133.217 110.253c0 .853-.595 1.522-1.824 1.522a2.61 2.61 0 01-1.803-.646l.254-.411c.418.389.972.598 1.543.582.853 0 1.305-.415 1.305-1.027 0-.613-.402-1.048-1.673-1.048h-1.068l.258-2.52h2.751v.459h-2.306l-.174 1.603h.649c1.513 0 2.088.595 2.088 1.486zm.65-1.035c0-1.603.84-2.556 2.008-2.556 1.168 0 2.008.953 2.008 2.556 0 1.604-.847 2.557-2.008 2.557-1.162 0-2.008-.957-2.008-2.557zm3.484 0c0-1.338-.606-2.081-1.48-2.081-.873 0-1.479.739-1.479 2.081s.603 2.082 1.479 2.082c.877 0 1.483-.74 1.483-2.082h-.003zm-5.004 5.874v1.73h-.177v-1.573h-.408v-.157h.585zm1.59 1.221c0 .295-.207.522-.629.522a.883.883 0 01-.619-.22l.087-.141a.739.739 0 00.528.201c.295 0 .452-.144.452-.355s-.14-.361-.579-.361h-.368l.091-.867h.943v.157h-.79l-.06.552h.224c.523-.006.72.204.72.512zm.178-.763c0-.281.157-.472.388-.472s.391.188.391.472c0 .285-.16.469-.391.469s-.388-.188-.388-.469zm.669 0c0-.224-.107-.358-.268-.358-.161 0-.264.134-.264.358 0 .225.1.358.264.358s.254-.133.254-.358h.014zm.756-.458h.147l-1.181 1.73h-.147l1.181-1.73zm-.378 1.272c0-.282.161-.469.392-.469.23 0 .391.187.391.469 0 .281-.157.471-.391.471-.235 0-.382-.187-.382-.471h-.01zm.669 0c0-.221-.103-.358-.267-.358-.164 0-.268.133-.268.358 0 .224.107.358.268.358.16 0 .267-.134.267-.358z" fill="#263238"/><path d="M79.738 64.755a6.463 6.463 0 11.033-12.926 6.463 6.463 0 01-.033 12.926z" fill="#0075FF"/><path d="M78.754 62.198h1.566v-3.94h1.098l.117-1.318H80.32v-.753c0-.311.06-.431.362-.431h.853v-1.37h-1.091c-1.171 0-1.697.516-1.697 1.503v1.051h-.82v1.339h.82l.007 3.919z" fill="#fff"/><path d="M76.873 74.46v.505h-3.825v-.401l2.269-2.222c.612-.606.73-.974.73-1.34 0-.632-.443-1.003-1.276-1.003a1.858 1.858 0 00-1.48.582l-.394-.335a2.444 2.444 0 011.931-.78c1.104 0 1.807.563 1.807 1.473 0 .522-.164 1.004-.897 1.707l-1.854 1.82 2.989-.006zm4.401-1.104c0 .927-.65 1.65-1.978 1.65a2.824 2.824 0 01-1.958-.7l.275-.445a2.37 2.37 0 001.673.632c.927 0 1.42-.451 1.42-1.114s-.44-1.138-1.825-1.138h-1.158l.278-2.734h2.989v.499h-2.494l-.187 1.737h.7c1.646 0 2.265.645 2.265 1.613zm.72-1.122c0-1.736.913-2.774 2.172-2.774 1.258 0 2.182 1.038 2.182 2.775 0 1.736-.92 2.77-2.182 2.77s-2.172-1.044-2.172-2.77zm3.778 0c0-1.455-.67-2.258-1.606-2.258-.937 0-1.603.803-1.603 2.258 0 1.456.669 2.26 1.603 2.26.933 0 1.593-.804 1.593-2.26h.013zm-7.718 6.369v1.878h-.19v-1.704h-.446v-.174h.636zm1.724 1.325c0 .318-.224.57-.67.57a.967.967 0 01-.669-.242l.094-.153a.806.806 0 00.576.217c.334 0 .488-.154.488-.385 0-.23-.15-.391-.625-.391h-.402l.097-.94h1.027v.173h-.856l-.067.596h.244c.549 0 .763.224.763.555zm.207-.826c0-.308.171-.512.422-.512s.425.2.425.512c0 .311-.174.509-.425.509s-.422-.205-.422-.51zm.713 0c0-.244-.114-.392-.291-.392s-.288.148-.288.392c0 .244.114.388.288.388s.275-.147.275-.388h.016zm.847-.499h.157l-1.282 1.878h-.157l1.282-1.878zm-.425 1.382c0-.304.174-.508.421-.508.248 0 .426.204.426.508 0 .305-.174.51-.425.51-.252 0-.422-.205-.422-.51zm.713 0c0-.24-.114-.388-.291-.388-.178 0-.288.144-.288.388 0 .245.114.389.287.389.175 0 .292-.148.292-.389zm26.525-15.772a6.432 6.432 0 01-5.948-3.973 6.43 6.43 0 011.396-7.015 6.426 6.426 0 014.552-1.884 6.435 6.435 0 010 12.872z" fill="#263238"/><path d="M106.772 56.344h-1.332v4.304h1.332v-4.304zm-.683-.565a.795.795 0 00.782-.946.79.79 0 00-.622-.625.793.793 0 10-.16 1.57zm2.812 2.607c0-.603.277-.964.809-.964.533 0 .727.335.727.964v2.259h1.338V57.92c0-1.151-.652-1.71-1.566-1.71a1.496 1.496 0 00-1.295.712v-.579h-1.279v4.3h1.279l-.013-2.258z" fill="#fff"/><path d="M106.384 69.022v5.448h-.562v-4.953h-1.285v-.495h1.847zm5.489 3.935c0 .964-.817 1.563-2.119 1.563-1.302 0-2.102-.599-2.102-1.563a1.367 1.367 0 011.051-1.338 1.231 1.231 0 01-.857-1.198c0-.887.757-1.44 1.908-1.44 1.151 0 1.924.553 1.924 1.44a1.228 1.228 0 01-.873 1.198 1.379 1.379 0 011.068 1.339zm-.576 0c0-.669-.576-1.087-1.543-1.087s-1.533.418-1.533 1.087c0 .67.569 1.098 1.533 1.098s1.543-.428 1.543-1.098zm-1.526-1.546c.85 0 1.355-.381 1.355-.974 0-.592-.535-.987-1.355-.987s-1.339.371-1.339.98c0 .61.475.981 1.339.981zm-3.735 7.771h.703v.168h-.703v-.168zm2.62.318h-.375v.485h-.184v-.492h-1.057v-.14l1.004-1.242h.214l-.981 1.205h.82v-.435h.188v.435h.375l-.004.184zm.071-.887c0-.308.17-.508.425-.508.254 0 .421.2.421.508s-.174.509-.421.509c-.248 0-.425-.204-.425-.509zm.712 0c0-.244-.113-.388-.287-.388s-.292.147-.292.388c0 .241.114.388.292.388.177 0 .284-.144.284-.388h.003zm.847-.495h.154l-1.282 1.874h-.16l1.288-1.874zm-.408 1.379c0-.305.174-.509.421-.509.248 0 .425.204.425.509 0 .304-.17.508-.425.508-.254 0-.421-.204-.421-.508zm.713 0c0-.241-.114-.388-.292-.388-.177 0-.287.143-.287.388 0 .244.113.388.287.388s.292-.147.292-.388z" fill="#263238"/><path d="M133.9 64.025a5.858 5.858 0 01-5.409-3.616 5.86 5.86 0 011.27-6.38 5.854 5.854 0 114.139 9.996z" fill="#0075FF"/><path d="M130.781 60.13a3.639 3.639 0 005.599-3.237c.252-.182.469-.409.639-.669a2.472 2.472 0 01-.736.2c.268-.158.469-.41.566-.705-.252.15-.527.255-.814.31a1.28 1.28 0 00-2.182 1.169 3.637 3.637 0 01-2.637-1.339 1.288 1.288 0 00.395 1.71 1.29 1.29 0 01-.579-.16 1.287 1.287 0 001.027 1.271c-.189.05-.387.058-.579.02a1.28 1.28 0 001.195.89 2.57 2.57 0 01-1.894.54z" fill="#fff"/><path d="M131.035 73.53v.498h-3.825v-.401l2.269-2.22c.613-.608.73-.973.73-1.338 0-.63-.442-1.004-1.275-1.004a1.857 1.857 0 00-1.49.61l-.394-.335a2.438 2.438 0 011.931-.78c1.104 0 1.803.559 1.803 1.472 0 .522-.16 1.004-.893 1.704l-1.854 1.824 2.998-.03zm4.401-1.108c0 .927-.649 1.653-1.977 1.653a2.817 2.817 0 01-1.958-.703l.274-.442a2.37 2.37 0 001.673.63c.928 0 1.419-.452 1.419-1.115 0-.662-.438-1.134-1.823-1.134h-1.162l.281-2.735h2.982v.5h-2.49l-.187 1.736h.699c1.644 0 2.269.646 2.269 1.61zm.707-1.122c0-1.736.91-2.77 2.172-2.77 1.261 0 2.182 1.034 2.182 2.77 0 1.738-.921 2.775-2.182 2.775-1.262 0-2.172-1.037-2.172-2.774zm3.778 0c0-1.455-.669-2.258-1.606-2.258s-1.603.803-1.603 2.259.652 2.259 1.603 2.259c.95 0 1.606-.803 1.606-2.26zm-6.496 7.708c0 .315-.227.556-.669.556a.978.978 0 01-.67-.241l.094-.151a.83.83 0 00.582.214c.312 0 .482-.144.482-.378s-.157-.371-.505-.371h-.134v-.141l.519-.67h-.961v-.17h1.209v.137l-.533.67c.385.036.586.247.586.545zm.221-.84c0-.305.17-.509.421-.509s.425.201.425.509-.174.509-.425.509-.421-.205-.421-.509zm.713 0c0-.244-.118-.388-.292-.388s-.287.147-.287.388c0 .241.11.388.287.388.178 0 .292-.144.292-.388zm.846-.495h.158l-1.282 1.877h-.157l1.281-1.877zm-.411 1.379c0-.305.174-.51.425-.51s.421.205.421.51c0 .304-.17.512-.421.512s-.425-.205-.425-.512zm.713 0c0-.241-.111-.389-.288-.389-.178 0-.291.144-.291.389 0 .244.117.388.291.388s.288-.147.288-.388z" fill="#263238"/><path d="M170.245 85.916h-1.322v4.424h1.322v-4.424zm-11.03-.64h-1.322v5.064h1.322v-5.064zm2.757-1.057h-1.322v6.12h1.322v-6.12zm2.758.334h-1.322v5.787h1.322v-5.787zm2.757-1.954h-1.321v7.74h1.321V82.6zm5.516.037h-1.322v7.704h1.322v-7.704zm2.757 2.53h-1.322v5.174h1.322v-5.174zm2.758-2.192h-1.322v7.366h1.322v-7.366zm2.758-1.657h-1.322v9.023h1.322v-9.023zm2.761 1.62h-1.322v7.403h1.322v-7.403z" fill="#0075FF"/><path d="M186.794 95.825h-32.486a2.677 2.677 0 01-2.677-2.677v-19.41a2.678 2.678 0 012.677-2.678h32.486a2.677 2.677 0 012.678 2.677v19.41a2.674 2.674 0 01-2.678 2.678zm-32.486-24.52a2.42 2.42 0 00-2.416 2.415v19.411a2.42 2.42 0 002.416 2.416h32.486a2.42 2.42 0 002.417-2.416v-19.41a2.42 2.42 0 00-2.417-2.417h-32.486z" fill="#E0E0E0"/><path d="M172.802 77.499c0 .037-3.759.067-8.394.067s-8.393-.03-8.393-.067c0-.037 3.758-.07 8.393-.07 4.635 0 8.394.03 8.394.07zm13.992-11.569h-32.486a2.677 2.677 0 01-2.677-2.678v-19.41a2.678 2.678 0 012.677-2.678h32.486a2.677 2.677 0 012.678 2.677v19.411a2.674 2.674 0 01-2.678 2.677zm-32.486-24.522a2.42 2.42 0 00-2.416 2.417v19.41a2.42 2.42 0 002.416 2.42h32.486a2.42 2.42 0 002.417-2.42V43.841a2.42 2.42 0 00-2.417-2.416l-32.486-.017z" fill="#E0E0E0"/><path d="M158.746 59.57a.64.64 0 01-.597-.395.652.652 0 01-.049-.247V46.83a.637.637 0 01.398-.598.644.644 0 01.89.598V58.9a.63.63 0 01-.178.472.641.641 0 01-.464.198z" fill="#E0E0E0"/><path d="M158.746 59.614a.641.641 0 01-.646-.642V51.18a.637.637 0 01.398-.598.644.644 0 01.89.598v7.79a.64.64 0 01-.642.643z" fill="#0075FF"/><path d="M158.337 60.12v1.074h-.11v-.974h-.264v-.1h.374zm.258.538c0-.334.181-.549.429-.549.247 0 .428.205.428.55 0 .344-.181.545-.428.545-.248 0-.429-.204-.429-.546zm.743 0c0-.288-.127-.445-.314-.445-.188 0-.318.157-.318.445 0 .288.13.445.318.445.187 0 .314-.16.314-.445z" fill="#263238"/><path d="M161.309 59.57a.642.642 0 01-.642-.642V46.83a.634.634 0 01.187-.457.627.627 0 01.455-.189.645.645 0 01.646.646V58.9a.65.65 0 01-.393.618.646.646 0 01-.253.052z" fill="#E0E0E0"/><path d="M161.309 59.614a.641.641 0 01-.642-.642V48.724a.64.64 0 01.642-.642.646.646 0 01.646.642v10.248a.646.646 0 01-.646.642z" fill="#0075FF"/><path d="M161.166 61.097v.097h-.753v-.077l.445-.439c.124-.12.147-.19.147-.264 0-.124-.09-.2-.254-.2a.362.362 0 00-.292.116l-.08-.067a.494.494 0 01.382-.154c.217 0 .354.11.354.292a.435.435 0 01-.174.334l-.364.358.589.004zm.143-.439c0-.334.181-.549.429-.549.247 0 .431.205.431.55 0 .344-.18.545-.431.545s-.429-.204-.429-.546zm.747 0c0-.288-.131-.445-.318-.445-.188 0-.315.157-.315.445 0 .288.127.445.315.445.187 0 .304-.16.304-.445h.014z" fill="#263238"/><path d="M163.896 59.57a.644.644 0 01-.645-.669V46.83a.637.637 0 01.398-.598.64.64 0 01.494.001.647.647 0 01.396.597V58.9a.63.63 0 01-.178.472.652.652 0 01-.465.198z" fill="#E0E0E0"/><path d="M163.896 59.614a.648.648 0 01-.456-.187.634.634 0 01-.19-.456v-5.95a.638.638 0 01.189-.458.638.638 0 01.457-.188.642.642 0 01.643.646v5.95a.644.644 0 01-.643.643z" fill="#0075FF"/><path d="M163.729 60.886c0 .18-.131.318-.392.318a.569.569 0 01-.388-.137l.057-.087a.469.469 0 00.335.123c.177 0 .278-.083.278-.217s-.091-.214-.292-.214h-.077v-.08l.298-.372h-.565v-.1h.689v.08l-.304.381c.244.01.361.134.361.305zm.154-.228c0-.334.177-.549.428-.549s.429.205.429.55c0 .344-.181.545-.429.545-.247 0-.428-.204-.428-.546zm.743 0c0-.288-.127-.445-.315-.445-.187 0-.334.157-.334.445 0 .288.13.445.334.445.205 0 .315-.16.315-.445z" fill="#263238"/><path d="M166.47 59.57a.642.642 0 01-.643-.669V46.83a.653.653 0 01.187-.457.648.648 0 01.703-.14.643.643 0 01.399.597V58.9a.65.65 0 01-.393.618.646.646 0 01-.253.052z" fill="#E0E0E0"/><path d="M166.47 59.614a.641.641 0 01-.643-.642V48.724a.642.642 0 01.643-.642.644.644 0 01.646.642v10.248a.643.643 0 01-.646.642z" fill="#0075FF"/><path d="M166.477 60.91h-.218v.28h-.11v-.28h-.606v-.081l.569-.713h.124l-.549.693h.465v-.234h.107v.247h.218v.087zm.1-.252c0-.334.178-.549.429-.549s.428.205.428.55c0 .344-.181.545-.428.545-.248 0-.429-.204-.429-.546zm.743 0c0-.288-.127-.445-.314-.445-.188 0-.318.157-.318.445 0 .288.13.445.318.445.187 0 .327-.16.327-.445h-.013z" fill="#263238"/><path d="M169.047 59.57a.64.64 0 01-.597-.395.652.652 0 01-.049-.247V46.83a.637.637 0 01.398-.598.644.644 0 01.89.598V58.9a.63.63 0 01-.178.472.641.641 0 01-.464.198z" fill="#E0E0E0"/><path d="M169.047 59.614a.641.641 0 01-.646-.642v-8.283a.652.652 0 01.189-.456.648.648 0 01.911.001.64.64 0 01.188.455v8.283a.64.64 0 01-.642.642z" fill="#0075FF"/><path d="M168.987 60.88c0 .18-.127.334-.389.334a.556.556 0 01-.384-.137l.053-.087a.474.474 0 00.335.123c.181 0 .278-.09.278-.22 0-.131-.087-.225-.358-.225h-.231l.056-.538h.589v.1h-.491l-.037.335h.137c.321.01.442.123.442.314zm.14-.222c0-.334.181-.549.429-.549.247 0 .428.205.428.55 0 .344-.181.545-.428.545-.248 0-.429-.204-.429-.546zm.743 0c0-.288-.127-.445-.314-.445-.188 0-.318.157-.318.445 0 .288.13.445.318.445.187 0 .314-.16.314-.445z" fill="#263238"/><path d="M171.621 59.57a.64.64 0 01-.643-.642V46.83a.653.653 0 01.187-.457.648.648 0 01.456-.189.645.645 0 01.645.646V58.9a.632.632 0 01-.18.472.654.654 0 01-.465.198z" fill="#E0E0E0"/><path d="M171.62 59.57a.63.63 0 01-.642-.585v-5.964a.677.677 0 01.174-.485.666.666 0 01.468-.218.645.645 0 01.646.646v5.937a.631.631 0 01-.18.472.654.654 0 01-.466.198z" fill="#0075FF"/><path d="M171.537 60.873a.337.337 0 01-.368.334c-.285 0-.439-.197-.439-.539 0-.341.198-.555.489-.555a.466.466 0 01.254.06l-.043.087a.37.37 0 00-.208-.05c-.231 0-.381.15-.381.442v.087a.33.33 0 01.334-.184.34.34 0 01.249.082.337.337 0 01.113.236zm-.111 0c0-.141-.103-.231-.267-.231a.249.249 0 00-.278.234c0 .12.097.23.284.23a.233.233 0 00.261-.23v-.003zm.238-.215c0-.334.177-.549.428-.549s.429.205.429.55c0 .344-.181.545-.429.545-.247 0-.428-.204-.428-.546zm.743 0c0-.288-.127-.445-.315-.445-.187 0-.334.157-.334.445 0 .288.13.445.334.445.205 0 .315-.16.315-.445z" fill="#263238"/><path d="M174.197 59.57a.646.646 0 01-.596-.395.634.634 0 01-.049-.247V46.83a.638.638 0 01.645-.646.642.642 0 01.643.646V58.9a.63.63 0 01-.179.472.648.648 0 01-.464.198z" fill="#E0E0E0"/><path d="M174.197 59.614a.648.648 0 01-.456-.187.635.635 0 01-.189-.455v-10.86a.633.633 0 01.189-.456.644.644 0 011.099.456v10.86a.645.645 0 01-.643.642z" fill="#0075FF"/><path d="M174.06 60.12v.08l-.451 1.004h-.121l.442-.974h-.552v.2h-.107v-.3l.789-.01zm.114.538c0-.334.177-.549.428-.549s.429.205.429.55c0 .344-.181.545-.429.545-.247 0-.428-.204-.428-.546zm.743 0c0-.288-.127-.445-.315-.445-.187 0-.334.157-.334.445 0 .288.13.445.334.445.205 0 .315-.16.315-.445z" fill="#263238"/><path d="M176.771 59.57a.642.642 0 01-.643-.642V46.83a.653.653 0 01.187-.457.648.648 0 01.456-.189.647.647 0 01.646.646V58.9a.65.65 0 01-.393.618.646.646 0 01-.253.052z" fill="#E0E0E0"/><path d="M176.771 59.614a.642.642 0 01-.643-.642v-4.726a.641.641 0 01.643-.643.648.648 0 01.646.643v4.726a.646.646 0 01-.646.642z" fill="#0075FF"/><path d="M176.644 60.91c0 .19-.161.307-.418.307-.258 0-.415-.117-.415-.308a.265.265 0 01.207-.264.243.243 0 01-.167-.238c0-.174.147-.284.375-.284.227 0 .378.11.378.284a.243.243 0 01-.171.238.273.273 0 01.211.264zm-.114 0c0-.131-.114-.215-.304-.215-.191 0-.302.084-.302.214s.111.218.302.218c.19 0 .304-.1.304-.218zm-.304-.302c.167 0 .267-.074.267-.19 0-.118-.107-.198-.267-.198-.161 0-.265.074-.265.194 0 .12.097.177.265.177v.017zm.568.05c0-.334.181-.549.429-.549.247 0 .432.205.432.55 0 .344-.181.545-.432.545s-.429-.204-.429-.546zm.747 0c0-.288-.131-.445-.335-.445-.204 0-.315.157-.315.445 0 .288.128.445.315.445s.335-.16.335-.445z" fill="#263238"/><path d="M179.348 59.57a.641.641 0 01-.636-.669V46.83a.641.641 0 01.883-.597.633.633 0 01.347.35.617.617 0 01.048.247V58.9a.63.63 0 01-.178.472.641.641 0 01-.464.198z" fill="#E0E0E0"/><path d="M179.348 59.57a.635.635 0 01-.646-.585v-1.673a.677.677 0 01.177-.485.664.664 0 01.469-.215.642.642 0 01.643.643V58.9a.65.65 0 01-.391.618.638.638 0 01-.252.052z" fill="#0075FF"/><path d="M179.154 60.648c0 .365-.201.556-.492.556a.5.5 0 01-.254-.057l.043-.09a.383.383 0 00.208.05c.234 0 .381-.148.381-.442a.631.631 0 000-.087.336.336 0 01-.335.184.334.334 0 01-.364-.335.333.333 0 01.368-.335c.288.017.445.218.445.556zm-.154-.214c0-.117-.097-.23-.285-.23a.236.236 0 00-.261.234c0 .14.104.23.271.23a.248.248 0 00.275-.234zm.311.224c0-.334.181-.549.428-.549.248 0 .429.205.429.55 0 .344-.181.545-.429.545-.247 0-.428-.204-.428-.546zm.746 0c0-.288-.13-.445-.318-.445-.187 0-.314.157-.314.445 0 .288.127.445.314.445.188 0 .312-.16.312-.445h.006z" fill="#263238"/><path d="M181.921 59.57a.643.643 0 01-.642-.642V46.83a.634.634 0 01.187-.457.648.648 0 01.455-.189.645.645 0 01.646.646V58.9a.65.65 0 01-.393.618.646.646 0 01-.253.052z" fill="#E0E0E0"/><path d="M181.922 59.57a.632.632 0 01-.643-.585v-5.964a.663.663 0 01.643-.703.644.644 0 01.645.646v5.937a.631.631 0 01-.18.472.654.654 0 01-.465.198z" fill="#0075FF"/><path d="M180.998 60.12v1.074h-.11v-.974h-.252v-.1h.362zm.258.538c0-.334.177-.549.428-.549s.428.205.428.55c0 .344-.18.545-.428.545s-.428-.204-.428-.546zm.743 0c0-.288-.128-.445-.315-.445s-.335.157-.335.445c0 .288.131.445.335.445.204 0 .315-.16.315-.445zm.271 0c0-.334.18-.549.428-.549s.428.205.428.55c0 .344-.18.545-.428.545s-.428-.204-.428-.546zm.746 0c0-.288-.131-.445-.335-.445-.204 0-.314.157-.314.445 0 .288.127.445.314.445.188 0 .335-.16.335-.445z" fill="#263238"/><path d="M165.242 116.949a4.4 4.4 0 01-1.044.435 4.342 4.342 0 01-2.246 0 4.4 4.4 0 01-1.944-1.124 4.349 4.349 0 010-6.145c.269-.264.572-.492.9-.679a4.377 4.377 0 012.168-.582V108a5.26 5.26 0 00-1.338.174 5.2 5.2 0 00-3.153 2.42 5.252 5.252 0 00-.696 2.59c.001.452.06.902.178 1.339.114.44.289.862.518 1.255.227.393.504.755.824 1.078.321.319.683.595 1.077.819.392.23.813.406 1.252.523.877.234 1.8.234 2.677 0a5 5 0 001.252-.523c.39-.222.749-.496 1.067-.813l-.609-.606c-.262.27-.559.503-.883.693z" fill="#0075FF"/><path d="M168.09 111.849a5.214 5.214 0 00-2.417-3.153 5.159 5.159 0 00-2.597-.692v.853a4.348 4.348 0 013.066 1.272c.267.268.497.569.686.897.192.328.339.68.438 1.047.197.736.197 1.51 0 2.246a4.435 4.435 0 01-1.124 1.941l.609.606a5.29 5.29 0 00.823-1.078 5.177 5.177 0 00.696-2.594 5.226 5.226 0 00-.18-1.345z" fill="#E0E0E0"/><path d="M162.243 113.746a.46.46 0 01-.156.342.458.458 0 01-.166.095.454.454 0 01-.19.022c-.398 0-.612-.274-.612-.75 0-.475.277-.773.669-.773a.697.697 0 01.355.081l-.06.123a.542.542 0 00-.292-.07c-.334 0-.532.208-.532.616v.12a.49.49 0 01.191-.197.492.492 0 01.268-.06.46.46 0 01.484.26c.027.06.041.126.041.191zm-.154 0c0-.197-.144-.334-.375-.334a.33.33 0 00-.355.194.339.339 0 00-.03.14c0 .168.138.335.395.335a.334.334 0 00.365-.331v-.004zm1.349.007c0 .255-.177.452-.546.452a.778.778 0 01-.535-.191l.074-.124a.666.666 0 00.461.174c.255 0 .389-.123.389-.304s-.121-.315-.499-.315h-.335l.077-.749h.82v.137h-.669l-.054.475h.194c.452 0 .623.177.623.445zm.15-.662c0-.245.138-.405.335-.405s.335.157.335.405c0 .247-.138.408-.335.408s-.335-.164-.335-.408zm.569 0c0-.194-.09-.312-.231-.312-.14 0-.231.121-.231.312 0 .19.091.311.231.311.141 0 .231-.117.231-.311zm.67-.395h.123l-1.02 1.496h-.127l1.024-1.496zm-.335 1.101c0-.245.137-.405.335-.405.197 0 .334.16.334.405 0 .244-.137.408-.334.408-.198 0-.318-.164-.318-.418l-.017.01zm.569 0c0-.191-.09-.311-.231-.311-.141 0-.231.117-.231.311s.09.311.231.311c.141 0 .248-.117.248-.321l-.017.01z" fill="#263238"/><path d="M183.22 113.198c-.002.451-.06.901-.174 1.338a5.273 5.273 0 01-1.345 2.326 5.078 5.078 0 01-1.078.824c-.391.23-.813.406-1.252.522-.877.234-1.8.234-2.677 0a4.997 4.997 0 01-1.252-.522 5.163 5.163 0 01-1.897-1.898 4.945 4.945 0 01-.522-1.252 4.958 4.958 0 01-.164-.984h.86c.021.258.065.513.13.763.1.365.245.716.432 1.045.19.328.423.629.693.896.535.541 1.205.93 1.941 1.125a4.36 4.36 0 002.245 0 4.295 4.295 0 001.945-1.125 4.35 4.35 0 001.124-1.941 4.447 4.447 0 000-2.245 4.354 4.354 0 00-3.069-3.069 4.395 4.395 0 00-1.124-.147V108a5.4 5.4 0 011.339.174 5.12 5.12 0 011.251.522 5.115 5.115 0 011.901 1.901c.229.392.405.813.522 1.252.114.44.172.894.171 1.349z" fill="#E0E0E0"/><path d="M176.858 112.609v.11l-.629 1.402h-.167l.619-1.362h-.773v.281h-.151v-.418l1.101-.013zm1.185 1.057c0 .255-.177.455-.542.455a.78.78 0 01-.539-.194l.077-.12a.648.648 0 00.458.174c.255 0 .389-.127.389-.308s-.118-.311-.499-.311h-.318l.077-.753h.817v.137h-.67l-.053.478h.194c.432 0 .609.178.609.442zm.147-.659c0-.244.137-.408.335-.408.197 0 .334.16.334.408 0 .248-.14.405-.334.405s-.335-.161-.335-.405zm.569 0c0-.198-.094-.311-.231-.311s-.231.117-.231.311.09.308.231.308c.141 0 .231-.114.231-.308zm.669-.398h.127l-1.017 1.512h-.127l1.017-1.512zm-.334 1.104c0-.244.14-.408.334-.408s.335.164.335.408c0 .244-.137.405-.335.405-.197 0-.321-.161-.321-.405h-.013zm.568 0c0-.194-.09-.311-.23-.311-.141 0-.231.114-.231.311 0 .198.09.308.231.308.14 0 .244-.117.244-.308h-.014z" fill="#263238"/><path d="M182.363 113.198c0 .378-.048.755-.144 1.121a4.36 4.36 0 01-3.069 3.065 4.338 4.338 0 01-2.245 0 4.266 4.266 0 01-1.941-1.124 4.276 4.276 0 01-1.255-2.704v-.362a4.291 4.291 0 01.147-1.121 4.355 4.355 0 013.066-3.069 4.44 4.44 0 011.124-.147v-.853a5.097 5.097 0 00-2.597.696 5.174 5.174 0 00-1.901 1.901 5.111 5.111 0 00-.519 1.251 5.265 5.265 0 00-.177 1.339v.361c.022.333.077.663.164.984.116.439.292.861.522 1.252a5.165 5.165 0 001.898 1.898c.391.23.812.406 1.251.522a5.196 5.196 0 002.678 0c.439-.116.86-.292 1.251-.522a5.053 5.053 0 001.078-.824 5.273 5.273 0 001.345-2.326c.114-.437.173-.887.174-1.338h-.85z" fill="#0075FF"/><path d="M187.31 123.181h-33.517a2.26 2.26 0 01-2.256-2.256V102.11a2.26 2.26 0 012.256-2.255h33.517a2.256 2.256 0 012.255 2.255v18.815a2.255 2.255 0 01-2.255 2.256zm-33.517-23.069a2.009 2.009 0 00-2.008 2.008v18.815a2.006 2.006 0 002.008 2.008h33.517a2.007 2.007 0 002.008-2.008V102.11a2.01 2.01 0 00-2.008-2.008l-33.517.01z" fill="#E0E0E0"/><path d="M170.904 105.139c0 .037-3.507.067-7.828.067-4.32 0-7.827-.03-7.827-.067 0-.037 3.503-.064 7.827-.064s7.828.027 7.828.064z" fill="#E0E0E0"/><path d="M72.87 40.886l.158-.358c.235.177.522.272.816.271.385 0 .546-.137.546-.334 0-.533-1.47-.181-1.47-1.098 0-.402.335-.74 1.005-.74.288-.005.573.072.82.221l-.144.355a1.365 1.365 0 00-.67-.194c-.381 0-.538.147-.538.334 0 .526 1.466.184 1.466 1.091 0 .395-.335.733-1.004.733a1.607 1.607 0 01-.984-.28zm2.23-.683a1.005 1.005 0 111.003.968.95.95 0 01-1.004-.968zm1.562 0a.56.56 0 10-.562.59.549.549 0 00.562-.59zm.713 0a.955.955 0 011.02-.963.85.85 0 01.804.438l-.335.198a.536.536 0 00-.468-.261.589.589 0 10.27 1.11.536.536 0 00.198-.194l.335.198a.853.853 0 01-.803.442.954.954 0 01-1.02-.968zm2.145-1.516a.268.268 0 01.281-.264.26.26 0 01.264.362.271.271 0 01-.264.167.267.267 0 01-.281-.265zm.06.576h.442v1.901h-.442v-1.9zm2.597.78v1.121h-.418v-.231a.668.668 0 01-.592.254c-.429 0-.703-.237-.703-.565 0-.328.214-.56.786-.56h.486v-.03c0-.257-.154-.407-.469-.407a.93.93 0 00-.572.187l-.174-.335a1.34 1.34 0 01.8-.234c.542-.003.856.248.856.8zm-.441.515v-.22h-.456c-.3 0-.381.113-.381.25 0 .138.134.261.361.261a.478.478 0 00.476-.29zm1.007-2.031h.439v2.637h-.439v-2.637zm4.304 2.637v-1.636l-.813 1.338h-.204l-.81-1.338v1.636h-.439v-2.47h.378l.981 1.637.964-1.637h.375v2.47h-.432zm2.821-.82H88.39a.572.572 0 00.612.452.67.67 0 00.512-.204l.235.27a1.055 1.055 0 01-1.797-.669.936.936 0 01.974-.963.918.918 0 01.95.974c0 .046-.003.1-.007.14zm-1.482-.291h1.07a.515.515 0 00-.532-.459.522.522 0 00-.538.459zm3.758-1.526v2.637h-.422v-.244a.78.78 0 01-.626.267.967.967 0 010-1.93.773.773 0 01.603.234v-.968l.445.004zm-.432 1.673a.562.562 0 10-.344.543.55.55 0 00.33-.54l.014-.003zm.951-1.512a.27.27 0 01.284-.265.26.26 0 01.281.254.285.285 0 01-.565 0v.01zm.06.575h.442v1.901h-.442v-1.9zm2.597.78v1.121h-.415v-.23a.67.67 0 01-.593.253c-.431 0-.702-.237-.702-.565 0-.328.21-.56.783-.56h.485v-.03c0-.257-.154-.407-.469-.407a.93.93 0 00-.572.187l-.17-.335a1.34 1.34 0 01.796-.234c.542-.003.857.248.857.8zm-.442.515v-.22h-.455c-.298 0-.382.113-.382.25 0 .138.138.261.362.261a.478.478 0 00.475-.29zm2.095-1.881h1.004a1.24 1.24 0 011.226 1.73 1.237 1.237 0 01-1.226.74h-1.004v-2.47zm1.004 2.243a1.004 1.004 0 000-2.008h-.73v2.008h.73zm3.256-.924v1.168h-.241v-.291a.686.686 0 01-.635.308c-.422 0-.67-.218-.67-.54 0-.32.184-.524.716-.524h.589v-.114c0-.335-.177-.492-.525-.492a.948.948 0 00-.616.22l-.114-.187c.215-.17.483-.258.757-.25a.67.67 0 01.739.702zm-.251.592v-.304h-.582c-.358 0-.475.144-.475.334 0 .191.174.335.468.335a.588.588 0 00.589-.365zm.676.345l.111-.197c.195.14.429.213.669.21.352 0 .496-.12.496-.304 0-.482-1.202-.104-1.202-.837 0-.304.261-.529.733-.529.235-.006.467.054.669.174l-.11.201a.94.94 0 00-.546-.16c-.334 0-.482.13-.482.307 0 .502 1.202.124 1.202.837 0 .335-.281.529-.766.529a1.238 1.238 0 01-.774-.23zm3.688-.863v1.094h-.261v-1.05a.52.52 0 00-.559-.597.608.608 0 00-.649.67v.977h-.251v-2.62h.251v1.087a.79.79 0 01.696-.334.71.71 0 01.773.773zm2.564.147a.906.906 0 01-.561.881.9.9 0 01-.363.066.798.798 0 01-.716-.385v.385h-.241v-2.62h.251v1.117a.808.808 0 01.706-.368.897.897 0 01.924.924zm-.251 0a.697.697 0 00-.45-.616.691.691 0 00-.879.922.692.692 0 00.636.42.665.665 0 00.51-.207.673.673 0 00.183-.52zm.576 0a.939.939 0 01.585-.87.943.943 0 11.358 1.817.91.91 0 01-.943-.947zm1.633 0a.689.689 0 10-.69.726.672.672 0 00.69-.726zm2.155-.221v1.168h-.244v-.291a.708.708 0 01-.639.308c-.422 0-.67-.218-.67-.54 0-.32.184-.524.716-.524h.593v-.114c0-.335-.178-.492-.526-.492a.944.944 0 00-.615.22l-.114-.187c.215-.17.482-.258.756-.25a.667.667 0 01.743.702zm-.251.592v-.304h-.582c-.358 0-.475.144-.475.334 0 .191.174.335.468.335a.59.59 0 00.596-.365h-.007zm1.868-1.312v.245h-.061a.597.597 0 00-.622.67v.973h-.251V39.29h.237v.365a.707.707 0 01.697-.379zm2.128-.749v2.637h-.241v-.368a.8.8 0 01-.716.385.944.944 0 110-1.888.803.803 0 01.706.368v-1.117l.251-.017zm-.248 1.673a.687.687 0 00-.845-.634.69.69 0 00.156 1.36.67.67 0 00.689-.71V40.2z" fill="#263238"/><path d="M147.317 83.774c0 .05-19.113.087-42.683.087-23.571 0-42.687-.037-42.687-.087 0-.05 19.11-.087 42.687-.087 23.577 0 42.683.04 42.683.087z" fill="#EBEBEB"/><path d="M93.396 127.354c-.047 0-.087-18.407-.087-41.08 0-22.674.04-41.08.087-41.08.046 0 .087 18.406.087 41.08 0 22.673-.037 41.08-.087 41.08zm27.7 0c-.047 0-.087-18.407-.087-41.08 0-22.674.04-41.094.087-41.094.047 0 .087 18.407.087 41.08 0 22.674-.034 41.094-.087 41.094z" fill="#EBEBEB"/><path d="M209.244 50.13s4.638 1.472 6.549 5.716c1.878 4.166 4.776 11.526 4.776 11.526s1.118-.191.836.886l5.65-4.638 3.012 2.734-1.255 1.523s.334 3.18-2.233 5.084c-2.567 1.904-9.414 6.546-11.505 3.56-2.092-2.985-2.922-12.84-2.922-12.84l-2.908-13.551z" fill="#0075FF"/><path d="M228.802 67.88a14.022 14.022 0 01-1.64-1.489 14.067 14.067 0 01-1.516-1.61c.583.453 1.131.95 1.64 1.486a14.345 14.345 0 011.516 1.613z" fill="#263238"/><path d="M229.357 65.769a2.166 2.166 0 01-.595.76 2.204 2.204 0 01-.777.575c.19-.263.415-.498.669-.7.206-.241.442-.455.703-.635zm-.84-.693c-.185.24-.412.443-.669.602a2.39 2.39 0 01-.786.459 2.51 2.51 0 01.669-.603 2.39 2.39 0 01.786-.458zm-1.014-1.018c.034.037-.268.335-.669.67a2.62 2.62 0 01-.783.525c-.03-.037.271-.334.669-.67.228-.22.493-.397.783-.525zm-8.822 6.868a5.967 5.967 0 012.698-2.63c.027.046-.7.491-1.443 1.22-.743.73-1.211 1.433-1.255 1.41zm-.385-1.356c.16-.518.449-.986.84-1.362a3.127 3.127 0 011.316-.91c.026.047-.596.398-1.188 1.03-.593.633-.917 1.283-.968 1.242z" fill="#263238"/><path d="M190.964 51.465s.75-2.697 2.202-2.908c0 0 .707-2.343 3.665-2.778 1.7-.248 8.092-.88 9.13.522 1.037 1.402 1.158 2.192 1.158 2.192s3.105.428 2.677 4.204l-17.178.85-1.654-2.082zm21.884 94.845l-.114 6.398s6.433 1.731 6.526 2.915l-12.382.76-.235-9.976 6.205-.097z" fill="#0075FF"/><path d="M208.899 152.24a.51.51 0 00-.335.586.49.49 0 00.576.334.534.534 0 00.358-.619.506.506 0 00-.639-.291" fill="#EBEBEB"/><path d="M206.895 156.383l-.024-1.004 11.734-.495s.692.368.692.756l-12.402.743zm6.053-3.742c0 .061-.304.094-.599.295-.294.201-.448.458-.505.435-.057-.023.03-.375.392-.612.361-.238.726-.174.712-.118zm1.312.516c0 .057-.244.167-.445.425s-.258.532-.318.532-.104-.335.151-.669c.254-.335.609-.345.612-.288zm.77 1.546c-.057 0-.147-.288 0-.622.147-.335.432-.472.459-.422.026.05-.148.227-.265.505-.117.278-.134.529-.194.539zm-2.219-3.524c-.023.057-.301-.02-.646 0-.344.02-.605.144-.639.094-.033-.05.221-.275.626-.302.405-.026.696.161.659.208zm0-1.289a1.172 1.172 0 01-.622 0 2.741 2.741 0 01-1.014-.371.75.75 0 01-.191-.144.27.27 0 01-.034-.335.338.338 0 01.265-.144.805.805 0 01.234.031 2.144 2.144 0 01.967.492c.295.261.395.485.375.498-.02.014-.171-.167-.468-.385a2.669 2.669 0 00-.559-.301 2.66 2.66 0 00-.358-.104c-.134-.03-.245-.03-.278.03-.034.061 0 .031 0 .067a.465.465 0 00.137.104c.108.067.22.129.335.184.193.091.395.164.602.218.207.038.411.091.609.16z" fill="#263238"/><path d="M212.734 149.978a1.008 1.008 0 01-.174-.6 1.954 1.954 0 01.225-1.06.503.503 0 01.388-.335.29.29 0 01.156.046.287.287 0 01.108.121.758.758 0 01.067.228c.022.138.022.28 0 .418a1.481 1.481 0 01-.254.649c-.238.335-.489.402-.496.382-.006-.02.191-.151.369-.465.104-.179.168-.379.187-.586.016-.12.016-.241 0-.361-.023-.131-.074-.235-.124-.221a.439.439 0 00-.214.207 2.038 2.038 0 00-.147.335 2.272 2.272 0 00-.111.622c-.017.385.054.609.02.62z" fill="#263238"/><path d="M195.198 146.919l-1.054 6.315s6.107 2.654 6.024 3.838l-12.36-1.064 1.239-9.906 6.151.817z" fill="#0075FF"/><path d="M190.405 152.206a.51.51 0 00-.421.529.486.486 0 00.518.425.53.53 0 00.445-.562.5.5 0 00-.589-.382" fill="#EBEBEB"/><path d="M187.812 156.012l.124-.988 11.679 1.235s.633.465.576.847l-12.379-1.094zm6.539-2.812c0 .061-.315.047-.636.201-.321.154-.509.388-.562.358-.054-.03.084-.368.475-.549.392-.18.743-.063.723-.01zm1.222.703c0 .057-.268.127-.502.355-.235.227-.335.488-.392.478-.057-.01-.053-.354.248-.632s.652-.261.646-.201zm.542 1.64c-.054 0-.101-.305.097-.616.197-.311.495-.401.515-.334.02.066-.177.204-.335.461-.157.258-.224.489-.277.489zm-1.674-3.809c-.03.051-.297-.066-.639-.09-.341-.023-.622.054-.646 0-.023-.053.258-.238.67-.204.411.033.642.251.615.294zm.181-1.278c-.21.029-.424 0-.619-.084a2.764 2.764 0 01-.619-.281 2.87 2.87 0 01-.335-.234.714.714 0 01-.167-.171.256.256 0 010-.334.332.332 0 01.281-.104c.078.01.154.031.227.06a2.248 2.248 0 01.887.629c.153.149.256.34.298.549-.03.017-.144-.191-.408-.445a2.487 2.487 0 00-.843-.539c-.124-.05-.235-.067-.278 0-.044.067 0 .027 0 .071a.665.665 0 00.12.123c.098.082.199.158.305.228.178.12.367.222.565.304.2.064.396.14.586.228z" fill="#263238"/><path d="M194.532 150.533a1.002 1.002 0 01-.091-.602 2.072 2.072 0 01.379-1.024.513.513 0 01.435-.258.285.285 0 01.234.204.744.744 0 01.033.234c.004.374-.139.734-.398 1.004-.281.288-.542.335-.545.308-.004-.027.207-.124.431-.405.13-.163.222-.353.271-.555.028-.118.041-.238.037-.358 0-.134-.04-.245-.09-.238a.456.456 0 00-.241.174 2.138 2.138 0 00-.198.315 2.289 2.289 0 00-.197.599c-.06.364-.027.595-.06.602z" fill="#263238"/><path d="M191.51 83.734c-.084 0-3.467 67.602-3.467 67.602h9.37l2.768-31.167 2.293-25.321 1.429 23.427 1.706 33.001 8.608-.308-.776-67.602h-11.145l-10.786.368z" fill="#263238"/><path d="M196.048 35.645l1.282 14.87 3.49 2.058 3.889-1.881c.047-.87.05-5.02.05-5.02s3.099-.482 3.139-3.578c0-1.506-.197-4.615-.425-7.413a5.73 5.73 0 00-6.047-5.264 5.738 5.738 0 00-5.124 3.963c-.235.73-.322 1.5-.254 2.265z" fill="#FFBE9D"/><path d="M204.766 45.642a7.224 7.224 0 01-4.039-1.131s.957 2.228 4.046 1.95l-.007-.82z" fill="#EB996E"/><path d="M206.593 37.061a.44.44 0 01-.425.445.43.43 0 01-.313-.103.434.434 0 01-.145-.295.441.441 0 01.428-.445.421.421 0 01.414.235.4.4 0 01.041.163zm.231-.807c-.053.057-.388-.19-.863-.19-.476 0-.827.24-.877.184-.05-.057.03-.13.181-.241.206-.143.451-.219.702-.218.248 0 .49.078.69.224.134.11.167.215.167.241zm-4.685.867a.444.444 0 01-.429.449.425.425 0 01-.455-.402.445.445 0 01.429-.445.427.427 0 01.455.398zm0-.776c-.054.057-.388-.191-.864-.191-.475 0-.826.241-.877.18-.05-.06.031-.13.181-.24a1.2 1.2 0 01.703-.214 1.17 1.17 0 01.689.22c.138.114.188.218.168.245zm1.723 3.527c.251-.078.511-.124.773-.137.121 0 .235-.037.255-.12a.595.595 0 00-.081-.362l-.358-.924a16.655 16.655 0 01-.81-2.423c.054-.02.502 1.035 1.004 2.343.121.335.238.633.335.93a.671.671 0 01.064.476.306.306 0 01-.201.177.67.67 0 01-.204.03c-.258.037-.519.04-.777.01zm-1.389.331c.077 0 .077.512.519.877s1.004.312 1.004.385c0 .074-.12.097-.355.104a1.266 1.266 0 01-.83-.288 1.115 1.115 0 01-.405-.736c-.04-.218.017-.345.067-.342zm-.217-5.733c-.047.131-.522.068-1.081.138-.559.07-1.004.217-1.084.104-.034-.057.047-.178.227-.305a1.83 1.83 0 01.817-.271c.286-.035.576 0 .847.1.19.077.294.181.274.235zm4.381.406c-.084.11-.412 0-.807 0-.395 0-.726.07-.803-.044-.034-.053 0-.16.164-.264a1.14 1.14 0 01.669-.178c.232.005.456.08.643.218.124.104.17.217.134.268z" fill="#263238"/><path d="M193.863 31.68c-.021-.576.391-1.195.97-1.232a1.43 1.43 0 012.045-1.797 1.859 1.859 0 013.27-.67 1.969 1.969 0 011.813-.67 1.978 1.978 0 011.516 1.2 2.169 2.169 0 013.19.454c.34-.122.7-.178 1.061-.167a1.278 1.278 0 011.104.706.84.84 0 01-.318 1.004 1.031 1.031 0 11.465 2.008.587.587 0 01.248.22.588.588 0 01.087.319 1.103 1.103 0 01-.726.8c-.884.388-1.911.264-2.825-.044-.913-.308-1.763-.786-2.677-1.117-.914-.332-2.423-.92-3.347-.603-.128.05-.251.116-.365.194-.489.389-.812.95-.9 1.57a.338.338 0 010 .063c-.12.884-.1 1.784-.231 2.678a3.996 3.996 0 01-1.087 2.39c-.268.247-.743.421-.964.127a.759.759 0 01-.107-.405c-.121-1.54-.455-2.952-.633-4.458a4.294 4.294 0 00-.84-1.004 2.406 2.406 0 01-.749-1.567z" fill="#263238"/><path d="M203.096 30.12a.802.802 0 00.043-.412 1.605 1.605 0 00-.495-1.004 1.625 1.625 0 00-1.63-.334 1.242 1.242 0 00-.763.669.874.874 0 00-.023.569.67.67 0 00.711.488.638.638 0 00.293-.11.605.605 0 00.237-.535.773.773 0 00-.254-.496 1.188 1.188 0 00-.452-.25 1.895 1.895 0 00-1.65.27 1.169 1.169 0 00-.401.53.882.882 0 00-.024.498c.071.274.224.358.224.334a1.076 1.076 0 01-.15-.364.862.862 0 01.03-.422c.087-.178.221-.329.388-.435a1.786 1.786 0 011.513-.21.737.737 0 01.566.588.42.42 0 01-.144.372.444.444 0 01-.415.04.584.584 0 01-.271-.76 1.072 1.072 0 01.649-.586 1.492 1.492 0 011.472.255c.272.24.452.566.512.923.041.238.017.382.034.382zm-3.765-1.971a.686.686 0 00-.281-.054 2.977 2.977 0 00-.777.02 1.83 1.83 0 00-1.044.53 1.171 1.171 0 00-.164 1.401.977.977 0 00.171.195l.1-.168a.825.825 0 00-.739.097.92.92 0 00-.395.56 1.331 1.331 0 00.247 1.063c.147.197.327.366.533.499.14.094.227.13.234.12.007-.01-.067-.07-.191-.177a2.544 2.544 0 01-.465-.515 1.191 1.191 0 01-.177-.95.752.752 0 01.334-.446.636.636 0 01.562-.074l.509.205-.408-.372a.763.763 0 01-.134-.15.924.924 0 01-.127-.616c.029-.205.12-.397.261-.55.248-.266.575-.446.934-.514.605-.12 1.017-.064 1.017-.104zm-4.484 3.276c-.024 0-.077.104-.077.295a1.046 1.046 0 00.923 1.03c.191.02.305-.023.301-.046-.3-.074-.578-.22-.809-.425-.342-.382-.282-.854-.338-.854zm13.232-1.616a.8.8 0 00-.291-.235 2.008 2.008 0 00-2.39.315 1.16 1.16 0 00-.364.853.708.708 0 00.729.67.547.547 0 00.442-.335.771.771 0 00.03-.519.997.997 0 00-.669-.652 1.287 1.287 0 00-.834 0c-.228.082-.437.21-.615.375-.249.245-.455.53-.609.843a1.292 1.292 0 00-.151.335c.085-.09.158-.19.217-.298.176-.28.39-.532.636-.75a1.366 1.366 0 011.299-.335.822.822 0 01.542.53c.074.25-.044.588-.308.608a.529.529 0 01-.519-.492 1.014 1.014 0 01.305-.716c.339-.34.795-.538 1.275-.555.327-.013.652.05.95.184.105.065.213.123.325.174z" fill="#455A64"/><path d="M197.092 37.048c-.054-.024-2.129-.63-2.058 1.489.07 2.118 2.178 1.613 2.178 1.553 0-.06-.12-3.042-.12-3.042z" fill="#FFBE9D"/><path d="M196.54 39.307s-.034.026-.097.056a.37.37 0 01-.275 0 .921.921 0 01-.448-.806 1.182 1.182 0 01.087-.532.424.424 0 01.268-.291.182.182 0 01.22.093c.031.057.017.1.031.104.013.004.043-.037.023-.124a.25.25 0 00-.087-.13.286.286 0 00-.208-.047.527.527 0 00-.374.335 1.27 1.27 0 00-.107.595.958.958 0 00.565.897.413.413 0 00.335-.067c.067-.033.077-.08.067-.083z" fill="#EB996E"/><path d="M214.408 78.312l-.947-9.99 1.061-8.23a10.823 10.823 0 00-5.278-9.892l-8.263 2.272-8.096-2.272-3.494 2.343 2.939 16.633-1.272 10.963c-.298 2.008.371 4.84.371 4.84l22.045.19.418-.204a18.31 18.31 0 00.516-6.653z" fill="#0075FF"/><path d="M195.445 48.236s1.526-.282 2.52.508 4.147 3.213 4.147 3.213 2.824-5.197 5.114-4.384c2.289.813 2.677 5.595 2.677 5.595l-10.201.64-6.285-.13 2.028-5.442z" fill="#0075FF"/><path d="M211.332 82.492s.131-.174.335-.522a5.575 5.575 0 00.609-4.224c-.231-1.004-.91-1.957-1.673-2.931l.053.03a3.016 3.016 0 01-1.459-.522 3.315 3.315 0 01-1.074-1.252l.087.05-2.929.255-3.306.287.073-.06a2.936 2.936 0 01-.471.897 3.308 3.308 0 01-.727.67 4.503 4.503 0 01-1.703.652l.06-.1a7.14 7.14 0 01.211 3.065 5.824 5.824 0 01-.78 2.239 3.197 3.197 0 01-1.064 1.091 2.085 2.085 0 01-.361.18.53.53 0 01-.131.048s.174-.08.465-.268a3.3 3.3 0 001.004-1.098c.391-.68.64-1.433.733-2.212a7.054 7.054 0 00-.231-3.012l-.027-.084h.091a4.387 4.387 0 001.633-.639c.252-.174.477-.384.669-.622.194-.256.343-.542.442-.847v-.054h.057l3.306-.287 2.925-.255h.061l.026.054c.232.473.577.881 1.004 1.188.408.283.882.455 1.376.498h.033l.021.024c.381.47.732.965 1.05 1.48.292.47.509.984.643 1.522.214.88.214 1.798 0 2.677a5.315 5.315 0 01-.669 1.6 3.03 3.03 0 01-.362.482z" fill="#263238"/><path opacity=".3" d="M198.98 75.661c-.208 1.172-.576 2.383-1.446 3.196-.462.432-1.061.693-1.55 1.095-.488.401-.88 1.047-.689 1.65.191.602.964.927 1.6.783a2.704 2.704 0 001.522-1.162 5.736 5.736 0 00.563-5.562z" fill="#000"/><path d="M214.404 82.8a.898.898 0 01-.224.043l-.669.09c-.566.078-1.386.171-2.403.268-2.032.195-4.85.372-7.965.385a85.413 85.413 0 01-7.969-.334 66.337 66.337 0 01-2.403-.251l-.652-.084a1.076 1.076 0 01-.224-.044c.075-.008.151-.008.227 0l.669.054c.566.053 1.389.12 2.407.194 2.031.15 4.846.288 7.958.278 3.112-.01 5.924-.17 7.955-.335a130.09 130.09 0 002.406-.21l.67-.058c.072-.003.145-.001.217.004zm-20.1 2.603a2.008 2.008 0 01-.468-1.05 1.99 1.99 0 01.026-1.152c.051 0 .021.513.148 1.118.127.606.338 1.061.294 1.084z" fill="#263238"/><path d="M196.061 85.066a4.857 4.857 0 01-.234-1.788c.126.279.195.579.204.884.069.296.079.603.03.904zm2.798.528a4.257 4.257 0 01-.114-2.168c.071.355.102.718.091 1.08.046.361.054.726.023 1.088zm2.239-.231a2.48 2.48 0 01-.184-.903 2.415 2.415 0 010-.92c.117.287.179.593.184.903.059.304.059.616 0 .92zm2.938.077a3.4 3.4 0 01-.113-1.864c.075.303.109.615.1.927.044.31.049.626.013.937zm2.028-.411a1.647 1.647 0 01-.097-.727 1.613 1.613 0 01.074-.726c.05 0 .094.335.1.727.033.244.007.493-.077.726zm2.711.184a1.973 1.973 0 01-.211-.92 1.938 1.938 0 01.084-.94c.067.303.097.615.09.926.051.309.063.622.037.934zm2.065-.261a2.824 2.824 0 01-.187-.957 2.676 2.676 0 010-.978c.117.306.181.63.187.958.06.323.06.654 0 .977zm1.781.19a6.644 6.644 0 01.334-2.088c.034.355.007.712-.08 1.058a3.336 3.336 0 01-.254 1.03zm-20.188.633a2.98 2.98 0 01-.719-1.312 2.928 2.928 0 01-.154-1.486c.05 0 .077.67.335 1.436.257.766.572 1.332.538 1.362z" fill="#263238"/><path opacity=".3" d="M190.777 77.6c.502.725 1.553.796 2.423.642 2.058-.359 3.905-1.53 5.408-2.986 1.503-1.455 2.677-3.189 3.879-4.912-1.71 1.59-3.431 3.186-5.355 4.497-1.924 1.312-4.103 2.343-6.415 2.654" fill="#000"/><path d="M211.51 57.449c.023.062.041.126.053.19l.117.566c.101.489.231 1.202.385 2.082.305 1.76.669 4.2 1.064 6.897.395 2.698.69 5.15.884 6.928.1.887.171 1.606.211 2.105.016.234.03.422.043.572a.75.75 0 010 .201 1.32 1.32 0 01-.037-.197c-.02-.148-.043-.335-.073-.57-.067-.518-.154-1.23-.265-2.098a635.75 635.75 0 00-.933-6.917c-.379-2.701-.743-5.137-1.004-6.901a127.23 127.23 0 00-.335-2.092c-.033-.23-.064-.418-.087-.569a.773.773 0 01-.023-.197z" fill="#263238"/><path d="M215.542 56.964c-1.061.194-1.175-1.035-3.149-.723-1.473.234-4.12.79-7.604 3.129l2.008 4.685 3.762-2.58 2.215 1.764a1.045 1.045 0 00.776.216 1.035 1.035 0 00.697-.404l1.355-1.8s1.801 2.218 2.008 2.235a.599.599 0 00.563-.281.601.601 0 00-.004-.629c-.244-.301-2.677-4.511-2.677-4.511s1.57-.335 1.198-.824c0 .01-.084-.475-1.148-.277z" fill="#FFBE9D"/><path d="M214.03 63.45a2.887 2.887 0 01-.031-.335 1.802 1.802 0 00-.856-1.316 2.957 2.957 0 01-.305-.163.735.735 0 01.335.097c.258.128.476.323.632.565.161.24.252.52.265.81a.709.709 0 01-.04.341zm.826-1.202a3.116 3.116 0 00-.425-.877 3.204 3.204 0 00-.743-.626.597.597 0 01.281.097 1.73 1.73 0 01.864 1.108.57.57 0 01.023.298zm-.241-2.38s.097.02.221.111a1.482 1.482 0 01.576 1.027c0 .154 0 .248-.02.248a3.238 3.238 0 00-.258-.766 3.064 3.064 0 00-.519-.62z" fill="#EB996E"/><path d="M189.391 52.459s-1.901 1.225-2.61 4.662c-.492 2.37.064 9.642-.613 13.664a6.333 6.333 0 001.58 5.311c2.868 1.841 5.117 1.674 6.968.64 5.652-3.123 10.083-8.702 12.018-11.844l1.211-1.339-1.974-5.766-2.263 1.673c-3.654 1.125-7.479 4.304-11.378 8.16l-2.939-15.161z" fill="#0075FF"/><path d="M193.872 66.093a6.166 6.166 0 01-.113-1.04 92.104 92.104 0 01-.148-2.527 46.447 46.447 0 01-.056-2.53 4.78 4.78 0 01.07-1.048c.036.348.054.698.053 1.048l.107 2.523c.041.96.081 1.878.097 2.527.027.349.023.699-.01 1.047z" fill="#263238"/><path d="M187.748 76.097l.11.07c.074.043.175.12.335.207a7.9 7.9 0 001.295.67 6.066 6.066 0 002.243.425 6.29 6.29 0 002.911-.763 18.09 18.09 0 003.099-2.008 35.307 35.307 0 003.133-2.872 65.15 65.15 0 006.285-7.423c.234-.334.465-.646.692-.964v.077c-.669-1.967-1.338-3.868-1.944-5.645l.121.046c-4.441 2.678-8.073 5.322-10.66 7.176l-3.012 2.188-.806.58-.211.147c-.05.033-.074.05-.077.047l.067-.057.201-.161c.191-.14.455-.335.793-.603.693-.525 1.707-1.285 2.988-2.228 2.567-1.878 6.192-4.528 10.633-7.233l.09-.053.034.097c.612 1.777 1.271 3.681 1.951 5.642l.017.044-.027.037-.696.967a63.887 63.887 0 01-6.359 7.423 35.109 35.109 0 01-3.159 2.871 17.788 17.788 0 01-3.133 2.008 6.355 6.355 0 01-2.965.75 6.086 6.086 0 01-2.266-.459 7.173 7.173 0 01-1.291-.696c-.141-.087-.238-.17-.308-.22l-.084-.087z" fill="#263238"/><path d="M193.872 66.093c0 .03-.284-.017-.732 0a4.507 4.507 0 00-3.099 1.396c-.305.334-.456.565-.482.549a1.87 1.87 0 01.391-.63 4.043 4.043 0 013.19-1.435c.249-.009.499.032.732.12zm12.477-.646a5.475 5.475 0 01-.408-.886c-.258-.606-.573-1.34-.924-2.17l-.947-2.151a6.066 6.066 0 01-.368-.907c.188.268.35.554.482.853.271.543.629 1.296 1.004 2.142.374.847.669 1.627.876 2.192.124.3.219.61.285.927z" fill="#263238"/><path d="M207.577 62.355a3.24 3.24 0 01-.84.807c-.295.26-.635.463-1.004.599a5.17 5.17 0 01.89-.74c.292-.258.612-.481.954-.666zm-.592-1.56a8.323 8.323 0 01-1.975 1.383c.274-.298.59-.555.937-.763a4.52 4.52 0 011.038-.62zm-.532-1.71a10.068 10.068 0 01-2.159 1.516c.304-.32.65-.6 1.027-.83a4.94 4.94 0 011.132-.686zm-4.261-5.073c-.02.027-.482-.382-1.318-.904a12.002 12.002 0 00-1.526-.81 14.287 14.287 0 00-2.008-.689 13.279 13.279 0 00-3.819-.388c-.984.047-1.586.174-1.593.137a2.41 2.41 0 01.418-.104c.165-.037.331-.065.499-.083.197-.024.422-.064.669-.074a11.737 11.737 0 011.751 0c.714.051 1.423.163 2.118.335a13.07 13.07 0 012.008.71c.531.243 1.043.528 1.529.852.215.131.392.272.549.389.138.103.268.215.392.334.121.085.233.184.331.295z" fill="#263238"/><path d="M209.411 50.09c0 .026-.462.117-1.195.334a15.96 15.96 0 00-2.761 1.078c-.884.448-1.725.975-2.513 1.576-.606.462-.954.78-.974.76-.02-.02.07-.097.221-.248.151-.15.382-.361.669-.609a13.735 13.735 0 012.51-1.637 13.251 13.251 0 012.812-1.037c.371-.09.669-.147.89-.177a1.1 1.1 0 01.341-.04z" fill="#263238"/><path d="M214.096 65.882l24.672-4.53a.83.83 0 00.669-.71l1.878-14.615a.821.821 0 00-.239-.694.83.83 0 00-.695-.233l-15.485 2.088a.824.824 0 00-.713.72l-1.884 14.755a.827.827 0 01-.642.706l-8.474 1.891a.774.774 0 00.324.506.765.765 0 00.589.116z" fill="#455A64"/><path d="M225.843 47.523s-.08.043-.214.15a1.508 1.508 0 00-.428.606c-.261.606-.298 1.58-.466 2.75-.307 2.367-.729 5.61-1.198 9.188-.127.9-.217 1.767-.368 2.623a1.54 1.54 0 01-.268.61 1.25 1.25 0 01-.532.384 6.999 6.999 0 01-1.191.265l-4.1.72-2.767.468-.757.12a2.491 2.491 0 01-.264.03c.083-.03.17-.053.257-.067l.75-.15 2.758-.526 4.096-.753a7.425 7.425 0 001.155-.26 1.08 1.08 0 00.462-.335c.116-.164.197-.35.237-.546.141-.823.234-1.713.362-2.607.485-3.578.927-6.814 1.248-9.18.08-.582.157-1.114.224-1.583a4.32 4.32 0 01.298-1.178c.101-.24.262-.45.469-.609a.776.776 0 01.237-.12zm15.281-2.139a.784.784 0 01-.154.034l-.445.067-1.636.227c-1.383.19-3.29.479-5.395.803a210.49 210.49 0 01-5.402.78 55.61 55.61 0 01-1.643.19l-.445.041a.595.595 0 01-.161 0 .482.482 0 01.154-.037l.445-.073 1.633-.248 5.392-.83a139.65 139.65 0 015.405-.753 59.21 59.21 0 011.646-.17l.449-.034a.468.468 0 01.157.003z" fill="#263238"/><path d="M233.263 49.002a.467.467 0 01.452.445.452.452 0 01-.274.416.45.45 0 11-.178-.861z" fill="#fff"/><path d="M227.209 63.764s.759-1.339 1.405-1.416c.646-.077 2.246-.475 2.246-.475a5.53 5.53 0 001.091-1.295c.335-.646.817-1.396 1.088-1.292.271.104.374.17.204.75-.171.579-.613 1.747-.613 1.747h.579s.65-2.939 1.429-2.905c0 0 .375.204.335.508 0 0 .408-.85.646-.669.237.18.241.884.171 1.6a36.79 36.79 0 01-.134 1.181l.579-.194s1.395-2.962 1.804-2.895c.408.067.408.546.271.92-.138.376-.921 2.213-.921 2.213s-2.597 1.462-3.129 1.703c-.532.241-4.759 2.614-4.759 2.614l-2.292-2.095z" fill="#FFBE9D"/><path d="M191.175 89.634a.6.6 0 01.56-.535.605.605 0 01.274.046c1.673.71 5.88 2.316 8.701 2.008 3.601-.381 6.342-2.744 8.701-2.108 2.36.636 3.899 1.88 4.418 1.372.519-.509-.335-5.288-.335-5.288l-22.064-.177s-.472 3.293-.723 4.35c-.134.566.468.335.468.335v-.003z" fill="#455A64"/><path d="M213.909 89.825a1.117 1.117 0 01-.227-.074l-.646-.244a22.006 22.006 0 00-2.403-.784 10.374 10.374 0 00-1.714-.287 8.58 8.58 0 00-1.984.097c-1.389.224-2.852.776-4.435 1.198a11.334 11.334 0 01-4.595.304 11.204 11.204 0 01-3.584-1.158c-.478-.24-.907-.461-1.295-.632a5.23 5.23 0 00-1.934-.492c.31-.03.624-.006.927.07.357.08.706.192 1.044.335.395.164.833.378 1.312.612a11.177 11.177 0 008.099.79c1.569-.415 3.038-.967 4.454-1.185a8.476 8.476 0 012.008-.083c.586.052 1.166.157 1.734.311.816.228 1.616.508 2.396.84l.636.274a.986.986 0 01.207.108z" fill="#FAFAFA"/><path d="M213.909 88.543a1.196 1.196 0 01-.234-.054l-.67-.187-2.429-.717a13.917 13.917 0 00-3.652-.746 7.213 7.213 0 00-2.172.251c-.758.225-1.504.49-2.235.793-.739.308-1.506.545-2.289.71a5.64 5.64 0 01-2.236-.02 10.783 10.783 0 01-1.921-.626l-1.613-.67a12.91 12.91 0 00-1.355-.475 7.423 7.423 0 00-1.065-.197l-.394-.027h-.288c-.08.008-.161.008-.241 0 .078-.016.157-.026.237-.03.081 0 .178-.02.292-.023h.401a6.44 6.44 0 011.081.17c.468.124.928.275 1.379.452 1.004.375 2.145.97 3.521 1.262a5.447 5.447 0 002.172 0 12.981 12.981 0 002.255-.706 23.296 23.296 0 012.256-.794 7.198 7.198 0 012.219-.247c1.257.09 2.496.355 3.681.786l2.416.773.67.218c.075.026.147.061.214.104z" fill="#FAFAFA"/><path d="M213.675 86.712c-.278.111-.572.18-.87.2a6.531 6.531 0 01-2.41-.334c-.495-.14-1.031-.314-1.613-.465a14.876 14.876 0 00-6.252-.248c-1.532.268-3.012.67-4.38.62a7.615 7.615 0 01-1.915-.302c-.585-.157-1.121-.334-1.613-.472a6.552 6.552 0 00-2.379-.304c-.295.03-.586.084-.87.164a.782.782 0 01.214-.09c.211-.069.428-.116.649-.141a6.317 6.317 0 012.42.25c1.004.249 2.148.72 3.497.734 1.349.013 2.801-.358 4.351-.63a14.76 14.76 0 016.318.278c.586.158 1.121.335 1.61.486.761.268 1.563.4 2.369.388a7.86 7.86 0 00.874-.134z" fill="#FAFAFA"/><path d="M46.435 128.817c.378-1.306 1.185-2.571 2.433-3.109 1.302-.559 2.804-.241 4.136.244 1.332.485 2.634 1.128 4.047 1.215 1.412.087 3.011-.583 3.426-1.931.399-1.272-.368-2.624-1.338-3.548a8.367 8.367 0 00-13.722 3.293" fill="#263238"/><path d="M35.25 134.489c-2.071-1.968-1.967-5.395-.937-8.059 1.031-2.664 3.29-4.708 5.81-6.057a18.414 18.414 0 0116.03-.519 7.599 7.599 0 00-6.15 3.611c-1.138 1.888-1.39 4.174-2.326 6.165a9.705 9.705 0 01-12.426 4.859zm-.997-11.824c-2.292-2.707-2.597-7.054-2.259-10.585.338-3.531 1.155-7.088.6-10.592-.335-2.075-1.138-4.056-1.41-6.141-.27-2.085.114-4.441 1.73-5.787 1.855-1.546 4.78-1.181 6.71.271 1.932 1.453 3.05 3.732 3.866 6.004 1.797 4.997 2.457 10.535.98 15.632-1.475 5.097-4.936 9.659-10 11.198" fill="#455A64"/><path d="M33.152 144.877a.369.369 0 010-.08v-.221c0-.204 0-.505.02-.894.03-.776.104-1.9.278-3.279a44.8 44.8 0 01.883-4.799 22.143 22.143 0 012.193-5.559 23.24 23.24 0 013.577-4.786 22.93 22.93 0 013.738-3.132c.573-.395 1.128-.697 1.603-.974.476-.278.917-.469 1.265-.64l.827-.334.214-.087.077-.024-.07.041-.207.103-.81.375c-.335.181-.764.398-1.245.669-.482.272-1.004.593-1.583 1.004a23.168 23.168 0 00-3.705 3.133 23.454 23.454 0 00-3.544 4.759 22.321 22.321 0 00-2.192 5.478 46.212 46.212 0 00-.917 4.779 44.796 44.796 0 00-.385 4.157c0 .094 0 .171-.017.234a.3.3 0 010 .077zm-19.765-32.891c-4.244 2.56-4.23 4.89-3.521 7.088.71 2.199 3.313 3.729 5.472 2.905 1.221-.465 2.105-1.526 2.861-2.593.757-1.068 1.463-2.206 2.524-2.972 1.06-.767 2.59-1.058 3.654-.298" fill="#263238"/><path d="M10.194 114.791c1.108-1.536 3.852-1.978 5.582-1.215 1.73.763 3.012 2.282 4.133 3.798s2.24 3.113 3.812 4.167c1.573 1.054 3.768 1.436 5.335.375a4.604 4.604 0 001.81-3.139 10.478 10.478 0 00-.247-3.702c-.375-1.777-.988-3.638-2.41-4.769-1.59-1.258-3.792-1.318-5.817-1.252-2.325.077-4.685.251-6.864 1.055-2.178.803-4.407 2.547-5.334 4.685" fill="#455A64"/><path d="M29.625 141.48v-.368c0-.254-.02-.605-.034-1.054l-.11-3.872a225.059 225.059 0 00-.234-5.74c-.117-2.158-.282-4.534-.606-7.004a22.4 22.4 0 00-.706-3.558 18.779 18.779 0 00-1.299-3.112 18.051 18.051 0 00-1.643-2.574 16.905 16.905 0 00-1.794-1.968 13.091 13.091 0 00-3.18-2.165c-.207-.094-.384-.187-.548-.251l-.415-.16-.254-.104c-.057-.024-.087-.037-.084-.04a.47.47 0 01.09.023l.258.087.425.144c.164.064.335.151.559.241a12.77 12.77 0 013.233 2.135 16.75 16.75 0 011.817 1.981 18.1 18.1 0 011.673 2.591c.542 1.002.99 2.051 1.34 3.136.32 1.17.543 2.364.669 3.57.334 2.48.485 4.856.595 7.028.11 2.172.164 4.11.198 5.747.033 1.636.047 2.961.053 3.875v1.329a.353.353 0 01-.003.083zm1.529 1.918a.836.836 0 01-.043-.117 6.88 6.88 0 00-.1-.335c-.137-.446-.249-.9-.335-1.359a19.205 19.205 0 01-.194-5.117 34.064 34.064 0 011.646-7.439c.87-2.731 2.055-5.649 3.062-8.789.5-1.524.906-3.078 1.218-4.651a40.2 40.2 0 00.603-4.438c.193-2.524.238-5.058.134-7.587-.074-2.159-.191-3.906-.261-5.114-.037-.595-.064-1.064-.084-1.392 0-.15 0-.271-.017-.361-.016-.09 0-.124 0-.124.011.04.018.082.02.124 0 .087.02.207.034.358.027.334.067.793.117 1.389.094 1.208.228 2.955.335 5.117a62.806 62.806 0 01-.097 7.603 40.749 40.749 0 01-.593 4.458 40.296 40.296 0 01-1.221 4.685c-1.004 3.146-2.199 6.065-3.076 8.782a34.46 34.46 0 00-1.65 7.389 19.668 19.668 0 00.107 5.084c.104.592.201 1.054.285 1.359.037.147.063.264.087.351a.752.752 0 01.023.124z" fill="#263238"/><path d="M41.673 145.316H21.75l-.455-3.836h20.378v3.836z" fill="#263238"/><path d="M23.889 144.877l2.49 11.506h10.826l2.33-11.506H23.888z" fill="#263238"/><path d="M41.672 145.316c0 .047-4.38.073-9.782.057-5.401-.017-9.785-.064-9.782-.114.003-.05 4.377-.074 9.782-.06 5.405.013 9.782.066 9.782.117zm-3.42 5.676a8.055 8.055 0 00-1.75-1.004 6.22 6.22 0 00-2.138-.429 7.443 7.443 0 00-2.624.482c-.91.305-1.757.669-2.58.86-.734.16-1.49.183-2.233.07a4.684 4.684 0 01-1.432-.451 3.349 3.349 0 01-.335-.221.456.456 0 01-.107-.091s.168.101.485.248a4.96 4.96 0 001.423.392 6.241 6.241 0 002.175-.104c.8-.198 1.647-.559 2.56-.87a7.46 7.46 0 012.678-.475 6.05 6.05 0 012.178.475 5.74 5.74 0 011.299.756c.108.081.211.17.308.264.067.057.1.094.093.098z" fill="#455A64"/><path d="M38.102 151.761a8.451 8.451 0 00-1.673-1.004 5.659 5.659 0 00-2.059-.425 7.412 7.412 0 00-2.54.455c-.88.295-1.703.633-2.49.847a6.353 6.353 0 01-2.141.241 3.662 3.662 0 01-1.403-.371 3.117 3.117 0 01-.334-.211.6.6 0 01-.104-.091c0-.016.164.098.468.238a3.76 3.76 0 001.386.311 6.52 6.52 0 002.092-.271c.77-.217 1.586-.562 2.473-.857a7.344 7.344 0 012.6-.451 5.618 5.618 0 013.347 1.221c.104.081.204.168.298.261.053.067.083.104.08.107z" fill="#fff"/><path d="M38.45 150.232s-.16-.124-.458-.335a7.355 7.355 0 00-1.34-.739 6.567 6.567 0 00-2.188-.529 7.112 7.112 0 00-2.71.475c-.875.345-1.769.636-2.678.874-.762.13-1.54.13-2.302 0a5.16 5.16 0 01-1.48-.466 2.707 2.707 0 01-.358-.221c-.08-.056-.117-.09-.113-.097.003-.006.174.107.502.258.47.199.963.335 1.469.405a6.977 6.977 0 002.252-.043c.897-.247 1.78-.541 2.647-.881a7.104 7.104 0 012.775-.472 6.505 6.505 0 012.228.576 6.59 6.59 0 011.34.797c.116.085.227.176.334.274.05.08.087.117.08.124z" fill="#fff"/></svg>