<svg width="184" height="184" fill="none" xmlns="http://www.w3.org/2000/svg"><path d="M141.084 14.565a1.069 1.069 0 01-.661.99 1.072 1.072 0 11.661-.99z" fill="#E0E0E0"/><path d="M146.714 86.796v-.588c0-.394 0-.965-.018-1.693 0-1.472 0-3.629-.026-6.304 0-5.37-.022-12.88-.033-21.414l.022.063-4.611-5.553-2.057-2.492-.022-.026v-.033c0-9.53.022-18.032.029-24.137 0-3.047.022-5.52.03-7.209 0-.839 0-1.494.018-1.95v-.677 2.627c0 1.704 0 4.162.029 7.21 0 6.115.019 14.605.034 24.136l-.022-.062 2.057 2.491 4.585 5.553.022.026v.033c0 8.549-.026 16.045-.033 21.414 0 2.675-.022 4.817-.03 6.304v2.131c0 .106.026.15.026.15zm12.299-6.281a2.002 2.002 0 01-.283.581c-.336.5-.836.865-1.414 1.034a2.643 2.643 0 01-2.498-.533 2.415 2.415 0 01-.505-.585 2.545 2.545 0 01-.327-.737 2.666 2.666 0 011.141-2.962 2.51 2.51 0 01.736-.327c.249-.07.507-.102.765-.092a2.638 2.638 0 012.494 1.89c.105.358.133.735.082 1.105a1.956 1.956 0 01-.18.622c-.018 0 .077-.22.125-.63a2.586 2.586 0 00-.628-1.979 2.59 2.59 0 00-1.885-.872 2.352 2.352 0 00-.736.096 2.32 2.32 0 00-.692.309 2.532 2.532 0 00-1.082 2.8c.065.248.169.484.309.7.129.207.287.394.471.555a2.557 2.557 0 002.381.537 2.61 2.61 0 001.395-.968c.243-.33.312-.552.331-.544z" fill="#E0E0E0"/><path d="M161.471 82.995h.092l.276.033 1.104.147h-.026l.843-2.252v.044l-1.225-.813h-.022v-.026a6.02 6.02 0 00-.045-1.575v-.03l.026-.018 1.178-.883-.019.066-.993-2.208.066.037-1.443.287h-.036l-.022-.03a5.973 5.973 0 00-1.141-1.081l-.033-.022v-.04c.066-.45.136-.95.209-1.454l.045.07-2.275-.873.081-.025-.817 1.221-.025.037h-.041a5.947 5.947 0 00-1.568.044h-.044l-.026-.033-.879-1.18.088.025-2.226.986.044-.08c.088.455.188.945.283 1.442v.044l-.036.03c-.409.328-.773.71-1.082 1.133-.03 0 .073-.03-.07.033h-.184l-.181-.026-.368-.051-.736-.107.081-.048c-.294.77-.588 1.527-.875 2.274l-.03-.088 1.222.817.037.026v.044a5.88 5.88 0 00.036 1.568v.044l-.033.025-1.181.88.022-.088c.335.761.666 1.505.986 2.226l-.077-.037 1.443-.283h.04l.026.03c.329.41.711.776 1.137 1.085l.029.022v.04c-.073.497-.147.983-.217 1.454l-.036-.066 2.27.88-.07.021.825-1.218.018-.03h.029a6.031 6.031 0 001.575-.032h.03l.018.026c.317.43.604.817.876 1.18h-.055l2.23-.978-.018.037c-.111-.578-.199-1.053-.276-1.447.312-.248.6-.525.861-.828l.187-.228a.68.68 0 01.063-.077l-.052.085c-.04.051-.095.132-.18.235a5.762 5.762 0 01-.846.85v-.022l.294 1.44v.028h-.022l-2.208.998h-.033l-.022-.026c-.273-.368-.56-.736-.883-1.178l.047.019a5.882 5.882 0 01-1.6.044l.051-.022-.817 1.222-.026.04-.04-.018-2.274-.869-.048-.018v-.052c.066-.47.136-.956.21-1.472l.025.06a5.985 5.985 0 01-1.162-1.105l.066.026-1.446.283h-.052l-.026-.047-.927-2.271-.026-.052.048-.033 1.178-.883-.026.07a5.948 5.948 0 01-.044-1.604l.033.066-1.222-.817-.052-.033.023-.055c.287-.736.581-1.506.875-2.275l.022-.055h.059l.736.103.368.055.184.026h.184l-.073.033a6.183 6.183 0 011.104-1.163l-.026.074c-.096-.497-.195-.986-.283-1.443v-.058l.055-.026 2.226-.986.052-.023.037.045.875 1.18-.066-.025a6.062 6.062 0 011.605-.04l-.067.029.821-1.218.029-.048.052.022 2.274.876.048.018v.056l-.213 1.453-.026-.059c.433.316.823.687 1.159 1.104l-.062-.022 1.446-.283h.048l.018.04c.342.784.673 1.528.983 2.23v.037l-.034.026-1.181.876.019-.044c.084.528.095 1.066.033 1.597l-.019-.04 1.218.824.026.018v.026c-.368.923-.659 1.689-.887 2.267v.018l-1.078-.173-.28-.044h-.147z" fill="#E0E0E0"/><path fill-rule="evenodd" clip-rule="evenodd" d="M172.96 62.1a9.282 9.282 0 01-1.726 1.814l.449 2.278-3.507 1.557-1.391-1.877a9.32 9.32 0 01-2.502.063l-1.296 1.928-3.584-1.38.338-2.296a9.423 9.423 0 01-1.814-1.73l-2.263.471-1.56-3.51 1.862-1.388a9.447 9.447 0 01-.063-2.502l-1.928-1.292 1.384-3.584 2.296.334a9.393 9.393 0 011.726-1.814l-.449-2.278 3.511-1.556 1.387 1.862a9.35 9.35 0 012.506-.063l1.292-1.928 3.584 1.38-.335 2.296a9.42 9.42 0 011.814 1.73l2.278-.453 1.557 3.514-1.862 1.388a9.49 9.49 0 01.062 2.502l1.929 1.292-1.384 3.584-2.296-.335-.015-.007zm-3.879-3.916a4.117 4.117 0 00-1.002-4.47 4.123 4.123 0 00-6.209 5.363 4.127 4.127 0 005.039 1.39 4.12 4.12 0 002.172-2.282z" fill="#EBEBEB"/><path d="M33.97 76.323a1.104 1.104 0 100-2.208 1.104 1.104 0 000 2.208z" fill="#E0E0E0"/><path d="M33.97 110.249c-.051 0-.096-7.662-.096-17.112s.045-17.116.096-17.116c.052 0 .096 7.659.096 17.116 0 9.458-.04 17.112-.096 17.112zM75.245 22.08a1.104 1.104 0 11-2.209 0 1.104 1.104 0 012.209 0z" fill="#E0E0E0"/><path d="M74.14 92.42c-.054 0-.095-15.567-.095-34.762s.04-34.768.096-34.768c.055 0 .096 15.562.096 34.768 0 19.206-.045 34.761-.096 34.761zM16.28 63.314a1.181 1.181 0 11-2.362 0 1.181 1.181 0 012.363 0z" fill="#E0E0E0"/><path d="M15.169 63.314v2.838c0 1.84 0 4.537.026 7.915 0 6.775.018 16.325.033 27.449v.056c-1.675 2.322-3.43 4.751-5.23 7.249l.019-.055v33.01l-.022-.056 6.348 7.688v.048c0 7.088-.026 12.913-.033 16.972v4.692c0-1.082 0-2.664-.022-4.692 0-4.048 0-9.884-.034-16.972v.048l-6.384-7.673-.022-.026v-33.072l.018-.022 5.222-7.246-.018.051c0-11.124.025-20.674.033-27.449 0-3.378.022-6.064.026-7.915v-2.654c0-.128.04-.184.04-.184zm84.128-15.01a1.329 1.329 0 100-2.658 1.329 1.329 0 000 2.658zM92 124.377a1.329 1.329 0 100-2.657 1.329 1.329 0 000 2.657z" fill="#E0E0E0"/><path d="M99.493 46.975a.747.747 0 010 .118v1.682c0 1.174 0 2.878.025 5.03 0 4.32.019 10.43.033 17.62v.037l-.025.026-7.49 7.496.03-.066v4.165c0 10.827-.022 20.63-.03 27.733 0 3.54-.021 6.41-.029 8.401 0-1.991-.018-4.861-.03-8.401 0-7.103 0-16.906-.029-27.733v-4.206l.03-.03c2.646-2.641 5.178-5.173 7.496-7.484l-.026.062c0-7.19.026-13.3.033-17.62 0-2.152.023-3.856.026-5.03v-1.682a.73.73 0 01-.014-.118z" fill="#E0E0E0"/><path d="M59.554 122.324c-1.44-2.47-2.981-4.95-5.248-6.992-5.748-5.182-15.618-6.72-24.005-4.862-6.473 1.436-12.585 5.082-14.282 10.234-.769 2.322-.596 4.784-.368 7.162 1.59 15.654 9.425 44.049 9.741 44.726l52.823-.213c-3.117-17.296-9.42-34.209-18.661-50.055z" fill="#455A64"/><path d="M78.204 172.36s-.033-.136-.085-.405c-.051-.268-.136-.662-.24-1.181-.102-.519-.22-1.163-.367-1.921s-.368-1.63-.57-2.613a152.582 152.582 0 00-4.718-16.372 158.764 158.764 0 00-10.253-23.074l-.883-1.578-.89-1.568a78.539 78.539 0 00-1.874-3.18c-1.317-2.101-2.863-4.158-4.909-5.74a8.417 8.417 0 00-.776-.578c-.269-.18-.527-.368-.803-.548-.566-.321-1.103-.685-1.707-.957l-.883-.434-.916-.368-.46-.188-.468-.162-.946-.324a31.27 31.27 0 00-7.974-1.317 33.903 33.903 0 00-8.063.714 27.301 27.301 0 00-7.36 2.726 18.419 18.419 0 00-3.158 2.157 14.01 14.01 0 00-2.524 2.756c-.166.265-.342.515-.493.784-.151.269-.28.545-.416.817-.136.272-.224.57-.335.854a9.07 9.07 0 00-.254.868 13.593 13.593 0 00-.327 3.566c.033 1.185.14 2.355.28 3.504.14 1.148.253 2.289.434 3.4.313 2.234.688 4.39 1.063 6.469.758 4.166 1.594 8.019 2.374 11.533a449.52 449.52 0 004.048 16.56c.508 1.947.916 3.456 1.196 4.479.143.508.254.894.327 1.159.074.265.118.394.118.394s-.048-.129-.136-.386c-.088-.258-.195-.652-.346-1.156a262.29 262.29 0 01-1.233-4.471 445.322 445.322 0 01-4.092-16.56c-.788-3.515-1.63-7.36-2.396-11.533-.368-2.083-.758-4.24-1.074-6.473-.18-1.104-.295-2.256-.438-3.408a36.54 36.54 0 01-.287-3.518 13.983 13.983 0 01.327-3.61c.071-.3.158-.596.262-.887.11-.291.224-.578.338-.869l.412-.857c.155-.272.332-.53.497-.799a14.352 14.352 0 012.558-2.793 18.597 18.597 0 013.187-2.182 27.467 27.467 0 017.407-2.745 33.926 33.926 0 018.096-.736c2.723.092 5.423.539 8.03 1.328l.95.324.474.166.46.191.924.368.89.438c.604.276 1.153.644 1.723.968.28.173.54.368.813.552.272.18.534.375.784.585 2.065 1.601 3.625 3.68 4.946 5.789a83.849 83.849 0 011.877 3.19l.898 1.583.857 1.578a157.458 157.458 0 0110.227 23.114 147.938 147.938 0 014.659 16.398l.555 2.621c.155.758.269 1.405.368 1.924.1.519.166.917.217 1.185.052.269.078.449.078.449z" fill="#263238"/><path d="M18.153 117.024v.151c0 .099-.037.246-.062.43-.052.368-.11.939-.159 1.66a28.91 28.91 0 00.446 6.113c.89 5.115 1.98 12.21 3.573 19.967.802 3.883 1.678 7.555 2.605 10.856a119.791 119.791 0 002.786 8.678 87.905 87.905 0 002.319 5.693l.691 1.52.177.401a.77.77 0 01.052.136 74.372 74.372 0 01-3.364-7.702 112.589 112.589 0 01-2.83-8.678 151.106 151.106 0 01-2.624-10.863c-1.593-7.769-2.664-14.864-3.518-19.986a27.94 27.94 0 01-.368-6.139c.034-.751.127-1.499.276-2.237z" fill="#263238"/><path d="M24.991 129.506c0 .034-.368.115-.938.321a8.91 8.91 0 00-2.098 1.104 10.941 10.941 0 00-2.326 2.414c.122-.312.291-.604.5-.865a7.562 7.562 0 013.879-2.775 3.37 3.37 0 01.983-.199zm-2.079 3.526c0 .059-.7.037-1.52.228-.82.192-1.443.508-1.472.457a3.092 3.092 0 011.424-.644 3.097 3.097 0 011.568-.041zm-1.502 17.826c-.022 0 0-.103.066-.228a.913.913 0 01.45-.342.897.897 0 01.562-.019c.14.044.207.111.195.133-.01.022-.334-.07-.695.066-.36.136-.53.412-.578.39zm.71 1.494c-.051 0-.022-.368.32-.648.343-.279.715-.221.703-.169-.01.052-.305.092-.58.32-.277.228-.387.519-.442.497z" fill="#263238"/><path d="M90.31 158.089s-1.177-28.88-2.266-33.885c-1.38-6.367-6.742-10.212-6.742-10.212l-2.053 49.68 2.134 1.277 1.259.662c.563 2.112-.604 2.628 5.174 4.114.463.118 9.69 1.575 9.69 1.575l.904-9.38-8.1-3.831z" fill="#B78876"/><path d="M106.058 170.962s-3.335.228-4.696.78c-1.472.596-3.312.246-4.541-.552a12.93 12.93 0 01-1.965-1.535l-4.549.022a5.46 5.46 0 01-1.005-5.612 6.11 6.11 0 011.005-1.777c.53-.596.77-.949 2.238-1.236l6.028.916s8.353-.773 9.854-.103c0 0 1.892 1.071 2.481 1.523.221.17.927 2.286-.409 3.423 0 0 1.204.916.582 1.773l-.302.368s.821 1.012.42 1.472c-.402.46-3.934 2.628-5.215 2.168-1.281-.46-.39-1.538.166-1.766" fill="#B78876"/><path d="M109.565 164.971c-.15.045-.296.1-.438.165-.28.114-.688.276-1.2.449a11.84 11.84 0 01-.839.265c-.302.089-.637.162-.979.28a2.109 2.109 0 00-.968.614 1.22 1.22 0 00-.239 1.2.957.957 0 00.453.467c.189.087.392.138.6.151.379.016.76-.012 1.133-.084a9.867 9.867 0 001.84-.519c.508-.192.905-.368 1.181-.493.147-.059.289-.131.424-.214a3.243 3.243 0 00-.446.159c-.279.106-.688.272-1.196.448-.591.217-1.201.38-1.821.486a5.175 5.175 0 01-1.104.074 1.63 1.63 0 01-.545-.14.81.81 0 01-.368-.394 1.07 1.07 0 01.217-1.049c.241-.27.551-.469.898-.574.331-.121.666-.198.968-.294.302-.096.589-.188.843-.283.507-.188.912-.368 1.185-.493.139-.064.273-.138.401-.221z" fill="#AA6550"/><path d="M109.189 162.402a2.69 2.69 0 00-.434.169c-.28.114-.684.276-1.189.457a25.01 25.01 0 01-1.803.559 2.495 2.495 0 00-1.045.449.879.879 0 00-.298.552c-.032.219 0 .443.092.644a1.542 1.542 0 00.949.773c.369.109.758.132 1.138.066a11.089 11.089 0 001.817-.567l1.193-.449c.149-.05.294-.11.434-.18a2.657 2.657 0 00-.453.129l-1.21.401c-.585.225-1.187.402-1.8.53a2.324 2.324 0 01-1.074-.07 1.4 1.4 0 01-.502-.26 1.4 1.4 0 01-.356-.439.844.844 0 01.155-1.016 2.41 2.41 0 01.986-.423 18.357 18.357 0 002.977-1.097c.147-.063.289-.14.423-.228z" fill="#AA6550"/><path d="M107.489 163.171c.07-.234.119-.474.147-.717.073-.234.128-.472.166-.714a1.757 1.757 0 00-.313 1.431z" fill="#AA6550"/><path d="M94.918 163.543l3.15-1.288s8.733-4.302 8.887-4.085c.155.217.633.188.549 1.266-.085 1.078-5.174 3.352-5.329 3.728-.154.375.155 2.252-1.715 3.643s-3.238 1.446-3.238 1.446" fill="#B78876"/><path d="M97.222 168.253h.074l.22-.026a4.74 4.74 0 00.821-.213 8.076 8.076 0 002.661-1.608 3.845 3.845 0 001.045-1.881c.08-.392.135-.789.162-1.188a.694.694 0 01.025-.136.268.268 0 01.085-.089 3.63 3.63 0 01.254-.173c.177-.106.368-.213.552-.32.736-.423 1.56-.854 2.374-1.343.415-.246.818-.512 1.207-.799.201-.147.391-.311.566-.489.091-.095.17-.2.236-.313a.609.609 0 00.066-.198 1.282 1.282 0 000-.196 1.372 1.372 0 00-.151-.765.911.911 0 00-.287-.276.48.48 0 01-.121-.103l-.033-.029a.12.12 0 00-.063-.019h-.063l-.095.026c-.475.154-.905.368-1.343.548-.861.368-1.689.773-2.473 1.145-1.568.736-2.974 1.435-4.151 2.016-.295.144-.57.295-.84.412l-.769.324-1.232.516-.777.334-.202.092-.066.034s.025 0 .073-.023l.206-.073.788-.309 1.244-.497.776-.309c.272-.122.548-.265.847-.405l4.162-1.987c.787-.368 1.611-.755 2.472-1.137.435-.188.876-.39 1.329-.541l.081-.019h.029v-.036c-.099.066-.025.022-.044.036a.56.56 0 00.158.133.791.791 0 01.243.232c.106.212.15.448.129.684a.633.633 0 01-.066.328 1.408 1.408 0 01-.214.279 4.097 4.097 0 01-.544.475c-.385.284-.784.549-1.196.791-.806.49-1.608.92-2.363 1.347-.191.111-.368.217-.559.331a3.78 3.78 0 00-.265.181.336.336 0 00-.121.143.72.72 0 00-.034.166c-.007.392-.04.783-.099 1.17a3.748 3.748 0 01-.997 1.84c-.427.403-.9.754-1.41 1.045a7.626 7.626 0 01-1.2.582 5.784 5.784 0 01-1.019.279l-.088.011zm9.733.21a1.124 1.124 0 00-.334.107 3.215 3.215 0 00-.821.497c-.175.14-.333.301-.471.478a1 1 0 00-.243.736.823.823 0 00.604.622c.305.076.627.059.923-.048a16.957 16.957 0 002.9-1.236c.279-.153.549-.322.81-.505.101-.058.193-.13.276-.213a1.485 1.485 0 00-.306.166c-.195.114-.475.276-.831.46-.933.469-1.9.865-2.893 1.185-.268.1-.56.118-.839.051a.686.686 0 01-.508-.504.898.898 0 01.206-.651c.128-.173.275-.331.438-.471.334-.269.7-.495 1.089-.674z" fill="#AA6550"/><path d="M41.809 83.735a1.174 1.174 0 01-.475-1.947c-.596-.328-.427-1.27.04-1.766.468-.497 1.134-.799 1.498-1.373a1.396 1.396 0 01-1.667-1.207 1.137 1.137 0 01-.736-2.087c-.637-.055-.585-1.104-.052-1.472.534-.368 1.233-.33 1.815-.603a7.54 7.54 0 013.993-2.344l-2.606-1.94a1.52 1.52 0 01-.526-.555c-.228-.52.18-1.104.607-1.472a6.13 6.13 0 013.242-1.417c.368-.044.869 0 .99.368.81-.368 1.748-.342 2.642-.294.5.025 1.053.073 1.41.426a4.163 4.163 0 00-.931-1.166 1.778 1.778 0 01-.604-1.321c.052-.497.652-.931 1.064-.648-.464-.217-.401-.964 0-1.288a2.34 2.34 0 011.472-.368c.368 0 .81.051.909.397.162-.798 1.527-.912 1.814-.15a1.242 1.242 0 011.781.14 1.59 1.59 0 012.248.835L58.35 60.16c-.261-.442-.305-1.263.203-1.211-.736 0-1.149-.994-.792-1.63.357-.637 1.182-.88 1.907-.788l.633.917a1.442 1.442 0 012.208 1.608c.294-.317.864-.144 1.104.217.194.386.267.822.21 1.251.71-.596 2.012.096 1.913 1.02a4.027 4.027 0 012.097-.435 1.42 1.42 0 011.84-2.017 1.4 1.4 0 011.807-1.137c.225-.846 1.336-1.472 2.01-.916.673.556.324 1.697-.103 2.495-.468.865-.931 1.733-1.395 2.598l4.534-2.429a.787.787 0 01.452-.136c.221.026.368.228.57.324.295.077.596.13.899.158.798.247.787 1.472.239 2.102-.548.629-1.388.934-2.006 1.494l2.013.368a2.058 2.058 0 012.635-1.344c.276-.736 1.27-.839 2.06-.806.711.03 1.491.089 1.995.593.64.64.52 1.766-.018 2.495-.537.729-1.387 1.156-2.208 1.557.133.603.916.787 1.527.699.611-.088 1.248-.331 1.84-.11.784.294 1.104 1.31 1.906 1.597.255.05.502.13.736.239.276.238.448.573.483.934.099.438.198.873.294 1.31.066.212.085.436.055.656-.143.713-1.137.864-1.807.592-.67-.272-1.247-.806-1.965-.909.946.471 1.947.99 2.473 1.906.526.917.313 2.337-.68 2.694-.994.357-2.003-.511-2.735-1.288-.732-.776-1.785-1.612-2.76-1.166" fill="#263238"/><path d="M43.266 83.11c-.766-.568-2.065.183-1.95 1.129a2.697 2.697 0 00-1.013 4.659c.597.5 1.778.519 1.903-.247a2.105 2.105 0 001.472 1.292 2.033 2.033 0 00.82 2.881c-1.21.836-.982 3.029.369 3.596a1.66 1.66 0 003.032 1.354c.261.622.548 1.277 1.104 1.656s1.472.313 1.752-.298a2.286 2.286 0 002.282 1.628 2.3 2.3 0 00.963-.259 1.472 1.472 0 002.9.508l3.798.29c.839.09 1.684.102 2.524.037a6.825 6.825 0 003.007-1.104 1.61 1.61 0 012.068-.18 6.156 6.156 0 005.95-.876 3.04 3.04 0 01.825-.548c.37-.097.756-.118 1.133-.06.934.066 1.873.013 2.794-.157.787-.148 1.63-.431 2.053-1.105.423-.673.092-1.814-.707-1.873a1.715 1.715 0 01.549-1.402 1.034 1.034 0 011.406.06c.33.404.073 1.158-.446 1.184.806.666 2.208-.051 2.322-1.104.114-1.052-.85-1.994-1.891-2.09a4.77 4.77 0 00.258-2.289 1.693 1.693 0 002.274.456 2.945 2.945 0 001.766 1.516 1.752 1.752 0 002.017-.883c.309-.736-.254-1.744-1.053-1.722.633-.843-.092-2.285-1.148-2.282a2.337 2.337 0 00-1.21-2.598 1.232 1.232 0 001.806-.526c.416.806 1.608.736 2.425.331.644-.305 1.274-.769 1.17-1.696a1.84 1.84 0 00-.577-1.141c-.736-.707-1.8-.839-2.793-.95a12.145 12.145 0 01-.84-3.882c1.105.129 2.308-.596 2.54-1.689l-5.502-3.419s-12.729-1.965-13.185-1.965c-.456 0-27.067 13.704-27.067 13.704-.618.644-1.817.368-2.27-.415-.453-.784-.272-1.778.213-2.525a7.313 7.313 0 011.947-1.81c-.854-.06-1.763-.137-2.392-.755a1.354 1.354 0 01-.368-1.472c.306-.736 1.156-.684 1.7-1.104.294-.275.532-.605.7-.971" fill="#263238"/><path d="M78.826 80.224c-.317-4.545-3.367-10.105-7.897-9.594l-14.124 3.68a2.664 2.664 0 00-2.367 2.72l1.56 30.522-3.403 1.626c-.033 0 3.525 1.98 3.492 1.987-.033.008 3.268 9.609 12.604 6.624 1.84-.592 2.69-2.623 3.047-4.71h.096c0-.246 3.087-2.613 3.09-2.848 0 .235-3.042-1.726-3.042-1.726v-4.685c0 .026 5.803-1.004 6.955-8.593.574-3.783.342-9.961-.011-15.003z" fill="#B78876"/><path d="M76.912 85.689a.971.971 0 01-.931.99.937.937 0 01-1.008-.872.975.975 0 01.93-.987.928.928 0 011.01.869zm.596-2.249c-.121.126-.86-.412-1.906-.404-1.045.007-1.81.54-1.925.412-.055-.055.067-.287.398-.53.45-.318.987-.49 1.538-.49a2.55 2.55 0 011.52.483c.324.257.434.47.375.53zm-10.58 2.304a.972.972 0 01-.93.99.93.93 0 01-1.01-.872.975.975 0 01.932-.986.928.928 0 011.008.868zm.298-2.039c-.121.125-.86-.412-1.906-.404-1.045.007-1.81.54-1.925.412-.055-.055.063-.287.398-.53a2.64 2.64 0 011.538-.486 2.55 2.55 0 011.52.478c.32.243.434.471.375.53zm3.85 7.732c0-.059.644-.177 1.696-.316.269-.03.519-.085.563-.27a1.354 1.354 0 00-.184-.79l-.802-2.028c-1.104-2.889-1.928-5.266-1.81-5.31.117-.044 1.103 2.263 2.233 5.152.269.714.526 1.39.77 2.042.17.32.221.69.146 1.045a.664.664 0 01-.438.394 1.66 1.66 0 01-.452.066c-1.06.067-1.719.074-1.722.015z" fill="#263238"/><path d="M71.882 103.813a19.286 19.286 0 01-10.172-2.639s2.499 5.189 10.083 4.416l.088-1.777zm-.685-10.017a2.639 2.639 0 00-2.171-1.152 1.6 1.6 0 00-1.347 2.506 1.64 1.64 0 001.737.626 3.813 3.813 0 001.556-.98 1.2 1.2 0 00.335-.404.556.556 0 00-.051-.545" fill="#AA6550"/><path d="M68.003 92.18c.17 0 .176 1.126 1.155 1.925.98.798 2.186.666 2.208.824 0 .074-.268.225-.78.243a2.845 2.845 0 01-1.84-.625 2.473 2.473 0 01-.898-1.616c-.048-.471.074-.754.155-.75zm-.32-10.889c-.1.284-1.145.155-2.374.313s-2.208.497-2.38.243c-.074-.121.099-.39.496-.666a4.147 4.147 0 013.621-.427c.453.18.666.401.637.537zm9.42-.876c-.184.24-.905 0-1.773 0-.869 0-1.597.173-1.77-.077-.074-.118.04-.368.367-.585a2.577 2.577 0 012.853.07c.301.232.404.475.323.592z" fill="#263238"/><path d="M54.405 84.787a1.262 1.262 0 00.368 1.45.871.871 0 001.24-.342c.331.445 1.104 0 .99-.589.409.232.946-.32.817-.835.475.184.758-.585 1.008-1.104.14-.284.328-.523.49-.784a5.3 5.3 0 00.788-2.86c.621-.702.78-1.792.908-2.8.078-.63.159-1.258.236-1.888l.368-.434a1.023 1.023 0 00.677.979c.375.103.77.103 1.145 0l1.13-.214.699.207c-.207.585 0 1.25.202 1.84.09.407.319.77.648 1.026a.533.533 0 00.736-.566.593.593 0 00.916-.14c.204-.352.294-.758.257-1.163a4.96 4.96 0 00-.894-2.742l1.954 1.84c.125.146.292.25.479.294a.516.516 0 00.537.582c.294-.075.554-.247.736-.49.478-.496.986-1.346.563-1.913a.423.423 0 00.191-.622l2.209 1.7c-.221-.129-.468.217-.42.504.071.267.234.5.46.66-.198.314-.29.684-.261 1.055-.398-.368-1.001.302-.876.876a1.251 1.251 0 001.17.924.876.876 0 00.997-.644c.486.107.96-.563.788-1.104.368.235.666-.398.688-.876a6.992 6.992 0 00-.368-2.576c0 .125.125.228.214.162a.188.188 0 00-.037-.295c.415 1.02.831 2.043 1.243 3.062.385.8.614 1.665.678 2.55 0 .368.044.865.368.898a.442.442 0 00.239-.062 4.556 4.556 0 002.016-2.322c.16-.34.265-.702.31-1.075.073-.784-.25-1.538-.302-2.326 0-.345-.022-.69-.066-1.034a3.08 3.08 0 00-.799-1.358c-1.192-1.39-2.454-2.83-4.048-3.396-.979-.343-2.028-.339-3.01-.674a17.274 17.274 0 01-1.763-.817c-2.421-1.144-5.1-1.299-7.699-1.082-1.472.07-2.919.406-4.272.99-1.472.696-2.79 1.84-4.015 3.066-1.84 1.821-3.558 3.856-4.729 6.326-.898 1.899-1.472 4.114-1.14 6.256.33 2.142 1.637 4.158 3.433 4.607l.707-.81" fill="#263238"/><path d="M56.477 86.24c-.103-.047-4.221-1.357-4.184 2.875.037 4.232 4.28 3.312 4.283 3.202.004-.11-.1-6.076-.1-6.076z" fill="#B78876"/><path d="M55.27 90.723c-.018 0-.074.052-.195.11a.736.736 0 01-.552 0c-.449-.162-.832-.868-.857-1.63a2.429 2.429 0 01.195-1.056.85.85 0 01.552-.57.368.368 0 01.434.195c.059.117.033.202.055.21.022.007.092-.07.055-.247a.482.482 0 00-.169-.261.563.563 0 00-.408-.103 1.027 1.027 0 00-.766.662 2.453 2.453 0 00-.243 1.181c.033.85.479 1.645 1.104 1.818a.799.799 0 00.674-.118c.117-.088.136-.184.121-.19z" fill="#AA6550"/><path d="M70.317 84.945a9.474 9.474 0 00-.195-1.214 4.968 4.968 0 00-1.84-2.716A4.858 4.858 0 0066.2 80.1a4.956 4.956 0 00-2.577.22 4.87 4.87 0 00-2.285 1.72 4.902 4.902 0 000 5.817 4.62 4.62 0 001.038 1.046c.38.286.8.513 1.248.673a4.96 4.96 0 002.575.22 4.901 4.901 0 002.083-.916 4.994 4.994 0 001.84-2.716c.092-.4.157-.808.195-1.218.008.107.008.214 0 .32.004.131-.006.262-.029.39a3.139 3.139 0 01-.092.523 4.983 4.983 0 01-1.818 2.808 5.068 5.068 0 01-4.817.754 5.118 5.118 0 01-3.37-4.793c0-1.087.349-2.146.996-3.02a5.053 5.053 0 012.374-1.773 5.115 5.115 0 012.679-.213c.777.15 1.508.48 2.134.964a5 5 0 011.822 2.808c.045.172.076.348.092.526.023.127.033.257.03.386a2.44 2.44 0 010 .32zm11.938 0a9.46 9.46 0 00-.195-1.214 4.968 4.968 0 00-1.84-2.716 4.857 4.857 0 00-2.082-.916 4.963 4.963 0 00-2.577.22 4.868 4.868 0 00-2.285 1.72 4.902 4.902 0 000 5.817c.288.402.638.755 1.038 1.045.38.287.8.514 1.248.674.824.3 1.712.376 2.576.22a4.901 4.901 0 002.082-.916 4.993 4.993 0 001.84-2.716c.092-.4.157-.808.195-1.218a2.44 2.44 0 010 .32c0 .131-.01.262-.033.39a3.13 3.13 0 01-.092.523 4.983 4.983 0 01-1.818 2.808 5.069 5.069 0 01-4.817.754 5.12 5.12 0 01-3.37-4.793c0-1.087.35-2.146.997-3.02a5.052 5.052 0 012.373-1.773 5.056 5.056 0 014.817.736c.911.7 1.553 1.69 1.818 2.808.045.173.076.349.092.526.022.128.033.257.033.386.008.112.008.224 0 .335z" fill="#455A64"/><path d="M72.44 83.768c-.021.055-.503-.144-1.133-.162-.629-.018-1.122.14-1.14.085a2.208 2.208 0 012.274.077zm-12.19 1.674a8.25 8.25 0 01-2.113.538c-.715.148-1.447.2-2.175.154 0-.055.96-.15 2.142-.342 1.181-.192 2.13-.416 2.145-.35z" fill="#455A64"/><path d="M69.787 84.158c.038.316.02.636-.051.946a5.942 5.942 0 01-.832 2.13 5.127 5.127 0 01-1.597 1.642 1.203 1.203 0 01-.924.206 2.32 2.32 0 00.854-.32 5.656 5.656 0 001.505-1.63 6.7 6.7 0 00.861-2.054c.133-.563.151-.924.184-.92zm10.919 3.22a6.69 6.69 0 01.405-.791c.146-.279.257-.574.331-.88.08-.375.087-.762.022-1.14a6.079 6.079 0 00-.6-2.017c-.257-.475-.515-.707-.49-.736.027-.03.082.037.196.143.158.154.297.327.412.516a5.32 5.32 0 01.67 2.06 3 3 0 01-.037 1.207 3.467 3.467 0 01-.386.906 2.955 2.955 0 01-.523.732z" fill="#fff"/><path d="M53.493 92.173s-.11.052-.28.177a1.37 1.37 0 00-.482.706 1.2 1.2 0 00.254 1.181 1.432 1.432 0 001.41.413 1.524 1.524 0 00.761-2.319 1.883 1.883 0 00-.644-.589 2.122 2.122 0 01-.294-.15.757.757 0 01.327.084c.293.122.548.322.736.578a1.622 1.622 0 01.298 1.34 1.69 1.69 0 01-1.104 1.24 1.597 1.597 0 01-1.597-.479 1.317 1.317 0 01-.25-1.34c.096-.305.299-.566.57-.735.162-.107.29-.118.295-.107zm17.55-19.364a1.03 1.03 0 00.283-.545.755.755 0 00-.188-.636.806.806 0 00-.81-.21l-.176.059.077-.17a.843.843 0 00-.224-.938.824.824 0 00-1.053.037l-.136-.118a.331.331 0 00.059-.107.467.467 0 00-.066-.397.556.556 0 00-.346-.221.868.868 0 00-.423.022 1.18 1.18 0 01-.475.103c-.203-.037-.29-.188-.394-.254a1.72 1.72 0 00-.327-.202 1.805 1.805 0 00-.681-.155 1.84 1.84 0 00-.986.236c-.21.121-.31.224-.32.21a.859.859 0 01.28-.273 1.8 1.8 0 011.03-.309 1.91 1.91 0 01.736.144c.13.057.254.13.367.217.122.088.214.202.317.213a1.24 1.24 0 00.401-.106c.166-.052.342-.06.512-.026.186.034.353.14.463.294a.658.658 0 01.092.563.544.544 0 01-.095.17l-.144-.122a.971.971 0 011.557 1.104l-.1-.11a.938.938 0 01.957.272.868.868 0 01-.048 1.177c-.08.06-.136.085-.14.078zm4.725 1.225a1.28 1.28 0 00.368-.53.942.942 0 00-.044-.714.982.982 0 00-.736-.54l-.137-.019.092-.103a1.18 1.18 0 00.324-1.034.626.626 0 00-.368-.427.494.494 0 00-.56.074l-.54.57.394-.68a.983.983 0 00.051-.829.907.907 0 00-.651-.56.953.953 0 00-.633.063l-.221.11.088-.231c.13-.324-.202-.703-.53-.736a1.601 1.601 0 00-1 .25l-.185.1.06-.2a.698.698 0 00-.229-.672 1.276 1.276 0 00-.651-.291 3.283 3.283 0 00-1.215.03 5 5 0 00-1.019.367.924.924 0 01.236-.165 3.223 3.223 0 012.023-.368c.27.03.527.14.737.312a.858.858 0 01.287.84l-.126-.1a1.76 1.76 0 011.105-.28c.22.036.419.154.555.332a.673.673 0 01.122.67l-.13-.122a1.152 1.152 0 011.242.16c.137.12.243.27.308.44a1.167 1.167 0 01-.073.986l-.144-.11a.676.676 0 01.762-.11.81.81 0 01.474.547 1.318 1.318 0 01-.368 1.174l-.04-.121a1.104 1.104 0 01.828.637 1.027 1.027 0 010 .794c-.06.159-.159.299-.287.409-.11.059-.166.085-.17.077zm10.189.884a.702.702 0 00-.246-.52.923.923 0 00-.63-.228c-.311.02-.617.092-.905.214l-.103.04v-.114a.82.82 0 00-.67-.795 2.352 2.352 0 00-1.343.214l-.592.22.508-.367a.677.677 0 00-.052-.968 1.528 1.528 0 00-1.185-.284h-.055l-.368.034.313-.21a.737.737 0 00-.081-1.141 1.104 1.104 0 00-1.218.118l-.387.305.258-.423a1.63 1.63 0 000-1.663 1.53 1.53 0 00-1.104-.718c-.303-.04-.611 0-.894.114-.195.085-.291.158-.298.147-.008-.01.018-.025.062-.062a1.14 1.14 0 01.214-.136c.288-.143.61-.202.93-.17a1.635 1.635 0 011.233.736 1.787 1.787 0 01.03 1.84l-.129-.117a1.266 1.266 0 011.428-.137.92.92 0 01.408.692.814.814 0 01-.324.77l-.062-.177h.059a1.688 1.688 0 011.328.335c.169.166.27.389.287.625a.71.71 0 01-.257.622l-.085-.158a2.5 2.5 0 011.45-.203.96.96 0 01.762.972l-.092-.074a2.68 2.68 0 01.953-.191.979.979 0 01.677.28c.117.11.193.256.213.415a.273.273 0 01-.033.163zm-5.339-9.701a.548.548 0 01-.25.092c-.244.04-.49.052-.737.037a2.153 2.153 0 00-1.063.162.678.678 0 00-.368.46.498.498 0 00.195.56l-.129.091c-.04-.243-.342-.397-.614-.56a3.17 3.17 0 00-.895-.367 1.162 1.162 0 00-.905.14.769.769 0 00-.394.702l.03.236-.177-.158a2.127 2.127 0 00-1.244-.512 2.369 2.369 0 00-1.067.155c-.3.128-.575.304-.817.522 0 0 .044-.084.162-.21a2.1 2.1 0 01.61-.415 2.426 2.426 0 011.105-.203c.498.022.974.208 1.354.53l-.147.078a.94.94 0 01.467-.884 1.34 1.34 0 011.05-.169c.334.086.653.224.945.408.144.081.283.171.416.27a.692.692 0 01.283.43l.026.18-.158-.088a.662.662 0 01-.273-.755.84.84 0 01.468-.559c.36-.145.752-.192 1.137-.136.245.021.49.021.736 0 .162-.019.25-.048.254-.037zm-9.45-3.662c-.17.002-.338.025-.5.07a1.198 1.198 0 00-.48.302 1.041 1.041 0 00-.305.64v.103l-.1-.033a.626.626 0 00-.695.394 1.9 1.9 0 00-.036 1.049l.058.368-.235-.306-.037-.047a.802.802 0 00-.655-.273.89.89 0 00-.622.272 1.437 1.437 0 00-.368 1.127c.025.284.097.563.214.824.05.094.089.194.114.298a.932.932 0 01-.184-.269 2.374 2.374 0 01-.28-.842 1.55 1.55 0 01.394-1.263 1.064 1.064 0 011.553 0l.048.063-.177.066a2.04 2.04 0 01.063-1.159.788.788 0 01.912-.467l-.106.07a1.18 1.18 0 01.368-.736 1.28 1.28 0 01.544-.298c.129-.032.262-.04.394-.023.074.045.118.063.118.07zm-8.339 5.789s-.096 0-.25-.055a1.697 1.697 0 01-1.012-1.365.85.85 0 00-.126-.52c-.106-.135-.338-.22-.482-.44a.957.957 0 01.243-1.289v.14a3.043 3.043 0 01-.813-1.133 1.152 1.152 0 01-.133-.52c.085.155.16.313.228.475.204.402.487.757.832 1.045l.092.074-.1.066a.79.79 0 00-.183 1.038c.096.162.305.236.467.423a.971.971 0 01.158.626c.03.325.16.633.368.883.2.227.442.414.71.552zm-2.455 1.678a.37.37 0 01-.158.022 2.065 2.065 0 01-.453-.04 2.516 2.516 0 01-1.41-.799h.122a1.674 1.674 0 01-1.84.508 1.008 1.008 0 01-.607-.475 2.215 2.215 0 01-.077-.276.368.368 0 00-.118-.176 1.27 1.27 0 00-.441-.195 1.508 1.508 0 01-.494-.203.538.538 0 01-.268-.467l.121.08c-.373.15-.786.16-1.166.03a1.793 1.793 0 01-.766-.482 1.528 1.528 0 01-.316-.49.47.47 0 01-.044-.202c.109.23.255.438.434.618.208.196.46.339.736.416.346.107.718.09 1.052-.047l.129-.056v.14a.368.368 0 00.199.313c.136.082.285.139.441.17.186.038.36.117.512.231a.56.56 0 01.18.265c.03.1.037.188.066.254a.887.887 0 00.497.368c.203.07.419.098.633.08a1.498 1.498 0 001.012-.51l.063-.078.062.074a2.58 2.58 0 001.307.817c.368.099.592.088.592.11zm-15.077 5.87s0-.022-.022-.067a.916.916 0 01-.033-.198 2 2 0 01.092-.758c.122-.378.294-.739.511-1.071.124-.215.267-.418.427-.608.094-.104.206-.19.331-.253a.501.501 0 01.468 0l-.118.077a1.27 1.27 0 012.072-1.104l-.155.074a.875.875 0 01.764-.87.865.865 0 01.79.34l-.174.066a.555.555 0 01.2-.45.736.736 0 01.433-.18c.286 0 .567.073.817.21l-.117.037c.188-.293.482-.502.82-.585.307-.08.628-.08.935 0a4.783 4.783 0 011.439.718l-.1.084a.343.343 0 01.037-.331.615.615 0 01.24-.18.957.957 0 01.507-.078c.264.041.52.12.762.232.152.07.296.155.43.254.05.031.093.07.13.114 0 .019-.2-.136-.593-.298a2.725 2.725 0 00-.736-.191.88.88 0 00-.445.08c-.148.063-.269.203-.2.343l.104.21-.206-.122a4.785 4.785 0 00-1.402-.673c-.28-.07-.574-.07-.854 0a1.18 1.18 0 00-.714.504l-.044.07-.074-.033a1.548 1.548 0 00-.736-.191c-.228 0-.478.206-.456.426l.03.335-.203-.272a.738.738 0 00-.29-.22.655.655 0 00-.634.076.681.681 0 00-.28.556v.206l-.157-.132a1.105 1.105 0 00-1.789.945v.159l-.133-.081c-.206-.122-.452.048-.614.217-.157.178-.298.37-.42.574-.22.32-.4.666-.537 1.03a2.48 2.48 0 00-.103 1.009zm1.071 5.597a.918.918 0 01-.096-.121 3.674 3.674 0 01-.224-.368 1.409 1.409 0 01-.15-.7c.015-.154.064-.304.143-.438a.736.736 0 01.42-.32l-.038.103a.894.894 0 01.953-1.369l-.088.136a.714.714 0 01.026-.85 1.057 1.057 0 01.817-.368c.158 0 .305.019.427 0a.369.369 0 00.265-.228c.06-.15.143-.288.246-.412a.813.813 0 01.45-.246 4.755 4.755 0 011.019-.026 1.104 1.104 0 00.824-.24c.094-.117.18-.24.261-.368a.98.98 0 01.387-.298 1.016 1.016 0 01.894.048l-.11.118a.763.763 0 01.103-.88c.18-.21.437-.342.713-.368.423-.026.848.026 1.252.155.255.075.501.176.736.302.088.037.17.088.242.15a9.41 9.41 0 00-1.015-.367 3.488 3.488 0 00-1.207-.114.938.938 0 00-.615.316.596.596 0 00-.08.688l.202.302-.317-.184a.85.85 0 00-.736-.03.778.778 0 00-.309.247c-.086.127-.178.25-.276.368a.99.99 0 01-.453.254 2.625 2.625 0 01-.504.048 4.788 4.788 0 00-.975.018.634.634 0 00-.368.195 1.404 1.404 0 00-.22.368.552.552 0 01-.398.324c-.15.01-.302.01-.453 0a.89.89 0 00-.68.302.554.554 0 00-.037.64l.15.195-.239-.062a.758.758 0 00-.813.335.769.769 0 000 .79l.051.082-.092.022a.737.737 0 00-.489.64 1.3 1.3 0 00.114.659c.18.36.287.54.287.552zm.317 11.632a.486.486 0 01-.184-.062 1.358 1.358 0 01-.758-1.152 1.474 1.474 0 01.39-1.067v.103a2.687 2.687 0 01-.497-.953 1.056 1.056 0 01.044-.611.783.783 0 01.453-.471v.165a1.104 1.104 0 01-.479-.997c.01-.221.078-.436.199-.622.12-.179.292-.317.493-.393.184-.082.269-.166.272-.369a1.55 1.55 0 01.13-.559c.162-.315.41-.579.713-.762.258-.184.493-.368.718-.515a3.28 3.28 0 011.166-.548c.121-.024.245-.033.368-.026.081 0 .122 0 .122.019 0 .018-.17 0-.457.08-.4.128-.774.326-1.104.586l-.699.533a1.766 1.766 0 00-.648.707c-.068.16-.104.33-.106.504a.533.533 0 01-.107.313.758.758 0 01-.269.191.924.924 0 00-.581.858.934.934 0 00.368.828l.166.103-.184.066a.765.765 0 00-.387.872c.093.325.248.629.456.894l.037.055-.048.044a1.35 1.35 0 00-.368.954c.01.267.103.524.265.736.14.196.314.365.516.496zm5.979-4.971a.781.781 0 01-.26-.055 2.532 2.532 0 01-1.432-1.244.997.997 0 01-.13-.736.489.489 0 01.292-.328.413.413 0 01.467.078l-.144.088a1.293 1.293 0 01-.132-.736.638.638 0 01.228-.368.523.523 0 01.438-.063.8.8 0 00.331.048c.07-.022.085-.11.078-.254a1.152 1.152 0 01.323-.81 1.261 1.261 0 011.3-.367l-.126.114a1.105 1.105 0 01.199-1.056.67.67 0 01.519-.162.493.493 0 01.427.312l-.162.033c-.026-.486.086-.97.324-1.394a2.72 2.72 0 01.714-.84c.187-.145.396-.261.618-.345a.708.708 0 01.243-.063c-.286.128-.554.29-.799.486a2.69 2.69 0 00-.655.828c-.213.405-.31.86-.28 1.317l.045.692-.207-.658c-.073-.229-.47-.265-.662-.074a.913.913 0 00-.14.876l.044.17-.165-.056a1.063 1.063 0 00-1.104.324.976.976 0 00-.276.673.734.734 0 010 .228.309.309 0 01-.184.206.852.852 0 01-.438-.04.313.313 0 00-.29.03.43.43 0 00-.16.25 1.11 1.11 0 00.115.633l.177.467-.32-.368c-.13-.15-.442 0-.483.18a.895.895 0 00.107.626c.163.34.401.64.696.876.266.197.557.36.864.482zm9.58-11.787a1.414 1.414 0 01-.567-.225 1.625 1.625 0 01-.515-.449 1.053 1.053 0 01-.184-.828.676.676 0 01.077-.198l.04.128a.916.916 0 01-.47-.629.843.843 0 01.12-.622c.21-.305.457-.335.457-.316 0 .018-.195.103-.342.368a.714.714 0 00-.066.519.737.737 0 00.386.496l.085.044-.044.089a.68.68 0 00-.06.15.939.939 0 00.148.689c.12.169.27.314.442.43.175.103.34.22.493.354zm4.445-2.057a1.15 1.15 0 00.132-.7.794.794 0 00-.448-.6.854.854 0 00-.913.144l-.122.114-.03-.165a1.556 1.556 0 00-.216-.564.736.736 0 00-.479-.338c-.305-.044-.647.24-.563.493l-.18.037a1.45 1.45 0 00-.526-.953 1.406 1.406 0 00-.817-.313 2.169 2.169 0 00-.802.144s.055-.063.187-.13c.194-.088.405-.134.619-.132.33-.003.65.105.912.306.335.257.555.637.611 1.056l-.18.037a.533.533 0 01.187-.556.762.762 0 01.574-.18.912.912 0 01.615.427c.12.194.2.41.236.636l-.151-.051a1.008 1.008 0 011.104-.148.895.895 0 01.493.736.905.905 0 01-.11.56c-.07.103-.13.143-.133.14z" fill="#455A64"/><path d="M85.413 138.806l5.579-2.304a75.055 75.055 0 00-3.342-13.741c-2.005-5.542-5.295-8.033-6.33-8.703v-.066l-1.681-1.016-7.165-4.6c1.262 5.726-8.99 11.603-17.708-.696l-14.411 5.83 3.768 40.811-3.573 18.054 36.064-.107v.35l7.673-.074-1.642-8.011c.715-7.706 3.007-17.061 2.742-23.243.033-.777.04-1.612.026-2.484z" fill="#0075FF"/><path d="M83.797 154.854a1.78 1.78 0 00.107-.294l.21-.843c.092-.368.198-.813.301-1.339.103-.527.24-1.104.346-1.785.107-.681.24-1.391.339-2.179.1-.787.202-1.626.298-2.513a65.36 65.36 0 00.269-5.789c0-2.057-.144-4.015-.291-5.792-.1-.887-.184-1.73-.306-2.513-.121-.784-.228-1.513-.367-2.175-.14-.663-.243-1.259-.368-1.785-.126-.526-.21-.972-.306-1.336-.096-.364-.158-.633-.213-.843a1.76 1.76 0 00-.089-.29c.01.101.027.202.052.301l.177.847c.084.368.18.817.275 1.343.096.526.225 1.104.324 1.785.1.681.228 1.391.324 2.175.096.783.195 1.626.287 2.509.155 1.77.265 3.721.276 5.774.011 2.054-.107 4.004-.254 5.774-.092.883-.165 1.726-.28 2.51-.114.784-.206 1.512-.316 2.175-.11.662-.22 1.262-.316 1.788-.096.527-.188.976-.269 1.344-.081.368-.133.636-.173.846a2.14 2.14 0 00-.037.305z" fill="#263238"/><path d="M83.904 154.56a.576.576 0 01-.022.184l-.092.526c-.092.453-.21 1.104-.35 1.925a39.253 39.253 0 00-.588 6.41c.001 1.182.072 2.363.213 3.537.126.958.3 1.908.523 2.848.088.405.198.762.28 1.078.08.317.165.586.235.806.07.221.11.368.15.512a.622.622 0 01.041.18s-.033-.055-.077-.169l-.184-.497a11.979 11.979 0 01-.269-.802c-.092-.317-.213-.67-.305-1.075a24.852 24.852 0 01-.567-2.859 27.345 27.345 0 01-.232-3.559 35.7 35.7 0 01.644-6.432c.158-.813.298-1.472.412-1.917l.13-.519a.694.694 0 01.058-.177z" fill="#263238"/><path d="M25.996 142.122l7.393-21.153s1.94-6.234 7.827-7.772l4.188 21.156-1.943 11.574-17.465-3.805z" fill="#0075FF"/><path d="M46.832 128.8c.008.06.008.12 0 .18 0 .136-.03.306-.052.504a39.286 39.286 0 01-.254 1.84c-.243 1.564-.68 3.706-1.21 6.054a388.365 388.365 0 00-1.329 6.028c-.155.736-.28 1.369-.368 1.84l-.11.497a.57.57 0 01-.052.173.669.669 0 010-.181c.018-.136.044-.301.074-.5.066-.438.176-1.067.316-1.84.287-1.557.736-3.68 1.273-6.043.538-2.362.987-4.482 1.263-6.035a78.14 78.14 0 00.316-1.84c.033-.202.063-.368.085-.504a.587.587 0 01.048-.173z" fill="#263238"/><path d="M74.049 109.664a1.87 1.87 0 010 .28c0 .092 0 .206-.03.338-.029.133-.047.291-.077.46-.03.169-.095.368-.154.563-.078.22-.168.435-.269.644a5.63 5.63 0 01-.953 1.399 9.846 9.846 0 01-3.68 2.384c-1.689.661-3.52.872-5.314.615a12.76 12.76 0 01-5.06-1.822 18.28 18.28 0 01-3.367-2.819 28.312 28.312 0 01-1.928-2.241c-.214-.276-.368-.493-.479-.644a1.937 1.937 0 01-.158-.232c.07.063.133.134.188.21l.507.618c.446.538 1.104 1.31 1.97 2.208a18.595 18.595 0 003.359 2.76 12.766 12.766 0 004.979 1.778c1.768.249 3.57.039 5.233-.611a9.79 9.79 0 003.636-2.311c.383-.402.706-.858.957-1.354a5.55 5.55 0 00.276-.626 8.36 8.36 0 00.169-.552c.048-.184.066-.316.096-.449.029-.132.033-.246.047-.335.008-.088.025-.176.052-.261z" fill="#FAFAFA"/><path opacity=".3" d="M43.262 157.272c2.186-2.576 2.396-6.256 2.499-9.652.132-4.291.04-9.245.173-13.535-.795 3.805-1.995 9.641-2.576 11.842 0 0 .287 2.241.302 3.12 0 .803-.055 1.678.022 2.477.191 2.061.515 4.339-.677 6.035" fill="#000"/><path d="M84.46 129.746a.308.308 0 01-.092.04l-.28.089-1.07.331c-.468.147-1.039.316-1.712.489-.674.173-1.428.398-2.282.585-.853.188-1.777.42-2.785.608a184.69 184.69 0 01-3.228.577 81.255 81.255 0 01-7.463.791c-2.66.155-5.2.137-7.507.045-1.152-.063-2.249-.114-3.268-.217-1.02-.104-1.972-.196-2.837-.306-.865-.11-1.649-.232-2.333-.331a32.188 32.188 0 01-1.752-.306l-1.104-.217-.287-.062-.096-.026h.1l.29.044 1.104.18a37.11 37.11 0 001.756.273c.688.088 1.472.221 2.33.305.857.085 1.813.206 2.833.28 1.02.074 2.116.14 3.264.199 2.3.081 4.835.081 7.489-.059 2.653-.14 5.152-.442 7.448-.777a146.81 146.81 0 003.22-.555 72.686 72.686 0 002.79-.586c.85-.191 1.611-.39 2.285-.555a49.172 49.172 0 001.715-.457l1.082-.298.283-.073.107-.011zm4-4.571c-.619.493-1.276.936-1.965 1.325a15.1 15.1 0 01-2.065 1.163 28.965 28.965 0 014.03-2.488zm-42.014 5.656a3.55 3.55 0 01-.619-.033 33.575 33.575 0 01-1.667-.191 46.62 46.62 0 01-10.672-2.808 33.802 33.802 0 01-1.545-.651 3.544 3.544 0 01-.552-.273c.198.055.392.122.581.203a62.181 62.181 0 006.826 2.259c2.083.56 4.008.909 5.403 1.134a83.2 83.2 0 001.656.254c.199.019.396.054.589.106z" fill="#FAFAFA"/><path d="M56.922 159.775l5.609.117s8.405-3.036 10.134-2.749c1.557.265 7.254 4.048 8.372 4.784a.7.7 0 01.269.346 1.222 1.222 0 01-.677 1.553l-.118.048.048.169c.069.22.099.451.088.681a.82.82 0 01-1.527.368l.213.368a.95.95 0 01.122.512l-.022.346a.922.922 0 01-.644.835.935.935 0 01-.979-.254c-.736-.795-2.282-2.388-3.338-2.576a24.731 24.731 0 00-3.452-.173 1.176 1.176 0 00-1.104.736c.63.044 4.998 2.322 6.544 3.139a1.655 1.655 0 01.897 1.244c.056.482-.187.99-1.144.765-2.053-.478-5.752-2.178-5.752-2.178s-1.906-.545-3.139.327c-1.737 1.226-2.535 1.675-4.026 1.182a12.749 12.749 0 01-2.576-1.207l-5.391.316s-2.8-4.847 1.593-8.699z" fill="#B78876"/><path d="M69.92 161.313a15.262 15.262 0 011.579-.221 8.157 8.157 0 016.793 2.9c.637.754.905 1.31.935 1.292a1.9 1.9 0 00-.188-.391 7.883 7.883 0 00-3.732-3.312 7.896 7.896 0 00-4.979-.408c-.14.03-.278.077-.408.14zm.876-2.043a6.827 6.827 0 011.641-.287 7.172 7.172 0 013.824 1.097 15.589 15.589 0 013.084 2.605l.842.898c.097.118.205.226.324.321a2.594 2.594 0 00-.276-.368 31.17 31.17 0 00-.81-.932 14.228 14.228 0 00-3.08-2.668 7.002 7.002 0 00-3.912-1.056 4.591 4.591 0 00-1.218.221 3.27 3.27 0 00-.316.122c-.07.022-.107.044-.103.047z" fill="#AA6550"/><path d="M28.141 142.589c0-.037-2.918 13.112-3.312 15.423-.445 2.705-1.181 9.277 4.843 10.558 6.024 1.28 31.037-.368 31.037-.368l1.807-8.302-22.916-3.253 2.503-11.004-13.962-3.054z" fill="#B78876"/><path d="M28.877 34.489c0-1.104.589-1.788 1.402-1.788s1.406.67 1.406 1.788c0 1.119-.593 1.789-1.406 1.789s-1.402-.67-1.402-1.789zm2.436 0c0-.938-.42-1.472-1.034-1.472-.614 0-1.034.519-1.034 1.472s.42 1.472 1.034 1.472c.615 0 1.034-.534 1.034-1.472zm.887 0c0-1.104.588-1.788 1.402-1.788.813 0 1.406.67 1.406 1.788 0 1.119-.593 1.789-1.406 1.789s-1.402-.67-1.402-1.789zm2.436 0c0-.938-.42-1.472-1.034-1.472-.615 0-1.034.519-1.034 1.472s.423 1.472 1.034 1.472c.61 0 1.034-.534 1.034-1.472zm1.854-1.759v3.518h-.367v-3.194h-.825v-.324h1.193zm.836 1.759c0-1.104.589-1.788 1.402-1.788s1.406.67 1.406 1.788c0 1.119-.593 1.789-1.406 1.789s-1.402-.67-1.402-1.789zm2.436 0c0-.938-.42-1.472-1.034-1.472-.614 0-1.034.519-1.034 1.472s.423 1.472 1.034 1.472 1.034-.534 1.034-1.472zm1.851-1.759v3.518h-.368v-3.194h-.828v-.324h1.196zm-16.195 6.745c0-1.104.588-1.784 1.402-1.784.813 0 1.405.666 1.405 1.784 0 1.12-.592 1.789-1.405 1.789-.814 0-1.402-.666-1.402-1.789zm2.436 0c0-.938-.424-1.472-1.034-1.472-.611 0-1.035.516-1.035 1.472 0 .957.42 1.472 1.035 1.472.614 0 1.034-.53 1.034-1.472zm.886 0c0-1.104.59-1.784 1.403-1.784.813 0 1.406.666 1.406 1.784 0 1.12-.593 1.789-1.406 1.789-.814 0-1.402-.666-1.402-1.789zm2.437 0c0-.938-.423-1.472-1.034-1.472s-1.034.516-1.034 1.472c0 .957.42 1.472 1.034 1.472.614 0 1.034-.53 1.034-1.472zm1.851-1.755v3.514h-.368V38.04h-.82v-.32h1.188zm.828 1.755c0-1.104.589-1.784 1.402-1.784s1.406.666 1.406 1.784c0 1.12-.593 1.789-1.406 1.789s-1.402-.666-1.402-1.789zm2.436 0c0-.938-.423-1.472-1.034-1.472-.61 0-1.034.516-1.034 1.472 0 .957.42 1.472 1.034 1.472.615 0 1.045-.53 1.045-1.472h-.01zm1.862-1.755v3.514h-.368V38.04h-.828v-.32h1.196zm1.814 0v3.514H39.6V38.04h-.828v-.32h1.196zm.836 1.755c0-1.104.588-1.784 1.402-1.784.813 0 1.406.666 1.406 1.784 0 1.12-.593 1.789-1.406 1.789-.814 0-1.402-.666-1.402-1.789zm2.436 0c0-.938-.42-1.472-1.034-1.472-.615 0-1.034.516-1.034 1.472 0 .957.423 1.472 1.034 1.472.61 0 1.034-.53 1.034-1.472zm1.855-1.755v3.514h-.368V38.04h-.825v-.32h1.193zM28.877 44.3c0-1.104.589-1.789 1.402-1.789s1.406.67 1.406 1.789c0 1.119-.593 1.788-1.406 1.788s-1.402-.67-1.402-1.788zm2.436 0c0-.939-.42-1.472-1.034-1.472-.614 0-1.034.519-1.034 1.472s.423 1.472 1.034 1.472c.61 0 1.034-.534 1.034-1.472zm1.855-1.76v3.519H32.8v-3.194h-.824v-.324h1.192zm1.81 0v3.519h-.368v-3.194h-.82v-.324h1.188zm1.822 0v3.519h-.368v-3.194H35.6v-.324h1.2zm.828 1.76c0-1.104.589-1.789 1.402-1.789s1.406.67 1.406 1.789c0 1.119-.593 1.788-1.406 1.788s-1.402-.67-1.402-1.788zm2.436 0c0-.939-.42-1.472-1.034-1.472-.614 0-1.034.519-1.034 1.472s.42 1.472 1.034 1.472c.615 0 1.034-.534 1.034-1.472zm1.851-1.76v3.519h-.368v-3.194h-.828v-.324h1.196zm7.08 9.613c0 .018-.173 0-.463.063a2.05 2.05 0 00-1.06.629c-.195.21-.34.462-.427.736a1.7 1.7 0 000 .968 1.862 1.862 0 003.466.4 1.67 1.67 0 00.221-.941 1.969 1.969 0 00-.242-.817 2.061 2.061 0 00-.895-.858c-.268-.128-.438-.147-.434-.162.004-.014.04 0 .121 0a.653.653 0 01.144.034c.067.015.132.038.195.066.403.175.739.475.957.857.156.263.25.557.276.861.026.352-.052.704-.225 1.012a2.127 2.127 0 01-.806.82 1.873 1.873 0 01-2.31-.268 2.104 2.104 0 01-.597-.979 1.807 1.807 0 010-1.037c.095-.29.253-.556.464-.777.3-.322.696-.537 1.13-.614a.83.83 0 01.202-.023c.05-.007.1-.007.15 0a.42.42 0 01.133.03z" fill="#263238"/><path d="M51.045 43.873s0-.088.044-.25l.144-.736c.03-.162.066-.339.107-.538.04-.198.04-.42.066-.658.026-.24.048-.493.073-.77a2.66 2.66 0 00.019-.423v-.452a15.013 15.013 0 00-.64-4.457 15.512 15.512 0 00-2.738-5.273l-.527-.655c-.191-.21-.397-.409-.596-.619l-.309-.312a2.483 2.483 0 00-.32-.302l-.685-.578-.368-.294-.368-.258-.769-.53c-.261-.169-.548-.309-.828-.467l-.423-.232c-.07-.037-.14-.08-.213-.114l-.221-.096a14.559 14.559 0 00-1.84-.714c-.32-.095-.64-.21-.972-.29l-1.023-.199c-.169-.03-.338-.074-.511-.096l-.526-.051c-.369-.033-.7-.081-1.057-.1a17.104 17.104 0 00-2.163.074l-.545.052c-.092 0-.184 0-.272.029l-.273.055-1.104.217c-.368.092-.736.214-1.104.32-.176.06-.368.104-.54.177l-.53.217c-.71.293-1.4.63-2.065 1.012l-.983.648-.246.162c-.081.059-.155.125-.232.188l-.467.367-.464.369-.43.415-.435.435-.217.21-.206.231c-.261.31-.523.622-.788.931l-.684 1.012a15.456 15.456 0 00-2.451 9.52l.121 1.222c.081.401.159.799.24 1.196l.059.298.088.29.176.579.177.574.228.552.225.552.114.272.14.265.548 1.041c.404.66.85 1.294 1.336 1.896l.368.445c.118.15.261.276.39.416.269.268.523.548.795.802l.854.736.213.177c.074.059.15.106.224.162l.453.309c.595.41 1.217.778 1.862 1.104.32.158.652.287.972.427l.485.206c.162.066.332.11.497.162.328.106.659.206.983.309.324.103.666.143.993.217.649.132 1.305.222 1.966.269l.242.025H36.8l.93-.092.457-.044.45-.088.879-.173a3.29 3.29 0 00.427-.11l.42-.13c.275-.084.555-.158.82-.25l.78-.32a15.547 15.547 0 004.942-3.312l.464-.452.405-.479.39-.46c.062-.073.128-.147.184-.224.055-.078.11-.155.162-.236l.618-.887c.188-.29.331-.585.486-.853l.22-.394c.072-.118.136-.241.192-.368.106-.254.21-.49.305-.707.096-.217.188-.42.258-.61.07-.192.114-.369.165-.523l.229-.707c.051-.158.08-.239.08-.239s-.018.081-.066.243c-.047.162-.121.401-.217.714-.048.154-.1.331-.158.526-.059.195-.162.39-.254.61l-.298.715c-.054.127-.117.25-.188.368l-.217.397c-.154.273-.298.57-.486.861l-.61.898-.166.236c-.055.077-.121.15-.184.228l-.39.464-.405.478c-.147.155-.305.305-.464.46a15.564 15.564 0 01-4.957 3.338l-.783.324c-.27.092-.549.169-.828.254l-.42.128c-.14.048-.285.086-.43.114l-.887.177c-.148.03-.299.063-.45.089l-.46.047-.938.092c-.313.022-.633 0-.957 0h-.736l-.246-.022a15.404 15.404 0 01-1.98-.268c-.331-.074-.67-.126-1-.218l-1.01-.316c-.165-.055-.334-.096-.496-.162l-.49-.206c-.323-.143-.658-.272-.982-.43a16.547 16.547 0 01-1.877-1.105l-.456-.305-.232-.158-.213-.18-.862-.737c-.276-.257-.533-.537-.802-.81-.132-.139-.276-.264-.394-.415l-.368-.453a17.434 17.434 0 01-1.35-1.91c-.184-.368-.368-.699-.556-1.048l-.14-.265-.114-.276-.228-.56-.228-.548-.177-.582-.176-.58-.089-.295-.062-.298-.243-1.207-.103-1.24a15.53 15.53 0 012.473-9.61l.703-1.018.795-.943c.066-.077.128-.158.198-.231l.217-.214.438-.427.435-.42.47-.367.468-.368c.081-.063.155-.129.235-.188l.25-.162.994-.655a17.837 17.837 0 012.105-1.02l.534-.22c.177-.074.368-.114.548-.173.368-.107.736-.232 1.104-.324l1.104-.217.273-.055c.092 0 .184-.022.276-.03l.555-.055a16.06 16.06 0 012.157-.077c.368 0 .71.066 1.063.1l.53.05c.173.023.342.067.515.1l1.02.21c.335.08.655.199.982.294.636.205 1.258.45 1.862.736l.229.096c.073.037.143.081.213.118l.427.235c.28.159.567.302.832.471l.772.534.368.265c.122.096.236.195.368.294l.688.545c.115.094.224.196.324.305l.306.313c.202.214.408.416.6.626.191.21.368.441.53.662a15.557 15.557 0 012.734 5.314c.434 1.453.642 2.963.618 4.479v.452c.002.143-.005.286-.022.427-.03.276-.055.534-.081.77-.026.235-.044.46-.077.658l-.11.537-.159.736c-.037.173-.059.258-.059.258z" fill="#263238"/><path d="M167.146 82.84H96.979v43.454h70.167V82.841z" fill="#FAFAFA"/><path d="M167.146 126.294v-11.776c0-7.537-.023-18.4-.041-31.677l.077.073-70.159.022.096-.096v43.454l-.088-.088 50.508.044 14.469.022h4.847-4.821l-14.448.022-50.567.044h-.088V82.701h.103l70.159.018h.074v.077c0 13.307-.029 24.178-.04 31.726 0 3.761 0 6.697-.019 8.692v2.267c0 .515-.062.813-.062.813z" fill="#263238"/><path d="M167.109 87.08c0 .055-15.677.096-35.012.096s-35.011-.041-35.011-.096 15.673-.096 35.011-.096c19.339 0 35.012.044 35.012.096zm-66.399-1.917a.573.573 0 01-.356.533.578.578 0 11.356-.533zm2.08 0a.573.573 0 01-.689.559.575.575 0 11.689-.56zm1.505.574a.574.574 0 100-1.148.574.574 0 000 1.148zm.338 9.119l-1.667.64 1.667.644v.39l-2.105-.832v-.386l2.105-.828v.372zm1.719-1.667h.408l-1.549 4.416h-.408l1.549-4.416zm2.668 2.123v.405l-2.105.831v-.39l1.671-.644-1.671-.64v-.408l2.105.846zm.53 1.531a.303.303 0 01.093-.226.313.313 0 01.227-.09.312.312 0 01.222.091.307.307 0 01.087.225.312.312 0 01-.537.229.334.334 0 01-.069-.106.308.308 0 01-.023-.123zm1.067 0a.314.314 0 01.32-.317.305.305 0 01.309.317.311.311 0 01-.309.324.322.322 0 01-.229-.094.32.32 0 01-.091-.23zm1.067 0a.312.312 0 01.317-.317.304.304 0 01.288.196.31.31 0 01.021.12.315.315 0 01-.432.299.32.32 0 01-.172-.175.325.325 0 01-.022-.123z" fill="#263238"/><path d="M148.941 101.06c0 .052-10.374.096-23.184.096s-23.166-.044-23.166-.096c0-.051 10.37-.099 23.166-.099 12.795 0 23.184.044 23.184.099z" fill="#0075FF"/><path d="M156.507 101.2a25.867 25.867 0 01-4.453 0 25.867 25.867 0 014.453 0zm6.517 0a30.866 30.866 0 01-4.865 0 30.866 30.866 0 014.865 0z" fill="#263238"/><path d="M132.112 104.961c0 .055-6.595.096-14.72.096-8.126 0-14.72-.041-14.72-.096s6.591-.096 14.72-.096c8.129 0 14.72.044 14.72.096zm-.214 14.565c0 .056-6.59.096-14.72.096-8.129 0-14.72-.04-14.72-.096 0-.055 6.591-.095 14.72-.095 8.13 0 14.72.044 14.72.095z" fill="#0075FF"/><path d="M142.81 104.961c0 .055-1.796.096-4.008.096-2.211 0-4.007-.041-4.007-.096s1.796-.096 4.007-.096c2.212 0 4.008.044 4.008.096zm-.085 14.565c0 .056-1.792.096-4.008.096-2.215 0-4.003-.04-4.003-.096 0-.055 1.792-.095 4.003-.095 2.212 0 4.008.044 4.008.095z" fill="#263238"/><path d="M104.597 106.948a5.194 5.194 0 01-1.988 0 5.234 5.234 0 011.988 0z" fill="#0075FF"/><path d="M111.445 106.989c-.712.097-1.431.13-2.149.099a11.97 11.97 0 01-2.157-.096 24.505 24.505 0 014.317 0l-.011-.003zm4.383 0a17.994 17.994 0 01-3.698 0 17.854 17.854 0 013.698 0zm5.546 0a18.69 18.69 0 01-3.769 0 18.545 18.545 0 013.769 0zm4.85 0a15.415 15.415 0 01-3.422 0 15.296 15.296 0 013.422 0zm16.107 0c0 .055-3.374.095-7.533.095-4.158 0-7.536-.04-7.536-.095 0-.056 3.374-.096 7.536-.096 4.162 0 7.533.044 7.533.096z" fill="#263238"/><path d="M104.321 109.484a3.894 3.894 0 01-1.712 0 3.723 3.723 0 011.712 0zm.069 2.601a4.178 4.178 0 01-1.781 0 4.21 4.21 0 011.781 0zm0 2.944a4.178 4.178 0 01-1.781 0 4.21 4.21 0 011.781 0z" fill="#0075FF"/><path d="M120.619 114.893c0 .052-2.973.096-6.624.096-3.65 0-6.642-.044-6.642-.096 0-.051 2.973-.095 6.642-.095 3.669 0 6.624.04 6.624.095zm-1.163-2.808c0 .052-2.837.096-6.333.096s-6.337-.044-6.337-.096c0-.051 2.837-.095 6.337-.095 3.5 0 6.333.04 6.333.095zm30.611-2.741c0 .055-9.657.096-21.569.096-11.912 0-21.576-.041-21.576-.096s9.657-.096 21.576-.096c11.92 0 21.569.048 21.569.096z" fill="#263238"/><path d="M134.99 24.108h-29.565v50.784h29.565V24.108z" fill="#FAFAFA"/><path d="M134.99 74.892v-3.783c0-2.44 0-5.999-.022-10.488 0-8.972-.026-21.654-.045-36.528l.089.088H105.45l.096-.095c0 19.375 0 37.145-.018 50.784l-.078-.074 21.565.04 5.918.019h2.082-7.941l-21.613.04h-.073v-.073c0-13.638 0-31.409-.022-50.784v-.096h29.749v.088c-.019 14.897-.033 27.6-.044 36.587 0 4.482-.019 8.033-.022 10.47v3.488c0 .162-.059.317-.059.317z" fill="#263238"/><path d="M107.511 26.945a.6.6 0 100-1.2.6.6 0 000 1.2zm2.168 0a.6.6 0 100-1.2.6.6 0 000 1.2zm2.767-.6a.6.6 0 11-1.2.029.6.6 0 011.2-.029z" fill="#263238"/><path d="M126.864 40.193c0 .055-3.75.096-8.372.096s-8.368-.04-8.368-.096c0-.055 3.746-.081 8.372-.081 4.626 0 8.368.03 8.368.081zm3.489 4.067c0 .055-4.56.095-10.186.095-5.627 0-10.187-.04-10.187-.096 0-.055 4.56-.095 10.187-.095 5.626 0 10.186.044 10.186.095zm.832 15.172c0 .055-4.865.096-10.864.096-5.998 0-10.859-.04-10.859-.096 0-.055 4.861-.096 10.859-.096 5.999 0 10.864.044 10.864.096zm-19.493-13.104a5.634 5.634 0 01-2.068 0 5.634 5.634 0 012.068 0zm7.135.04a26.415 26.415 0 01-4.493 0 26.415 26.415 0 014.493 0zm4.563 0a19.49 19.49 0 01-3.849 0 19.398 19.398 0 013.849 0zm-11.982 2.602a4.208 4.208 0 01-1.784 0 4.205 4.205 0 011.784 0zm.07 2.708a4.54 4.54 0 01-1.84 0 4.543 4.543 0 011.84 0zm0 3.069a4.543 4.543 0 01-1.84 0 4.54 4.54 0 011.84 0zm16.906-.143c0 .051-3.098.096-6.918.096-3.82 0-6.919-.045-6.919-.096 0-.052 3.095-.096 6.919-.096 3.823 0 6.918.044 6.918.096zm-1.21-2.926c0 .056-2.944.096-6.599.096-3.654 0-6.598-.04-6.598-.096 0-.055 2.944-.095 6.598-.095 3.655 0 6.599.044 6.599.095zm-14.345 11.806a4.54 4.54 0 01-1.84 0 4.543 4.543 0 011.84 0zm0 3.066a4.54 4.54 0 01-1.84 0 4.543 4.543 0 011.84 0zm16.906-.14c0 .05-3.099.095-6.919.095-3.819 0-6.918-.044-6.918-.096 0-.051 3.095-.095 6.918-.095 3.824 0 6.919.04 6.919.095zm-1.211-2.926c0 .051-2.944.095-6.598.095-3.655 0-6.599-.044-6.599-.095 0-.052 2.944-.096 6.599-.096 3.654 0 6.598.044 6.598.096zm3.555-14.658c0 .052-4.022.096-8.979.096-4.957 0-8.983-.044-8.983-.096 0-.051 4.022-.095 8.983-.095 4.96 0 8.979.044 8.979.095z" fill="#0075FF"/><path d="M134.71 28.704c0 .055-6.491.096-14.495.096s-14.5-.04-14.5-.096c0-.055 6.492-.096 14.5-.096 8.007 0 14.495.03 14.495.096z" fill="#263238"/><path d="M116.236 37.742c-1.017.095-2.04.127-3.061.096a24.912 24.912 0 01-3.062-.096 24.892 24.892 0 013.062-.096c1.021-.03 2.044.001 3.061.096zm-3.466-5.546a10.92 10.92 0 01-2.885 0 10.928 10.928 0 012.885 0z" fill="#0075FF"/><path d="M128.653 172.592H77.335l6.624-36.013a2.693 2.693 0 012.646-2.208h46.111a2.69 2.69 0 012.642 3.198l-6.705 35.023z" fill="#455A64"/><path d="M77.335 172.592H57.872l.08-.059a10.488 10.488 0 016.003-2.097l13.917-.42-.537 2.576z" fill="#455A64"/><path d="M89.663 134.405s-.143-.026-.416-.03a2.561 2.561 0 00-1.14.284 3.477 3.477 0 00-1.366 1.243 6.63 6.63 0 00-.839 2.33c-.17.909-.316 1.921-.497 2.999-.18 1.078-.368 2.234-.61 3.441a356.007 356.007 0 01-1.553 7.857c-1.16 5.56-2.23 10.591-2.945 14.245-.367 1.84-.625 3.312-.81 4.331-.091.501-.161.898-.212 1.182l-.063.305a.54.54 0 01-.026.103.467.467 0 010-.107c0-.081.026-.184.04-.309l.181-1.185c.162-1.03.416-2.513.736-4.346.666-3.661 1.719-8.699 2.878-14.26a517.896 517.896 0 001.567-7.849c.232-1.207.435-2.359.626-3.434.191-1.074.342-2.083.523-3.003.14-.835.438-1.636.88-2.358a3.555 3.555 0 011.423-1.252 2.522 2.522 0 011.174-.254c.152.001.303.023.45.067z" fill="#263238"/><path d="M111.335 152.654a2.492 2.492 0 01-1.532 2.298 2.486 2.486 0 01-3.247-3.247 2.484 2.484 0 012.298-1.532c.326 0 .649.065.95.189a2.496 2.496 0 011.342 1.343c.125.3.189.623.189.949z" fill="#F5F5F5"/><path d="M175.654 172.592c0 .055-37.455.096-83.65.096-46.195 0-83.658-.059-83.658-.096 0-.037 37.448-.096 83.658-.096 46.209 0 83.65.026 83.65.096z" fill="#263238"/><path d="M171.698 146.096s0-.029-.034-.081l-.121-.224a10.309 10.309 0 00-.534-.832 8.917 8.917 0 00-2.627-2.484 6.458 6.458 0 00-2.359-.869 5.854 5.854 0 00-2.867.302 4.668 4.668 0 00-2.451 1.98c-.563.986-.736 2.142-1.074 3.242a5.927 5.927 0 01-.685 1.546c-.317.448-.71.837-1.163 1.148-.441.324-.897.614-1.313.957a5.522 5.522 0 00-1.067 1.155 7.077 7.077 0 00-1.104 2.668 9.531 9.531 0 00-.144 2.506c.099 1.207.313 2.401.64 3.566.107.416.199.736.262.95.028.111.065.221.11.327a2.98 2.98 0 00-.07-.338c-.055-.236-.132-.552-.228-.957a20.758 20.758 0 01-.574-3.555 9.444 9.444 0 01.165-2.466c.182-.93.55-1.814 1.082-2.598a5.383 5.383 0 011.038-1.104c.405-.331.861-.618 1.307-.946a4.893 4.893 0 001.214-1.192 6.245 6.245 0 00.721-1.597c.331-1.122.515-2.26 1.053-3.202a4.459 4.459 0 012.348-1.932 5.661 5.661 0 012.774-.309 6.336 6.336 0 012.311.825 9.16 9.16 0 012.639 2.406c.254.343.438.619.559.806.058.105.122.205.192.302z" fill="#E0E0E0"/><path d="M157.268 150.144c.302-.28.449-.085.858 0 .408.089.788.279 1.104.552a4.642 4.642 0 011.505 4.876 3.63 3.63 0 01-3.802-3.588 3.618 3.618 0 01.49-1.858m12.328-5.682c.155-.387.368-.273.773-.368a2.5 2.5 0 011.233.022 4.636 4.636 0 013.455 3.753 3.624 3.624 0 01-3.715-.146 3.629 3.629 0 01-1.636-3.339m-15.345 13.451a4.178 4.178 0 013.369-1.442 4.183 4.183 0 013.214 1.762 5.177 5.177 0 01-3.415 1.347 5.29 5.29 0 01-3.437-1.391m1.295-6.021a4.225 4.225 0 01-1.854-.362 4.25 4.25 0 01-2.385-2.809 4.243 4.243 0 01-.055-1.889 3.807 3.807 0 014.416 5.02m4.272-6.709a4.235 4.235 0 01-5.722-3.352 3.8 3.8 0 013.89-.103 3.81 3.81 0 011.95 3.367m1.354-2.116a4.236 4.236 0 013.667.298 4.236 4.236 0 012.056 3.051 3.802 3.802 0 01-3.892.106 3.806 3.806 0 01-1.948-3.371m1.873-1.273a4.229 4.229 0 01-1.608-.987 4.233 4.233 0 01-.648-5.247 3.807 3.807 0 013.067 2.412 3.809 3.809 0 01-.664 3.844m4.353.195a4.252 4.252 0 01.368-3.659 4.245 4.245 0 013.088-1.997 3.802 3.802 0 01.029 3.893 3.804 3.804 0 01-3.407 1.881" fill="#E0E0E0"/><path d="M149.526 172.563l-2.396-15.048 18.37.225-1.81 14.624" fill="#263238"/><path d="M157.452 154.766a3.126 3.126 0 003.051.258 3.321 3.321 0 001.667-2.635 3.51 3.51 0 00-1.501-.423 3.517 3.517 0 00-2.808 1.168 3.508 3.508 0 00-.758 1.363m8.747 3.511a3.146 3.146 0 003.051.258 3.321 3.321 0 001.667-2.635 3.526 3.526 0 00-4.311.744 3.542 3.542 0 00-.757 1.364m-4.364-6.969c.205.495.534.929.956 1.26.421.332.921.549 1.451.631a3.285 3.285 0 002.841-1.284 3.747 3.747 0 00-2.455-1.803 3.681 3.681 0 00-1.556.073 3.68 3.68 0 00-1.388.707m3.217 4.165a3.13 3.13 0 00-2.742 1.358 3.309 3.309 0 00-.063 3.117 3.52 3.52 0 002.677-1.433 3.538 3.538 0 00.569-2.983m2.517 5.87a3.14 3.14 0 00.074 3.062 3.309 3.309 0 002.8 1.372 3.742 3.742 0 00-.173-3.043c-.482-.876-1.354-1.31-2.443-1.56" fill="#0075FF"/><path d="M172.044 161.14a2.208 2.208 0 00-.736-.464 3.112 3.112 0 00-.998-.173c-.452 0-.904.025-1.354.078a3.987 3.987 0 01-1.671-.144 2.549 2.549 0 01-1.376-1.332 7.62 7.62 0 01-.596-2.032 5.728 5.728 0 00-.707-2.082 7.332 7.332 0 00-1.553-1.583 7.414 7.414 0 01-1.472-1.509 4.971 4.971 0 01-.736-3.455c.112-.8.422-1.559.902-2.208.132-.176.28-.338.442-.486.106-.103.169-.154.173-.147a1.31 1.31 0 01-.148.177 4.746 4.746 0 00-.404.5 4.916 4.916 0 00-.825 2.208 4.873 4.873 0 00.736 3.334c.42.557.915 1.053 1.472 1.472a7.521 7.521 0 011.597 1.619c.381.665.631 1.398.736 2.157.099.685.289 1.353.567 1.987a2.39 2.39 0 001.273 1.259 3.875 3.875 0 001.601.158c.455-.045.912-.062 1.369-.052.351.014.697.086 1.023.214a1.756 1.756 0 01.666.493c.011-.007.022.007.019.011z" fill="#0075FF"/><path d="M172.044 161.14a2.208 2.208 0 00-.736-.464 3.112 3.112 0 00-.998-.173c-.452 0-.904.025-1.354.078a3.987 3.987 0 01-1.671-.144 2.549 2.549 0 01-1.376-1.332 7.62 7.62 0 01-.596-2.032 5.728 5.728 0 00-.707-2.082 7.332 7.332 0 00-1.553-1.583 7.414 7.414 0 01-1.472-1.509 4.971 4.971 0 01-.736-3.455c.112-.8.422-1.559.902-2.208.132-.176.28-.338.442-.486.106-.103.169-.154.173-.147a1.31 1.31 0 01-.148.177 4.746 4.746 0 00-.404.5 4.916 4.916 0 00-.825 2.208 4.873 4.873 0 00.736 3.334c.42.557.915 1.053 1.472 1.472a7.521 7.521 0 011.597 1.619c.381.665.631 1.398.736 2.157.099.685.289 1.353.567 1.987a2.39 2.39 0 001.273 1.259 3.875 3.875 0 001.601.158c.455-.045.912-.062 1.369-.052.351.014.697.086 1.023.214a1.756 1.756 0 01.666.493c.011-.007.022.007.019.011zm-35.071 1.542a4.635 4.635 0 00-1.905-3.992 4.644 4.644 0 00-4.384-.586 7.761 7.761 0 006.127 4.519m-1.048.699c-.898.986-.843 2.576-.199 3.743.644 1.166 1.748 2.002 2.856 2.741a6.043 6.043 0 00-2.599-6.845m4.291-4.265a5.39 5.39 0 00.636 2.055 5.378 5.378 0 003.316 2.6 5.339 5.339 0 002.146.129c-.35-1.446-.931-2.9-2.046-3.878-1.115-.979-2.874-1.347-4.107-.523m.03-1.858c-.229-1.314-1.524-2.267-2.852-2.392-1.329-.125-2.639.445-3.706 1.247a4.81 4.81 0 006.569.648m-6.856 11.676c-1.263 1.079-1.579 2.996-1.053 4.571.526 1.575 1.752 2.83 3.132 3.75.53-1.56.861-3.235.581-4.858-.279-1.623-1.258-3.19-2.767-3.853m6.745-14.477a3.886 3.886 0 012.979-1.695 3.884 3.884 0 013.16 1.327 3.35 3.35 0 01-6.043.158m1.45-3.58a5.034 5.034 0 01-4.099-.526 5.053 5.053 0 01-2.326-3.415 11.646 11.646 0 013.036.044 4.967 4.967 0 012.686 1.325 2.664 2.664 0 01.703 2.576m2.915-.983a4.124 4.124 0 01-1.126-4.933 4.126 4.126 0 011.1-1.426 8.594 8.594 0 011.799 3.842 3.218 3.218 0 010 1.59 1.476 1.476 0 01-1.104 1.041" fill="#0075FF"/><path opacity=".4" d="M136.973 162.682a4.635 4.635 0 00-1.905-3.992 4.644 4.644 0 00-4.384-.586 7.761 7.761 0 006.127 4.519m-1.048.699c-.898.986-.843 2.576-.199 3.743.644 1.166 1.748 2.002 2.856 2.741a6.043 6.043 0 00-2.599-6.845m4.291-4.265a5.39 5.39 0 00.636 2.055 5.378 5.378 0 003.316 2.6 5.339 5.339 0 002.146.129c-.35-1.446-.931-2.9-2.046-3.878-1.115-.979-2.874-1.347-4.107-.523m.03-1.858c-.229-1.314-1.524-2.267-2.852-2.392-1.329-.125-2.639.445-3.706 1.247a4.81 4.81 0 006.569.648m-6.856 11.676c-1.263 1.079-1.579 2.996-1.053 4.571.526 1.575 1.752 2.83 3.132 3.75.53-1.56.861-3.235.581-4.858-.279-1.623-1.258-3.19-2.767-3.853m6.745-14.477a3.886 3.886 0 012.979-1.695 3.884 3.884 0 013.16 1.327 3.35 3.35 0 01-6.043.158m1.45-3.58a5.034 5.034 0 01-4.099-.526 5.053 5.053 0 01-2.326-3.415 11.646 11.646 0 013.036.044 4.967 4.967 0 012.686 1.325 2.664 2.664 0 01.703 2.576m2.915-.983a4.124 4.124 0 01-1.126-4.933 4.126 4.126 0 011.1-1.426 8.594 8.594 0 011.799 3.842 3.218 3.218 0 010 1.59 1.476 1.476 0 01-1.104 1.041" fill="#000"/><path d="M149.379 158.001a.383.383 0 010-.107c0-.077 0-.177.018-.302 0-.265.044-.658.051-1.163a10.426 10.426 0 00-.68-4.173 6.428 6.428 0 00-1.682-2.362 4.458 4.458 0 00-3.055-1.123 3.831 3.831 0 00-1.722.431 3.442 3.442 0 00-1.332 1.269c-.666 1.104-.832 2.481-.773 3.839.059 1.358.243 2.723.092 4.048a6.157 6.157 0 01-.504 1.873 3.915 3.915 0 01-1.13 1.472 5.66 5.66 0 01-1.571.806 8.05 8.05 0 00-1.472.673 5.382 5.382 0 00-1.947 2.124 5.148 5.148 0 00-.563 2.322c-.002.61.097 1.217.295 1.795.177.491.41.959.695 1.395 0 0-.026-.026-.066-.077a4.922 4.922 0 01-.703-1.292 5.415 5.415 0 01-.331-1.821 5.216 5.216 0 01.548-2.385 5.449 5.449 0 011.987-2.208c.909-.607 2.105-.754 3.029-1.472.924-.718 1.413-1.969 1.553-3.231.14-1.262-.044-2.624-.096-4.011-.051-1.388.107-2.797.806-3.945a3.598 3.598 0 011.41-1.34 3.957 3.957 0 011.807-.445 4.641 4.641 0 013.157 1.185 6.501 6.501 0 011.7 2.432c.304.764.499 1.567.578 2.385.06.611.077 1.226.051 1.84-.022.508-.058.898-.088 1.163 0 .121-.026.221-.037.302a.456.456 0 01-.025.103z" fill="#0075FF"/><path opacity=".4" d="M149.379 158.001a.383.383 0 010-.107c0-.077 0-.177.018-.302 0-.265.044-.658.051-1.163a10.426 10.426 0 00-.68-4.173 6.428 6.428 0 00-1.682-2.362 4.458 4.458 0 00-3.055-1.123 3.831 3.831 0 00-1.722.431 3.442 3.442 0 00-1.332 1.269c-.666 1.104-.832 2.481-.773 3.839.059 1.358.243 2.723.092 4.048a6.157 6.157 0 01-.504 1.873 3.915 3.915 0 01-1.13 1.472 5.66 5.66 0 01-1.571.806 8.05 8.05 0 00-1.472.673 5.382 5.382 0 00-1.947 2.124 5.148 5.148 0 00-.563 2.322c-.002.61.097 1.217.295 1.795.177.491.41.959.695 1.395 0 0-.026-.026-.066-.077a4.922 4.922 0 01-.703-1.292 5.415 5.415 0 01-.331-1.821 5.216 5.216 0 01.548-2.385 5.449 5.449 0 011.987-2.208c.909-.607 2.105-.754 3.029-1.472.924-.718 1.413-1.969 1.553-3.231.14-1.262-.044-2.624-.096-4.011-.051-1.388.107-2.797.806-3.945a3.598 3.598 0 011.41-1.34 3.957 3.957 0 011.807-.445 4.641 4.641 0 013.157 1.185 6.501 6.501 0 011.7 2.432c.304.764.499 1.567.578 2.385.06.611.077 1.226.051 1.84-.022.508-.058.898-.088 1.163 0 .121-.026.221-.037.302a.456.456 0 01-.025.103z" fill="#000"/><path d="M176.128 154.715c.17-.43.264-.886.276-1.347a3.379 3.379 0 00-.368-1.553 3.238 3.238 0 00-1.501-1.447 3.33 3.33 0 00-1.178-.32 3.835 3.835 0 00-1.321.159c-.901.235-1.792.736-2.856.956a3.318 3.318 0 01-1.656-.04 2.482 2.482 0 01-1.346-1.075c-.644-.997-.825-2.244-1.598-3.161a3.162 3.162 0 00-1.453-.949 4.032 4.032 0 00-1.697-.173 4.356 4.356 0 00-2.818 1.472 6.614 6.614 0 00-1.399 2.576 7.818 7.818 0 00-.313 2.576c.075 1.26.233 2.514.475 3.753l.177 1.016c0 .107.029.195.04.265a.354.354 0 010 .092.247.247 0 01-.029-.088l-.059-.262-.21-1.012a25.068 25.068 0 01-.526-3.761 7.786 7.786 0 01.294-2.616 6.76 6.76 0 011.421-2.668c.371-.41.806-.758 1.288-1.03a4.413 4.413 0 013.426-.328 3.366 3.366 0 011.542 1.005c.82.982.993 2.241 1.608 3.187.282.471.723.826 1.244 1.001a3.185 3.185 0 001.564.04c1.023-.195 1.921-.699 2.844-.938.447-.13.913-.18 1.377-.148a3.45 3.45 0 012.767 1.87c.24.5.355 1.05.335 1.604a3.206 3.206 0 01-.199 1.016 1.477 1.477 0 01-.151.328z" fill="#0075FF"/><path d="M165.386 148.05a3.572 3.572 0 003.276.213 3.318 3.318 0 001.667-2.634 3.533 3.533 0 00-3.038-.158 3.536 3.536 0 00-2.03 2.266m3.607 3.471a3.571 3.571 0 001.516 2.91 3.304 3.304 0 003.12.052 3.528 3.528 0 00-4.438-3.231m5.844-.427a3.56 3.56 0 003.279-.136 3.31 3.31 0 001.395-2.808 3.521 3.521 0 00-3.038.167 3.52 3.52 0 00-1.779 2.468m-14.455-4.247c-.883-.758-1.472-2.09-1.303-3.091a3.304 3.304 0 012.024-2.374 3.526 3.526 0 01-.515 5.465m-23.799-4.324s0-.029.037-.081l.14-.239c.162-.287.34-.565.533-.832a8.896 8.896 0 012.628-2.484 6.414 6.414 0 012.359-.868 5.887 5.887 0 012.863.302 4.659 4.659 0 012.436 2.042c.563.983.736 2.138 1.075 3.238.149.548.38 1.07.684 1.55.317.447.711.834 1.163 1.144.438.324.898.615 1.314.957.408.332.766.722 1.063 1.155a7.1 7.1 0 011.104 2.668c.161.825.211 1.668.147 2.507a18.976 18.976 0 01-.64 3.569c-.11.412-.202.736-.265.946a1.984 1.984 0 01-.107.327c.015-.113.039-.225.07-.334.056-.236.129-.556.225-.961a20.35 20.35 0 00.578-3.555 9.436 9.436 0 00-.17-2.465 6.936 6.936 0 00-1.082-2.598 5.285 5.285 0 00-1.034-1.104c-.404-.332-.861-.619-1.306-.946a4.78 4.78 0 01-1.214-1.193 5.945 5.945 0 01-.711-1.6c-.335-1.123-.515-2.26-1.052-3.202a4.5 4.5 0 00-2.348-1.932 5.678 5.678 0 00-2.778-.309 6.39 6.39 0 00-2.311.824 9.135 9.135 0 00-2.635 2.407c-.258.342-.442.618-.563.806a1.9 1.9 0 01-.203.261z" fill="#0075FF"/><path d="M151.152 145.676c-.305-.279-.452-.084-.861 0a2.63 2.63 0 00-1.104.552 4.655 4.655 0 00-1.505 4.876 3.62 3.62 0 003.824-3.582 3.622 3.622 0 00-.494-1.864m-12.342-5.663c-.155-.387-.368-.273-.773-.368a2.487 2.487 0 00-1.233.022c-.88.22-1.676.693-2.29 1.36a4.643 4.643 0 00-1.169 2.393 3.63 3.63 0 003.717-.143 3.624 3.624 0 001.634-3.342m15.345 13.451a4.187 4.187 0 00-6.58.32 5.16 5.16 0 003.412 1.347 5.28 5.28 0 003.437-1.391m-1.292-6.017a4.239 4.239 0 004.228-3.177 4.25 4.25 0 00.056-1.887 3.817 3.817 0 00-3.709 1.182 3.807 3.807 0 00-.733 3.823m-4.236-6.694a4.246 4.246 0 005.03-1.597 4.255 4.255 0 00.678-1.755 3.814 3.814 0 00-5.844 3.264m-1.339-2.116a4.236 4.236 0 00-3.667.298 4.236 4.236 0 00-2.056 3.051 3.811 3.811 0 003.892.106 3.806 3.806 0 001.948-3.371m-1.873-1.273a4.23 4.23 0 002.632-2.573 4.246 4.246 0 00-.372-3.661 3.812 3.812 0 00-3.07 2.41 3.815 3.815 0 00.663 3.846m-4.353.195a4.237 4.237 0 00-1.688-5.012 4.228 4.228 0 00-1.775-.644 3.805 3.805 0 00-.025 3.892 3.804 3.804 0 003.407 1.882" fill="#0075FF"/><path d="M146.895 170.818l1.405 1.745h17.289l1.178-1.745h-19.872z" fill="#263238"/><path d="M166.387 170.803c0 .056-4.246.1-9.487.1-5.24 0-9.49-.044-9.49-.1 0-.055 4.246-.099 9.49-.099s9.487.048 9.487.099zm-1.943-6.565a.77.77 0 01-.106.14 4.123 4.123 0 01-.368.368c-.461.43-.982.791-1.546 1.071a6.749 6.749 0 01-2.697.692 6.417 6.417 0 01-1.653-.136 9.836 9.836 0 01-1.681-.559c-1.104-.475-2.128-1.016-3.114-1.329a5.366 5.366 0 00-2.69-.258 3.46 3.46 0 00-1.652.766c-.328.287-.453.5-.471.489a.741.741 0 01.088-.158c.099-.14.21-.27.331-.39a3.435 3.435 0 011.675-.846 5.387 5.387 0 012.774.224c1.009.309 2.035.85 3.136 1.317a9.79 9.79 0 001.648.553 6.53 6.53 0 001.601.147 6.923 6.923 0 002.646-.637 8.233 8.233 0 002.079-1.454z" fill="#455A64"/><path d="M164.617 162.888a.634.634 0 01-.121.132 3.882 3.882 0 01-.368.346 7.14 7.14 0 01-1.601.994 7.496 7.496 0 01-2.719.648 7.176 7.176 0 01-1.656-.111 10.649 10.649 0 01-1.708-.482c-1.141-.416-2.208-.89-3.191-1.17a6.305 6.305 0 00-2.712-.247 4.087 4.087 0 00-1.711.655c-.368.251-.515.446-.53.431-.015-.015.03-.055.107-.144.112-.127.235-.244.368-.349a3.925 3.925 0 011.733-.736 6.345 6.345 0 012.786.21c1.019.276 2.075.736 3.205 1.159.547.201 1.108.361 1.678.478.532.1 1.072.14 1.612.122a7.635 7.635 0 002.668-.597 9.459 9.459 0 002.16-1.339z" fill="#455A64"/></svg>