<svg width="176" height="176" fill="none" xmlns="http://www.w3.org/2000/svg"><path d="M147.749 20.018H123v35.873h24.749V20.018z" fill="#E0E0E0"/><path d="M146.51 20.018h-24.75v35.873h24.75V20.018z" fill="#F5F5F5"/><path d="M143.437 23.9h-18.6v28.105h18.6V23.9z" fill="#fff"/><path d="M143.437 52.005v-2.077c0-1.348 0-3.31-.018-5.79 0-4.953 0-11.969-.032-20.237l.064.063h-18.614l.067-.067v28.104l-.053-.053 13.538.028h5.072-5.03l-13.57.029h-.056V23.78h18.727v.06c0 8.282-.022 15.312-.029 20.279 0 2.464 0 4.431-.017 5.773v1.921c0 .092-.049.19-.049.19z" fill="#E0E0E0"/><path d="M146.58 20.018c-.129.226-.276.44-.44.64-.289.385-.704.905-1.162 1.472a28.877 28.877 0 01-1.224 1.408c-.166.2-.347.386-.543.556.14-.219.298-.426.472-.62l1.19-1.442 1.207-1.433c.15-.207.318-.401.5-.58z" fill="#E0E0E0"/><path d="M143.532 51.913a22.96 22.96 0 003.252 4.055l-3.252-4.055z" fill="#fff"/><path d="M146.784 55.968a3.66 3.66 0 01-.563-.514 17.733 17.733 0 01-2.302-2.88 3.403 3.403 0 01-.377-.665c.166.194.318.398.454.613.275.384.659.908 1.106 1.468.447.56.873 1.056 1.186 1.408.179.178.345.368.496.57z" fill="#E0E0E0"/><path d="M121.757 55.862l3.242-3.998-3.242 3.998z" fill="#fff"/><path d="M124.999 51.864a25.06 25.06 0 01-1.57 2.041 25.249 25.249 0 01-1.672 1.957 23.68 23.68 0 011.57-2.041 24.109 24.109 0 011.672-1.957zm-3.239-31.846a21.41 21.41 0 011.574 1.88 22.924 22.924 0 011.468 1.964 22.944 22.944 0 01-1.574-1.88 24.119 24.119 0 01-1.468-1.964zm15.879 9.589h-6.227V47.29h6.227V29.607zM84.294 16.14v23.305H50.818l-1.207-23.144 34.683-.162z" fill="#E0E0E0"/><path d="M49.611 16.301v23.095h33.475V16.3H49.611z" fill="#fff"/><path d="M83.248 39.558H49.456V16.143h33.792v23.415zm-33.479-.32h33.159V16.46H49.769v22.777z" fill="#E0E0E0"/><path d="M79.46 19.17H53.238v17.357H79.46V19.17z" fill="#fff"/><path d="M79.46 19.17h-7.346l-18.877.039.077-.078v17.357l-.084-.08h26.224l-.064.063c0-5.28.025-9.613.035-12.626v-4.732 4.689c0 3.027.022 7.371.036 12.672v.134h-.067l-26.224.018h-.018V19.11h.074l18.927.035 5.39.021h1.907l.01.004z" fill="#E0E0E0"/><path d="M49.611 16.238c.207.1.401.225.577.373.352.246.806.598 1.313 1 .507.4.944.785 1.257 1.056.18.142.34.307.479.489-.032.035-.835-.627-1.841-1.43a18.318 18.318 0 01-1.785-1.488zm33.461.063c-.55.54-1.139 1.042-1.76 1.5-.587.502-1.21.96-1.865 1.369a16.69 16.69 0 011.76-1.5c.588-.5 1.212-.957 1.865-1.369z" fill="#E0E0E0"/><path d="M83.072 39.4l-3.731-3.024 3.731 3.023z" fill="#fff"/><path d="M79.33 36.376c.671.438 1.31.921 1.915 1.446.64.485 1.247 1.012 1.816 1.577a17.727 17.727 0 01-1.918-1.446 16.841 16.841 0 01-1.813-1.577zm-29.719 3.02a16.454 16.454 0 011.742-1.482c.583-.495 1.2-.948 1.849-1.355a16.084 16.084 0 01-1.76 1.485c-.577.495-1.188.947-1.83 1.352zm8.951-14.816v5.812h16.502V24.58H58.562z" fill="#E0E0E0"/><path d="M22.01 152.233c.331-1.306-.53-2.608-1.495-3.548-.965-.94-2.112-1.781-2.616-3.027-.82-2.021.25-4.65-1.137-6.336-.816-.989-2.27-1.317-2.995-2.373a5.435 5.435 0 01-.658-1.894 19.252 19.252 0 00-4.844-8.94 16.727 16.727 0 001.943 8.638c.563 1.056 1.257 2.091 1.447 3.277.31 1.922-.753 3.911-.268 5.797.553 2.162 2.989 3.594 3.115 5.819.11 1.879-1.52 3.541-1.386 5.417.1.8.392 1.564.848 2.228 1.468 2.408 3.615 4.062 6.853 3.992l3.967.116-2.773-9.166z" fill="#F5F5F5"/><path d="M25.573 161.498a3.22 3.22 0 001.095-.032 6.33 6.33 0 001.285-.331 5.466 5.466 0 001.587-.88 2.24 2.24 0 00.651-.876c.118-.385.179-.785.18-1.187.004-.429.032-.858.084-1.284.077-.453.24-.887.479-1.278.461-.824 1.235-1.605 1.478-2.725.243-1.119.064-2.284-.126-3.474-.19-1.19-.377-2.485.07-3.728.447-1.242 1.285-2.369 1.71-3.77.427-1.401.215-2.932.296-4.431a5.884 5.884 0 01.507-2.207c.317-.704.757-1.37 1.102-2.112.704-1.5.81-3.193.993-4.854l.27-2.538c.053-.859.195-1.71.427-2.538.262-.839.573-1.662.932-2.464.19-.414.342-.844.454-1.285.066-.453.106-.909.12-1.366.04-.917 0-1.835-.12-2.745-.112-.916-.285-1.82-.387-2.739v-.158l-.02-.183-.163.084a6.093 6.093 0 00-2.112 1.813 9.724 9.724 0 00-1.299 2.425c-.654 1.711-.88 3.496-1.207 5.203-.327 1.707-.736 3.386-1.602 4.808-.429.704-.953 1.355-1.407 2.049a5.555 5.555 0 00-.972 2.267c-.225 1.679.704 3.146.52 4.632a5.099 5.099 0 01-.703 2.063c-.352.637-.774 1.228-1.176 1.819a11.76 11.76 0 00-1.056 1.838 5.807 5.807 0 00-.475 1.992c-.091 1.338.106 2.605 0 3.805a8.797 8.797 0 01-.957 3.263c-.497.986-1.039 1.873-1.468 2.746a13.8 13.8 0 00-.595 1.267c-.16.406-.278.827-.352 1.257a7.879 7.879 0 000 2.263 5.69 5.69 0 001.15 2.883c.099.125.206.243.321.352.08.082.169.155.264.218.148.109.226.159.226.159a5.063 5.063 0 01-.771-.757 5.749 5.749 0 01-1.095-2.862 7.979 7.979 0 01.039-2.232c.073-.419.191-.83.352-1.224.177-.427.376-.845.598-1.25.444-.852.979-1.735 1.464-2.721a8.85 8.85 0 00.982-3.337c.099-1.225-.091-2.496 0-3.802.041-.664.2-1.316.469-1.925.296-.631.65-1.233 1.056-1.799.397-.591.823-1.182 1.19-1.83a5.395 5.395 0 00.746-2.147c.183-1.584-.747-3.063-.514-4.626a5.407 5.407 0 01.922-2.175c.45-.679.975-1.327 1.408-2.052.894-1.464 1.32-3.168 1.64-4.889.32-1.722.556-3.485 1.197-5.157a9.432 9.432 0 011.267-2.362 5.841 5.841 0 012.035-1.739l-.183-.102v.162c.105.926.274 1.834.387 2.738.117.896.157 1.801.12 2.704a12.26 12.26 0 01-.113 1.323c-.112.425-.26.839-.44 1.239a22.887 22.887 0 00-.94 2.489 12.713 12.713 0 00-.433 2.58c-.088.855-.18 1.704-.267 2.542-.18 1.664-.296 3.333-.965 4.78-.33.721-.77 1.387-1.098 2.112a6.175 6.175 0 00-.518 2.288c-.077 1.531.13 3.027-.278 4.386-.408 1.358-1.26 2.481-1.693 3.766-.433 1.285-.257 2.633-.06 3.819.198 1.186.395 2.355.145 3.411s-.972 1.841-1.443 2.689a3.67 3.67 0 00-.486 1.331c-.05.431-.075.865-.074 1.299 0 .389-.056.777-.165 1.151a2.11 2.11 0 01-.61.841 5.51 5.51 0 01-1.548.884 6.673 6.673 0 01-1.271.352 5.072 5.072 0 01-.806.084c-.155-.007-.25-.003-.25-.003z" fill="#E0E0E0"/><path d="M37.844 114.692a.496.496 0 00-.039.12c-.021.094-.05.211-.084.352-.078.313-.166.785-.314 1.376-.148.592-.507 1.253-.813 2.077a34.03 34.03 0 00-.926 2.816c-.292 1.056-.556 2.239-.83 3.499-.275 1.26-.564 2.605-1.25 3.872-.32.648-.683 1.302-.968 2.017a9.33 9.33 0 00-.56 2.281 46.625 46.625 0 01-.827 4.801c-.778 3.256-1.517 6.357-2.193 9.18l-1.837 7.487a4520.11 4520.11 0 01-1.215 5.051c-.137.585-.243 1.057-.32 1.377l-.077.352a.648.648 0 000 .123s.02-.039.045-.12a47.529 47.529 0 00.45-1.717c.31-1.208.754-2.922 1.296-5.034.542-2.112 1.18-4.664 1.89-7.473.712-2.809 1.43-5.924 2.215-9.18.36-1.593.636-3.204.823-4.826a9.188 9.188 0 01.539-2.225c.274-.704.633-1.348.954-1.999.704-1.299.975-2.689 1.246-3.942.27-1.254.514-2.436.795-3.492.282-1.056.588-2.003.887-2.816.3-.813.634-1.493.775-2.112.14-.62.207-1.074.267-1.391l.06-.352a.49.49 0 00.01-.102z" fill="#E0E0E0"/><path d="M26.273 161.505c2.591-1.553 3.295-6.234 2.204-9.04-1.091-2.805-3.003-5.368-3.313-8.367-.235-2.305.504-4.678-.045-6.927-.743-3.038-3.724-5.379-3.707-8.504 0-1.76.996-3.411.908-5.164-.109-2.151-1.76-3.848-2.816-5.734-1.552-2.89-1.69-6.319-2.256-9.564-.567-3.246-1.81-6.723-4.7-8.304-.411 2.763-1.126 4.657-.876 8.395.088 1.341 1.665 3.904 1.894 6.843.134 1.76.232 3.52.352 5.28.12 1.76.232 3.453.856 5.055.478 1.225 1.242 2.334 1.598 3.601.668 2.379-.18 4.97.352 7.392.46 2.045 1.886 3.798 2.189 5.875.422 2.911-1.447 5.952-.465 8.729.486 1.38 1.63 2.482 1.957 3.904.257 1.105 0 2.277.226 3.386.373 1.788 3.798 3.168 5.632 3.038" fill="#E0E0E0"/><path d="M13.288 102.636a.744.744 0 000 .155c0 .116.035.268.06.454.06.398.13.986.27 1.739.142.753.546 1.616.867 2.647a44.26 44.26 0 01.968 3.541c.296 1.327.56 2.799.827 4.383.267 1.584.563 3.305 1.359 4.949.352.827.781 1.654 1.09 2.534.304.906.493 1.846.564 2.798a56.46 56.46 0 00.792 6.03c.817 4.083 1.595 7.977 2.306 11.518.71 3.541 1.408 6.688 1.982 9.377.573 2.689 1.03 4.808 1.355 6.318.165.733.292 1.306.383 1.715.043.186.078.331.106.447.009.05.023.1.042.148a.469.469 0 000-.155l-.08-.451c-.082-.408-.194-.989-.353-1.725-.306-1.51-.742-3.671-1.277-6.336-.535-2.664-1.204-5.861-1.93-9.391-.725-3.531-1.474-7.431-2.28-11.514a56.868 56.868 0 01-.8-6.012 11.52 11.52 0 00-.58-2.851c-.32-.902-.74-1.732-1.105-2.549-.793-1.623-1.078-3.316-1.363-4.893-.285-1.577-.545-3.052-.862-4.382a36.62 36.62 0 00-1.01-3.548c-.352-1.035-.743-1.88-.905-2.623-.162-.742-.24-1.33-.317-1.724l-.07-.451a.857.857 0 00-.039-.148z" fill="#EBEBEB"/><path d="M147.784 156.992c-6.438-3.826-8.409-11.658-8.695-18.807-.049-1.194-.271-2.44.219-3.52.489-1.081 1.76-1.898 2.861-1.475.916.352 1.377 1.351 1.933 2.165a6.997 6.997 0 002.988 2.464c.789.352 1.743.51 2.464.042.986-.644 1.004-2.07.909-3.256-.176-2.204-.354-4.41-.532-6.618-.092-1.183-.187-2.393.099-3.544.285-1.151 1.024-2.253 2.112-2.655 1.087-.401 2.545.148 2.868 1.292.081.487.128.979.141 1.472.071.489.352 1.017.817 1.119.464.102.933-.267 1.26-.641 1.133-1.284 1.848-2.886 2.513-4.477.666-1.591 1.296-3.21 2.309-4.597 1.014-1.387 2.464-2.535 4.161-2.756 1.697-.222 3.573.704 4.125 2.326.553 1.623-.295 3.404-1.256 4.833a26.512 26.512 0 01-5.108 5.657 2.181 2.181 0 00-.845 1.056c-.2.806.606 1.535 1.408 1.739.905.229 1.856.067 2.788.105.933.039 1.961.374 2.373 1.222.577 1.176-.352 2.517-1.278 3.421a22.682 22.682 0 01-6.417 4.365c-.845.384-1.76.729-2.401 1.408-.64.679-1.003 1.76-.517 2.563.486.802 1.598.989 2.496.753.897-.236 1.682-.792 2.527-1.186 1.581-.732 3.693-.775 4.837.552.753.877.908 2.158.644 3.285a8.646 8.646 0 01-1.581 3.062 22.804 22.804 0 01-9.215 7.55c-3.679 1.588-7.153 2.2-11.004 1.106" fill="#F5F5F5"/><path d="M148.945 157.344c.053-2.844-.443-1.267.352-4.928a106.745 106.745 0 013.369-11.736c.352-1.024.704-2.034 1.056-3.03.352-.997.683-1.982 1.077-2.925a53.253 53.253 0 012.57-5.28 104.263 104.263 0 012.675-4.576c.862-1.409 1.7-2.728 2.513-3.89a41.77 41.77 0 014.224-5.185c.546-.57.982-1 1.281-1.288l.352-.324a1.26 1.26 0 01.124-.106c-.034.044-.07.085-.11.123l-.327.352c-.289.3-.704.736-1.253 1.317a44.425 44.425 0 00-4.161 5.216 73.887 73.887 0 00-2.485 3.894 121.594 121.594 0 00-2.654 4.597 53.518 53.518 0 00-2.548 5.28c-.391.94-.725 1.915-1.056 2.911-.331.996-.704 2.01-1.039 3.031a108.837 108.837 0 00-3.379 11.707c-.799 3.661-.32 2.07-.391 4.903" fill="#E0E0E0"/><path d="M154.841 134.689a2.515 2.515 0 01-.151-.496 28.96 28.96 0 01-.324-1.376c-.253-1.165-.549-2.788-.869-4.576-.321-1.788-.641-3.408-.912-4.576a67.709 67.709 0 00-.327-1.373 2.405 2.405 0 01-.106-.511c.08.155.142.318.187.486.105.317.243.782.397 1.359.31 1.155.655 2.77.975 4.576.321 1.806.592 3.365.807 4.576.102.553.186 1.017.257 1.39.042.171.065.346.066.521zm15.017-3.967a3.17 3.17 0 01-.602.116c-.387.064-.951.155-1.641.286-1.383.253-3.28.672-5.357 1.221a74.355 74.355 0 00-5.259 1.602c-.669.225-1.204.422-1.573.556a3.16 3.16 0 01-.585.186c.176-.105.361-.195.553-.267.352-.159.891-.38 1.552-.623 1.32-.5 3.168-1.109 5.256-1.665a53.296 53.296 0 015.389-1.165c.704-.113 1.263-.18 1.654-.215.203-.032.408-.042.613-.032zm-20.399 21.377a.735.735 0 01-.116-.176c-.084-.144-.183-.32-.303-.531a86.278 86.278 0 01-1.056-1.989c-.862-1.69-1.981-4.062-3.168-6.688a288.117 288.117 0 00-3.122-6.72c-.405-.83-.736-1.513-.985-2.017l-.261-.57a.668.668 0 01-.077-.197.94.94 0 01.116.176c.081.144.179.32.302.531.257.465.616 1.144 1.056 1.989.866 1.69 1.986 4.062 3.168 6.688a287.597 287.597 0 003.123 6.72c.408.831.739 1.51.985 2.017.109.222.194.401.268.552a.82.82 0 01.07.215zm19.751-8.015a.706.706 0 01-.193.099l-.574.239c-.528.218-1.243.511-2.112.863-1.785.728-4.224 1.76-6.949 2.911-2.724 1.151-5.178 2.157-6.98 2.851-.901.352-1.633.616-2.14.795l-.588.201a.732.732 0 01-.211.056 1.03 1.03 0 01.193-.098l.574-.24 2.112-.862c1.785-.729 4.224-1.76 6.952-2.908 2.728-1.147 5.178-2.161 6.977-2.851a58.07 58.07 0 012.144-.795l.587-.204a.845.845 0 01.208-.057z" fill="#E0E0E0"/><path d="M165.644 160.586c0 .049-34.57.091-77.204.091-42.634 0-77.215-.042-77.215-.091 0-.049 34.563-.092 77.215-.092s77.204.043 77.204.092zm-29.3-125.71c-2.524-1.084-5.46.465-6.593 2.183-1.134 1.717-1.623 3.773-1.947 5.815a47.847 47.847 0 00-.31 12.672c.134 1.242.377 2.594 1.327 3.407.951.813 2.218.838 3.387.634 1.056-.183 2.129-.585 2.816-1.408 1.056-1.264.918-3.102.806-4.745a49.22 49.22 0 011.76-16.83" fill="#263238"/><path d="M130.842 37.171c1.158-2.302 4.678-3.544 7.522-2.773 2.401.647 4.967 3.111 5.143 5.631.25 3.675-1.735 7.428-.56 10.912 1.37 4.063 6.41 6.03 7.699 10.117a6.438 6.438 0 01-.553 5.118c-.454.785-1.148 1.51-2.045 1.658-1.116.18-2.147-.57-3.027-1.281-2.383-1.915-4.805-3.872-6.467-6.442-1.953-3.024-2.707-6.688-2.738-10.3-.032-3.61.612-7.17 1.253-10.71" fill="#263238"/><path d="M140.884 41.631a5.433 5.433 0 00-1.15-4.072 5.424 5.424 0 00-3.725-2.007c-2.89-.274-5.463 1.88-5.896 4.752-.38 2.517-.704 5.062-.704 5.984.035 2.784 1.665 3.872 2.323 4.192.238.086.483.147.733.183a.036.036 0 01.002.011.036.036 0 01-.002.01l-.62 3.197c-.282 2.094.891 3.96 2.978 4.266 2.087.306 3.738-1.303 4.059-3.397l2.002-13.119z" fill="#936754"/><path d="M130.757 41.69a.445.445 0 00.676.444.423.423 0 00.187-.27.448.448 0 00-.678-.447.431.431 0 00-.185.274zm.001-.626c.045.064.411-.133.883-.063.472.07.781.352.841.306.06-.046 0-.134-.144-.264a1.204 1.204 0 00-1.369-.197c-.173.092-.236.187-.211.218zm4.459 1.349a.445.445 0 00.352.503.424.424 0 00.511-.327.441.441 0 00-.352-.504.425.425 0 00-.511.328zm.159-.588c.045.067.415-.13.883-.06s.785.352.845.306c.06-.046 0-.134-.148-.267a1.224 1.224 0 00-.662-.314 1.166 1.166 0 00-.704.12c-.172.092-.235.187-.214.215zm-2.222 3.231a3.203 3.203 0 00-.742-.25c-.12-.028-.229-.07-.24-.155a.655.655 0 01.134-.352c.155-.274.317-.563.489-.862a15.95 15.95 0 001.148-2.281c-.5.69-.944 1.42-1.327 2.182-.169.303-.327.595-.475.873a.704.704 0 00-.141.493.307.307 0 00.172.204c.064.03.132.05.201.06.256.064.518.093.781.088z" fill="#263238"/><path d="M132.496 50.688s1.799.412 4.274-.623c0 0-1.056 2.302-4.443 1.482l.169-.859zm.694-4.453a.861.861 0 01.806-.204.798.798 0 01.496.352.492.492 0 01-.046.567.577.577 0 01-.64.067 1.85 1.85 0 01-.549-.447.555.555 0 01-.117-.159.166.166 0 01.029-.176" fill="#7C5142"/><path d="M134.496 45.598c-.078 0-.152.496-.644.796-.493.299-1.025.165-1.039.236-.014.07.106.116.335.158a1.3 1.3 0 00.865-.17c.25-.15.431-.39.507-.671.05-.212.011-.345-.024-.349zm.788-4.628c.028.133.507.144 1.056.291.549.148.972.352 1.056.257.042-.049-.017-.183-.179-.33a1.798 1.798 0 00-.757-.395 1.814 1.814 0 00-.852-.024c-.218.063-.334.137-.324.2zm-4.213-.842c.067.12.408.056.799.11.39.052.704.175.802.073.099-.102 0-.162-.126-.285a1.102 1.102 0 00-.623-.271 1.09 1.09 0 00-.666.123c-.155.085-.214.19-.186.25z" fill="#263238"/><path d="M132.278 35.904a5.746 5.746 0 003.974 4.576l-.158-.788a8.092 8.092 0 004.393 3.903 5.566 5.566 0 00-1.106-6.996 5.569 5.569 0 00-7.078-.251m18.001 26.868a4.53 4.53 0 00.542-.849c.374-.84.471-1.776.278-2.675a5.548 5.548 0 00-.679-1.76 9.402 9.402 0 00-1.331-1.71c-1.056-1.12-2.464-2.113-3.72-3.373a7.213 7.213 0 01-1.535-2.112 8.134 8.134 0 01-.658-2.348 20.467 20.467 0 010-4.11c.088-1.166.179-2.113.239-2.757.032-.313.053-.56.07-.75.006-.087.019-.175.039-.26.009.087.009.176 0 .264 0 .19-.021.44-.039.75a560.61 560.61 0 01-.183 2.76 21.426 21.426 0 00.057 4.082 8.12 8.12 0 00.651 2.295 7.148 7.148 0 001.503 2.07c1.253 1.25 2.647 2.242 3.714 3.38a9.303 9.303 0 011.337 1.76 5.63 5.63 0 01.679 1.802c.182.923.058 1.88-.352 2.728a3.252 3.252 0 01-.418.63c-.06.066-.125.127-.194.183z" fill="#263238"/><path d="M153.007 149.635l1.669 8.181 3.186 6.089a.873.873 0 01.051.681.852.852 0 01-1.245.453c-1.513-.908-7.064-4.277-7.152-4.883-.106-.704-2.334-8.511-2.334-8.511l5.825-2.01z" fill="#0075FF"/><path opacity=".6" d="M157.45 165.088l-8.061-5.481.077.352c.069.299.241.563.486.747.655.489 2.492 1.802 6.688 4.347a.857.857 0 00.806.042l.004-.007zm-6.987-8.49a.511.511 0 01.285.626.496.496 0 01-.62.292.542.542 0 01-.299-.665.515.515 0 01.676-.232" fill="#fff"/><path d="M154.778 161.952a2.6 2.6 0 01.57-.796c.271-.186.574-.319.894-.394 0-.021-.113-.06-.31-.042a1.344 1.344 0 00-1.133.918c-.056.187-.042.31-.021.314zm.827.957c.05.025.25-.299.641-.514.253-.108.511-.204.774-.285a.95.95 0 00-.862.127c-.447.246-.599.658-.553.672zm-2.225-2.108c.289-.312.602-.601.937-.863a9.01 9.01 0 011.144-.556 2.344 2.344 0 00-2.081 1.408v.011zm-.714-2.443c.032.042.44-.247 1.021-.402.58-.154 1.073-.119 1.08-.176a2.117 2.117 0 00-2.112.578h.011zm-.553-2.39a4.356 4.356 0 011.056-.444c.38-.045.764-.037 1.141.025 0-.021-.102-.102-.314-.169a1.844 1.844 0 00-1.647.317c-.176.137-.25.257-.236.271zm.933-.898a.748.748 0 00-.056-.31 2.182 2.182 0 00-.43-.749.953.953 0 00-.51-.352.352.352 0 00-.352.158.54.54 0 00-.046.398 1.208 1.208 0 001.281.855 1.403 1.403 0 001.179-1.021.484.484 0 00-.066-.401.358.358 0 00-.384-.095c-.19.089-.353.228-.472.401-.181.227-.32.485-.412.761a.763.763 0 00-.063.309c.143-.355.337-.688.574-.989.108-.15.252-.271.419-.352a.179.179 0 01.211.053.332.332 0 01.028.264 1.254 1.254 0 01-1.038.88 1.062 1.062 0 01-1.099-.704.415.415 0 01.018-.278.182.182 0 01.084-.078.183.183 0 01.113-.014.89.89 0 01.44.3c.25.283.447.61.581.964z" fill="#263238"/><path d="M130.919 150.494l.388 6.642s-6.621 2.626-6.671 3.872l12.908-.288-.176-10.377-6.449.151z" fill="#0075FF"/><path opacity=".6" d="M135.288 156.489a.52.52 0 01.376.591.504.504 0 01-.584.38.55.55 0 01-.398-.63.531.531 0 01.655-.327m2.207 4.206l-.056-1.056-12.355.665s-.571.264-.497.669l12.908-.278z" fill="#fff"/><path d="M131.099 157.076c0 .064.317.085.634.279.316.193.485.457.542.433.056-.025-.046-.391-.43-.62-.383-.229-.764-.151-.746-.092zm-1.345.588c0 .064.264.166.483.426.218.261.288.542.352.539.063-.004.095-.352-.183-.683-.279-.331-.652-.342-.652-.282zm-.732 1.641c.06 0 .141-.307-.032-.648-.172-.341-.464-.472-.492-.419-.028.053.162.232.295.518.134.285.166.542.229.549zm2.154-3.753c.028.057.317-.038.673-.021.355.018.637.123.668.067.032-.056-.239-.274-.661-.285-.423-.011-.711.19-.68.239z" fill="#263238"/><path opacity=".3" d="M131 151.807l.067 1.186 6.343-.2-.017-1.067-6.393.081z" fill="#000"/><path d="M131.124 154.211c.213.052.437.046.647-.017a2.852 2.852 0 001.025-.43.855.855 0 00.19-.155.277.277 0 00.021-.352.365.365 0 00-.123-.101.366.366 0 00-.155-.036.907.907 0 00-.243.039 2.305 2.305 0 00-.986.552c-.292.282-.391.521-.369.532.021.01.172-.18.471-.415a2.56 2.56 0 01.571-.352 2.26 2.26 0 01.352-.124c.137-.038.253-.042.288.018.035.06.018.032 0 .074a.695.695 0 01-.141.112 3.33 3.33 0 01-.352.205 3.623 3.623 0 01-.619.253 3.885 3.885 0 00-.577.197z" fill="#263238"/><path d="M131.208 154.299c.116-.188.171-.409.155-.63a2.096 2.096 0 00-.275-1.095.541.541 0 00-.422-.316.304.304 0 00-.264.186.834.834 0 00-.063.24c-.049.391.06.786.302 1.098.261.327.525.398.528.376.004-.021-.2-.151-.401-.468a1.443 1.443 0 01-.218-.602 1.295 1.295 0 010-.373c.017-.137.067-.25.116-.236a.475.475 0 01.232.205 2.26 2.26 0 01.307.992c.031.377-.032.613.003.623z" fill="#263238"/><path d="M140.955 79.408s3.795 8.24 4.368 10.644c.574 2.404 11.169 65.926 11.169 65.926l-9.736.592-13.221-62.142 5.319 61.691-9.578.799s-7.241-65.19-6.935-67.028c.465-2.777 2.816-10.767 2.816-10.767l15.798.285z" fill="#263238"/><path d="M133.457 94.03s0 .053-.081.105a.35.35 0 01-.373-.035.84.84 0 01-.229-.549l-.126-.757c-.187-1.123-.43-2.678-.683-4.393a359.935 359.935 0 01-.634-4.4c-.067-.538-.123-.989-.169-1.337a2.544 2.544 0 01-.039-.493c.053.157.089.318.11.482.059.352.133.792.225 1.327.186 1.123.429 2.675.704 4.393.274 1.718.479 3.274.63 4.4.035.278.07.532.098.76a.815.815 0 00.176.51.304.304 0 00.314.06c.053-.034.067-.08.077-.073zm-.996-10.606s0-.056.092-.11a.526.526 0 01.383-.055.513.513 0 01.409.418.61.61 0 01-.314.648.64.64 0 01-.704-.12.596.596 0 01-.165-.56c.084-.351.324-.415.32-.394a.989.989 0 00-.193.416.461.461 0 00.151.415.484.484 0 00.514.081.455.455 0 00.229-.457.392.392 0 00-.275-.324.665.665 0 00-.447.042z" fill="#455A64"/><path d="M115.699 43.01l-5.967-9.218-1.816-3.034s-.538-3.041-.795-3.897c-.535-1.76-.704-1.714-.887-1.616-.521.26.82 3.133.172 2.683-.648-.45-1.232-3.703-1.76-3.411-.704.387.764 3.365.87 3.629.105.264-.272.419-.352.18-.12-.352-1.447-3.957-2.137-3.584-.38.204.053.855.053.855s1.492 3.285 1.161 3.45c-.331.165-1.277-1.735-1.549-2.397-.271-.662-.704-.792-.88-.433-.13.246.655 2.295.94 2.946.285.651 1.095 2.415 0 1.87-1.094-.546-2.164-.546-2.464-.353a.391.391 0 00-.106.436.386.386 0 00.377.244c.414.053.818.163 1.201.327.313.12.604.292.859.51.299.254.538.483.739.68l1.482 3.08 6.543 12.844 13.704 11.349 3.456-6.23-12.844-10.91zm35.394 51.456c.084.271.176.588.264.968.077.328.098.666.059 1a4.495 4.495 0 01-.257 1.218c-.169.352.173.704.479.549.306-.155.792-1.105.813-2.34.021-1.236 1.222.295 1.669.847.447.553 1.911 2.186 2.189 2.183.408 0 .475-.444.018-.982-.458-.539-1.722-2.253-1.408-2.464.313-.211 2.531 2.612 2.531 2.612s.38.683.739.44c.644-.444-1.954-3.277-2.211-3.541-.176-.184.145-.437.324-.23.18.208 2.165 2.877 2.816 2.433.507-.352-2.112-2.351-2.221-3.133-.109-.781 1.834 1.729 2.306 1.384.172-.13.288-.25-1.035-1.528-.641-.623-3.098-2.496-3.098-2.496l-5.206-17.114-6.463.106 7.692 20.088z" fill="#936754"/><path d="M131.099 53.909a31.762 31.762 0 01-3.084-1.377l-10.25-7.765-4.576 6.111s11.697 10.56 11.891 10.504c.193-.056 6.019-7.473 6.019-7.473z" fill="#0075FF"/><path d="M131.873 53.884l-.774.025a5.359 5.359 0 00-4.903 3.664c-.782 2.352-.736 3.119-1.278 4.875-1.296 4.196 1.031 9.29 1.031 9.29l-.802 7.392 15.808.285.795-8.899 2.954-13.323s-.655-2.858-3.168-3.09c-1.303-.127-9.663-.219-9.663-.219z" fill="#0075FF"/><path d="M142 54.328s3.746-.018 4.886 4.301c1.141 4.32 3.418 15.678 3.418 15.678l-7.096 2.133-3.816-15.59a7.696 7.696 0 01-.306-2.728c.116-1.56.7-3.583 2.914-3.794zm-11.25-.233l1.25-2.39 2.112 1.197v1.038l.669-1.038 4.981-1.197v2.954l-5.815.633-3.197-1.197z" fill="#0075FF"/><path d="M126.85 57.728a3.464 3.464 0 01-.264.507c-.091.158-.2.352-.31.588-.109.236-.253.492-.373.799-.119.306-.267.63-.383.996-.117.366-.24.757-.352 1.169a14.805 14.805 0 00-.352 5.565c.063.426.112.834.204 1.207.067.35.152.695.253 1.035.078.32.187.595.268.841.065.212.143.42.232.623.078.175.143.355.194.539a3.774 3.774 0 01-.261-.51 5.965 5.965 0 01-.264-.617c-.088-.246-.207-.52-.292-.837-.113-.347-.207-.7-.282-1.056-.095-.377-.151-.785-.221-1.218a15.41 15.41 0 01-.099-2.816 15.6 15.6 0 01.461-2.799c.123-.419.233-.816.377-1.179.119-.339.257-.672.412-.996.119-.27.252-.535.397-.792.106-.2.224-.394.352-.58.087-.166.188-.322.303-.469zm6.889-5.013c-.032.248-.095.49-.187.722-.137.44-.352 1.056-.57 1.704-.039.102-.074.204-.109.303l-.039.105-.095-.056a7.115 7.115 0 01-1.26-.968 1.94 1.94 0 01-.415-.493c.559.47 1.147.905 1.76 1.302l-.134.05.109-.307c.232-.661.454-1.256.62-1.682a2.85 2.85 0 01.32-.68zm4.09 2.197a3.82 3.82 0 01-.753.32 58.16 58.16 0 01-1.862.662l-.106.039v-.2a65.237 65.237 0 01-.267-2.021 3.858 3.858 0 01-.06-.845 3.9 3.9 0 01.186.827c.092.51.208 1.225.324 2.01v.092l-.12-.074a93.312 93.312 0 011.884-.61c.249-.096.509-.163.774-.2zm2.619 21.342a2.547 2.547 0 01.461 2.795 6.387 6.387 0 000-1.437 6.79 6.79 0 00-.461-1.358z" fill="#263238"/><path d="M149.702 71.808c-.326.137-.666.24-1.014.31-.633.165-1.513.352-2.495.552-.982.201-1.88.314-2.528.391a5.807 5.807 0 01-1.056.078 6.424 6.424 0 011.056-.208c.641-.11 1.532-.257 2.51-.44a77.363 77.363 0 002.503-.496c.336-.09.678-.152 1.024-.187zm-.806-4.322a5.53 5.53 0 01-1.056.387c-.655.204-1.57.45-2.584.704-1.013.253-1.932.475-2.594.647-.353.11-.713.197-1.077.26a5.552 5.552 0 011.056-.383 44.77 44.77 0 012.584-.704c1.013-.25 1.932-.472 2.594-.648a8.57 8.57 0 011.077-.263z" fill="#FAFAFA"/><path d="M143.201 76.44a2.207 2.207 0 01-.131-.412c-.074-.302-.172-.682-.285-1.137-.232-.96-.542-2.291-.876-3.762-.335-1.472-.62-2.816-.824-3.777-.091-.454-.165-.838-.229-1.148a2.188 2.188 0 01-.06-.426c.061.13.105.267.131.409l.285 1.136a295.888 295.888 0 011.7 7.54c.091.458.169.842.229 1.151.038.14.058.282.06.426z" fill="#263238"/><path d="M148.516 64.17c0 .049-5.305-.053-11.845-.23-6.54-.175-11.841-.351-11.841-.407 0-.057 5.304.049 11.845.225 6.54.176 11.841.359 11.841.412zm-1.816-6.03a.769.769 0 01-.205.032l-.587.049c-.514.042-1.254.091-2.172.148-1.834.109-4.369.228-7.171.306a220.27 220.27 0 01-7.173.08c-.919 0-1.662 0-2.176-.027l-.591-.022c-.07 0-.139-.006-.208-.017a.74.74 0 01.208 0l.591-.018 2.172-.028c1.838-.02 4.372-.06 7.174-.134 2.802-.074 5.333-.176 7.167-.253l2.175-.088h.591a.922.922 0 01.205-.028zm-25.348.27c-.039-.034 1.172-1.492 2.7-3.255 1.527-1.764 2.816-3.168 2.84-3.136.025.031-1.172 1.489-2.699 3.256-1.528 1.767-2.802 3.157-2.841 3.136zm19.853 12.342c0 .053-3.619-.267-8.072-.704-4.452-.436-8.06-.845-8.057-.898.004-.052 3.619.271 8.075.704 4.456.433 8.057.863 8.054.898zm.179 4.886c0 .053-3.52 0-7.835-.085-4.316-.084-7.832-.218-7.832-.267 0-.05 3.52 0 7.835.084 4.316.085 7.832.218 7.832.268z" fill="#FAFAFA"/><path d="M130.75 79.073a1.417 1.417 0 010-.26v-.743c0-.648.05-1.584.127-2.738a50.39 50.39 0 01.159-1.884c.07-.675.172-1.408.267-2.154.19-1.517.352-3.189.528-4.928.241-3.005.67-5.993 1.285-8.944a40.8 40.8 0 01.704-2.644c.098-.292.179-.528.243-.704.022-.084.054-.165.095-.243a1.226 1.226 0 01-.06.254c-.056.18-.123.419-.211.704a40.1 40.1 0 00-.658 2.65A81.129 81.129 0 00132 66.37c-.176 1.76-.352 3.43-.542 4.929-.102.756-.208 1.474-.285 2.147a61.446 61.446 0 00-.183 1.88c-.092 1.15-.144 2.083-.18 2.727l-.042.743c.004.093-.002.186-.018.278z" fill="#263238"/><path d="M140.293 63.529h-3.83v.996h3.83v-.996z" fill="#FAFAFA"/><path opacity=".3" d="M140.906 66.56a7.768 7.768 0 00.267 8.75l.704-4.928" fill="#000"/><path d="M138.688 41.969c.451.926.229 2.035-.098 3.013-.328.979-.747 1.968-.662 2.996.077.953.591 1.83.683 2.784.158 1.605-.87 3.062-1.292 4.622a6.363 6.363 0 001.369 5.804.759.759 0 00.532.313.562.562 0 00.482-.478 2.542 2.542 0 00-.018-.729c-.193-2.302 2.021-4.146 2.341-6.434.211-1.49-.405-2.96-.496-4.46-.116-1.887.595-3.717.827-5.594a4.35 4.35 0 00-.109-1.918 2.003 2.003 0 00-1.296-1.334 1.316 1.316 0 00-1.573.778" fill="#263238"/><path d="M96.064 56.07l-7.452 4.717 5.28-14.45 1.426-2.847c.19-.24.422-.514.704-.828.247-.267.54-.49.862-.658a4.726 4.726 0 011.254-.507.42.42 0 00.2-.767c-.334-.176-1.471-.039-2.594.704-1.123.743-.479-1.278-.254-2.014.226-.735.807-3.04.634-3.29-.253-.353-.686-.16-.894.58-.208.74-.979 2.915-1.359 2.777-.38-.137.806-3.872.806-3.872s.384-.757-.052-.929c-.789-.31-1.76 3.745-1.841 4.133-.057.27-.48.137-.402-.148.078-.285 1.271-3.693.472-4.017-.616-.25-.83 3.33-1.468 3.897-.637.567.44-2.696-.158-2.911-.222-.081-.398-.11-.743 1.855-.169.954-.352 4.298-.352 4.298l-1.735 3.421.042.04-7.103 15.001c-1.363 3.598.862 6.505 3.09 7.822a6.284 6.284 0 006.688-.19l8.607-5.748-3.658-6.069zm40.061 31.655c.18.264.377.581.595.961.186.328.314.685.377 1.056.101.462.136.936.106 1.408a.432.432 0 00.189.48.438.438 0 00.515-.036c.281-.275.503-1.443.14-2.784-.362-1.341 1.408-.067 2.067.387.658.454 2.752 1.76 3.051 1.668.437-.133.377-.63-.292-1.056-.668-.426-2.566-1.886-2.312-2.22.253-.335 3.562 2.02 3.562 2.02s.623.616.933.239c.556-.68-3.144-2.922-3.499-3.126-.25-.14 0-.514.274-.352.275.162 3.242 2.422 3.816 1.736.44-.528-3.024-1.873-3.383-2.683-.359-.81 2.524 1.289 2.925.768.148-.194.233-.352-1.598-1.324-.887-.472-4.132-1.718-4.132-1.718l-19.906-25.696-5.772 5.203 22.344 25.07z" fill="#EB996E"/><path d="M100.704 150.589l.38 6.519s-6.502 2.577-6.547 3.788l12.672-.064-.18-10.401-6.325.158z" fill="#455A64"/><path opacity=".6" d="M104.987 156.471a.524.524 0 01.374.584.499.499 0 01-.578.374.545.545 0 01-.387-.62.516.516 0 01.641-.32m2.171 4.343v-1.056l-12.168.469s-.56.256-.486.651l12.654-.064z" fill="#fff"/><path d="M100.876 157.048c0 .064.313.085.623.275s.475.45.532.422c.056-.028-.043-.38-.423-.605-.38-.225-.746-.148-.732-.092zm-1.316.581c0 .06.257.159.475.415.218.257.281.532.352.529.07-.004.095-.353-.18-.669-.274-.317-.647-.335-.647-.275zm-.718 1.605c.056 0 .133-.299-.032-.633-.166-.335-.458-.465-.482-.412-.025.053.158.229.288.507.13.278.162.535.226.538zm2.112-3.682c.028.057.309-.035.661-.017.352.017.623.119.655.067.032-.053-.236-.271-.648-.282-.411-.011-.7.187-.668.232zm-.053-1.316c.209.054.43.048.637-.018.228-.044.449-.117.658-.218.122-.059.239-.126.352-.201a.707.707 0 00.19-.154.273.273 0 00.067-.161.262.262 0 00-.046-.167.355.355 0 00-.274-.137.886.886 0 00-.24.039 2.273 2.273 0 00-.968.542c-.285.278-.38.51-.352.524.028.014.166-.179.461-.408.171-.135.358-.247.557-.335.114-.047.232-.087.352-.119.133-.039.249-.042.285.017.035.06 0 .032 0 .071a.575.575 0 01-.138.112c-.106.073-.217.14-.33.201a3.528 3.528 0 01-.609.246 5.012 5.012 0 00-.602.166z" fill="#263238"/><path d="M100.985 154.324c.117-.183.171-.399.155-.616a2.152 2.152 0 00-.102-.704 1.972 1.972 0 00-.173-.38.53.53 0 00-.411-.314.302.302 0 00-.261.183.963.963 0 00-.06.236 1.324 1.324 0 000 .426c.04.237.138.461.285.651.254.321.514.391.518.352.003-.038-.197-.147-.394-.457a1.53 1.53 0 01-.215-.592 1.424 1.424 0 010-.369c.017-.134.067-.243.116-.232.049.01.172.098.229.204.064.112.119.23.162.352.077.202.123.414.137.63.053.387-.021.623.014.63z" fill="#263238"/><path d="M122.63 150.494l.496 6.512s-6.452 2.693-6.477 3.904l12.672-.507-1.021-10.152-5.67.243z" fill="#455A64"/><path opacity=".6" d="M127.019 156.288a.519.519 0 01.38.574.5.5 0 01-.206.305.5.5 0 01-.36.078.544.544 0 01-.402-.612.515.515 0 01.634-.331m2.246 4.101l-.078-1.028-12.112.873s-.553.268-.472.662l12.662-.507z" fill="#fff"/><path d="M122.918 156.95c0 .063.314.077.627.264.313.186.486.44.542.415.056-.025-.053-.38-.433-.602-.38-.222-.753-.134-.736-.077zm-1.306.605c0 .06.261.152.479.405.218.253.292.528.352.525.06-.004.088-.353-.194-.666-.281-.313-.637-.324-.637-.264zm-.69 1.619c.057 0 .131-.302-.042-.633-.172-.331-.468-.458-.493-.405-.024.053.162.229.3.503.137.275.172.532.235.535zm2.046-3.72c.028.056.309-.042.661-.032.353.011.627.109.655.056.028-.052-.239-.267-.651-.271-.412-.003-.697.201-.665.247zm-.074-1.317c.209.051.429.042.633-.028a2.814 2.814 0 001.007-.436.813.813 0 00.187-.159.266.266 0 000-.331.363.363 0 00-.275-.13.867.867 0 00-.236.042 2.238 2.238 0 00-.961.56c-.281.285-.373.517-.352.528.021.011.166-.179.454-.415.267-.22.578-.38.912-.468.134-.039.25-.046.285 0 .035.045 0 .028 0 .07a.742.742 0 01-.137.113 3.465 3.465 0 01-.327.207c-.193.104-.394.19-.602.257-.2.051-.397.114-.588.19z" fill="#263238"/><path d="M122.978 154.225c.109-.187.159-.403.141-.619a2.127 2.127 0 00-.113-.704 2.067 2.067 0 00-.179-.377.518.518 0 00-.416-.303.296.296 0 00-.257.187.83.83 0 00-.056.236c-.017.142-.011.286.018.426.043.236.145.457.295.644.261.317.521.38.525.352.003-.028-.201-.141-.401-.451a1.48 1.48 0 01-.226-.584 1.349 1.349 0 010-.37c0-.133.06-.246.113-.232a.46.46 0 01.229.197 2.33 2.33 0 01.32.979c.028.376-.028.609.007.619z" fill="#263238"/><path d="M112.2 40.17l-1.243 14.415-7.219-.578c-.046-.84 0-4.104 0-4.104s-3.003-.465-3.038-3.467c-.021-1.46.19-4.474.409-7.188a5.557 5.557 0 015.878-5.104 5.557 5.557 0 015.213 6.026z" fill="#EB996E"/><path d="M103.748 49.86a6.977 6.977 0 003.915-1.111s-.926 2.16-3.922 1.89l.007-.778z" fill="#D1734A"/><path d="M101.833 41.726c.05.056.388-.165.849-.144.461.02.788.274.841.218.053-.056-.025-.127-.165-.24a1.186 1.186 0 00-1.349-.063c-.147.102-.2.2-.176.23zm4.225.064c.056.052.373-.198.834-.208.461-.01.806.207.855.151.05-.056-.031-.127-.183-.229a1.17 1.17 0 00-1.348.046c-.137.113-.183.215-.158.24zm-1.433 2.79a2.94 2.94 0 00-.75-.136c-.12 0-.229-.036-.25-.117a.594.594 0 01.078-.352l.352-.897c.323-.76.586-1.546.785-2.348a15.608 15.608 0 00-.972 2.28c-.116.314-.225.613-.334.902a.7.7 0 00-.06.461.3.3 0 00.076.109c.034.03.074.052.117.064a.746.746 0 00.201.028c.251.032.505.034.757.007zm1.359.318c-.078 0-.078.496-.507.851-.43.356-.961.303-.965.373-.003.07.12.096.352.103.294.003.579-.097.806-.282.216-.176.356-.428.391-.704.011-.218-.046-.345-.077-.341zm.197-5.245c.045.127.507.067 1.056.134.549.066.978.21 1.056.098.031-.053-.046-.172-.222-.292a1.761 1.761 0 00-.782-.275 1.731 1.731 0 00-.816.099c-.211.08-.31.18-.292.236zm-4.245.211c.095.123.457 0 .897 0s.813.081.898-.042c.039-.064-.021-.183-.183-.296a1.312 1.312 0 00-1.447.042c-.155.113-.208.24-.165.296zm7.004-2.985c.48.376.796.924.88 1.528v.06c.12.855.095 1.728.222 2.583a3.876 3.876 0 001.056 2.313c.261.243.704.412.933.127a.714.714 0 00.109-.395c.159-2.066.725-3.9.704-6.065a1.813 1.813 0 00-.757-1.482c-.45-.327-1.003-.661-1.506-.425-.504.235-1.155 1.182-1.546 1.58" fill="#263238"/><path d="M111.186 41.536c.053-.021 2.063-.609 2 1.443-.064 2.052-2.113 1.567-2.113 1.507 0-.06.113-2.95.113-2.95z" fill="#EB996E"/><path d="M111.721 43.718s.035.029.095.057a.353.353 0 00.268 0 .893.893 0 00.436-.782c.01-.175-.019-.35-.084-.514a.413.413 0 00-.261-.281.18.18 0 00-.214.091c-.029.057-.018.095-.029.099-.01.003-.042-.035-.024-.12a.243.243 0 01.084-.127.276.276 0 01.201-.045.513.513 0 01.352.33c.083.181.119.38.105.578a.931.931 0 01-.549.87.4.4 0 01-.327-.064c-.049-.039-.06-.088-.053-.092z" fill="#D1734A"/><path d="M110.686 35.457c.504-.824-.88-2.003-1.893-2.32-1.014-.316-2.348.173-3.358.507-.634.211-1.271.507-1.94.479a4.596 4.596 0 01-1.302-.331 3.264 3.264 0 00-1.313-.26 1.25 1.25 0 00-1.08.686.773.773 0 00.52 1.056 1.009 1.009 0 00-1.477.74 1.007 1.007 0 001.206 1.129c-.292-.222-.74.144-.704.51a1.057 1.057 0 00.704.778c.855.373 1.855.254 2.742-.042s1.707-.764 2.584-1.084c.876-.32 2.351-.894 3.231-.584.651.228 1.102 1.01 1.468.837a1.252 1.252 0 00.651-.922 3.7 3.7 0 00-.039-1.169" fill="#263238"/><path d="M100.07 35.2s.106.151.327.394a2.89 2.89 0 001.141.732 2.587 2.587 0 001.95-.07c.704-.313 1.295-.94 1.985-1.531a4.226 4.226 0 012.306-1.105 2.364 2.364 0 011.964.679 1.79 1.79 0 01.465 1.327c-.011.13-.041.256-.088.377-.036.08-.06.12-.067.116a3.08 3.08 0 00.077-.497 1.76 1.76 0 00-.493-1.225 2.235 2.235 0 00-1.83-.605 4.176 4.176 0 00-2.207 1.088c-.676.577-1.292 1.221-2.038 1.545a2.698 2.698 0 01-2.084.042 2.72 2.72 0 01-1.151-.816 1.958 1.958 0 01-.215-.32.494.494 0 01-.042-.131zm11.641 6.241s-.088-.056-.166-.218a1.355 1.355 0 01-.102-.746c.042-.662.63-1.37.704-2.285a2.062 2.062 0 00-.211-1.232 1.55 1.55 0 00-.764-.658 1.31 1.31 0 00-.683-.095c-.165.028-.253.067-.26.049-.007-.018.07-.074.243-.127.249-.062.511-.05.753.035.363.128.671.377.873.704.23.406.323.875.267 1.338a3.733 3.733 0 01-.394 1.295 3.869 3.869 0 00-.369.993c-.064.32-.026.65.109.947z" fill="#455A64"/><path d="M117.902 86.712l11.799 68.647-9.303 1.133-13.211-61.237 1.102 60.354H99.38l-3.524-69.5 22.046.603z" fill="#263238"/><path d="M96.73 64.863l-3.327 2.066-3.773-7.25c1.658-1.198 6.973-4.62 8.32-5.5a6.476 6.476 0 011.057-.573c.897-.35 1.837-.58 2.795-.683.852-.116 1.499-.172 1.918-.225 2.425.767 5.027.767 7.452 0 .292 0 .577.035.852.067 2.464.352 4.854 2.08 6.336 3.685l5.871 5.28-5.758 6.885-1.782-2.112.419 9.726 1.7 12.095H95.807s-.049-2.851.159-6.815c.295-5.576.588-14.245.588-14.245" fill="#0075FF"/><path d="M96.504 70.977c.087-.53.136-1.065.148-1.601.067-.986.155-2.352.278-3.872.123-1.521.26-2.866.352-3.851.078-.53.117-1.063.116-1.598a8.99 8.99 0 00-.295 1.577 65.226 65.226 0 00-.637 7.723 9.155 9.155 0 00.038 1.622zm19.769-9.595a4.518 4.518 0 00-.057 1.102c0 .679.042 1.619.116 2.654.074 1.034.18 1.967.278 2.64.025.368.1.732.222 1.08a5.45 5.45 0 00-.042-1.098l-.201-2.644c-.074-.978-.133-1.865-.193-2.64 0-.368-.042-.735-.123-1.094z" fill="#263238"/><path d="M114.368 62.533h-3.829v.996h3.829v-.996zm3.608-6.357a3.19 3.19 0 00-.915-.13 4.351 4.351 0 00-2.341.855c-.447.295-.904.665-1.408 1.038-.55.4-1.14.74-1.76 1.017a10.27 10.27 0 01-2.157.648 10.52 10.52 0 01-2.415.127 9.683 9.683 0 01-2.376-.444 10.253 10.253 0 01-1.077-.408 9.106 9.106 0 01-.972-.52c-1.249-.737-2.08-1.76-2.957-2.366a3.573 3.573 0 00-2.344-.768c-.308.035-.61.12-.89.25l.052-.035a1.968 1.968 0 01.831-.285 3.59 3.59 0 012.425.728c.905.613 1.743 1.623 2.968 2.33.309.19.63.358.961.508.344.15.697.282 1.056.394.757.24 1.541.385 2.333.433.792.05 1.587.01 2.369-.12a10.322 10.322 0 002.112-.626 9.722 9.722 0 001.743-.986c.514-.352.978-.732 1.436-1.024a4.316 4.316 0 012.411-.817 2.32 2.32 0 01.704.106c.058.017.114.038.169.063.025.018.042.028.042.032zm-21.211 7.402c-.028 0-.254-.303-.704-.704a5.78 5.78 0 00-.877-.644 6.356 6.356 0 00-1.218-.542 6.426 6.426 0 00-1.306-.257 5.774 5.774 0 00-1.09.018c-.617.074-.986.207-.997.172-.01-.035.085-.053.25-.113.236-.086.48-.149.729-.186.37-.06.745-.08 1.119-.06a6.16 6.16 0 011.352.25 5.96 5.96 0 011.246.574 5.082 5.082 0 011.172 1.02c.075.08.142.166.2.258.085.123.134.204.124.214zm19.43 3.39a.856.856 0 01-.176.106l-.524.274-.384.197c-.144.067-.303.127-.472.2-.352.138-.704.314-1.158.451l-.704.23c-.239.077-.496.133-.757.207-.521.151-1.094.246-1.696.352a21.87 21.87 0 01-3.96.243 21.58 21.58 0 01-3.932-.55c-.591-.161-1.155-.305-1.661-.5-.257-.09-.507-.165-.74-.263l-.669-.285c-.429-.17-.791-.377-1.119-.542-.162-.085-.317-.159-.45-.236l-.352-.225-.504-.317a.787.787 0 01-.169-.123c.066.024.13.055.19.091l.518.285.373.211c.137.074.292.141.454.222.33.155.704.352 1.126.514l.666.275c.232.091.482.162.739.253.507.183 1.056.32 1.651.475 2.563.618 5.224.724 7.828.314.595-.11 1.165-.198 1.683-.352.26-.07.517-.12.757-.194l.686-.218c.44-.127.82-.296 1.162-.423.169-.067.33-.123.475-.186l.387-.18.539-.243a.66.66 0 01.193-.063zm6.301-5.924a7.788 7.788 0 00-1.074-.088 5.28 5.28 0 00-2.446.735c-.742.452-1.43.986-2.052 1.591a7.35 7.35 0 01-.813.722 5.57 5.57 0 01.721-.813 9.744 9.744 0 012.052-1.658 4.96 4.96 0 012.538-.704c.269.002.536.039.796.11a.808.808 0 01.278.105zm-5.836 13.341c-.06.038-.124.07-.19.095l-.557.25a8.408 8.408 0 01-.894.352c-.355.116-.749.285-1.203.415l-.704.215c-.25.074-.511.126-.782.197-.538.144-1.123.246-1.739.352a25.277 25.277 0 01-8.096.07c-.616-.109-1.204-.2-1.76-.352-.271-.067-.535-.116-.781-.186l-.704-.205c-.458-.12-.86-.274-1.215-.394a9.024 9.024 0 01-.9-.352l-.56-.236a1.226 1.226 0 01-.19-.095c.07.01.139.031.204.06l.573.208c.247.091.546.204.905.313.36.11.76.254 1.218.352l.704.19c.25.064.514.113.781.173.539.13 1.127.215 1.739.317 2.673.393 5.391.37 8.058-.067.612-.113 1.196-.208 1.731-.352.268-.067.532-.117.778-.187l.704-.204c.454-.12.856-.271 1.211-.387.356-.116.655-.23.901-.328l.567-.214a.728.728 0 01.201 0zm1.323 9.236a.84.84 0 01-.225 0l-.634-.08a68.337 68.337 0 00-5.815-.535 60.03 60.03 0 00-4.269-.054 63.118 63.118 0 00-7.727.655c-.982.148-1.777.278-2.323.38l-.63.106a1.292 1.292 0 01-.222.028.851.851 0 01.215-.063l.623-.141a41.805 41.805 0 012.316-.437 55.043 55.043 0 017.744-.711c1.521-.035 2.967 0 4.28.067 1.313.067 2.496.18 3.485.303a48.56 48.56 0 012.334.33l.63.117c.073.007.146.019.218.035z" fill="#FAFAFA"/><path d="M37.104 35.492a6.653 6.653 0 00-6.519 5.34c-.27 1.563.025 3.263-.704 4.675-.954 1.872-3.456 2.735-4.016 4.762-.472 1.693.64 3.52.165 5.22-.352 1.225-1.44 2.088-1.974 3.239a3.685 3.685 0 00.242 3.52 3.345 3.345 0 003.169 1.454c.77-.113 1.467-.504 2.21-.747 1.602-.524 3.34-.352 5.01-.102 1.668.25 3.382.503 5.022.116 1.64-.387 3.214-1.601 3.46-3.27.159-1.08-.25-2.154-.584-3.196-2.186-6.882-1.176-14.39-2.728-21.44" fill="#263238"/><path d="M30.994 41.832a7.183 7.183 0 00-1.468-1.437 2.753 2.753 0 00-1.947-.506 1.736 1.736 0 00-1.44 1.295 1.27 1.27 0 001.057 1.485.997.997 0 00-1.327.75 1.372 1.372 0 00.837 1.408 2.244 2.244 0 001.722-.046 6.529 6.529 0 001.492-.932l1.598-1.208" fill="#263238"/><path d="M25.474 61.832a.85.85 0 01-.274-.123 1.454 1.454 0 01-.532-.686 2.017 2.017 0 01-.031-1.37 4.273 4.273 0 01.989-1.527c.527-.502.999-1.06 1.408-1.662a3.214 3.214 0 00.264-2.386c-.159-.863-.51-1.76-.504-2.75a2.672 2.672 0 01.433-1.439c.3-.426.685-.786 1.13-1.056.88-.56 1.848-.862 2.626-1.408.382-.25.707-.577.954-.961a3.76 3.76 0 00.447-1.267c.099-.83.153-1.666.162-2.503a8.8 8.8 0 01.373-2.172 4.716 4.716 0 011.827-2.57c.24-.163.502-.294.778-.386.07-.025.142-.045.215-.06h.077a4.286 4.286 0 00-1.038.51 4.727 4.727 0 00-1.76 2.549 8.893 8.893 0 00-.352 2.143 22.333 22.333 0 01-.148 2.52c-.07.462-.225.906-.458 1.31a3.343 3.343 0 01-1.007 1.056c-.806.57-1.777.876-2.629 1.408a3.612 3.612 0 00-1.052.982 2.464 2.464 0 00-.405 1.341c0 .947.33 1.838.489 2.714.094.431.123.873.088 1.313-.037.419-.17.823-.387 1.183a10.162 10.162 0 01-1.436 1.672 4.26 4.26 0 00-.99 1.471 1.96 1.96 0 000 1.313c.092.27.26.506.486.68.162.12.264.15.257.161zM30.41 44c.155-.44.259-.898.309-1.362a5.95 5.95 0 00-.19-1.384 2.397 2.397 0 01-.12 2.746z" fill="#455A64"/><path d="M32.243 55.433s-.046-.042-.127-.134a1.865 1.865 0 01-.267-.471 2.984 2.984 0 01.028-1.958c.24-.82.87-1.619 1.493-2.51.332-.457.602-.956.802-1.485.19-.577.288-1.18.289-1.788.02-1.253-.218-2.443-.292-3.541a6.44 6.44 0 01.352-2.9 3.609 3.609 0 011.158-1.585c.145-.107.3-.199.464-.274a.7.7 0 01.176-.063c-.206.119-.404.25-.595.394-.495.42-.869.964-1.084 1.577a6.444 6.444 0 00-.288 2.84c.08 1.085.327 2.274.306 3.556a5.78 5.78 0 01-.303 1.844 6.428 6.428 0 01-.834 1.52c-.637.895-1.26 1.67-1.507 2.465a2.964 2.964 0 00-.084 1.893c.08.219.184.427.313.62z" fill="#455A64"/><path d="M22.947 56.162l.102.162c.104.147.242.268.401.352.253.134.539.192.824.168.377-.03.728-.205.979-.489.3-.349.491-.778.549-1.235a4.064 4.064 0 00-.127-1.574c-.137-.549-.352-1.109-.507-1.718a4.302 4.302 0 01-.144-1.94c.14-.645.452-1.242.904-1.724.41-.443.868-.84 1.363-1.186.46-.352.922-.627 1.33-.926a9.151 9.151 0 001.056-.901 3.967 3.967 0 001.084-1.676c.062-.24.108-.485.138-.732.022.252 0 .506-.067.75a3.924 3.924 0 01-1.056 1.76 9.04 9.04 0 01-1.056.933c-.409.306-.866.598-1.32.94-.49.34-.943.73-1.352 1.165a3.52 3.52 0 00-.859 1.64 4.255 4.255 0 00.137 1.862c.159.592.352 1.158.497 1.722a4.07 4.07 0 01.112 1.636 2.414 2.414 0 01-.591 1.3 1.538 1.538 0 01-1.922.292.996.996 0 01-.394-.402.41.41 0 01-.06-.134c-.018-.028-.025-.045-.021-.045zM45.246 38.85c.268 1.816.76 3.612 1.545 4.738.63.901 1.86 1.408 2.046 2.513.158.916-.391 1.827-.303 2.75.14 1.46 1.76 2.347 2.203 3.738.38 1.158-.144 2.464-1.027 3.309-.884.844-2.067 1.284-3.242 1.601-1.68.454-3.718.592-4.928-.662-.828-.862-1.01-2.136-1.116-3.323-.282-3.168-.271-6.374-.257-9.563" fill="#263238"/><path d="M34.267 41.906a5.461 5.461 0 014.928-6.122c2.915-.278 5.505 1.89 5.942 4.788.384 2.537.704 5.1.704 6.03-.035 2.815-1.68 3.9-2.344 4.223a3.75 3.75 0 01-.736.183.022.022 0 00-.013.008.022.022 0 00-.005.014l.623 3.22c.282 2.112-.894 3.992-3.002 4.302-2.109.31-3.767-1.313-4.09-3.425l-2.007-13.221z" fill="#FFBE9D"/><path d="M44.56 41.797c-.046.066-.416-.134-.89-.064-.476.07-.79.352-.85.31-.059-.042 0-.134.149-.268.185-.17.419-.281.669-.316.24-.034.487.008.704.12.179.09.242.19.218.218zm-4.28.837c-.046.067-.416-.133-.891-.063-.475.07-.789.352-.849.31-.06-.043 0-.134.148-.268a1.24 1.24 0 01.67-.317c.24-.033.486.008.703.12.176.092.243.176.218.218zm1.777 2.739c.238-.116.49-.2.75-.254.12-.028.232-.07.24-.154a.605.605 0 00-.135-.353c-.154-.278-.32-.566-.492-.869a16.343 16.343 0 01-1.159-2.299c.053-.028.652.958 1.342 2.2l.478.877a.704.704 0 01.134.468.316.316 0 01-.176.208.722.722 0 01-.2.056 2.938 2.938 0 01-.782.12z" fill="#263238"/><path d="M42.722 51.015s-1.813.416-4.305-.626c0 0 1.056 2.316 4.474 1.492l-.169-.866zm-.7-4.47a.87.87 0 00-.813-.204.79.79 0 00-.497.352.5.5 0 00.046.574.58.58 0 00.644.066c.213-.111.4-.264.553-.45a.53.53 0 00.116-.162.158.158 0 00-.024-.176" fill="#EB996E"/><path d="M40.705 45.904c.078 0 .155.5.648.803.493.303 1.035.165 1.056.236.021.07-.11.116-.352.158-.3.046-.608-.014-.87-.169a1.123 1.123 0 01-.51-.676c-.046-.214-.007-.348.028-.352zm-.669-4.624c-.028.133-.514.143-1.056.291s-.975.352-1.056.26c-.08-.09 0-.182.184-.351a1.912 1.912 0 011.619-.423c.2.07.32.155.31.222zm4.122-.8c-.066.12-.412.056-.806.11-.394.052-.704.179-.81.077-.038-.05 0-.166.127-.29.179-.144.398-.232.627-.249.231-.027.465.016.672.123.159.074.222.18.19.229zm-.425 1.718a.443.443 0 00.352.503.422.422 0 00.507-.33.444.444 0 00-.352-.504.424.424 0 00-.507.33zm-4.344.809a.436.436 0 00.352.504.424.424 0 00.51-.328.444.444 0 00-.352-.503.42.42 0 00-.51.327z" fill="#263238"/><path d="M34.574 55.232l10.672-2.08-.303 5.949s-4.748 1.475-4.928 1.563c-.18.088-3.28 0-3.28 0l-2.161-5.432zM22.746 95.638c-.08.271-.165.588-.25.972a2.889 2.889 0 00-.042 1c.035.414.129.822.278 1.21.173.353-.162.705-.471.56-.31-.144-.81-1.091-.852-2.326-.043-1.236-1.218.316-1.655.872-.436.557-1.872 2.218-2.15 2.222-.409 0-.486-.437-.036-.983.451-.545 1.686-2.28 1.38-2.499-.306-.218-2.492 2.654-2.492 2.654s-.352.704-.729.45c-.65-.428 1.901-3.308 2.151-3.575.173-.187-.151-.433-.327-.222-.176.211-2.112 2.91-2.784 2.464-.514-.335 2.076-2.387 2.168-3.168.091-.782-1.806 1.76-2.281 1.408-.18-.127-.292-.243 1.007-1.546.63-.63 3.055-2.544 3.055-2.544l4.928-17.196h6.46l-7.358 20.247zm31.388-44.985s9.205-3.661 10.666-4.79c1.46-1.13 10.648-9.392 10.648-9.392l1.221-1.028c.151-.236.32-.521.507-.866a2.91 2.91 0 00.313-.947c.08-.41.102-.83.067-1.246a.388.388 0 01.606-.408c.253.239.478 1.27.183 2.464-.296 1.193 1.256.031 1.83-.387.574-.42 2.408-1.62 2.675-1.542.394.109.352.549-.236.95-.588.401-2.245 1.732-2.01 2.024.236.292 3.123-1.869 3.123-1.869s.542-.56.823-.232c.51.591-2.731 2.66-3.044 2.85-.219.131.024.459.25.304.225-.155 2.833-2.218 3.358-1.62.4.458-2.651 1.725-2.954 2.464-.302.74 2.218-1.196 2.584-.742.137.169.215.313-1.39 1.21-.782.433-3.64 1.61-3.64 1.61l-.303.313-12.239 12.675-11.236 4.495-1.802-6.29z" fill="#FFBE9D"/><path d="M19.712 147.21l-1.795 8.149-3.284 6.037a.853.853 0 00.789 1.263.86.86 0 00.386-.112c1.528-.884 7.132-4.161 7.23-4.763.117-.704 2.464-8.473 2.464-8.473l-5.79-2.101z" fill="#0075FF"/><path opacity=".6" d="M15.027 162.582l8.149-5.347-.085.352a1.291 1.291 0 01-.496.736c-.662.478-2.524 1.76-6.762 4.224a.862.862 0 01-.806.031v.004zm7.124-8.371a.523.523 0 00-.299.623.498.498 0 00.616.303.548.548 0 00.314-.662.52.52 0 00-.676-.243" fill="#fff"/><path d="M17.748 159.495a2.6 2.6 0 00-.556-.806 2.62 2.62 0 00-.89-.409c0-.021.115-.059.313-.038.26.03.504.137.704.306.2.165.347.383.425.63.043.19.025.313.004.317zm-.852.943c-.046.025-.243-.303-.634-.524-.39-.222-.764-.243-.764-.3a.952.952 0 01.86.141c.45.257.594.669.538.683zm2.267-2.073a8.219 8.219 0 00-.922-.877 8.006 8.006 0 00-1.134-.573c.451-.009.89.143 1.24.429.386.231.676.593.816 1.021zm.757-2.429c-.036.046-.437-.253-1.014-.415-.577-.162-1.074-.138-1.08-.194.366-.126.766-.12 1.13.018.38.077.722.286.964.591zm.588-2.383a4.241 4.241 0 00-1.056-.461 4.189 4.189 0 00-1.141 0c0-.021.102-.102.317-.162.281-.077.577-.086.862-.025.284.055.55.176.778.352.187.162.257.282.24.296zm-.916-.912a.704.704 0 01.064-.309 2.23 2.23 0 01.44-.743.99.99 0 01.517-.352.35.35 0 01.352.169.56.56 0 01.039.398 1.206 1.206 0 01-1.292.83 1.402 1.402 0 01-1.162-1.038.468.468 0 01.074-.398.348.348 0 01.384-.091c.19.092.35.233.468.408.176.231.31.491.398.767.04.098.06.204.056.31a4.067 4.067 0 00-.57-.996 1.158 1.158 0 00-.415-.352.179.179 0 00-.211.049.352.352 0 00-.032.264 1.25 1.25 0 001.017.891 1.055 1.055 0 001.112-.704.412.412 0 000-.278.188.188 0 00-.081-.079.18.18 0 00-.112-.016.862.862 0 00-.444.288 3.175 3.175 0 00-.602.982z" fill="#263238"/><path d="M45.126 150.212l-.246 6.527s6.55 2.442 6.621 3.653l-12.672-.024-.032-10.187 6.33.031z" fill="#0075FF"/><path opacity=".6" d="M40.962 156.182a.518.518 0 00-.352.588.5.5 0 00.581.352.544.544 0 00.377-.626.514.514 0 00-.644-.31m-2.094 4.182l.038-1.028 12.133.408s.564.247.5.644l-12.672-.024z" fill="#fff"/><path d="M45.084 156.675c0 .06-.31.088-.616.285-.306.197-.468.458-.524.437-.057-.021.035-.384.408-.616.373-.233.746-.162.732-.106zm1.327.553c0 .06-.253.162-.464.426-.212.264-.271.535-.331.535s-.102-.352.165-.676c.268-.324.63-.345.63-.285zm.757 1.591c-.056 0-.14-.296 0-.634s.45-.475.475-.422c.025.053-.155.232-.281.51-.127.278-.138.539-.194.546zm-2.193-3.64c-.025.056-.31-.028-.658 0-.349.028-.623.134-.655.081-.032-.053.229-.274.644-.296.416-.021.7.169.669.215z" fill="#263238"/><path opacity=".3" d="M45.077 151.504l-.042 1.162-6.23-.067-.004-1.049 6.276-.046z" fill="#000"/><path d="M45.003 153.863a1.229 1.229 0 01-.637 0 3.03 3.03 0 01-1.028-.402.73.73 0 01-.19-.147.28.28 0 01-.028-.331.353.353 0 01.271-.141.777.777 0 01.24.035c.365.086.702.266.978.521.292.271.394.503.373.514-.02.011-.172-.173-.471-.398a2.447 2.447 0 00-.916-.433c-.133-.035-.246-.035-.281.025-.035.06 0 .032 0 .07a.61.61 0 00.14.109c.113.072.23.136.352.19.197.099.402.179.613.24.198.036.393.085.584.148z" fill="#263238"/><path d="M44.922 153.951c-.024 0-.144-.211-.169-.613a2.227 2.227 0 01.088-.704c.044-.133.1-.263.166-.387a.525.525 0 01.405-.32.3.3 0 01.264.179.794.794 0 01.063.233 1.467 1.467 0 01-.271 1.084c-.25.327-.507.401-.514.38-.007-.021.197-.151.387-.468.11-.181.179-.384.2-.595a1.289 1.289 0 000-.352c0-.134-.07-.243-.119-.229a.461.461 0 00-.222.208 2.1 2.1 0 00-.158.352 2.157 2.157 0 00-.123.633c-.028.359.035.592.003.599zM32.76 78.56s-4.005 6.335-4.575 8.75c-.518 2.172-9.283 49.368-11.095 59.136a1.995 1.995 0 001.39 2.278l7.92 2.386a2.008 2.008 0 001.597-.2 1.997 1.997 0 00.934-1.31l9.789-45.711-2.862 45.303a2.312 2.312 0 001.443 2.296c.3.121.62.178.944.168l7.765-.24a2.321 2.321 0 002.214-2.168c.676-10.912 3.71-60.544 3.101-62.096-.686-1.76-2.485-7.836-2.485-7.836l-16.08-.757z" fill="#263238"/><path d="M29.593 147.379a2.483 2.483 0 01-.486-.06c-.313-.049-.76-.134-1.31-.246a58.032 58.032 0 01-4.262-1.056 52.637 52.637 0 01-4.175-1.398c-.524-.2-.947-.369-1.236-.496a2.795 2.795 0 01-.443-.208c.16.032.317.081.468.145l1.257.436c1.056.37 2.527.859 4.17 1.338 1.645.478 3.148.855 4.225 1.112l1.295.303c.17.029.335.072.497.13zm-9.828-2.894a1.323 1.323 0 01-.504-.869 1.369 1.369 0 01.064-.996c.056 0 0 .447.116.957.116.511.366.877.324.908zm.975-1.682c.058.315.025.639-.095.936a1.642 1.642 0 01-.437.831c.059-.302.146-.598.26-.884a4.53 4.53 0 01.272-.883zm24.872 2.386c.133.256.21.537.225.824.079.278.094.571.046.856a4.044 4.044 0 01-.27-1.68zm.948-.443a4.41 4.41 0 01-.026 1.76 2.15 2.15 0 01-.08-.887 2.172 2.172 0 01.105-.873zm-4.37-63.98a.873.873 0 010 .25c0 .18 0 .42-.024.704-.024.62-.08 1.514-.158 2.62-.162 2.21-.465 5.262-.958 8.606a138.522 138.522 0 01-1.52 8.525 119.317 119.317 0 01-.556 2.566c-.067.285-.124.518-.162.704-.017.082-.04.162-.07.239 0-.083.01-.165.03-.246.036-.179.078-.412.131-.704.123-.626.292-1.503.5-2.573.419-2.175.975-5.185 1.468-8.525.493-3.34.813-6.386 1.006-8.593.088-1.088.162-1.974.219-2.612.024-.292.042-.531.06-.704.004-.086.016-.172.035-.257z" fill="#455A64"/><path d="M49.28 80.76a.581.581 0 01-.176.02l-.51.025a92.56 92.56 0 01-1.873.05 146.755 146.755 0 01-12.355-.346 77.03 77.03 0 01-1.87-.154l-.506-.053a.603.603 0 01-.176-.032.7.7 0 01.18 0l.51.021 1.869.095c1.577.081 3.76.18 6.17.25 2.412.07 4.597.088 6.178.095h2.383c.06 0 .12.01.176.028z" fill="#455A64"/><path d="M43.539 80.682c.015.2.015.4 0 .598 0 .416-.032.965-.053 1.63a411.657 411.657 0 01-.246 5.372c-.057 1.056-.095 2.048-.166 2.96a5.824 5.824 0 01-.616 2.351c-.262.49-.65.9-1.126 1.186a2.11 2.11 0 01-.409.184.765.765 0 01-.154.031c0-.02.207-.067.524-.274.447-.3.811-.71 1.056-1.19a5.852 5.852 0 00.56-2.302c.06-.905.095-1.908.151-2.953.11-2.113.215-4 .3-5.372l.112-1.626c.006-.2.028-.399.067-.595zm-9.043 3.908c.02.134.02.272 0 .407a5.87 5.87 0 01-.197 1.095 6.657 6.657 0 01-5.125 4.787 5.832 5.832 0 01-1.105.12 1.34 1.34 0 01-.409-.028c.499-.046.995-.119 1.486-.218a6.84 6.84 0 005.03-4.7 14.3 14.3 0 00.32-1.464zm16.79 6.624s-.102 0-.278-.07a4.199 4.199 0 01-.704-.31 5.936 5.936 0 01-.96-.645 6.815 6.815 0 01-.99-1.017 6.684 6.684 0 01-.732-1.218 5.84 5.84 0 01-.373-1.094 4.393 4.393 0 01-.12-.768.932.932 0 010-.288c.035 0 .064.4.24 1.024.103.363.239.716.404 1.056.203.415.446.808.725 1.175.285.364.603.7.95 1.004.287.244.593.464.916.658.55.327.933.447.922.493zM37.192 85.74v.159c0 .102-.035.267-.06.464a356.201 356.201 0 01-1.221 8.268 499.127 499.127 0 01-3.872 21.357c-1.69 8.303-3.527 15.787-4.9 21.172-.686 2.69-1.26 4.865-1.675 6.361-.204.743-.352 1.324-.475 1.725l-.13.447c-.014.051-.03.102-.05.151 0 0 0-.053.032-.155.031-.102.063-.26.112-.454.102-.405.25-.985.444-1.732.39-1.503.947-3.682 1.616-6.374a551.597 551.597 0 004.815-21.166 535.575 535.575 0 003.942-21.342c.45-2.742.8-4.963 1.035-6.498.12-.76.211-1.355.278-1.76l.074-.457c.021-.113.035-.166.035-.166zm6.456 61.593a1.179 1.179 0 010-.148c0-.109.021-.253.032-.436.035-.394.08-.958.144-1.683.13-1.464.32-3.573.553-6.17.464-5.213 1.193-12.408 1.742-20.371.271-3.984.454-7.782.532-11.242.077-3.461.056-6.572 0-9.188a123.768 123.768 0 00-.303-6.188c-.053-.721-.092-1.285-.123-1.679 0-.186-.018-.33-.025-.436a.71.71 0 010-.152.801.801 0 01.021.148c0 .106.025.25.046.437.035.394.088.957.155 1.679.127 1.457.264 3.573.352 6.188.088 2.615.123 5.734.05 9.194-.075 3.46-.247 7.265-.518 11.264-.55 7.969-1.3 15.161-1.795 20.37-.261 2.598-.469 4.703-.613 6.167-.077.722-.134 1.285-.176 1.679-.021.183-.039.328-.05.433a.96.96 0 01-.024.134z" fill="#455A64"/><path d="M48.439 146.513c0 .053-2.781.401-6.227.778-3.446.376-6.245.648-6.252.598-.007-.049 2.785-.401 6.23-.778 3.447-.376 6.245-.647 6.249-.598z" fill="#455A64"/><path d="M37.974 37.125a4.577 4.577 0 00-.764 4.548c.398 1.014 1.176 1.943 1.109 3.031-.081 1.348-1.458 2.4-1.38 3.749.084 1.52 2.028 2.464 2.028 3.998 0 1.535-.937 2.134-2.743 2.465-1.158.21-1.802-1.222-2.376-2.25-.573-1.028-.76-2.224-.88-3.386a34.49 34.49 0 01-.088-5.847c.106-1.573.352-3.189 1.158-4.537a5.882 5.882 0 013.873-2.693" fill="#263238"/><path d="M45.672 39.941c-.58.887-2.422.352-3.52-.27a2.65 2.65 0 01-3.615-.747c-.637.81-1.93.542-2.4-.352-.472-.894-.208-2.172.44-2.974a4.174 4.174 0 012.53-1.377 5.87 5.87 0 015.963 2.464c.612.926.982 2.172.616 3.281" fill="#263238"/><path d="M45.69 39.776c-.032.021-.352-.553-1.056-1.334a7.272 7.272 0 00-3.344-2.19 5.664 5.664 0 00-3.94.303 4.843 4.843 0 00-1.33 1.01s0-.038.06-.102c.064-.094.136-.182.215-.264.284-.31.621-.566.996-.756a5.58 5.58 0 014.048-.352 6.612 6.612 0 012.038 1.01 7.853 7.853 0 012.08 2.284c.092.122.17.253.233.391z" fill="#455A64"/><path d="M40.223 40.128c-.028 0-.098-.313-.317-.782a3.69 3.69 0 00-1.263-1.527 2.816 2.816 0 00-1.901-.444 5.066 5.066 0 00-.806.222s.056-.063.186-.137a2.04 2.04 0 01.599-.215 2.777 2.777 0 012.024.419c.58.402 1.026.97 1.278 1.63.123.261.191.545.2.834z" fill="#455A64"/><path d="M34.574 55.232s-4.752 1.355-6.53 4.284c-1.778 2.929-7.276 23.556-7.276 23.556l6.287.704 5.23-13.728 1.292 4.29-.823 4.225 16.093.753 1.137-18.497 17.188-8.371 1.936-2.006-4.998-5.28-1.908 1.78-17.248 6.32s.64 5.096-4.01 5.835c-4.65.74-6.37-3.865-6.37-3.865z" fill="#0075FF"/><path d="M47.598 62.142h-3.83v.996h3.83v-.996z" fill="#FAFAFA"/><path d="M30.508 63.955c.05 0 .767 2.246 1.608 5.051.842 2.805 1.479 5.087 1.43 5.104-.05.018-.768-2.25-1.606-5.051-.837-2.802-1.482-5.09-1.432-5.104zm22.552-7.181a11.845 11.845 0 00-1.936 1.89c-.52.742-.95 1.541-1.284 2.383.022-.27.09-.534.2-.781a6.758 6.758 0 012.324-3.084c.208-.173.443-.311.696-.408z" fill="#263238"/><path opacity=".2" d="M30.81 64.926a24.99 24.99 0 00-.545 5.28c-.015.44.036.879.151 1.303a1.66 1.66 0 00.785 1.01c.476-.683.968-1.408 1.056-2.239a4.77 4.77 0 00-.27-1.71c-.362-1.275-.726-2.549-1.092-3.823" fill="#000"/><path d="M35.024 54.236c.852.595 1.137 1.74 1.098 2.774-.039 1.035-.352 2.049-.39 3.087-.04 1.038.214 2.179 1.055 2.795l4.09-1.387c-.805-.461-.974-1.566-.798-2.464.176-.898.602-1.76.647-2.696.13-2.433-1.619-4.51-2.435-5.499" fill="#263238"/><path d="M51.818 151.473l-1.584 9.06h7.835l.866-8.567-7.117-.493z" fill="#0075FF"/><path d="M58.228 159.808a5.444 5.444 0 01-1.14.067c-.705 0-1.68 0-2.753-.053l-2.75-.116a6.055 6.055 0 01-1.14-.092 5.615 5.615 0 011.144-.059c.704 0 1.68 0 2.753.052l2.749.113c.38-.005.761.024 1.137.088z" fill="#263238"/><path opacity=".6" d="M50.234 160.533h7.835l.074-.743-7.768-.193-.141.848" fill="#fff"/><path d="M54.06 159.787c.08-1.159.224-2.313.43-3.457.142-1.151.345-2.295.609-3.425a32.93 32.93 0 01-.43 3.453 34.232 34.232 0 01-.609 3.429z" fill="#263238"/><path d="M57.795 159.773a3.756 3.756 0 00-.134-1.644 3.252 3.252 0 00-.989-1.461 3.168 3.168 0 00-2.017-.704 3.317 3.317 0 00-2.038.662c-.476.371-.85.855-1.091 1.408a4.517 4.517 0 00-.352 1.623s0-.039-.025-.116a2.298 2.298 0 010-.352c.013-.419.101-.831.26-1.218.237-.58.619-1.09 1.11-1.479a3.44 3.44 0 012.143-.704 3.217 3.217 0 013.126 2.32c.124.4.164.822.116 1.239-.01.113-.032.225-.063.334-.025.057-.04.095-.046.092z" fill="#263238"/><path d="M85.515 148.942l1.904 6.244s6.991.162 7.456 1.282l-11.968 4.129-3.369-9.61 5.977-2.045z" fill="#0075FF"/><path opacity=".6" d="M83.537 155.936a.518.518 0 00-.145.672.49.49 0 00.666.152.545.545 0 00.151-.704.51.51 0 00-.336-.181.507.507 0 00-.368.1m-.609 4.621l-.303-.982 11.599-3.59s.612.049.683.444l-11.979 4.128z" fill="#fff"/><path d="M87.595 155.06c.018.059-.267.186-.49.475-.22.288-.291.584-.351.581-.06-.004-.092-.374.183-.704.275-.331.651-.412.658-.352zm1.433.084c.035.053-.183.239-.3.556-.115.317-.08.599-.137.616-.056.018-.21-.303-.063-.704.148-.401.482-.521.5-.468zm1.232 1.26c-.046.032-.229-.232-.19-.605.039-.373.27-.595.31-.556.038.038-.067.271-.096.577-.028.306.032.556-.024.584zM87 153.683c0 .064-.302.074-.623.211-.32.138-.545.328-.595.289-.049-.039.13-.334.51-.489.381-.155.722-.067.708-.011z" fill="#263238"/><path opacity=".3" d="M85.892 150.177l.341 1.113-5.907 1.978-.348-.989 5.914-2.102z" fill="#000"/><path d="M86.592 152.416a1.192 1.192 0 01-.602.204 2.91 2.91 0 01-1.112-.039.836.836 0 01-.233-.081.27.27 0 01-.134-.302.346.346 0 01.212-.222.948.948 0 01.236-.046c.14-.012.28-.012.419 0 .233.021.461.079.675.173.353.162.54.352.522.352-.018 0-.219-.109-.574-.226a2.605 2.605 0 00-.637-.116 2.458 2.458 0 00-.384 0c-.137 0-.246.046-.257.113-.01.067 0 .035.035.063a.56.56 0 00.17.057c.13.03.257.055.38.074.216.027.435.034.654.021.21-.022.42-.031.63-.025z" fill="#263238"/><path d="M86.546 152.539c-.017 0-.204-.151-.352-.524a2.068 2.068 0 01-.116-1.102.521.521 0 01.278-.433.296.296 0 01.31.081c.054.059.1.126.137.197.176.344.21.743.095 1.112-.126.391-.352.546-.352.528a4.7 4.7 0 00.212-.566 1.461 1.461 0 000-.63 1.184 1.184 0 00-.13-.352c-.064-.12-.145-.208-.19-.18-.047.028-.127.151-.142.271-.023.124-.035.25-.035.377 0 .215.03.429.088.637.088.369.243.567.197.584z" fill="#263238"/><path d="M50.385 69.981l-2.256 4.643a5.689 5.689 0 00.93 6.336 5.691 5.691 0 004.825 1.799l8.772-1v-5.217l-8.631.25 2.158-3.798-5.798-3.013z" fill="#B78876"/><path d="M61.498 53.469c-1.447-2.443-1.862-5.699-2.228-8.515-.173-1.327-.475-3.214.457-4.044 1-.888 1.095-2.257 2.243-2.943 1.147-.687 2.703-.743 3.787.042" fill="#263238"/><path d="M65.504 62.128a3.92 3.92 0 004.224-3.749c.088-2.133.165-4.29.165-4.29s3.239-.296 3.481-3.496c.243-3.2.159-10.595.159-10.595a11.155 11.155 0 00-11.264.704l.169 11.264-.021 6.065c.01 2.024 1.063 3.921 3.087 4.097z" fill="#B78876"/><path d="M70.203 46.675c-.553-.686-1.447-.964-2.186-.485a1.862 1.862 0 00-.627 2.326 2.464 2.464 0 001.567 1.19 1.233 1.233 0 01.957 1.327c-.095.806-1.432 1.102-2.038 1.76-.94 1.031-3.002 1.464-4.39 1.623-1.386.158-1.2.169-1.988-.954a4.28 4.28 0 01-.77-2.602l-.128-7.082c-.05-.85.007-1.704.17-2.541a3.422 3.422 0 011.344-2.112c.781-.51 1.76-.55 2.658-.834 1.108-.352 2.052-1.088 3.09-1.616 1.038-.528 2.313-.841 3.355-.317.746.377 1.246 1.127 1.97 1.542 1.032.591 2.444.461 2.94 1.985a2.58 2.58 0 01-.021 1.63c-.704 2.07-3.277 2.897-5.122 1.996-.035.352.307 1.133-.066 2.238-.12.352-.163.895-.705.905" fill="#263238"/><path d="M69.622 48.671s0 .06-.042.137a.479.479 0 01-.352.18.883.883 0 01-.827-.887.911.911 0 01.24-.676.948.948 0 01.499-.289c.33-.067.52.053.507.074-.014.021-.197 0-.461.081a.806.806 0 00-.556.8.753.753 0 00.602.735c.26.014.37-.176.39-.155z" fill="#7C5142"/><path d="M61.744 41.332a3.749 3.749 0 10-5.132-2.535.932.932 0 010 .662c-.137.236-.457.268-.704.352-.904.352-1.028 1.721-.352 2.429.676.707 1.76.806 2.704.556-.23.82.51 1.7 1.358 1.799a2.365 2.365 0 002.148-1.14 5.385 5.385 0 00.728-2.433" fill="#263238"/><path d="M63.916 37.439c.017.107.017.216 0 .324a4.854 4.854 0 01-.127.887 5.372 5.372 0 01-3.949 3.988c-.29.07-.586.112-.884.127a.923.923 0 01-.327 0c0-.032.465-.04 1.18-.24a5.57 5.57 0 003.871-3.896c.197-.726.201-1.194.236-1.19z" fill="#F5F5F5"/><path d="M60.368 34.471s.032-.02.095-.035c.095-.024.194-.035.292-.032.37.017.723.152 1.01.384.2.157.37.348.504.563.15.25.255.524.31.81a4.68 4.68 0 01-.078 1.954 7.927 7.927 0 01-1.503 3.168 6.692 6.692 0 01-.704.788c-.09.097-.192.18-.306.247-.025-.025.398-.395.926-1.113a8.512 8.512 0 001.425-3.147c.158-.614.19-1.253.092-1.88a2.466 2.466 0 00-.275-.767 2.113 2.113 0 00-.454-.538 1.739 1.739 0 00-.95-.377c-.243-.042-.384 0-.384-.025z" fill="#455A64"/><path d="M56.468 39.579s.028-.095.116-.24c.127-.205.277-.395.447-.566a3.763 3.763 0 014.425-.704c.214.11.416.241.601.394.13.11.19.18.184.19-.008.01-.3-.225-.842-.468a3.872 3.872 0 00-4.28.704c-.447.38-.623.707-.651.69zm6.301 1.253c.017-.021.422.306 1.12.774a17.352 17.352 0 002.868 1.57c.55.241 1.113.451 1.686.63a5.43 5.43 0 001.408.307c.325.014.646-.067.926-.233.193-.12.27-.229.285-.218.014.01-.053.13-.246.278a1.62 1.62 0 01-.965.303 5.064 5.064 0 01-1.471-.278 15.133 15.133 0 01-4.576-2.25 9.991 9.991 0 01-.785-.623 1.408 1.408 0 01-.25-.26z" fill="#455A64"/><path d="M61.804 36.784a1.404 1.404 0 01-.035-.447 3.52 3.52 0 01.222-1.2 2.415 2.415 0 011.204-1.345 1.92 1.92 0 011.08-.194c.4.051.772.235 1.056.521.283.28.49.628.599 1.01.094.354.12.722.077 1.085a4.334 4.334 0 01-.612 1.707c-.214.347-.449.68-.704.996a2.017 2.017 0 01-.296.352c.068-.133.148-.26.24-.38.158-.236.397-.574.643-1.017a4.42 4.42 0 00.56-1.662 2.724 2.724 0 00-.084-1.017 2.235 2.235 0 00-.553-.93 1.679 1.679 0 00-.95-.474 1.784 1.784 0 00-.982.169A2.327 2.327 0 0062.11 35.2a3.9 3.9 0 00-.271 1.158 4.245 4.245 0 01-.036.426z" fill="#263238"/><path d="M98.335 29.374c-.521-.264-2.024 2.531-2.049 1.76-.025-.77 2.232-3.2 1.676-3.453-.725-.33-2.243 2.623-2.387 2.862-.144.24-.5.039-.352-.172.208-.303 2.306-3.52 1.598-3.872-.394-.183-.654.552-.654.552s-1.743 3.168-2.074 2.992c-.33-.176.627-2.059.996-2.671.37-.613.222-1.028-.18-.968-.274.042-1.45 1.897-1.798 2.513-.348.616-1.281 2.323-1.507 1.109-.225-1.215-.858-2.063-1.186-2.176a.391.391 0 00-.387.623c.206.363.36.753.458 1.158.09.324.127.66.105.997a16.81 16.81 0 01-.105.996l-.687 1.44s-4.97 11.316-5.818 12.95c-.849 1.633-7.744 8.771-7.744 8.771l1.454 8.353L88.868 51.04l5.903-16.614.145-.412s2.112-2.25 2.647-2.968c1.095-1.478.964-1.573.77-1.672z" fill="#B78876"/><path d="M57.063 85.402s-3.52 7.955-4.274 15.84l-3.72 50.572 12.415 1.306 3.636-52.423s11.39 52.895 11.838 52.895c.447 0 9.993-3.556 9.993-3.556L75.722 85.659l-18.66-.257z" fill="#455A64"/><path d="M70.4 101.985c0 .06-2.53-.503-5.632-1.257-3.101-.753-5.583-1.408-5.565-1.474.018-.067 2.527.5 5.632 1.253 3.105.753 5.565 1.415 5.565 1.478z" fill="#263238"/><path d="M62.209 142.173s-.042 0-.13.024a3.17 3.17 0 01-.377.036 7.316 7.316 0 01-1.387-.085 13.647 13.647 0 01-2.003-.486c-.739-.232-1.538-.524-2.38-.802-.789-.265-1.6-.46-2.425-.581a7.376 7.376 0 00-2.023 0 6.415 6.415 0 00-1.782.567.464.464 0 01.106-.078c.105-.07.214-.133.327-.19a4.625 4.625 0 011.327-.426 7.153 7.153 0 012.067-.024c.837.113 1.663.306 2.464.577l2.376.813c.644.219 1.302.391 1.97.517.62.095 1.244.141 1.87.138zm.049-4.266a3.897 3.897 0 01-.507 0 11.09 11.09 0 00-1.376.038c-1.162.085-2.728.461-4.477.824-.827.17-1.664.277-2.507.32a8.616 8.616 0 01-2.059-.137 6.057 6.057 0 01-1.327-.422 3.802 3.802 0 01-.334-.176.422.422 0 01-.11-.074 9.22 9.22 0 001.796.542c1.14.215 2.763.127 4.505-.233 1.743-.359 3.327-.721 4.506-.77a8.564 8.564 0 011.387.017c.17.003.339.027.503.071zm22.138-4.939a.404.404 0 01-.067.113c-.073.103-.156.2-.247.288-.34.322-.75.562-1.197.704a5.168 5.168 0 01-2.045.215c-.774-.056-1.605-.243-2.464-.387a8.243 8.243 0 00-2.464-.067 7.856 7.856 0 00-1.946.517 12.63 12.63 0 00-1.651.873s.028-.035.091-.091a6.658 6.658 0 011.507-.901 7.408 7.408 0 011.978-.563 7.967 7.967 0 012.514.052c.88.145 1.7.335 2.464.398a5.215 5.215 0 001.992-.169 3.25 3.25 0 001.186-.63c.229-.215.335-.362.349-.352zm1.876 9.321a2.222 2.222 0 01-.328.387 7.99 7.99 0 01-1.03.922 9.797 9.797 0 01-4.165 1.82 10.061 10.061 0 01-4.537-.246 8.969 8.969 0 01-1.3-.486 2.271 2.271 0 01-.443-.246c.161.049.319.109.472.179.425.17.86.314 1.302.43a10.49 10.49 0 004.474.186c1.484-.27 2.89-.863 4.119-1.739.94-.679 1.404-1.235 1.436-1.207zm-3.08-13.204h-.49c-.444.022-.88.123-1.288.3a7.074 7.074 0 00-1.672 1.038c-.584.468-1.19 1.038-1.908 1.545a5.075 5.075 0 01-2.277.937c-.667.09-1.343.09-2.01 0a14.766 14.766 0 01-1.33-.233 2.68 2.68 0 01-.483-.123c.166.001.331.02.493.056.317.043.77.117 1.334.169a7.742 7.742 0 001.971-.028 5.028 5.028 0 002.2-.922c.704-.496 1.31-1.056 1.904-1.524a6.76 6.76 0 011.732-1.028 3.406 3.406 0 011.334-.25c.119.005.236.019.352.042a.4.4 0 01.138.021zm-19.878-2.013s-.035.032-.112.077a2.778 2.778 0 01-.352.176c-.442.189-.91.308-1.387.352a7.592 7.592 0 01-2.112-.095 20.08 20.08 0 01-2.51-.637 22.347 22.347 0 00-2.482-.651 8.175 8.175 0 00-2.076-.144 6.352 6.352 0 00-1.859.468.415.415 0 01.116-.074c.113-.067.23-.126.352-.176a4.72 4.72 0 011.387-.352 7.671 7.671 0 012.112.106c.85.161 1.688.375 2.51.64.808.264 1.63.481 2.464.648.683.134 1.381.179 2.077.134a6.218 6.218 0 001.872-.472zm18.216-8.656s0 .05-.035.134a2.523 2.523 0 01-.151.352 3.985 3.985 0 01-.887 1.134 5.956 5.956 0 01-1.824 1.105 11.12 11.12 0 01-2.537.595c-.916.119-1.789.197-2.574.317a16.71 16.71 0 00-2.07.369 3.55 3.55 0 00-1.242.644 4.789 4.789 0 01-.398.352.46.46 0 01.081-.109c.084-.099.175-.194.271-.281.36-.322.785-.562 1.246-.704a14.26 14.26 0 012.088-.412c.788-.134 1.665-.211 2.573-.352a11.611 11.611 0 002.502-.571 6.066 6.066 0 001.8-1.056 4.742 4.742 0 001.157-1.517zm-30.335-1.017a7.027 7.027 0 001.76.824 5.53 5.53 0 002.09.183 6.6 6.6 0 002.43-.834c.813-.437 1.562-.916 2.309-1.247a5.618 5.618 0 012.087-.524c.49-.028.98.058 1.433.25.123.054.24.12.352.197.04.022.077.051.109.085 0 .017-.166-.092-.479-.215a3.355 3.355 0 00-1.408-.19 5.731 5.731 0 00-2.024.549c-.725.352-1.471.816-2.295 1.256a6.453 6.453 0 01-2.5.838 5.403 5.403 0 01-2.14-.222 5.03 5.03 0 01-1.312-.619 2.791 2.791 0 01-.317-.236.45.45 0 01-.095-.095zm28.335-9.254a2.505 2.505 0 01-.274.444c-.284.38-.602.733-.95 1.056a8.12 8.12 0 01-4.192 2.02c-.858.111-1.726.111-2.584 0a8.391 8.391 0 00-2.077.021 3.605 3.605 0 00-1.306.465c-.281.176-.412.31-.422.299-.01-.011.024-.042.084-.106.094-.091.194-.176.3-.253a3.457 3.457 0 011.32-.532 7.906 7.906 0 012.111-.063 10.47 10.47 0 002.545-.028 8.304 8.304 0 004.136-1.936c.47-.43.908-.893 1.31-1.387zm-15.705-.884a6.966 6.966 0 00-1.785-.352 5.281 5.281 0 00-1.929.314c-.352.123-.704.32-1.074.475-.2.085-.41.141-.626.165-.227.02-.455-.01-.669-.088a5.894 5.894 0 01-1.112-.637 4.838 4.838 0 00-1.056-.489 5.17 5.17 0 00-1.936-.257 6.942 6.942 0 00-1.76.391s.035-.028.109-.067a4.866 4.866 0 011.672-.454 5.15 5.15 0 011.996.225c.381.121.747.289 1.087.5.338.241.699.447 1.077.616a1.58 1.58 0 001.17-.071c.369-.147.703-.351 1.083-.468a5.211 5.211 0 011.989-.285 4.835 4.835 0 011.683.401c.045.053.084.074.08.081zm15.705-1.263a2.77 2.77 0 01-.38.383c-.356.34-.734.655-1.133.944-.253.179-.528.387-.845.57-.158.095-.316.201-.485.296l-.535.278a12.4 12.4 0 01-2.524.919 11.92 11.92 0 01-2.668.302l-.602-.017c-.197 0-.384-.036-.567-.05-.37-.024-.704-.098-1.01-.147a11.31 11.31 0 01-1.43-.352 3.403 3.403 0 01-.506-.191c0-.038.739.222 1.957.43.306.042.64.105 1.003.123.18 0 .352.035.56.039h.595c.883-.01 1.764-.114 2.626-.31a12.866 12.866 0 002.488-.894l.532-.268c.172-.091.33-.193.489-.285.317-.172.588-.376.848-.545a13.98 13.98 0 001.162-.891c.132-.123.274-.235.426-.334zm-2.136-10.074a1.297 1.297 0 01-.229.14l-.675.352c-.592.307-1.447.754-2.549 1.218-1.286.564-2.645.94-4.037 1.12a9.68 9.68 0 01-2.486-.043 14.184 14.184 0 01-2.573-.704c-1.714-.623-3.284-1.365-4.804-1.76a11.502 11.502 0 00-4.119-.323 11.935 11.935 0 00-3.439.876c-.082.038-.167.07-.253.095.07-.037.143-.069.218-.095a8.31 8.31 0 01.704-.306 11.187 11.187 0 012.746-.669 11.515 11.515 0 014.178.289c1.538.39 3.118 1.13 4.819 1.76.824.305 1.675.535 2.541.686a9.505 9.505 0 002.44.056 15.08 15.08 0 004.005-1.073c1.102-.447 1.964-.873 2.566-1.162l.704-.334c.078-.047.16-.089.243-.123zm-.732-5.249A3.58 3.58 0 0076 90.06a4.245 4.245 0 00-2.358-.62c-.569.002-1.133.1-1.669.293a23.87 23.87 0 00-1.82.76 21.55 21.55 0 01-4.255 1.612 16.192 16.192 0 01-10.56-.96c-.271-.127-.472-.233-.613-.303a1.058 1.058 0 01-.204-.12c.077.02.151.049.222.084l.623.275c.77.316 1.558.58 2.362.792 1.194.304 2.418.477 3.65.514a16.563 16.563 0 004.481-.458 22.18 22.18 0 004.224-1.584 21.79 21.79 0 011.841-.75 4.873 4.873 0 011.718-.281 4.224 4.224 0 012.397.704 2.464 2.464 0 01.623.658z" fill="#FAFAFA"/><path d="M83.751 57.996l-4.949-6.505-.218.158-7.895 4.97-8.427.292s-5.91 0-8.128 4.657c-.243.51-5.097 10.208-5.097 10.208l7.494 2.75 1.215-3.464 1.548 7.856-2.231 6.477 18.782 1.007-1.573-9.406 1.408-11.263 8.071-7.737z" fill="#0075FF"/><path d="M70.675 73.163c.024.18.024.362 0 .542a5.14 5.14 0 01-.352 1.436 6.994 6.994 0 01-3.288 3.52 9.717 9.717 0 01-4.745.95 10.552 10.552 0 01-1.468-.15 2.186 2.186 0 01-.524-.124c0-.042.763.102 1.995.113 1.602.04 3.191-.3 4.636-.993a7.089 7.089 0 003.246-3.368c.243-.62.41-1.266.5-1.926zm-11.307 6.118c-.063 0-.964-4.066-2.013-9.106-1.05-5.04-1.852-9.152-1.788-9.152.063 0 .96 4.065 2.013 9.106 1.053 5.04 1.852 9.138 1.788 9.152z" fill="#263238"/><path opacity=".2" d="M61.684 79.605c-.204-.74.374-1.496 1.056-1.827.683-.331 1.482-.373 2.229-.55a6.259 6.259 0 003.622-2.41c.116-.166.257-.352.457-.352a.437.437 0 01.412.352c.07.228.082.47.035.704-.352 1.802-1.805 2.555-3.294 3.354-1.49.8-2.683.877-4.527.729" fill="#000"/></svg>