<svg width="176" height="176" fill="none" xmlns="http://www.w3.org/2000/svg"><path d="M47.981 44.482a12.06 12.06 0 110-24.119 12.06 12.06 0 010 24.12z" fill="#EBEBEB"/><path d="M45.007 29.737H42.51V37.8h2.496v-8.064zm-1.26-1.057a1.489 1.489 0 10.028-2.976 1.489 1.489 0 00-.028 2.977zm5.251 4.887c0-1.134.521-1.81 1.521-1.81.915 0 1.359.648 1.359 1.81v4.224h2.481v-5.097c0-2.162-1.221-3.204-2.932-3.204a2.817 2.817 0 00-2.429 1.331v-1.084h-2.397v8.06h2.397v-4.23z" fill="#fff"/><path d="M64.141 8.41l1.651 3.016 3.02 1.654-3.02 1.651-1.65 3.017-1.651-3.017-3.02-1.65 3.02-1.655 1.65-3.017z" fill="#F5F5F5"/><path d="M133.01 90.207l1.239 2.267 2.264 1.235-2.264 1.24-1.239 2.266-1.239-2.267-2.263-1.239 2.263-1.235 1.239-2.267z" fill="#EBEBEB"/><path d="M136.513 79.028l.559 1.02 1.021.56-1.021.56-.559 1.02-.557-1.02-1.024-.56 1.024-.56.557-1.02zM52.346 9.543l.56 1.024 1.02.556-1.02.56-.56 1.02-.556-1.02-1.025-.56 1.025-.556.556-1.024zm-28.012 94.916a3.65 3.65 0 002.133-3.407c0-2.017-1.566-3.636-3.457-3.622-1.89.014-3.407 1.665-3.39 3.682a3.638 3.638 0 002.225 3.379c-5.259.863-4.949 6.586-4.949 6.586l12.457-.106s.215-5.79-5.02-6.512z" fill="#E0E0E0"/><path d="M143.841 142.187a1.938 1.938 0 00-3.826.113 1.936 1.936 0 00-1.874-1.67 1.94 1.94 0 00-1.952 1.578 2.615 2.615 0 00.472 1.89c.39.538.85 1.023 1.365 1.443.704.623 1.341 1.204 2.038 1.824.704-.627 1.278-1.215 1.968-1.841a7.583 7.583 0 001.355-1.457 2.619 2.619 0 00.454-1.88z" fill="#EBEBEB"/><path d="M151.955 67.989l1.334-.264 2.112-4.64-.528-2.664s2.038-.535 2.489 3.002c.45 3.538.535 2.598.535 2.598s4.382-.852 4.822-.546c.32.226 1.302 4.555 1.816 6.907a2.6 2.6 0 01-1.299 2.932 1.828 1.828 0 01-.461.155c-1.091.218-6.85.436-6.85.436l-2.305.458-1.665-8.374zm-3.967.024l2.629 8.97 2.288-.455-1.774-8.944-3.143.43z" fill="#E0E0E0"/><path d="M165.605 165.201c0 .052-34.907.091-77.957.091s-77.968-.039-77.968-.091c0-.053 34.9-.092 77.968-.092 43.067 0 77.957.042 77.957.092z" fill="#263238"/><path d="M138.487 64.469a14.304 14.304 0 01-19.117-6.607 14.306 14.306 0 0112.006-20.532 14.3 14.3 0 0115.133 13.42 14.294 14.294 0 01-8.022 13.719z" fill="#0075FF"/><path d="M128.698 54.803a.353.353 0 00.335-.433c-.035-.173-.13-.61-.166-.789-.049-.25-.109-.316-.352-.429a2.82 2.82 0 01-1.408-1.44c-1.077-2.217-.383-5.009 2.278-6.3 2.355-1.148 4.35-.352 5.28 1.584 1.228 2.53 1.147 5.21-.514 6.019a1.51 1.51 0 01-2.207-1.018c-.275-1.239-.352-2.685-.739-3.488-.352-.704-1.028-1.13-1.824-.743-.94.458-1.221 1.796-.588 3.095.226.48.551.907.954 1.253 0 0 1.021 4.533 1.197 5.329.352 1.58 1.486 3.168 1.595 3.347a.133.133 0 00.134.048.135.135 0 00.102-.1c.031-.155.478-2.077.186-3.64-.081-.444-.556-2.714-.556-2.714.588.433 1.728.514 2.675.053 2.816-1.373 3.485-4.875 1.809-8.318-1.263-2.601-4.65-3.953-7.997-2.323-4.171 2.027-4.819 6.037-3.608 8.529.732 1.51 1.947 2.587 3.414 2.478z" fill="#fff"/><path d="M152.768 104.811a9.85 9.85 0 01-6.341-8.94 9.871 9.871 0 01.649-3.795 9.864 9.864 0 018.938-6.342 9.857 9.857 0 013.794.647 9.86 9.86 0 016.341 8.94 9.87 9.87 0 01-.649 3.795 9.85 9.85 0 01-5.185 5.487 9.845 9.845 0 01-7.547.208z" fill="#0075FF"/><path fill-rule="evenodd" clip-rule="evenodd" d="M161.441 97.272a5.314 5.314 0 00-3.091-6.656 5.31 5.31 0 00-6.789 2.784c-.032.07-.06.144-.088.214a5.213 5.213 0 00-.261 2.816l-1.904 2.299 3.083.176a5.313 5.313 0 009.005-1.5c.017-.043.033-.088.045-.133zm-6.589 2.369a4.432 4.432 0 01-2.031-1.563l-1.799-.102 1.109-1.338a4.388 4.388 0 01.13-2.732 4.47 4.47 0 015.797-2.539 4.467 4.467 0 012.549 5.729 4.452 4.452 0 01-5.755 2.545z" fill="#fff"/><path fill-rule="evenodd" clip-rule="evenodd" d="M158.33 97.363c-.102-.105-.585-.626-.683-.704-.099-.077-.169-.134-.296-.042-.127.091-.468.271-.567.324-.098.053-.176.035-.274-.07a3.542 3.542 0 01-.75-.976 3.881 3.881 0 01-.352-1.09c-.021-.149.063-.191.148-.226.084-.035.176-.095.264-.141l.067-.042c.046-.036.089-.075.13-.116a.23.23 0 00.074-.215c0-.07-.025-.76-.035-1.038-.011-.279-.127-.279-.197-.307-.071-.028-.148-.07-.229-.098a.486.486 0 00-.384.024 1.46 1.46 0 00-.809.849 1.57 1.57 0 00-.095.433c-.021.338.019.678.116 1.003.031.102.331 1.658 1.38 2.615 1.049.958 1.115.796 1.348.86a1.29 1.29 0 001.056-.261c.149-.149.251-.339.292-.546-.039-.067-.106-.13-.204-.236z" fill="#fff"/><path d="M24.51 59.22a7.522 7.522 0 110-15.044 7.522 7.522 0 010 15.044z" fill="#0075FF"/><path d="M20.504 54.208a4.681 4.681 0 007.195-4.154 3.37 3.37 0 00.813-.84c-.301.131-.62.22-.947.26.344-.202.604-.52.732-.898a3.217 3.217 0 01-1.056.398 1.647 1.647 0 00-2.816 1.503 4.679 4.679 0 01-3.39-1.721 1.65 1.65 0 00.51 2.196 1.619 1.619 0 01-.745-.204 1.647 1.647 0 001.32 1.633 1.644 1.644 0 01-.743.028 1.647 1.647 0 001.535 1.14 3.305 3.305 0 01-2.408.659z" fill="#fff"/><path d="M38.016 143.479a12.955 12.955 0 11-.933-25.397 12.944 12.944 0 018.445 5.195 12.951 12.951 0 01-2.91 18.098 12.953 12.953 0 01-4.602 2.104z" fill="#455A64"/><path d="M33.676 125.213c1.844-.44 2.066-.485 2.816-.626a3.932 3.932 0 011.338-.067c.326.039.64.151.918.327.28.171.521.4.704.673.25.374.433.788.542 1.225.208.721.268.939.704 2.784.437 1.844.483 2.066.623 2.816.1.438.123.891.067 1.338a2.109 2.109 0 01-.327.918 2.203 2.203 0 01-.669.704 3.985 3.985 0 01-1.228.542c-.704.208-.937.268-2.781.704-1.845.437-2.067.486-2.816.627-.44.1-.894.123-1.341.067a2.192 2.192 0 01-1.602-1.021 3.892 3.892 0 01-.546-1.225c-.204-.722-.264-.936-.703-2.781-.44-1.844-.486-2.066-.627-2.816a4.053 4.053 0 01-.067-1.341 2.344 2.344 0 011-1.623c.374-.25.788-.435 1.225-.545.704-.204.94-.264 2.784-.704l-.014.024zm-.282-1.27c-1.876.447-2.112.51-2.84.721-.57.142-1.112.38-1.602.704a3.657 3.657 0 00-1.538 2.499 5.228 5.228 0 00.077 1.76c.145.743.19.983.637 2.859s.51 2.112.704 2.837c.141.57.38 1.112.704 1.601a3.49 3.49 0 001.11 1.06c.426.269.907.441 1.407.503a5.18 5.18 0 001.76-.077c.743-.141.982-.19 2.858-.637 1.877-.447 2.112-.511 2.838-.704a5.284 5.284 0 001.601-.704c.42-.283.773-.655 1.035-1.088.267-.428.44-.908.507-1.408a5.224 5.224 0 00-.081-1.76c-.14-.746-.19-.982-.637-2.858-.447-1.876-.51-2.112-.704-2.841a5.308 5.308 0 00-.704-1.601 3.481 3.481 0 00-1.088-1.032 3.434 3.434 0 00-1.408-.507 5.205 5.205 0 00-1.76.078c-.746.144-.982.19-2.858.637" fill="#fff"/><path d="M34.18 127.329a3.65 3.65 0 00-2.756 2.97 3.647 3.647 0 102.755-2.97zm1.407 5.854a2.372 2.372 0 01-2.56-3.549 2.368 2.368 0 114.032 2.486 2.382 2.382 0 01-1.472 1.063zm3.077-7.069a.854.854 0 01-.799 1.047.848.848 0 01-.805-.497.85.85 0 01.576-1.183.851.851 0 01.89.329.858.858 0 01.138.304z" fill="#fff"/><path d="M136.157 132.077a6.034 6.034 0 01-5.584-3.728 6.051 6.051 0 010-4.624 6.035 6.035 0 013.272-3.269 6.016 6.016 0 012.312-.459 6.03 6.03 0 014.278 1.765 6.043 6.043 0 01-1.963 9.859 6.028 6.028 0 01-2.315.456z" fill="#455A64"/><path d="M135.235 129.687h1.471v-3.671h1.025l.112-1.232h-1.137v-.704c0-.289.06-.405.352-.405h.799v-1.281h-1.02c-1.095 0-1.588.482-1.588 1.408v.985h-.785v1.229h.764l.007 3.671z" fill="#fff"/><path d="M115.551 165.458l-48.537-.018a10.562 10.562 0 01-10.56-10.56l.021-121.68a10.56 10.56 0 0110.581-10.56l48.534.029a10.559 10.559 0 0110.56 10.56l-.021 121.651a10.565 10.565 0 01-6.527 9.777 10.565 10.565 0 01-4.051.801z" fill="#263238"/><path d="M115.537 26.935h-9.412a2.34 2.34 0 00-2.285 2.38v1.707a2.335 2.335 0 01-2.284 2.386H83.213a2.337 2.337 0 01-2.284-2.39V29.3a2.344 2.344 0 00-2.285-2.39H67.095a7.393 7.393 0 00-7.41 7.392l-.024 118.769a7.394 7.394 0 007.392 7.392l48.442.028a7.383 7.383 0 005.227-2.165 7.394 7.394 0 002.165-5.227l.025-118.772a7.394 7.394 0 00-7.375-7.392z" fill="#fff"/><path d="M116.245 36.583c0 .032-1.225.067-2.732.078-1.506.01-2.735 0-2.735-.032s1.222-.07 2.732-.08c1.51-.011 2.735.003 2.735.034zm.01 1.397c0 .033-1.221.068-2.731.082-1.51.014-2.735 0-2.735-.035 0-.036 1.225-.067 2.735-.081 1.51-.014 2.731.003 2.731.035zm.014 1.398c0 .032-1.225.07-2.735.081-1.51.01-2.731 0-2.735-.035-.003-.035 1.225-.067 2.735-.081 1.51-.014 2.735.004 2.735.035zm-51.501 1.366h.542l1.472-.035-.043.038c0-.323 0-.679-.017-1.056v-.612a.567.567 0 01.493-.454h.704a.573.573 0 01.482.567c0 .5 0 1.017.017 1.556l-.067-.067h1.856l-.07.07c0-.746 0-1.52-.022-2.313v-.587a.587.587 0 00-.26-.437l-.81-.803-.785-.77-.377-.373c-.13-.127-.232-.257-.383-.29a.502.502 0 00-.426.082c-.113.095-.233.229-.352.352l-.669.672c-.419.433-.855.83-1.172 1.208a1.324 1.324 0 00-.092.704v2.379c.005.08.005.162 0 .243a2 2 0 010-.222v-.665c0-.264 0-.658-.024-1.056v-1.021a.76.76 0 01.102-.387c.352-.419.753-.792 1.175-1.24l.662-.678c.12-.117.215-.233.352-.352a.63.63 0 01.539-.11c.175.065.33.175.447.32l.38.374.785.77.813.796c.076.069.146.144.208.225.06.094.095.202.098.314v.591c0 .792 0 1.567.018 2.313v.07h-2.056v-1.623a.446.446 0 00-.373-.45h-.676a.454.454 0 00-.398.352v1.689h-1.928a.805.805 0 01-.145-.084z" fill="#263238"/><path d="M96.8 133.552a2.91 2.91 0 01-.51.036l-1.387.028c-1.169.017-2.788.028-4.576.028-1.788 0-3.408 0-4.576-.028l-1.387-.028a3.008 3.008 0 01-.51-.036c.168-.028.339-.04.51-.035l1.387-.032c1.168 0 2.788-.024 4.576-.024 1.788 0 3.404 0 4.576.024l1.387.032c.17-.005.341.007.51.035zm20.335 3.182c0 .053-7.452.092-16.642.092-9.191 0-16.643-.039-16.643-.092 0-.052 7.452-.091 16.643-.091 9.19 0 16.642.042 16.642.091zm-10.401 3.01c0 .053-5.122.092-11.44.092-6.319 0-11.444-.039-11.444-.092s5.122-.091 11.444-.091c6.322 0 11.44.028 11.44.091z" fill="#455A64"/><path d="M117.793 145.563l-1.034-1.039-.986.982v-2.971h2.017l.003 3.028zm-1.034-1.169l.031.032.912.915v-2.711h-1.834v2.658l.891-.894zm-26.502.781l-.353-.162a.934.934 0 01-1.2-.369.932.932 0 111.482.165l.07.366zm-.849-1.978a.949.949 0 00-.617 1.6.946.946 0 00.635.29c.16-.011.316-.06.454-.144l.27.12-.063-.264a.948.948 0 00.167-1.021.948.948 0 00-.87-.56l.024-.021zm3.192 1.827l-.415-1.021-.785-.704h1.901l-.7 1.725zm-1.024-1.665l.67.613.351.869.599-1.496-1.62.014z" fill="#263238"/><path d="M93.261 143.276l-1.038.676.038.059 1.039-.676-.038-.059z" fill="#263238"/><path d="M87.26 143.496a.59.59 0 00-.595-.468.584.584 0 00-.562.507.587.587 0 00-1.162-.021.8.8 0 00.144.574c.12.163.259.309.416.436.215.187.408.352.62.549.21-.19.386-.369.598-.559.155-.13.292-.279.408-.444a.78.78 0 00.134-.574z" fill="#0075FF"/><path d="M119.912 148.192v-1.295c0-.849 0-2.112-.017-3.717 0-3.235-.018-7.942-.032-13.845l.06.06-56.288.032.091-.092v18.857l-.088-.088 40.279.039 11.757.024h4.266-4.213l-11.739.025-40.34.042h-.09v-18.99h.098l56.288.032h.06v.059c0 5.917-.025 10.638-.032 13.883v4.654c0 .218-.06.32-.06.32z" fill="#263238"/><path d="M65.966 132.488l-.072 12.468 15.593.09.072-12.468-15.593-.09z" fill="#EBEBEB"/><path d="M81.555 132.57h-4.351l-11.264-.024.085-.081-.06 12.464c.018.025-.172-.173-.092-.092h4.242l4.048.025 7.3.053-.073.077c.035-3.745.067-6.85.091-9.032 0-1.084.025-1.936.032-2.531v-.905 12.542h-.078l-7.3-.028-4.048-.021h-4.242l-.095-.095c.032-4.502.057-8.754.081-12.464v-.085h.085l11.299.102 3.168.042h1.045l.127.053z" fill="#263238"/><path d="M66.5 133.276l-.063 10.898 14.498.084.063-10.898-14.499-.084z" fill="#E0E0E0"/><path d="M66.43 144.165l5.103-6.744 3.112 4.256 2.14-2.253 4.143 4.826-14.499-.085zm9.577-7.547a1.145 1.145 0 01-1.956.802 1.143 1.143 0 01.82-1.949 1.13 1.13 0 01.806.338 1.14 1.14 0 01.33.809z" fill="#F5F5F5"/><path d="M92.256 51.698a.505.505 0 01-.17 0l-.474.018-1.76.032c-1.482 0-3.52.024-5.794.024-2.274 0-4.312 0-5.794-.024l-1.76-.032-.479-.018a.47.47 0 01-.165 0 .615.615 0 01.165-.017h.479l1.76-.028c1.482-.018 3.52-.029 5.794-.029 2.274 0 4.312 0 5.794.029l1.76.028h.475a.658.658 0 01.169.017zm23.035 68.915l-1.535-1.542-1.468 1.461v-4.414h2.999l.004 4.495zm-1.535-1.732l.046.046 1.355 1.358v-4.026h-2.732v3.949l1.331-1.327zm-37.488 1.267l-.704-.32a1.819 1.819 0 01-2.333-.73 1.814 1.814 0 01.506-2.391 1.817 1.817 0 012.38 2.723l.15.718zm-1.68-3.889a1.862 1.862 0 00-1.309.555 1.854 1.854 0 00-.533 1.319 1.859 1.859 0 001.875 1.843 1.93 1.93 0 00.894-.282l.031-.018.528.236-.12-.521.025-.024a1.858 1.858 0 00.326-2.011 1.857 1.857 0 00-1.716-1.097zm6.298 3.583l-.823-2.01-1.542-1.408 3.745-.028-1.38 3.446zm-2.017-3.284l1.317 1.207.704 1.711 1.175-2.943-3.196.025z" fill="#263238"/><path d="M82.192 116.39l-2.042 1.328.075.115 2.041-1.328-.074-.115z" fill="#263238"/><path d="M70.376 116.864a1.16 1.16 0 00-2.285.074 1.159 1.159 0 00-2.284-.039c-.053.398.049.802.285 1.127.236.32.511.61.82.862.419.352.802.704 1.221 1.081.409-.373.76-.725 1.172-1.102.305-.256.575-.549.807-.873a1.57 1.57 0 00.264-1.13z" fill="#0075FF"/><path d="M70.034 54.24a2.541 2.541 0 100-5.083 2.541 2.541 0 000 5.083z" fill="#EBEBEB"/><path d="M114.333 106.04c0 .053-10.651.095-23.788.095-13.136 0-23.792-.042-23.792-.095s10.652-.092 23.792-.092c13.14 0 23.788.043 23.788.092zm0-3.96c0 .049-10.651.092-23.788.092-13.136 0-23.792-.043-23.792-.092s10.652-.092 23.792-.092c13.14 0 23.788.043 23.788.092zm-21.683 7.976c0 .05-5.797.092-12.947.092-7.149 0-12.95-.042-12.95-.092 0-.049 5.798-.091 12.95-.091 7.153 0 12.947.042 12.947.091z" fill="#455A64"/><path d="M89.457 153.222a1.012 1.012 0 01-1.739.691 1.02 1.02 0 01-.207-1.105 1.016 1.016 0 01.94-.617 1.018 1.018 0 011.007 1.031zm3.119.014a1.01 1.01 0 11-2.02-.042 1.01 1.01 0 012.02.042zm3.144.014a1.01 1.01 0 11-.618-.949 1.006 1.006 0 01.545.558c.05.124.074.257.072.391z" fill="#263238"/><path d="M120.25 56.725H63.955V91.15h56.295V56.725z" fill="#E0E0E0"/><path d="M69.154 91.16l16.129-21.59 10.004 13.502 6.776-7.223 13.295 15.298-46.204.014zm30.371-24.241a3.64 3.64 0 11-7.28.007 3.64 3.64 0 017.28-.007z" fill="#F5F5F5"/><path d="M120.099 123.147l-.085-77.876.085.084H63.811l.091-.091v77.876l-.077-.074 56.295.074-56.295.078h-.074v-.078c0-21.799 0-48.752-.018-77.876v-.092h56.471v.081l-.042 56.243c0 6.85-.017 12.26-.021 15.963v5.308c0 .246-.042.38-.042.38z" fill="#263238"/><path d="M93.632 132.81l1.246-4.186c.218-.908.507-1.978.894-3.199.352-1.099 1.246-2.253 2.063-3.084 1.27-1.292 1.876-1.299 2.728-1.985.077-.049.165-.123.239-.162a1.34 1.34 0 00.415-.352c.736-.796.029-2.031-1.467-1.911-1.123.088-2.96.408-5.946 3.488-.038.049-.077.088-.112.134-1.567 2.038-3.038-3.777-3.306-5.942a2.262 2.262 0 00-3.066-1.76l-7.272 3.4a3.405 3.405 0 00-2.112.071 2.164 2.164 0 00-1.387 2.566l2.954 11.76-8.663 28.829h18.673l4.119-27.667z" fill="#FFBE9D"/><path d="M107.994 106.332l-5.773 11.313-2.887-.802-14.502 11.802a2.931 2.931 0 01-4.08-.352l-5.526-6.417s11.14-4.797 13.2-8.768c2.059-3.97-.32-4.875-.32-4.875l5.24-5.956 14.648 4.055zm-7.488-23.105s-8.448-1.87-20.342-13.302C68.27 58.492 62.688 43.296 61.248 43.38c-1.44.084-7.811-2.876-19.899 23.415-12.087 26.29-7.325 32.383-4.928 32.348 2.398-.035 18.734-4.6 28.935-3.442 10.2 1.158 23.313 6.477 23.313 6.477l11.837-18.952z" fill="#0075FF"/><path d="M118.455 97.557l-2.883 5.48-1.292 2.464a7.153 7.153 0 01-9.324 3.168l-18.11-6.311 10.56-24.077 18.092 9.642a7.152 7.152 0 012.957 9.634z" fill="#0075FF"/><path opacity=".4" d="M118.455 97.557l-2.883 5.48-1.292 2.464a7.153 7.153 0 01-9.324 3.168l-18.11-6.311 10.56-24.077 18.092 9.642a7.152 7.152 0 012.957 9.634z" fill="#000"/><path d="M42.314 67.274c-6.431 14.242-9.11 26.935-5.984 28.347 3.126 1.411 10.88-8.987 17.311-23.232 6.431-14.246 9.11-26.932 5.984-28.347-3.126-1.415-10.88 8.99-17.311 23.232z" fill="#0075FF"/><path opacity=".5" d="M42.314 67.274c-6.431 14.242-9.11 26.935-5.984 28.347 3.126 1.411 10.88-8.987 17.311-23.232 6.431-14.246 9.11-26.932 5.984-28.347-3.126-1.415-10.88 8.99-17.311 23.232z" fill="#000"/><path d="M120.011 105.477l-4.911-1.542 3.038-5.773 3.682 2.288-1.809 5.027z" fill="#0075FF"/><path opacity=".6" d="M118.138 98.162l-3.038 5.773 1.011.317 2.467-5.819-.44-.27z" fill="#000"/><path d="M114.752 99.493c-.07.158-2.52-.792-5.47-2.112-2.95-1.32-5.28-2.545-5.213-2.704.067-.158 2.52.796 5.473 2.13 2.954 1.334 5.284 2.527 5.21 2.686zm1.513-3.439c-.077.155-2.295-.778-4.952-2.088-2.658-1.309-4.749-2.495-4.671-2.654.077-.158 2.291.778 4.949 2.088 2.657 1.31 4.752 2.495 4.674 2.654zm-3.414 7.047c-.025.084-.609-.049-1.538-.352a70.003 70.003 0 01-1.626-.535c-.609-.208-1.232-.539-1.905-.845-2.686-1.246-4.738-2.464-4.671-2.612.067-.148 2.274.806 4.928 2.042.669.302 1.289.633 1.873.876.584.243 1.109.458 1.549.655.88.405 1.415.686 1.39.771zM55.426 64.11s-7.343-4.555-11.36 5.368C40.05 79.4 47.774 81.03 47.774 81.03a66.045 66.045 0 007.653-16.92z" fill="#0075FF"/><path opacity=".5" d="M63.237 52.283c.046 0-.06.682-.285 1.897a164.73 164.73 0 01-1.035 5.132l-1.021 3.474c-.185.622-.377 1.266-.574 1.933l-.299 1.01c-.11.352-.253.672-.38 1.014l-1.658 4.28c-.144.373-.292.746-.437 1.123-.144.377-.352.736-.517 1.109l-1.091 2.252-1.095 2.25c-.186.352-.352.746-.553 1.091-.2.345-.411.704-.612 1.038l-2.34 3.953c-.19.31-.353.63-.564.926l-.609.862-1.169 1.648-2.112 2.946c-1.408 1.7-2.583 3.041-3.393 3.974a11.53 11.53 0 01-1.313 1.408c.331-.55.708-1.07 1.127-1.556.781-.996 1.883-2.39 3.234-4.104l2.025-2.967 1.133-1.651c.197-.282.394-.57.595-.863.2-.292.352-.612.545-.925l2.313-3.95.602-1.035c.208-.352.352-.704.546-1.084l1.084-2.235c.352-.757.728-1.5 1.087-2.235.17-.352.373-.725.514-1.099l.44-1.112 1.683-4.224c.13-.352.278-.665.39-1.003.113-.338.208-.669.31-1l.599-1.911 1.08-3.432 1.222-5.069c.122-.636.299-1.26.528-1.865z" fill="#000"/><path opacity=".4" d="M76.979 121.088c.672 1.218 1.355 2.464 2.344 3.425.99.961 2.34 1.644 3.749 1.503 1.408-.141 2.693-1.288 2.707-2.675.662.496 1.679.229 2.228-.394.55-.623.729-1.486.792-2.313.901.531 2.154.113 2.756-.743a3.563 3.563 0 00.352-3.013c-.343-.99-.83-1.923-1.447-2.77.704.056 1.43.105 2.049-.208.62-.313 1.056-1.137.68-1.728a1.7 1.7 0 00-1.01-.644c-1.088-.352-1.849-.613-2.982-.483-.26 0 .454 2.985-6.646 7.062-4.213 2.411-5.572 2.981-5.572 2.981z" fill="#000"/><path d="M92.967 125.382c0 .032-.476-.059-1.243-.038a7.034 7.034 0 00-5.217 2.502c-.496.585-.704 1.011-.75.993.03-.11.076-.214.138-.31.15-.268.321-.524.51-.767a6.691 6.691 0 015.319-2.549c.307.002.613.031.915.085a.977.977 0 01.328.084z" fill="#EB996E"/><path d="M77.44 119.184c1.144 1.098 1.925 2.312 3.126 3.418.545.503 1.408 1.453 2.112 1.58.704.127 1.197.032 1.485-.651.236-.553-.186-1.31-.475-1.76-.764-1.2-1.496-2.137-2.066-3.07-.271-.436.077-.528.204-.323.549.57 1.373 1.056 1.866 1.686.675.848.795 1.978 2.562 1.619.236-.038.46-.131.655-.271.665-.511.704-1.408.415-2.112a5.74 5.74 0 00-.986-1.486c.754.849 1.574 1.76 2.77 1.838a1.644 1.644 0 001.673-.905c.352-.802-.152-1.58-.662-2.207a23.075 23.075 0 00-3.003-3.069 2.295 2.295 0 00-1.457-.539c-.62 0-1.408.113-1.76.648a2.408 2.408 0 00-.482 1.841s-1.549-.785-2.795.035a3.964 3.964 0 00-1.556 2.239l-1.626 1.489z" fill="#FFBE9D"/><path d="M85.694 112.594a1.856 1.856 0 01-.218-2.112c.264-.517.595-1.021.933-1.133 1.475-.497 7.923.619 7.864 2.048-.06 1.43-.532 2.112-4.027 1.609-.616-.088-1.58-.208-1.58-.208l-.846 1.268-2.126-1.472z" fill="#FFBE9D"/><path d="M86.849 118.585a8.41 8.41 0 00-3.552-3.22c.24.038.471.119.683.239a6.129 6.129 0 012.563 2.323c.142.199.245.422.306.658zm1.084-4.396c-.032.028-.458-.317-1.039-.672a7.494 7.494 0 00-.753-.419c-.2-.092-.334-.117-.33-.145.003-.028.15-.042.372.025.286.092.558.221.81.384.595.362.986.788.94.827zm1.084-1.331c-.42.049-.845.001-1.242-.141a2.302 2.302 0 01-.796-.429c-.176-.151-.25-.275-.232-.292.338.219.7.398 1.08.535.404.082.801.192 1.19.327zm-6.266 7.498a4.557 4.557 0 01-.587-.764 6.856 6.856 0 00-1.503-1.711 3.025 3.025 0 00-2.133-.563c-.31.056-.613.151-.898.285 0 0 .063-.074.208-.162a1.98 1.98 0 01.668-.253 3.012 3.012 0 012.26.545 6.114 6.114 0 011.507 1.785c.183.265.343.546.478.838zm4.932 14.256c-.868.185-1.748.31-2.633.376-.88.128-1.768.194-2.657.198.869-.185 1.75-.311 2.636-.377.88-.125 1.766-.191 2.654-.197z" fill="#EB996E"/><path d="M143.134 17.544l.398.728.725.398-.725.398-.398.725-.398-.725-.725-.398.725-.398.398-.728zm8.311 18.012l.397.728.725.398-.725.398-.397.725-.398-.725-.729-.398.729-.398.398-.728zM18.269 83.61l.398.73.728.397-.728.394-.398.729-.398-.729-.725-.394.725-.398.398-.728zm113.963-61.589l.919 1.68 1.679.918-1.679.915-.919 1.68-.915-1.68-1.679-.915 1.679-.919.915-1.679zM25.717 72.195l.915 1.672 1.676.915-1.676.92-.915 1.671-.915-1.672-1.675-.919 1.675-.915.915-1.672zm127.988 39.938l.915 1.676 1.672.915-1.672.915-.915 1.676-.916-1.676-1.675-.915 1.675-.915.916-1.676z" fill="#0075FF"/></svg>